<?xml version="1.0" standalone="no"?>
<!DOCTYPE svg PUBLIC "-//W3C//DTD SVG 1.1//EN" "http://www.w3.org/Graphics/SVG/1.1/DTD/svg11.dtd">
<svg xmlns="http://www.w3.org/2000/svg">
<defs >
<font id="KantumruyPro" horiz-adv-x="625" ><font-face
    font-family="Kantumruy Pro ExtraLight"
    units-per-em="1000"
    panose-1="0 0 0 0 0 0 0 0 0 0"
    ascent="920"
    descent="-260"
    alphabetic="0" />
<glyph unicode=" " glyph-name="space" horiz-adv-x="300" />
<glyph unicode="!" glyph-name="exclam" horiz-adv-x="209" d="M74 182L101 324L179 660H217L140 324L102 182H74ZM52 -6Q38 -6 29 2T20 25Q20 42 30 53T56 64Q70 64 79 56T88 33Q88 15 78 5T52 -6Z" />
<glyph unicode="&quot;" glyph-name="quotedbl" horiz-adv-x="290" d="M326 683L275 497H244L286 683H326ZM210 683L159 497H128L170 683H210Z" />
<glyph unicode="#" glyph-name="numbersign" horiz-adv-x="592" d="M282 0L502 660H535L315 0H282ZM33 204V233H540L539 204H33ZM74 0L294 660H327L108 0H74ZM93 434V463H596V434H93Z" />
<glyph unicode="$" glyph-name="dollar" horiz-adv-x="584" d="M293 0Q228 0 175 24T87 92T39 190L73 204Q83 153 114 114T193 53T296 31Q349 31 389 50T451 103T473 179Q473 215 457 238T411 276T346 301L283 319Q240 331 204 351T146 404T124 482Q124 535 150
575T226 637T341 660Q403 660 446 640T518 585T560 504L527 488Q516 533 491 564T428 613T338 630Q257 630 208 590T159 486Q159 432 196 401T292 353L360 333Q401 322 434 303T488 255T508 183Q508 128 481 87T405 23T293 0ZM195 -100L395 760H427L228 -100H195Z"
/>
<glyph unicode="%" glyph-name="percent" horiz-adv-x="796" d="M97 0L694 660H735L139 0H97ZM220 321Q159 321 125 359T91 460Q91 517 111 562T171 635T263 663Q324 663 356 624T389 524Q389 470 369 424T311 349T220 321ZM223 350Q267 350 296 374T340 437T355
521Q355 572 331 603T260 634Q217 634 187 611T140 548T124 463Q124 411 151 381T223 350ZM574 -3Q512 -3 479 36T445 137Q445 193 465 239T524 312T617 339Q677 339 709 300T741 200Q741 146 722 100T665 25T574 -3ZM577 26Q620 26 649 51T693 115T708 198Q708
249 684 279T613 310Q570 310 540 287T494 224T478 139Q478 87 504 57T577 26Z" />
<glyph unicode="&amp;" glyph-name="ampersand" horiz-adv-x="546" d="M209 -9Q124 -9 75 34T25 154Q25 212 49 250T118 314T225 363L240 369Q292 390 333 413T397 469T421 547Q421 588 397 613T331 638Q284 638 252 603T219 513Q219 482 229 437T258 339T305
231Q346 154 381 108T450 40T515 19L509 -10V-10Q450 -10 393 44T277 213Q250 266 229 320T197 423T185 511Q185 558 204 593T256 647T333 667Q391 667 422 634T454 551Q454 495 427 457T352 391T244 341L238 339Q183 319 143 295T81 239T59 156Q59 92 101 57T209
21Q259 21 298 39T372 90L381 97Q424 142 452 207T489 351L521 349Q512 267 480 194T399 73L390 66Q353 32 308 12T209 -9Z" />
<glyph unicode="&apos;" glyph-name="quotesingle" horiz-adv-x="175" d="M210 683L159 497H128L170 683H210Z" />
<glyph unicode="(" glyph-name="parenleft" horiz-adv-x="281" d="M144 -176Q101 -104 79 -12T56 176Q56 263 77 347T137 506T233 642T359 744L374 720Q283 662 220 575T124 385T91 174Q91 85 109 0T168 -161L144 -176Z" />
<glyph unicode=")" glyph-name="parenright" horiz-adv-x="281" d="M141 744Q185 671 207 579T229 391Q229 304 208 220T148 61T52 -75T-74 -176L-89 -153Q3 -95 66 -8T161 182T194 394Q194 483 176 568T117 728L141 744Z" />
<glyph unicode="*" glyph-name="asterisk" horiz-adv-x="522" d="M397 304L343 416L316 485L260 424L161 328L140 350L239 446L301 500L232 529L120 582L134 610L247 556L312 520L325 601L352 730H385L356 596L334 518L411 537L540 563L543 533L414 506L336 495L372
430L425 318L397 304Z" />
<glyph unicode="+" glyph-name="plus" horiz-adv-x="604" d="M389 551L280 75H245L354 551H389ZM557 333L549 300H78L86 333H557Z" />
<glyph unicode="," glyph-name="comma" horiz-adv-x="194" d="M52 64Q71 64 81 51T91 18Q91 -10 77 -39T37 -90T-22 -120L-33 -95Q-3 -89 18 -73T50 -37T64 4L63 5Q59 -1 54 -4T41 -7Q27 -7 20 3T12 25Q12 42 23 53T52 64Z" />
<glyph unicode="-" glyph-name="hyphen" horiz-adv-x="446" d="M379 286L371 249H75L83 286H379Z" />
<glyph unicode="." glyph-name="period" horiz-adv-x="197" d="M45 -6Q32 -6 23 2T13 25Q13 42 23 53T50 64Q64 64 73 56T82 33Q82 15 72 5T45 -6Z" />
<glyph unicode="/" glyph-name="slash" horiz-adv-x="371" d="M449 730L-4 -70H-42L411 730H449Z" />
<glyph unicode="0" glyph-name="zero" horiz-adv-x="587" d="M273 -7Q207 -7 162 25T93 112T69 240Q69 278 73 317T86 391Q105 469 141 531T232 631T357 668Q421 668 465 636T532 549T554 422Q554 382 550 345T538 273Q520 195 484 132T394 31T273 -7ZM277 25Q335
25 379 60T455 152T502 279Q510 313 514 349T518 422Q518 523 475 579T354 636Q293 636 247 602T169 511T122 385Q106 313 106 240Q106 137 152 81T277 25Z" />
<glyph unicode="1" glyph-name="one" horiz-adv-x="312" d="M121 0L244 536Q247 549 250 563T258 591T265 611Q243 584 213 561T150 522T86 499L87 533Q119 543 155 561T223 605T278 660H310L157 0H121Z" />
<glyph unicode="2" glyph-name="two" horiz-adv-x="525" d="M10 0L18 34Q113 104 192 163T331 278T422 388T455 503Q455 575 416 606T316 637Q245 637 195 590T125 468L97 489Q119 568 175 619T318 670Q371 670 409 652T470 599T492 510Q492 445 458 385T365 268T230
153T70 33V32Q79 33 90 33T110 33H433L425 0H10Z" />
<glyph unicode="3" glyph-name="three" horiz-adv-x="506" d="M228 -10Q146 -10 93 37T24 167L61 178Q71 108 115 66T231 23Q283 23 322 44T383 104T404 189Q404 248 367 283T262 318Q256 318 250 318T236 317L243 352Q253 351 260 351T275 351Q329 351 367 371T427
425T448 505Q448 570 408 604T309 638Q244 638 201 607T134 520L103 539Q131 604 186 637T312 671Q362 671 400 651T461 596T483 510Q483 461 462 423T406 361T328 333V332Q378 322 409 286T441 192Q441 131 413 86T337 15T228 -10Z" />
<glyph unicode="4" glyph-name="four" horiz-adv-x="507" d="M269 0L314 195H21L28 226Q36 235 43 245T68 275L407 660H458L357 226H479L471 195H350L304 0H269ZM64 226H321L414 625L110 277Q96 260 85 249T64 226Z" />
<glyph unicode="5" glyph-name="five" horiz-adv-x="520" d="M245 -10Q187 -10 143 15T73 79T42 165L79 174Q83 135 103 101T160 45T248 23Q305 23 344 51T405 125T426 224Q426 301 382 340T273 379Q227 379 192 362T132 323L102 334L203 660H524L516 627H226L145
357Q168 379 206 394T287 409Q337 409 376 389T439 328T463 228Q463 163 437 109T361 22T245 -10Z" />
<glyph unicode="6" glyph-name="six" horiz-adv-x="528" d="M270 -10Q204 -10 159 21T92 108T69 241Q69 322 88 398T144 535T238 632T369 668Q430 668 476 636T536 539L502 527Q491 578 453 606T366 635Q306 635 259 605T178 522T127 401T104 258Q122 324 175
361T299 399Q379 399 428 350T477 214Q477 148 451 98T379 19T270 -10ZM273 23Q323 23 360 46T419 112T441 208Q441 282 400 324T286 367Q237 367 198 343T136 279T113 192Q113 163 122 133T151 78T201 38T273 23Z" />
<glyph unicode="7" glyph-name="seven" horiz-adv-x="474" d="M113 660H543L534 627Q446 545 377 450T257 243T177 0H137Q179 183 271 345T509 639L508 627H104L113 660Z" />
<glyph unicode="8" glyph-name="eight" horiz-adv-x="563" d="M260 -9Q200 -9 151 13T73 75T44 170Q44 229 72 268T148 330T247 354L260 345Q229 353 202 373T160 424T144 490Q144 541 168 582T238 647T343 671Q399 671 441 651T507 594T531 511Q531 440 486 391T359
334L352 342Q389 335 419 312T467 256T485 184Q485 124 458 81T380 14T260 -9ZM266 24Q350 24 399 65T448 178Q448 222 424 256T359 309T265 328Q217 328 175 310T107 258T81 173Q81 126 106 93T173 42T266 24ZM335 358Q382 358 418 376T474 429T494 506Q494 565
453 602T341 639Q292 639 256 619T200 566T180 491Q180 456 200 426T256 377T335 358Z" />
<glyph unicode="9" glyph-name="nine" horiz-adv-x="544" d="M223 -10Q144 -10 94 34T28 149L64 161Q73 122 94 91T148 41T226 23Q283 23 328 53T405 137T455 259T476 405Q465 360 437 327T370 277T287 260Q231 260 190 284T125 351T102 452Q102 512 128 561T201
640T312 670Q372 670 417 642T486 559T511 426Q511 342 492 264T436 124T346 26T223 -10ZM293 292Q344 292 383 316T444 382T467 473Q467 517 448 554T393 614T310 637Q258 637 220 613T160 549T139 458Q139 384 180 338T293 292Z" />
<glyph unicode=":" glyph-name="colon" horiz-adv-x="224" d="M160 435Q148 435 141 442T133 461Q133 477 142 486T164 495Q175 495 183 488T191 468Q191 454 183 445T160 435ZM59 -4Q47 -4 39 3T31 22Q31 38 40 47T62 56Q74 56 81 49T89 29Q89 15 81 6T59 -4Z" />
<glyph unicode=";" glyph-name="semicolon" horiz-adv-x="224" d="M64 64Q83 64 93 51T103 18Q103 -10 89 -39T49 -90T-9 -120L-21 -95Q9 -89 30 -73T62 -37T76 4L75 5Q71 -1 66 -4T53 -7Q39 -7 32 3T24 25Q24 42 35 53T64 64ZM166 503Q180 503 189 495T198 472Q198
454 188 443T161 432Q147 432 138 441T129 464Q129 482 140 492T166 503Z" />
<glyph unicode="&lt;" glyph-name="less" horiz-adv-x="584" d="M572 550L563 510L111 298L465 84L456 49L78 279L88 320L572 550Z" />
<glyph unicode="=" glyph-name="equal" horiz-adv-x="604" d="M566 428L557 395H113L121 428H566ZM519 225L511 192H66L74 225H519Z" />
<glyph unicode="&gt;" glyph-name="greater" horiz-adv-x="584" d="M22 49L32 89L484 301L130 515L138 550L516 320L507 279L22 49Z" />
<glyph unicode="?" glyph-name="question" horiz-adv-x="468" d="M186 168L222 322Q297 322 345 343T418 405T443 500Q443 564 404 599T300 635Q229 635 185 599T122 508L93 529Q108 569 136 600T206 650T301 668Q355 668 395 648T457 590T480 501Q480 438 452
392T373 320T252 292L223 168H186ZM172 -6Q158 -6 149 2T139 25Q139 42 149 53T176 64Q190 64 199 56T208 33Q208 15 198 5T172 -6Z" />
<glyph unicode="@" glyph-name="at" horiz-adv-x="899" d="M441 -179Q331 -179 247 -133T117 -2T70 203Q70 309 103 392T194 534T328 622T489 653Q579 653 645 625T755 548T821 432T843 289Q843 231 830 179T792 87T734 23T662 0Q630 0 610 15T582 56T578 108Q556
65 514 37T417 9Q364 9 327 35T269 106T248 207Q248 263 264 311T310 395T379 452T466 473Q534 473 575 430T621 310L656 463H689L612 134Q610 123 609 113T607 93Q607 55 626 41T667 27Q698 27 725 48T771 107T802 191T814 288Q814 360 794 421T732 528T630 599T486
625Q409 625 340 597T217 515T132 383T101 203Q101 92 145 13T267 -109T441 -151Q515 -151 574 -133T666 -90L680 -115Q654 -132 619 -146T540 -170T441 -179ZM422 37Q475 37 515 69T579 155T603 279Q603 336 585 372T536 425T467 443Q416 443 374 413T306 330T281
208Q281 155 299 117T349 58T422 37Z" />
<glyph unicode="A" glyph-name="A" horiz-adv-x="573" d="M-42 0L359 660H404L499 0H463L431 221H132L-1 0H-42ZM153 254H426L374 621L153 254Z" />
<glyph unicode="B" glyph-name="B" horiz-adv-x="616" d="M41 0L194 660H405Q489 660 532 621T576 513Q576 465 557 426T502 362T417 329V329Q477 322 509 286T541 198Q541 104 479 52T304 0H41ZM85 33H304Q401 33 452 76T504 198Q504 231 490 256T443 297T351
313H150L85 33ZM158 346H362Q418 346 457 369T518 429T539 509Q539 566 502 596T396 627H223L158 346Z" />
<glyph unicode="C" glyph-name="C" horiz-adv-x="643" d="M336 -10Q265 -10 206 22T112 117T77 272Q77 349 98 420T160 547T262 637T402 670Q489 670 550 624T635 489L598 477Q577 557 525 597T399 637Q330 637 277 607T188 526T134 411T115 277Q115 197 145 140T226
53T338 23Q414 23 464 56T547 148L580 130Q542 64 482 27T336 -10Z" />
<glyph unicode="D" glyph-name="D" horiz-adv-x="672" d="M45 0L198 660H383Q464 660 520 626T605 531T634 393Q634 309 609 238T537 113T425 30T279 0H45ZM89 33H283Q355 33 412 60T511 137T574 250T596 389Q596 457 572 511T500 596T378 627H226L89 33Z" />
<glyph unicode="E" glyph-name="E" horiz-adv-x="571" d="M41 0L194 660H611L603 627H222L159 353H464L456 320H151L86 33H484L476 0H41Z" />
<glyph unicode="F" glyph-name="F" horiz-adv-x="530" d="M590 627H222L159 353H463L454 320H151L77 0H41L194 660H599L590 627Z" />
<glyph unicode="G" glyph-name="G" horiz-adv-x="672" d="M329 -9Q260 -9 203 23T111 118T77 271Q77 349 98 421T162 549T267 637T412 670Q467 670 514 651T596 593T651 494L615 483Q590 561 536 599T410 637Q337 637 282 607T190 526T133 410T114 276Q114 196
143 140T222 55T334 25Q388 25 435 45T517 111T569 230L580 279H363L370 311H621L547 0H517L555 169L563 175Q545 108 510 68T429 10T329 -9Z" />
<glyph unicode="H" glyph-name="H" horiz-adv-x="676" d="M671 660L518 0H482L635 660H671ZM230 660L77 0H41L194 660H230ZM582 353L574 320H134L142 353H582Z" />
<glyph unicode="I" glyph-name="I" horiz-adv-x="235" d="M230 660L77 0H41L194 660H230Z" />
<glyph unicode="J" glyph-name="J" horiz-adv-x="485" d="M178 -9Q116 -9 76 21T24 103T33 225L67 228Q40 133 70 78T181 23Q251 23 290 66T351 201L456 660H492L384 193Q374 148 358 111T317 47T258 6T178 -9Z" />
<glyph unicode="K" glyph-name="K" horiz-adv-x="557" d="M41 0L194 660H230L142 280L574 660H627L323 393L481 0H441L294 368L129 223L77 0H41Z" />
<glyph unicode="L" glyph-name="L" horiz-adv-x="525" d="M86 33H458L449 0H41L194 660H230L86 33Z" />
<glyph unicode="M" glyph-name="M" horiz-adv-x="772" d="M41 0L194 660H245L329 112L336 42V42L374 110L712 660H768L615 0H581L703 530L727 622H726L345 0H311L217 622V622L199 530L76 0H41Z" />
<glyph unicode="N" glyph-name="N" horiz-adv-x="674" d="M41 0L194 660H239L468 107L493 38V38L508 111L635 660H670L517 0H473L242 553L218 622V622L203 549L76 0H41Z" />
<glyph unicode="O" glyph-name="O" horiz-adv-x="699" d="M335 -10Q264 -10 206 23T113 120T78 276Q78 353 99 424T161 550T263 638T403 670Q474 670 531 637T623 540T658 384Q658 307 637 237T575 111T474 23T335 -10ZM340 23Q408 23 460 52T548 133T602 249T620
383Q620 464 591 520T512 607T399 637Q330 637 277 608T188 527T134 412T115 277Q115 197 145 140T226 53T340 23Z" />
<glyph unicode="P" glyph-name="P" horiz-adv-x="563" d="M41 0L194 660H364Q455 660 508 615T562 491Q562 428 533 379T451 301T322 272H126L131 305H331Q393 305 436 330T502 397T525 489Q525 553 482 590T362 627H223L77 0H41Z" />
<glyph unicode="Q" glyph-name="Q" horiz-adv-x="699" d="M414 -195Q373 -195 340 -178T289 -130T270 -56Q270 -41 273 -25T280 7L312 9Q303 -21 303 -50Q303 -102 334 -131T418 -161Q442 -161 465 -155T508 -136L512 -169Q492 -182 466 -188T414 -195ZM335 -10Q264
-10 206 23T113 120T78 276Q78 353 99 424T161 550T263 638T403 670Q474 670 531 637T623 540T658 384Q658 307 637 237T575 111T474 23T335 -10ZM340 23Q408 23 460 52T548 133T602 249T620 383Q620 464 591 520T512 607T399 637Q330 637 277 608T188 527T134
412T115 277Q115 197 145 140T226 53T340 23Z" />
<glyph unicode="R" glyph-name="R" horiz-adv-x="597" d="M41 0L194 660H392Q480 660 527 616T575 496Q575 438 550 392T480 319T368 289L352 287H133L139 320H351Q414 320 455 343T517 407T538 495Q538 555 500 591T387 627H223L77 0H41ZM464 0L355 299L392 303L503
0H464Z" />
<glyph unicode="S" glyph-name="S" horiz-adv-x="589" d="M299 -8Q230 -8 175 16T85 83T36 186L72 201Q81 146 113 107T195 46T302 25Q354 25 396 43T463 94T489 174Q489 221 455 251T359 299L276 323Q205 344 166 386T127 489Q127 540 154 581T230 647T348 671Q436
671 497 632T579 510L544 495Q532 547 504 578T435 623T346 638Q289 638 249 619T186 567T164 494Q164 446 195 411T285 358L371 333Q449 312 487 274T526 180Q526 120 495 78T412 14T299 -8Z" />
<glyph unicode="T" glyph-name="T" horiz-adv-x="528" d="M606 660L598 627H370L225 0H189L334 627H104L112 660H606Z" />
<glyph unicode="U" glyph-name="U" horiz-adv-x="659" d="M301 -10Q217 -10 164 25T91 125T92 279L181 660H217L127 270Q109 192 125 137T188 52T303 23Q393 23 446 82T526 250L621 660H656L559 239Q532 123 469 57T301 -10Z" />
<glyph unicode="V" glyph-name="V" horiz-adv-x="561" d="M637 660L245 0H201L114 660H150L220 125L230 35L277 121L597 660H637Z" />
<glyph unicode="W" glyph-name="W" horiz-adv-x="883" d="M169 0L121 660H156L199 39L510 660H556L583 37L913 660H952L598 0H552L530 487L525 621H524L455 479L213 0H169Z" />
<glyph unicode="X" glyph-name="X" horiz-adv-x="521" d="M-39 0L263 343L134 660H172L290 368L541 660H584L305 337L441 0H404L278 311L6 0H-39Z" />
<glyph unicode="Y" glyph-name="Y" horiz-adv-x="498" d="M172 0L232 256L111 660H149L219 423L256 291L360 433L533 660H577L267 254L208 0H172Z" />
<glyph unicode="Z" glyph-name="Z" horiz-adv-x="540" d="M-21 0L-14 33L528 627H124L131 660H581L574 628L32 33H462L453 0H-21Z" />
<glyph unicode="[" glyph-name="bracketleft" horiz-adv-x="292" d="M379 699H216L23 -137H185L177 -168H-18L190 730H385L379 699Z" />
<glyph unicode="\" glyph-name="backslash" horiz-adv-x="405" d="M132 730H165L287 -70H254L132 730Z" />
<glyph unicode="]" glyph-name="bracketright" horiz-adv-x="292" d="M-84 -137H78L272 699H109L117 730H313L105 -168H-91L-84 -137Z" />
<glyph unicode="^" glyph-name="asciicircum" horiz-adv-x="518" d="M58 355L351 730H388L508 355H472L364 698L98 355H58Z" />
<glyph unicode="_" glyph-name="underscore" horiz-adv-x="511" d="M431 -97L424 -130H-87L-80 -97H431Z" />
<glyph unicode="`" glyph-name="grave" horiz-adv-x="534" d="M356 736L406 583H377L319 736H356Z" />
<glyph unicode="a" glyph-name="a" horiz-adv-x="582" d="M240 -9Q181 -9 139 19T73 97T49 212Q49 274 67 328T118 424T196 487T297 510Q375 510 421 463T471 338L508 500H544L428 0H395L421 116Q395 62 349 27T240 -9ZM249 21Q294 21 331 44T395 108T438 199T453
302Q453 363 432 402T376 460T297 479Q235 479 187 444T112 349T85 212Q85 152 106 109T164 44T249 21Z" />
<glyph unicode="b" glyph-name="b" horiz-adv-x="571" d="M338 509Q395 509 436 481T499 403T521 289Q521 228 504 174T456 79T380 14T283 -10Q201 -10 154 41T102 169L63 0H27L195 730H231L154 396Q181 449 230 479T338 509ZM283 21Q342 21 387 56T459 153T486
290Q486 349 465 391T409 456T329 478Q266 478 220 442T148 343T122 200Q122 118 165 70T283 21Z" />
<glyph unicode="c" glyph-name="c" horiz-adv-x="500" d="M250 -10Q191 -10 146 18T75 96T50 211Q50 296 80 363T166 470T295 510Q343 510 380 492T441 440T473 361L437 352Q427 410 391 444T293 479Q231 479 184 443T112 347T86 213Q86 155 107 112T167 45T255
21Q306 21 347 51T409 129L441 116Q415 59 366 25T250 -10Z" />
<glyph unicode="d" glyph-name="d" horiz-adv-x="583" d="M241 -9Q182 -9 139 19T73 97T49 212Q49 275 67 329T118 424T196 487T297 510Q376 510 423 463T472 335L562 730H598L429 0H397L422 116Q397 62 351 27T241 -9ZM250 21Q295 21 332 44T397 108T439 199T454
302Q454 363 433 402T377 460T298 479Q236 479 188 445T113 350T85 212Q85 152 106 109T165 44T250 21Z" />
<glyph unicode="e" glyph-name="e" horiz-adv-x="518" d="M250 -9Q186 -9 142 21T74 101T50 212Q50 292 79 359T164 468T295 509Q350 509 389 483T450 413T471 312Q471 298 470 283T464 251H69L70 283H447L433 272Q435 284 435 293T436 311Q436 358 420 395T371
455T292 478Q243 478 205 457T140 399T100 314T86 212Q86 158 106 115T164 47T254 22Q309 22 350 49T417 121L446 102Q416 54 367 23T250 -9Z" />
<glyph unicode="f" glyph-name="f" horiz-adv-x="323" d="M57 0L194 591Q211 661 248 698T348 735Q371 735 389 728T421 710L407 679Q396 691 381 697T347 703Q296 703 269 672T226 576L209 500L206 486L93 0H57ZM71 469L79 500H366L358 469H71Z" />
<glyph unicode="g" glyph-name="g" horiz-adv-x="584" d="M200 -215Q145 -215 102 -196T30 -139T-7 -51L29 -39Q42 -110 87 -147T203 -184Q255 -184 292 -165T355 -105T394 -2L429 148L430 134Q409 81 359 46T242 11Q186 11 143 37T75 112T50 228Q50 286 67 337T115
427T192 488T292 510Q355 510 397 479T457 395T467 276L460 282L510 500H546L428 -9Q405 -112 349 -163T200 -215ZM250 42Q313 42 358 77T427 171T451 297Q451 359 430 399T372 459T293 479Q229 479 183 444T112 352T86 228Q86 141 131 92T250 42Z" />
<glyph unicode="h" glyph-name="h" horiz-adv-x="553" d="M27 0L197 730H233L150 372L142 371Q164 432 217 471T344 510Q399 510 436 485T488 411T487 296L418 0H382L450 295Q471 384 438 431T336 479Q281 479 239 454T170 386T131 289L63 0H27Z" />
<glyph unicode="i" glyph-name="i" horiz-adv-x="207" d="M179 500L63 0H27L143 500H179ZM189 597Q175 597 167 606T158 627Q158 645 168 655T193 665Q207 665 215 657T224 635Q224 618 214 608T189 597Z" />
<glyph unicode="j" glyph-name="j" horiz-adv-x="194" d="M-106 -215Q-126 -215 -145 -209T-176 -192L-162 -160Q-151 -169 -137 -174T-106 -180Q-66 -180 -40 -151T0 -63L131 500H167L34 -74Q18 -142 -17 -178T-106 -215ZM433 597Q419 597 411 606T402 627Q402
645 412 655T437 665Q451 665 459 657T468 635Q468 618 458 608T433 597Z" />
<glyph unicode="k" glyph-name="k" horiz-adv-x="478" d="M513 500L260 291L250 284L77 141L85 189L460 500H513ZM232 730L63 0H27L196 730H232ZM264 309L404 0H365L234 291L264 309Z" />
<glyph unicode="l" glyph-name="l" horiz-adv-x="254" d="M116 -8Q69 -8 54 27T53 127L192 730H228L88 123Q77 77 86 50T130 23Q155 23 173 30L163 1Q154 -4 143 -6T116 -8Z" />
<glyph unicode="m" glyph-name="m" horiz-adv-x="913" d="M27 0L143 500H177L148 369L142 371Q164 433 217 471T349 510Q404 510 440 485T490 412T487 295L418 0H382L451 294Q471 384 440 431T340 479Q282 479 240 454T171 386T131 289L63 0H27ZM737 0L805 294Q826
384 795 431T695 479Q637 479 594 453T524 383T484 284L485 361Q513 430 569 470T703 510Q760 510 796 485T845 411T842 295L773 0H737Z" />
<glyph unicode="n" glyph-name="n" horiz-adv-x="553" d="M27 0L143 500H177L148 369L142 371Q164 432 217 471T344 510Q400 510 437 485T489 411T487 296L418 0H382L450 295Q471 384 438 431T336 479Q281 479 239 454T170 386T131 289L63 0H27Z" />
<glyph unicode="o" glyph-name="o" horiz-adv-x="549" d="M256 -9Q190 -9 144 21T74 101T50 213Q50 299 81 366T168 471T294 509Q361 509 406 479T475 399T498 288Q498 202 467 135T382 29T256 -9ZM256 22Q317 22 363 56T435 150T462 288Q462 372 417 425T293
478Q233 478 187 444T114 351T87 213Q87 158 107 115T166 47T256 22Z" />
<glyph unicode="p" glyph-name="p" horiz-adv-x="573" d="M-22 -210L142 500H176L143 352L136 355Q159 428 214 468T340 509Q396 509 437 481T500 403T523 290Q523 228 506 174T457 79T381 14T283 -10Q225 -10 184 16T121 89T101 196L113 219L14 -210H-22ZM285
21Q344 21 389 57T461 154T487 291Q487 349 467 391T411 455T329 478Q266 478 220 442T148 343T122 200Q122 118 166 70T285 21Z" />
<glyph unicode="q" glyph-name="q" horiz-adv-x="583" d="M345 -210L426 144L424 120Q400 63 354 27T242 -9Q183 -9 140 19T74 98T50 212Q50 275 67 329T117 423T193 487T292 510Q357 510 398 478T456 393T464 279L458 284L509 500H544L380 -210H345ZM247 21Q307
21 352 56T423 153T449 294Q449 358 428 399T371 459T293 479Q234 479 187 445T113 350T86 212Q86 153 106 110T163 44T247 21Z" />
<glyph unicode="r" glyph-name="r" horiz-adv-x="338" d="M27 0L143 500H175L147 360L141 367Q167 429 211 469T317 510Q333 510 347 507T371 497L358 464Q349 471 336 474T307 477Q264 477 229 453T169 387T131 291L63 0H27Z" />
<glyph unicode="s" glyph-name="s" horiz-adv-x="475" d="M226 -10Q169 -10 126 9T58 62T26 143L60 157Q68 94 110 58T227 21Q292 21 328 53T365 135Q365 172 346 192T288 223L195 251Q147 266 119 294T90 370Q90 412 111 443T172 492T261 509Q306 509 343 495T406
450T440 371L408 357Q400 419 358 448T258 478Q197 478 161 450T125 373Q125 336 147 316T206 283L302 254Q352 239 376 211T401 140Q401 73 353 32T226 -10Z" />
<glyph unicode="t" glyph-name="t" horiz-adv-x="328" d="M181 -9Q119 -9 92 30T81 144L191 624L231 635L116 141Q103 83 122 53T187 23Q210 23 228 30T263 49L271 19Q252 5 229 -2T181 -9ZM61 469L69 500H348L339 469H61Z" />
<glyph unicode="u" glyph-name="u" horiz-adv-x="552" d="M204 -9Q147 -9 108 16T54 89T56 206L123 500H159L92 206Q72 116 106 69T213 22Q265 22 305 47T371 114T410 211L477 500H513L397 0H364L393 131L399 129Q376 66 325 29T204 -9Z" />
<glyph unicode="v" glyph-name="v" horiz-adv-x="456" d="M456 500H497L189 0H152L75 500H111L181 28L172 31L456 500Z" />
<glyph unicode="w" glyph-name="w" horiz-adv-x="752" d="M127 0L83 500H118L155 48L410 500H446L500 46L743 500H782L510 0H474L419 450L163 0H127Z" />
<glyph unicode="x" glyph-name="x" horiz-adv-x="463" d="M-37 0L219 269L227 276L436 500H481L246 250L234 239L11 0H-37ZM346 0L221 243L217 250L87 500H128L243 277L247 270L387 0H346Z" />
<glyph unicode="y" glyph-name="y" horiz-adv-x="464" d="M-20 -215Q-50 -215 -71 -207T-103 -182L-84 -154Q-73 -169 -57 -176T-20 -184Q15 -184 44 -161T105 -86L158 1L76 500H112L175 105L184 39L225 107L464 500H505L134 -100Q108 -142 84 -167T35 -203T-20 -215Z" />
<glyph unicode="z" glyph-name="z" horiz-adv-x="462" d="M-13 0L-6 30L372 423L420 470L351 469H92L99 500H471L463 469L109 101L39 31H124H379L371 0H-13Z" />
<glyph unicode="{" glyph-name="braceleft" horiz-adv-x="282" d="M146 -176Q91 -176 66 -144T53 -58L107 174Q117 222 94 245T25 269H19L26 299H35Q84 299 115 321T155 384L213 638Q224 685 257 714T344 744H366L360 715H345Q301 715 278 693T245 630L188 379Q181
346 153 317T81 281Q119 271 134 243T140 174L87 -59Q78 -102 96 -124T153 -149H160L154 -176H146Z" />
<glyph unicode="|" glyph-name="bar" horiz-adv-x="188" d="M221 730L13 -168H-19L189 730H221Z" />
<glyph unicode="}" glyph-name="braceright" horiz-adv-x="283" d="M-79 -176L-73 -148H-58Q-14 -148 9 -126T42 -63L99 188Q106 222 134 250T206 286Q167 296 153 324T146 394L200 626Q210 668 192 691T133 716H126L133 744H141Q196 744 221 712T234 625L180
394Q170 346 193 322T261 299H268L261 268H252Q203 268 172 246T132 184L74 -70Q63 -118 31 -147T-58 -176H-79Z" />
<glyph unicode="~" glyph-name="asciitilde" horiz-adv-x="498" d="M485 391Q474 354 454 329T409 292T356 280Q324 280 302 291T261 317T224 343T178 354Q147 354 123 335T86 276H51Q63 314 83 338T128 375T183 388Q212 388 233 377T272 351T310 325T358 314Q423
314 451 391H485Z" />
<glyph unicode="&#xa0;" glyph-name="uni00A0" horiz-adv-x="300" />
<glyph unicode="&#xa1;" glyph-name="exclamdown" horiz-adv-x="202" d="M129 318L102 176L24 -160H-14L63 176L101 318H129ZM151 506Q165 506 174 498T183 475Q183 458 173 447T146 436Q133 436 124 444T115 467Q115 485 125 495T151 506Z" />
<glyph unicode="&#xa2;" glyph-name="cent" horiz-adv-x="526" d="M264 -10Q204 -10 158 18T85 96T59 210Q59 295 90 362T177 470T309 510Q357 510 395 492T459 440T492 361L456 352Q447 410 408 445T307 480Q242 480 195 444T121 348T95 213Q95 155 117 112T178
44T268 20Q322 20 365 51T428 129L460 116Q434 59 383 25T264 -10ZM178 -100L340 600H370L208 -100H178Z" />
<glyph unicode="&#xa3;" glyph-name="sterling" horiz-adv-x="547" d="M78 295L85 325H407L400 295H78ZM349 -5Q308 -5 279 7T226 36T182 71T140 101T91 113Q68 113 54 100T39 67Q39 45 52 34T86 22Q117 22 144 46T187 110T203 199Q203 250 194 291T177 372T168
458Q168 522 194 569T265 644T364 671Q410 671 445 652T501 597T525 514L492 504Q488 564 454 601T363 639Q316 639 280 615T223 550T202 455Q202 412 210 374T225 296T233 201Q233 159 222 122T189 57T141 12T82 -4Q51 -4 29 15T7 65Q7 98 31 119T93 141Q124 141
148 129T193 100T236 66T284 37T347 25Q393 25 419 52T458 130L487 120Q478 82 460 54T414 11T349 -5Z" />
<glyph unicode="&#xa4;" glyph-name="currency" horiz-adv-x="602" d="M322 523Q374 523 413 500T475 434T498 335Q498 277 475 233T412 164T318 139Q265 139 226 163T164 230T141 329Q141 387 163 430T227 498T322 523ZM322 491Q257 491 217 447T177 329Q177
258 215 215T318 171Q383 171 422 216T462 335Q462 405 424 448T322 491ZM112 576L216 466L191 442L87 552L112 576ZM189 219L213 195L107 83L82 107L189 219ZM446 218L551 107L528 83L423 194L446 218ZM534 576L556 552L451 441L428 466L534 576Z" />
<glyph unicode="&#xa5;" glyph-name="yen" horiz-adv-x="560" d="M206 0L234 125H48L55 152H241L264 250H77L84 279H223L262 277L137 660H175L275 334L289 288H291L323 335L571 660H614L314 277L351 279H491L484 250H296L273 152H461L455 125H267L238 0H206Z" />
<glyph unicode="&#xa6;" glyph-name="brokenbar" horiz-adv-x="188" d="M221 730L136 365H105L189 730H221ZM98 197L13 -168H-19L66 197H98Z" />
<glyph unicode="&#xa7;" glyph-name="section" horiz-adv-x="546" d="M237 -110Q192 -110 154 -98T87 -60T42 5L75 23Q94 -27 137 -53T242 -80Q316 -80 352 -46T389 39Q389 79 368 102T305 139L180 182Q144 194 117 210T74 252T58 313Q58 360 92 395T197 434L214
417Q149 413 120 384T91 317Q91 288 104 269T141 236T195 212L316 170Q369 153 397 124T425 46Q425 3 404 -32T342 -89T237 -110ZM362 129L349 148Q405 146 438 177T472 255Q472 291 449 312T371 352L270 386Q210 406 183 437T156 520Q156 560 177 594T240 649T343
670Q382 670 418 660T483 626T529 563L498 546Q475 596 434 617T339 639Q293 639 260 623T210 581T192 523Q192 483 213 458T286 416L390 381Q451 360 478 332T505 260Q505 225 489 195T440 148T362 129Z" />
<glyph unicode="&#xa8;" glyph-name="dieresis" horiz-adv-x="534" d="M446 593Q433 593 425 601T416 622Q416 638 425 648T450 659Q464 659 472 651T480 630Q480 613 471 603T446 593ZM258 593Q245 593 237 601T229 622Q229 638 238 648T264 659Q277 659 285
651T293 630Q293 613 283 603T258 593Z" />
<glyph unicode="&#xa9;" glyph-name="copyright" horiz-adv-x="795" d="M416 -10Q316 -10 241 34T123 156T81 330Q81 427 123 504T240 625T416 670Q517 670 592 626T709 504T751 330Q751 233 709 156T592 35T416 -10ZM416 20Q506 20 574 61T680 172T718 330Q718
418 680 488T574 599T416 640Q326 640 258 599T152 488T114 330Q114 242 152 172T258 61T416 20ZM426 143Q341 143 293 192T244 328Q244 415 292 464T426 513Q484 513 522 488T578 414L550 401Q536 443 505 464T425 485Q356 485 316 444T276 328Q276 255 316 213T425
171Q474 171 508 195T555 263L582 252Q567 202 526 173T426 143Z" />
<glyph unicode="&#xaa;" glyph-name="ordfeminine" horiz-adv-x="352" d="M200 327Q148 327 117 365T86 468Q86 522 106 567T160 639T240 666Q274 666 297 649T331 600T338 523L329 508L366 660H397L320 336H292L317 441L318 427Q304 382 272 355T200 327ZM39
216L45 242H301L294 216H39ZM209 354Q245 354 271 378T311 443T325 528Q325 583 303 611T240 639Q201 639 174 614T132 550T117 469Q117 417 141 386T209 354Z" />
<glyph unicode="&#xab;" glyph-name="guillemotleft" horiz-adv-x="415" d="M277 461L81 254L80 279L180 69H143L50 265L234 461H277ZM414 461L218 254L217 279L317 69H280L187 265L371 461H414Z" />
<glyph unicode="&#xac;" glyph-name="logicalnot" horiz-adv-x="604" d="M548 318L512 162H477L512 318H548ZM552 333L545 300H83L90 333H552Z" />
<glyph unicode="&#xad;" glyph-name="uni00AD" horiz-adv-x="0" />
<glyph unicode="&#xae;" glyph-name="registered" horiz-adv-x="810" d="M424 670Q527 670 603 628T723 509T766 330Q766 228 723 152T604 33T424 -10Q321 -10 244 32T125 151T82 330Q82 432 124 508T244 627T424 670ZM332 513V143H300V513H332ZM469 320L586 143H550L442
309L469 320ZM424 640Q331 640 262 602T154 494T115 330Q115 237 153 168T261 59T424 20Q517 20 586 59T694 167T733 330Q733 424 694 493T586 601T424 640ZM453 513Q514 513 546 486T579 407Q579 356 547 329T453 300H317V325H453Q500 326 524 346T548 407Q548
447 524 467T453 488H317V513H453Z" />
<glyph unicode="&#xaf;" glyph-name="overscore" horiz-adv-x="534" d="M497 633L490 602H208L215 633H497Z" />
<glyph unicode="&#xb0;" glyph-name="degree" horiz-adv-x="385" d="M256 381Q214 381 181 399T130 450T111 526Q111 568 129 601T181 652T256 670Q300 670 332 652T383 601T401 526Q401 483 383 451T333 400T256 381ZM256 411Q307 411 338 443T369 526Q369 576
338 608T256 640Q206 640 175 608T144 526Q144 476 175 444T256 411Z" />
<glyph unicode="&#xb1;" glyph-name="plusminus" horiz-adv-x="585" d="M396 628L280 121H246L363 628H396ZM546 393L537 360H96L105 393H546ZM464 33L454 0H13L22 33H464Z" />
<glyph unicode="&#xb2;" glyph-name="uni00B2" horiz-adv-x="361" d="M93 333L100 360Q140 391 182 421T260 485T318 554T340 633Q340 669 321 688T269 707Q232 707 204 681T166 609L138 624Q151 674 185 704T271 735Q318 735 345 707T372 636Q372 590 350 551T293
479T218 417T142 360V360Q151 360 161 360T180 361H341L335 333H93Z" />
<glyph unicode="&#xb3;" glyph-name="uni00B3" horiz-adv-x="348" d="M210 327Q162 327 128 354T85 435L117 443Q124 397 148 377T211 356Q251 356 274 381T298 446Q298 483 276 501T222 520Q219 520 216 520T207 519L214 547Q220 546 225 546T235 546Q271 546
296 571T322 637Q322 671 303 689T250 707Q217 707 194 690T159 643L132 658Q147 694 178 714T251 735Q298 735 326 710T355 641Q355 599 332 569T269 531L268 530Q293 524 312 504T331 446Q331 410 315 384T271 342T210 327Z" />
<glyph unicode="&#xb4;" glyph-name="acute" horiz-adv-x="600" d="M433 736H477L348 583H313L433 736Z" />
<glyph unicode="&#xb5;" glyph-name="uni00B5" horiz-adv-x="574" d="M-22 -210L142 500H178L110 204Q91 119 125 71T233 22Q286 22 326 47T393 114T433 211L500 500H536L420 0H387L410 104Q383 52 337 22T228 -9Q172 -9 134 19T87 100V100L14 -210H-22Z" />
<glyph unicode="&#xb6;" glyph-name="paragraph" horiz-adv-x="563" d="M196 -100L273 234Q227 235 191 248T130 287T92 346T79 424Q79 496 107 548T193 630T335 660H574L398 -100H365L534 630H398L230 -100H196ZM280 265L364 630H324Q255 630 208 605T137 533T113
427Q113 353 156 309T280 265Z" />
<glyph unicode="&#xb7;" glyph-name="middot" horiz-adv-x="201" d="M124 323Q110 323 101 332T91 354Q91 372 101 383T128 394Q142 394 151 385T160 362Q160 345 150 334T124 323Z" />
<glyph unicode="&#xb8;" glyph-name="cedilla" horiz-adv-x="569" d="M248 2L273 11Q304 -8 322 -34T340 -96Q340 -130 325 -155T285 -192T229 -205Q193 -205 171 -191T139 -160L156 -137Q166 -154 184 -165T230 -177Q265 -177 287 -155T310 -95Q310 -65 294 -41T248 2Z" />
<glyph unicode="&#xb9;" glyph-name="uni00B9" horiz-adv-x="207" d="M128 333L195 627Q198 640 201 652T207 674T211 689Q195 671 168 654T110 624L113 654Q130 660 151 671T192 698T225 730H252L160 333H128Z" />
<glyph unicode="&#xba;" glyph-name="ordmasculine" horiz-adv-x="352" d="M215 326Q163 326 129 361T95 467Q95 522 115 567T170 638T251 665Q304 665 337 631T370 525Q370 471 351 425T296 353T215 326ZM43 216L49 242H299L293 216H43ZM217 353Q254 353 281
376T323 439T338 524Q338 582 314 610T250 639Q213 639 186 615T143 553T128 467Q128 409 152 381T217 353Z" />
<glyph unicode="&#xbb;" glyph-name="guillemotright" horiz-adv-x="414" d="M-4 69L192 276L193 251L93 461H130L223 265L39 69H-4ZM133 69L329 276L330 251L230 461H267L360 265L176 69H133Z" />
<glyph unicode="&#xbc;" glyph-name="onequarter" horiz-adv-x="667" d="M369 524L436 818Q439 831 442 843T448 865T452 880Q436 862 409 845T351 815L354 845Q371 851 392 862T433 889T466 921H493L401 524H369ZM14 0L613 660H654L55 0H14ZM480 -4L506 110H334L340
135Q348 145 350 148T358 157T378 180L559 393H601L541 135H612L606 110H535L509 -4H480ZM372 135H512L564 362L405 172Q399 166 395 161T385 150T372 135Z" />
<glyph unicode="&#xbd;" glyph-name="onehalf" horiz-adv-x="786" d="M369 524L436 818Q439 831 442 843T448 865T452 880Q436 862 409 845T351 815L354 845Q371 851 392 862T433 889T466 921H493L401 524H369ZM14 0L613 660H654L55 0H14ZM439 -4L446 23Q486 54
528 84T606 148T664 217T686 296Q686 332 667 351T615 370Q578 370 550 344T512 272L484 287Q497 337 531 367T617 398Q664 398 691 370T718 299Q718 253 696 214T639 142T564 80T488 23V23Q497 23 507 23T526 24H687L681 -4H439Z" />
<glyph unicode="&#xbe;" glyph-name="threequarters" horiz-adv-x="808" d="M451 518Q403 518 369 545T326 626L358 634Q365 588 389 568T452 547Q492 547 515 572T539 637Q539 674 517 692T463 711Q460 711 457 711T448 710L455 738Q461 737 466 737T476 737Q512
737 537 762T563 828Q563 862 544 880T491 898Q458 898 435 881T400 834L373 849Q388 885 419 905T492 926Q539 926 567 901T596 832Q596 790 573 760T510 722L509 721Q534 715 553 695T572 637Q572 601 556 575T512 533T451 518ZM155 0L754 660H795L196 0H155ZM621
-4L647 110H475L481 135Q489 145 491 148T499 157T519 180L700 393H742L682 135H753L747 110H676L650 -4H621ZM513 135H653L705 362L546 172Q540 166 536 161T526 150T513 135Z" />
<glyph unicode="&#xbf;" glyph-name="questiondown" horiz-adv-x="469" d="M270 328L234 175Q160 174 111 153T38 92T13 -3Q13 -67 52 -103T157 -139Q227 -139 271 -102T334 -12L363 -32Q348 -72 320 -104T251 -154T156 -172Q101 -172 61 -152T-1 -94T-23 -5Q-23
58 5 104T84 176T204 204L233 328H270ZM285 503Q299 503 308 495T317 472Q317 454 307 443T280 432Q267 432 258 441T248 464Q248 482 259 492T285 503Z" />
<glyph unicode="&#xc0;" glyph-name="Agrave" horiz-adv-x="573" d="M-42 0L359 660H404L499 0H463L431 221H132L-1 0H-42ZM153 254H426L374 621L153 254ZM375 895L417 743H389L338 895H375Z" />
<glyph unicode="&#xc1;" glyph-name="Aacute" horiz-adv-x="573" d="M-42 0L359 660H404L499 0H463L431 221H132L-1 0H-42ZM153 254H426L374 621L153 254ZM476 895H519L405 743H372L476 895Z" />
<glyph unicode="&#xc2;" glyph-name="Acircumflex" horiz-adv-x="573" d="M-42 0L359 660H404L499 0H463L431 221H132L-1 0H-42ZM153 254H426L374 621L153 254ZM449 890L523 743H491L426 865L304 743H266L409 890H449Z" />
<glyph unicode="&#xc3;" glyph-name="Atilde" horiz-adv-x="573" d="M-42 0L359 660H404L499 0H463L431 221H132L-1 0H-42ZM153 254H426L374 621L153 254ZM560 854Q547 802 522 778T467 754Q444 754 430 764T404 788T381 812T351 823Q328 823 314 805T288 753H258Q272
803 296 828T355 853Q377 853 392 843T418 819T441 795T470 784Q489 784 504 802T531 854H560Z" />
<glyph unicode="&#xc4;" glyph-name="Adieresis" horiz-adv-x="573" d="M-42 0L359 660H404L499 0H463L431 221H132L-1 0H-42ZM153 254H426L374 621L153 254ZM492 753Q479 753 471 761T462 782Q462 798 471 808T496 819Q510 819 518 811T526 790Q526 773 517 763T492
753ZM304 753Q291 753 283 761T275 782Q275 798 284 808T310 819Q323 819 331 811T339 790Q339 773 329 763T304 753Z" />
<glyph unicode="&#xc5;" glyph-name="Aring" horiz-adv-x="573" d="M-42 0L359 660H404L499 0H463L431 221H132L-1 0H-42ZM153 254H426L374 621L153 254ZM392 819Q432 819 457 795T483 736Q483 691 455 663T385 635Q345 635 319 659T293 719Q293 763 321 791T392
819ZM392 794Q361 794 341 774T321 721Q321 694 339 677T386 660Q414 660 434 680T455 734Q455 760 438 777T392 794Z" />
<glyph unicode="&#xc6;" glyph-name="AE" horiz-adv-x="869" d="M-62 0L479 660H911L903 627H545L482 351H764L757 318H474L409 33H782L774 0H364L420 241H180L-15 0H-62ZM207 274H428L509 627H495L207 274Z" />
<glyph unicode="&#xc7;" glyph-name="Ccedilla" horiz-adv-x="643" d="M336 -10Q265 -10 206 22T112 117T77 272Q77 349 98 420T160 547T262 637T402 670Q489 670 550 624T635 489L598 477Q577 557 525 597T399 637Q330 637 277 607T188 526T134 411T115 277Q115
197 145 140T226 53T338 23Q414 23 464 56T547 148L580 130Q542 64 482 27T336 -10ZM299 2L324 11Q355 -8 373 -34T391 -96Q391 -130 376 -155T336 -192T280 -205Q244 -205 222 -191T190 -160L207 -137Q217 -154 235 -165T281 -177Q316 -177 338 -155T361 -95Q361
-65 345 -41T299 2Z" />
<glyph unicode="&#xc8;" glyph-name="Egrave" horiz-adv-x="571" d="M41 0L194 660H611L603 627H222L159 353H464L456 320H151L86 33H484L476 0H41ZM387 895L429 743H401L350 895H387Z" />
<glyph unicode="&#xc9;" glyph-name="Eacute" horiz-adv-x="571" d="M41 0L194 660H611L603 627H222L159 353H464L456 320H151L86 33H484L476 0H41ZM494 895H537L423 743H390L494 895Z" />
<glyph unicode="&#xca;" glyph-name="Ecircumflex" horiz-adv-x="571" d="M41 0L194 660H611L603 627H222L159 353H464L456 320H151L86 33H484L476 0H41ZM467 890L541 743H509L444 865L322 743H284L427 890H467Z" />
<glyph unicode="&#xcb;" glyph-name="Edieresis" horiz-adv-x="571" d="M41 0L194 660H611L603 627H222L159 353H464L456 320H151L86 33H484L476 0H41ZM510 753Q497 753 489 761T480 782Q480 798 489 808T514 819Q528 819 536 811T544 790Q544 773 535 763T510
753ZM322 753Q309 753 301 761T293 782Q293 798 302 808T328 819Q341 819 349 811T357 790Q357 773 347 763T322 753Z" />
<glyph unicode="&#xcc;" glyph-name="Igrave" horiz-adv-x="235" d="M230 660L77 0H41L194 660H230ZM202 895L244 743H216L165 895H202Z" />
<glyph unicode="&#xcd;" glyph-name="Iacute" horiz-adv-x="235" d="M230 660L77 0H41L194 660H230ZM315 895H358L244 743H211L315 895Z" />
<glyph unicode="&#xce;" glyph-name="Icircumflex" horiz-adv-x="235" d="M230 660L77 0H41L194 660H230ZM284 890L358 743H326L261 865L139 743H101L244 890H284Z" />
<glyph unicode="&#xcf;" glyph-name="Idieresis" horiz-adv-x="211" d="M281 753Q269 753 262 760T254 781Q254 797 264 808T288 819Q300 819 307 812T314 791Q314 775 305 764T281 753ZM161 753Q149 753 142 760T134 781Q134 797 143 808T168 819Q180 819 187
812T194 791Q194 775 185 764T161 753ZM224 660L71 0H35L188 660H224Z" />
<glyph unicode="&#xd0;" glyph-name="Eth" horiz-adv-x="703" d="M23 317L31 350H374L367 317H23ZM56 0L209 660H394Q475 660 531 626T616 531T645 393Q645 309 620 238T548 113T436 30T290 0H56ZM100 33H294Q366 33 423 60T522 137T585 250T607 389Q607 457 583
511T511 596T389 627H237L100 33Z" />
<glyph unicode="&#xd1;" glyph-name="Ntilde" horiz-adv-x="674" d="M41 0L194 660H239L468 107L493 38V38L508 111L635 660H670L517 0H473L242 553L218 622V622L203 549L76 0H41ZM610 854Q597 802 572 778T517 754Q494 754 480 764T454 788T431 812T401 823Q378
823 364 805T338 753H308Q322 803 346 828T405 853Q427 853 442 843T468 819T491 795T520 784Q539 784 554 802T581 854H610Z" />
<glyph unicode="&#xd2;" glyph-name="Ograve" horiz-adv-x="699" d="M335 -10Q264 -10 206 23T113 120T78 276Q78 353 99 424T161 550T263 638T403 670Q474 670 531 637T623 540T658 384Q658 307 637 237T575 111T474 23T335 -10ZM340 23Q408 23 460 52T548 133T602
249T620 383Q620 464 591 520T512 607T399 637Q330 637 277 608T188 527T134 412T115 277Q115 197 145 140T226 53T340 23ZM407 895L449 743H421L370 895H407Z" />
<glyph unicode="&#xd3;" glyph-name="Oacute" horiz-adv-x="699" d="M335 -10Q264 -10 206 23T113 120T78 276Q78 353 99 424T161 550T263 638T403 670Q474 670 531 637T623 540T658 384Q658 307 637 237T575 111T474 23T335 -10ZM340 23Q408 23 460 52T548 133T602
249T620 383Q620 464 591 520T512 607T399 637Q330 637 277 608T188 527T134 412T115 277Q115 197 145 140T226 53T340 23ZM514 895H557L443 743H410L514 895Z" />
<glyph unicode="&#xd4;" glyph-name="Ocircumflex" horiz-adv-x="699" d="M335 -10Q264 -10 206 23T113 120T78 276Q78 353 99 424T161 550T263 638T403 670Q474 670 531 637T623 540T658 384Q658 307 637 237T575 111T474 23T335 -10ZM340 23Q408 23 460 52T548
133T602 249T620 383Q620 464 591 520T512 607T399 637Q330 637 277 608T188 527T134 412T115 277Q115 197 145 140T226 53T340 23ZM487 890L561 743H529L464 865L342 743H304L447 890H487Z" />
<glyph unicode="&#xd5;" glyph-name="Otilde" horiz-adv-x="699" d="M335 -10Q264 -10 206 23T113 120T78 276Q78 353 99 424T161 550T263 638T403 670Q474 670 531 637T623 540T658 384Q658 307 637 237T575 111T474 23T335 -10ZM340 23Q408 23 460 52T548 133T602
249T620 383Q620 464 591 520T512 607T399 637Q330 637 277 608T188 527T134 412T115 277Q115 197 145 140T226 53T340 23ZM598 854Q585 802 560 778T505 754Q482 754 468 764T442 788T419 812T389 823Q366 823 352 805T326 753H296Q310 803 334 828T393 853Q415
853 430 843T456 819T479 795T508 784Q527 784 542 802T569 854H598Z" />
<glyph unicode="&#xd6;" glyph-name="Odieresis" horiz-adv-x="699" d="M335 -10Q264 -10 206 23T113 120T78 276Q78 353 99 424T161 550T263 638T403 670Q474 670 531 637T623 540T658 384Q658 307 637 237T575 111T474 23T335 -10ZM340 23Q408 23 460 52T548
133T602 249T620 383Q620 464 591 520T512 607T399 637Q330 637 277 608T188 527T134 412T115 277Q115 197 145 140T226 53T340 23ZM530 753Q517 753 509 761T500 782Q500 798 509 808T534 819Q548 819 556 811T564 790Q564 773 555 763T530 753ZM342 753Q329 753
321 761T313 782Q313 798 322 808T348 819Q361 819 369 811T377 790Q377 773 367 763T342 753Z" />
<glyph unicode="&#xd7;" glyph-name="multiply" horiz-adv-x="604" d="M103 123L82 150L520 505L541 478L103 123ZM435 123L161 484L188 505L462 144L435 123Z" />
<glyph unicode="&#xd8;" glyph-name="Oslash" horiz-adv-x="699" d="M173 78L155 99L572 573L589 552L173 78ZM56 -12L155 99L173 78L94 -12H56ZM589 552L572 573L660 674H698L589 552ZM335 -10Q264 -10 206 23T113 120T78 276Q78 353 99 424T161 550T263 638T403
670Q474 670 531 637T623 540T658 384Q658 307 637 237T575 111T474 23T335 -10ZM340 23Q408 23 460 52T548 133T602 249T620 383Q620 464 591 520T512 607T399 637Q330 637 277 608T188 527T134 412T115 277Q115 197 145 140T226 53T340 23Z" />
<glyph unicode="&#xd9;" glyph-name="Ugrave" horiz-adv-x="659" d="M301 -10Q217 -10 164 25T91 125T92 279L181 660H217L127 270Q109 192 125 137T188 52T303 23Q393 23 446 82T526 250L621 660H656L559 239Q532 123 469 57T301 -10ZM405 861L447 709H419L368 861H405Z" />
<glyph unicode="&#xda;" glyph-name="Uacute" horiz-adv-x="659" d="M301 -10Q217 -10 164 25T91 125T92 279L181 660H217L127 270Q109 192 125 137T188 52T303 23Q393 23 446 82T526 250L621 660H656L559 239Q532 123 469 57T301 -10ZM509 861H552L438 709H405L509 861Z" />
<glyph unicode="&#xdb;" glyph-name="Ucircumflex" horiz-adv-x="659" d="M301 -10Q217 -10 164 25T91 125T92 279L181 660H217L127 270Q109 192 125 137T188 52T303 23Q393 23 446 82T526 250L621 660H656L559 239Q532 123 469 57T301 -10ZM485 856L559 709H527L462
831L340 709H302L445 856H485Z" />
<glyph unicode="&#xdc;" glyph-name="Udieresis" horiz-adv-x="659" d="M301 -10Q217 -10 164 25T91 125T92 279L181 660H217L127 270Q109 192 125 137T188 52T303 23Q393 23 446 82T526 250L621 660H656L559 239Q532 123 469 57T301 -10ZM528 719Q515 719 507
727T498 748Q498 764 507 774T532 785Q546 785 554 777T562 756Q562 739 553 729T528 719ZM340 719Q327 719 319 727T311 748Q311 764 320 774T346 785Q359 785 367 777T375 756Q375 739 365 729T340 719Z" />
<glyph unicode="&#xdd;" glyph-name="Yacute" horiz-adv-x="498" d="M172 0L232 256L111 660H149L219 423L256 291L360 433L533 660H577L267 254L208 0H172ZM435 861H478L364 709H331L435 861Z" />
<glyph unicode="&#xde;" glyph-name="Thorn" horiz-adv-x="555" d="M99 133L105 167H305Q368 167 411 192T477 259T500 353Q500 415 457 452T337 489H180L186 521H339Q430 521 483 476T536 353Q536 290 508 241T427 162T301 133H99ZM41 0L194 660H230L77 0H41Z" />
<glyph unicode="&#xdf;" glyph-name="germandbls" horiz-adv-x="542" d="M277 -10Q240 -10 212 1T166 26L180 57Q197 42 222 33T280 23Q334 23 372 48T429 115T449 211Q449 283 407 323T284 364Q282 364 278 364T270 364L278 396Q288 395 296 395T314 395Q371
395 413 417T478 479T502 568Q502 606 488 636T444 684T366 702Q294 702 249 659T184 526L63 0H27L151 539Q174 638 229 686T371 735Q428 735 464 713T519 654T538 573Q538 521 515 478T451 408T353 376V375Q392 370 421 349T466 293T483 213Q483 148 459 98T389
19T277 -10Z" />
<glyph unicode="&#xe0;" glyph-name="agrave" horiz-adv-x="582" d="M240 -9Q181 -9 139 19T73 97T49 212Q49 274 67 328T118 424T196 487T297 510Q375 510 421 463T471 338L508 500H544L428 0H395L421 116Q395 62 349 27T240 -9ZM249 21Q294 21 331 44T395 108T438
199T453 302Q453 363 432 402T376 460T297 479Q235 479 187 444T112 349T85 212Q85 152 106 109T164 44T249 21ZM295 736L345 583H316L258 736H295Z" />
<glyph unicode="&#xe1;" glyph-name="aacute" horiz-adv-x="582" d="M240 -9Q181 -9 139 19T73 97T49 212Q49 274 67 328T118 424T196 487T297 510Q375 510 421 463T471 338L508 500H544L428 0H395L421 116Q395 62 349 27T240 -9ZM249 21Q294 21 331 44T395 108T438
199T453 302Q453 363 432 402T376 460T297 479Q235 479 187 444T112 349T85 212Q85 152 106 109T164 44T249 21ZM427 736H471L342 583H307L427 736Z" />
<glyph unicode="&#xe2;" glyph-name="acircumflex" horiz-adv-x="582" d="M240 -9Q181 -9 139 19T73 97T49 212Q49 274 67 328T118 424T196 487T297 510Q375 510 421 463T471 338L508 500H544L428 0H395L421 116Q395 62 349 27T240 -9ZM249 21Q294 21 331 44T395
108T438 199T453 302Q453 363 432 402T376 460T297 479Q235 479 187 444T112 349T85 212Q85 152 106 109T164 44T249 21ZM209 581L342 731H383L446 581H413L359 705L246 581H209Z" />
<glyph unicode="&#xe3;" glyph-name="atilde" horiz-adv-x="582" d="M240 -9Q181 -9 139 19T73 97T49 212Q49 274 67 328T118 424T196 487T297 510Q375 510 421 463T471 338L508 500H544L428 0H395L421 116Q395 62 349 27T240 -9ZM249 21Q294 21 331 44T395 108T438
199T453 302Q453 363 432 402T376 460T297 479Q235 479 187 444T112 349T85 212Q85 152 106 109T164 44T249 21ZM493 694Q480 642 455 618T400 594Q377 594 363 604T337 628T314 652T284 663Q261 663 247 645T221 593H191Q205 643 229 668T288 693Q310 693 325
683T351 659T374 635T403 624Q422 624 437 642T464 694H493Z" />
<glyph unicode="&#xe4;" glyph-name="adieresis" horiz-adv-x="582" d="M240 -9Q181 -9 139 19T73 97T49 212Q49 274 67 328T118 424T196 487T297 510Q375 510 421 463T471 338L508 500H544L428 0H395L421 116Q395 62 349 27T240 -9ZM249 21Q294 21 331 44T395
108T438 199T453 302Q453 363 432 402T376 460T297 479Q235 479 187 444T112 349T85 212Q85 152 106 109T164 44T249 21ZM425 593Q412 593 404 601T395 622Q395 638 404 648T429 659Q443 659 451 651T459 630Q459 613 450 603T425 593ZM237 593Q224 593 216 601T208
622Q208 638 217 648T243 659Q256 659 264 651T272 630Q272 613 262 603T237 593Z" />
<glyph unicode="&#xe5;" glyph-name="aring" horiz-adv-x="582" d="M240 -9Q181 -9 139 19T73 97T49 212Q49 274 67 328T118 424T196 487T297 510Q375 510 421 463T471 338L508 500H544L428 0H395L421 116Q395 62 349 27T240 -9ZM249 21Q294 21 331 44T395 108T438
199T453 302Q453 363 432 402T376 460T297 479Q235 479 187 444T112 349T85 212Q85 152 106 109T164 44T249 21ZM345 759Q385 759 410 735T436 676Q436 631 408 603T338 575Q298 575 272 599T246 659Q246 703 274 731T345 759ZM345 734Q314 734 294 714T274 661Q274
634 292 617T339 600Q367 600 387 620T408 674Q408 700 391 717T345 734Z" />
<glyph unicode="&#xe6;" glyph-name="ae" horiz-adv-x="837" d="M174 -10Q107 -10 67 23T26 115Q26 158 49 189T115 238T221 264L394 283L393 254L235 236Q152 228 108 199T64 116Q64 70 95 46T176 21Q251 21 298 65T368 211L389 311Q392 324 393 335T395 358Q395
416 359 447T264 478Q204 478 167 452T104 373L78 391Q106 448 151 478T266 509Q313 509 347 492T401 445T421 374L414 376Q441 433 493 471T618 509Q671 509 709 484T768 414T789 312Q789 296 787 281T781 251H405L407 283H752Q754 287 754 293T754 310Q754 357
738 395T690 455T614 478Q567 478 529 457T465 400T424 315T409 212Q409 159 427 116T482 48T570 22Q628 22 669 49T736 121L764 102Q734 54 685 23T568 -9Q507 -9 466 19T403 93T382 188L389 194Q375 123 345 78T272 12T174 -10Z" />
<glyph unicode="&#xe7;" glyph-name="ccedilla" horiz-adv-x="500" d="M250 -10Q191 -10 146 18T75 96T50 211Q50 296 80 363T166 470T295 510Q343 510 380 492T441 440T473 361L437 352Q427 410 391 444T293 479Q231 479 184 443T112 347T86 213Q86 155 107 112T167
45T255 21Q306 21 347 51T409 129L441 116Q415 59 366 25T250 -10ZM201 2L226 11Q257 -8 275 -34T293 -96Q293 -130 278 -155T238 -192T182 -205Q146 -205 124 -191T92 -160L109 -137Q119 -154 137 -165T183 -177Q218 -177 240 -155T263 -95Q263 -65 247 -41T201
2Z" />
<glyph unicode="&#xe8;" glyph-name="egrave" horiz-adv-x="518" d="M250 -9Q186 -9 142 21T74 101T50 212Q50 292 79 359T164 468T295 509Q350 509 389 483T450 413T471 312Q471 298 470 283T464 251H69L70 283H447L433 272Q435 284 435 293T436 311Q436 358
420 395T371 455T292 478Q243 478 205 457T140 399T100 314T86 212Q86 158 106 115T164 47T254 22Q309 22 350 49T417 121L446 102Q416 54 367 23T250 -9ZM280 736L330 583H301L243 736H280Z" />
<glyph unicode="&#xe9;" glyph-name="eacute" horiz-adv-x="518" d="M250 -9Q186 -9 142 21T74 101T50 212Q50 292 79 359T164 468T295 509Q350 509 389 483T450 413T471 312Q471 298 470 283T464 251H69L70 283H447L433 272Q435 284 435 293T436 311Q436 358
420 395T371 455T292 478Q243 478 205 457T140 399T100 314T86 212Q86 158 106 115T164 47T254 22Q309 22 350 49T417 121L446 102Q416 54 367 23T250 -9ZM412 736H456L327 583H292L412 736Z" />
<glyph unicode="&#xea;" glyph-name="ecircumflex" horiz-adv-x="518" d="M250 -9Q186 -9 142 21T74 101T50 212Q50 292 79 359T164 468T295 509Q350 509 389 483T450 413T471 312Q471 298 470 283T464 251H69L70 283H447L433 272Q435 284 435 293T436 311Q436
358 420 395T371 455T292 478Q243 478 205 457T140 399T100 314T86 212Q86 158 106 115T164 47T254 22Q309 22 350 49T417 121L446 102Q416 54 367 23T250 -9ZM194 581L327 731H368L431 581H398L344 705L231 581H194Z" />
<glyph unicode="&#xeb;" glyph-name="edieresis" horiz-adv-x="518" d="M250 -9Q186 -9 142 21T74 101T50 212Q50 292 79 359T164 468T295 509Q350 509 389 483T450 413T471 312Q471 298 470 283T464 251H69L70 283H447L433 272Q435 284 435 293T436 311Q436 358
420 395T371 455T292 478Q243 478 205 457T140 399T100 314T86 212Q86 158 106 115T164 47T254 22Q309 22 350 49T417 121L446 102Q416 54 367 23T250 -9ZM410 593Q397 593 389 601T380 622Q380 638 389 648T414 659Q428 659 436 651T444 630Q444 613 435 603T410
593ZM222 593Q209 593 201 601T193 622Q193 638 202 648T228 659Q241 659 249 651T257 630Q257 613 247 603T222 593Z" />
<glyph unicode="&#xec;" glyph-name="igrave" horiz-adv-x="206" d="M179 500L63 0H27L143 500H179ZM146 736L196 583H167L109 736H146Z" />
<glyph unicode="&#xed;" glyph-name="iacute" horiz-adv-x="206" d="M179 500L63 0H27L143 500H179ZM278 736H322L193 583H158L278 736Z" />
<glyph unicode="&#xee;" glyph-name="icircumflex" horiz-adv-x="206" d="M179 500L63 0H27L143 500H179ZM60 581L193 731H234L297 581H264L210 705L97 581H60Z" />
<glyph unicode="&#xef;" glyph-name="idieresis" horiz-adv-x="182" d="M223 593Q211 593 204 600T197 620Q197 637 206 648T230 659Q242 659 248 652T255 632Q255 615 246 604T223 593ZM115 593Q104 593 97 601T90 620Q90 637 99 648T123 659Q135 659 141 651T148
632Q148 615 139 604T115 593ZM171 500L55 0H19L135 500H171Z" />
<glyph unicode="&#xf0;" glyph-name="eth" horiz-adv-x="556" d="M248 -10Q183 -10 139 22T72 104T49 213Q49 290 82 352T170 451T290 487Q344 487 385 463T449 395T472 289L465 283Q473 319 476 356T479 425Q479 535 435 610T310 730H359Q408 706 443 660T496
553T515 426Q515 336 499 257T448 118T364 24T248 -10ZM251 21Q297 21 334 42T399 99T441 179T456 268Q456 327 435 368T375 433T289 456Q248 456 212 438T147 387T102 310T85 213Q85 160 106 116T165 47T251 21ZM272 562L267 589L448 628L462 605L272 562ZM462
605L448 628L578 659L584 633L462 605Z" />
<glyph unicode="&#xf1;" glyph-name="ntilde" horiz-adv-x="553" d="M27 0L143 500H177L148 369L142 371Q164 432 217 471T344 510Q400 510 437 485T489 411T487 296L418 0H382L450 295Q471 384 438 431T336 479Q281 479 239 454T170 386T131 289L63 0H27ZM514
694Q501 642 476 618T421 594Q398 594 384 604T358 628T335 652T305 663Q282 663 268 645T242 593H212Q226 643 250 668T309 693Q331 693 346 683T372 659T395 635T424 624Q443 624 458 642T485 694H514Z" />
<glyph unicode="&#xf2;" glyph-name="ograve" horiz-adv-x="549" d="M256 -9Q190 -9 144 21T74 101T50 213Q50 299 81 366T168 471T294 509Q361 509 406 479T475 399T498 288Q498 202 467 135T382 29T256 -9ZM256 22Q317 22 363 56T435 150T462 288Q462 372 417
425T293 478Q233 478 187 444T114 351T87 213Q87 158 107 115T166 47T256 22ZM291 736L341 583H312L254 736H291Z" />
<glyph unicode="&#xf3;" glyph-name="oacute" horiz-adv-x="549" d="M256 -9Q190 -9 144 21T74 101T50 213Q50 299 81 366T168 471T294 509Q361 509 406 479T475 399T498 288Q498 202 467 135T382 29T256 -9ZM256 22Q317 22 363 56T435 150T462 288Q462 372 417
425T293 478Q233 478 187 444T114 351T87 213Q87 158 107 115T166 47T256 22ZM423 736H467L338 583H303L423 736Z" />
<glyph unicode="&#xf4;" glyph-name="ocircumflex" horiz-adv-x="549" d="M256 -9Q190 -9 144 21T74 101T50 213Q50 299 81 366T168 471T294 509Q361 509 406 479T475 399T498 288Q498 202 467 135T382 29T256 -9ZM256 22Q317 22 363 56T435 150T462 288Q462 372
417 425T293 478Q233 478 187 444T114 351T87 213Q87 158 107 115T166 47T256 22ZM205 581L338 731H379L442 581H409L355 705L242 581H205Z" />
<glyph unicode="&#xf5;" glyph-name="otilde" horiz-adv-x="549" d="M256 -9Q190 -9 144 21T74 101T50 213Q50 299 81 366T168 471T294 509Q361 509 406 479T475 399T498 288Q498 202 467 135T382 29T256 -9ZM256 22Q317 22 363 56T435 150T462 288Q462 372 417
425T293 478Q233 478 187 444T114 351T87 213Q87 158 107 115T166 47T256 22ZM489 694Q476 642 451 618T396 594Q373 594 359 604T333 628T310 652T280 663Q257 663 243 645T217 593H187Q201 643 225 668T284 693Q306 693 321 683T347 659T370 635T399 624Q418
624 433 642T460 694H489Z" />
<glyph unicode="&#xf6;" glyph-name="odieresis" horiz-adv-x="549" d="M256 -9Q190 -9 144 21T74 101T50 213Q50 299 81 366T168 471T294 509Q361 509 406 479T475 399T498 288Q498 202 467 135T382 29T256 -9ZM256 22Q317 22 363 56T435 150T462 288Q462 372
417 425T293 478Q233 478 187 444T114 351T87 213Q87 158 107 115T166 47T256 22ZM421 593Q408 593 400 601T391 622Q391 638 400 648T425 659Q439 659 447 651T455 630Q455 613 446 603T421 593ZM233 593Q220 593 212 601T204 622Q204 638 213 648T239 659Q252
659 260 651T268 630Q268 613 258 603T233 593Z" />
<glyph unicode="&#xf7;" glyph-name="divide" horiz-adv-x="604" d="M552 333L545 300H83L90 333H552ZM272 93Q258 93 249 102T240 124Q240 141 250 152T276 164Q290 164 299 155T308 132Q308 115 298 104T272 93ZM359 470Q345 470 336 478T327 501Q327 518 337
529T363 540Q377 540 386 532T395 509Q395 492 385 481T359 470Z" />
<glyph unicode="&#xf8;" glyph-name="oslash" horiz-adv-x="549" d="M256 -9Q190 -9 144 21T74 101T50 213Q50 299 81 366T168 471T294 509Q361 509 406 479T475 399T498 288Q498 202 467 135T382 29T256 -9ZM256 22Q317 22 363 56T435 150T462 288Q462 372 417
425T293 478Q233 478 187 444T114 351T87 213Q87 158 107 115T166 47T256 22ZM237 -26L785 527H822L275 -26H237Z" />
<glyph unicode="&#xf9;" glyph-name="ugrave" horiz-adv-x="552" d="M204 -9Q147 -9 108 16T54 89T56 206L123 500H159L92 206Q72 116 106 69T213 22Q265 22 305 47T371 114T410 211L477 500H513L397 0H364L393 131L399 129Q376 66 325 29T204 -9ZM293 719L343
566H314L256 719H293Z" />
<glyph unicode="&#xfa;" glyph-name="uacute" horiz-adv-x="552" d="M204 -9Q147 -9 108 16T54 89T56 206L123 500H159L92 206Q72 116 106 69T213 22Q265 22 305 47T371 114T410 211L477 500H513L397 0H364L393 131L399 129Q376 66 325 29T204 -9ZM425 719H469L340
566H305L425 719Z" />
<glyph unicode="&#xfb;" glyph-name="ucircumflex" horiz-adv-x="552" d="M204 -9Q147 -9 108 16T54 89T56 206L123 500H159L92 206Q72 116 106 69T213 22Q265 22 305 47T371 114T410 211L477 500H513L397 0H364L393 131L399 129Q376 66 325 29T204 -9ZM207 564L340
714H381L444 564H411L357 688L244 564H207Z" />
<glyph unicode="&#xfc;" glyph-name="udieresis" horiz-adv-x="552" d="M204 -9Q147 -9 108 16T54 89T56 206L123 500H159L92 206Q72 116 106 69T213 22Q265 22 305 47T371 114T410 211L477 500H513L397 0H364L393 131L399 129Q376 66 325 29T204 -9ZM423 576Q410
576 402 584T393 605Q393 621 402 631T427 642Q441 642 449 634T457 613Q457 596 448 586T423 576ZM235 576Q222 576 214 584T206 605Q206 621 215 631T241 642Q254 642 262 634T270 613Q270 596 260 586T235 576Z" />
<glyph unicode="&#xfd;" glyph-name="yacute" horiz-adv-x="464" d="M-20 -215Q-50 -215 -71 -207T-103 -182L-84 -154Q-73 -169 -57 -176T-20 -184Q15 -184 44 -161T105 -86L158 1L76 500H112L175 105L184 39L225 107L464 500H505L134 -100Q108 -142 84 -167T35
-203T-20 -215ZM397 719H441L312 566H277L397 719Z" />
<glyph unicode="&#xfe;" glyph-name="thorn" horiz-adv-x="573" d="M-22 -210L195 730H231L145 357L137 355Q160 428 214 468T341 509Q396 509 436 481T500 403T523 290Q523 228 506 174T457 79T381 14T283 -10Q225 -10 184 16T121 89T101 196L113 219L14 -210H-22ZM285
21Q344 21 389 57T461 154T487 291Q487 349 467 391T411 455T329 478Q266 478 220 442T148 343T122 200Q122 118 166 70T285 21Z" />
<glyph unicode="&#xff;" glyph-name="ydieresis" horiz-adv-x="464" d="M-20 -215Q-50 -215 -71 -207T-103 -182L-84 -154Q-73 -169 -57 -176T-20 -184Q15 -184 44 -161T105 -86L158 1L76 500H112L175 105L184 39L225 107L464 500H505L134 -100Q108 -142 84 -167T35
-203T-20 -215ZM395 576Q382 576 374 584T365 605Q365 621 374 631T399 642Q413 642 421 634T429 613Q429 596 420 586T395 576ZM207 576Q194 576 186 584T178 605Q178 621 187 631T213 642Q226 642 234 634T242 613Q242 596 232 586T207 576Z" />
<glyph unicode="&#x2013;" glyph-name="endash" horiz-adv-x="626" d="M561 284L554 250H72L80 284H561Z" />
<glyph unicode="&#x2014;" glyph-name="emdash" horiz-adv-x="963" d="M898 284L890 250H72L80 284H898Z" />
<glyph unicode="&#x2018;" glyph-name="quoteleft" horiz-adv-x="190" d="M161 509Q143 509 132 522T121 555Q121 584 136 613T178 664T235 693L244 669Q215 664 194 647T162 609T148 570H150Q153 576 159 578T170 580Q185 580 192 571T200 549Q200 532 189 521T161 509Z" />
<glyph unicode="&#x2019;" glyph-name="quoteright" horiz-adv-x="190" d="M198 692Q217 692 227 679T237 646Q237 618 223 589T183 538T124 508L113 533Q143 539 164 555T196 591T210 632L209 633Q205 627 200 624T187 621Q173 621 166 631T158 653Q158 670 169
681T198 692Z" />
<glyph unicode="&#x201a;" glyph-name="quotesinglbase" horiz-adv-x="190" d="M53 64Q72 64 82 51T92 18Q92 -10 78 -39T38 -90T-21 -120L-32 -95Q-2 -89 19 -73T51 -37T65 4L64 5Q60 -1 55 -4T42 -7Q28 -7 21 3T13 25Q13 42 24 53T53 64Z" />
<glyph unicode="&#x201c;" glyph-name="quotedblleft" horiz-adv-x="315" d="M161 509Q143 509 132 522T121 555Q121 584 136 613T178 664T235 693L244 669Q215 664 194 647T162 609T148 570H150Q153 576 159 578T170 580Q185 580 192 571T200 549Q200 532 189
521T161 509ZM286 509Q268 509 257 522T246 555Q246 584 261 613T303 664T360 693L369 669Q340 664 319 647T287 609T273 570H275Q278 576 284 578T295 580Q310 580 317 571T325 549Q325 532 314 521T286 509Z" />
<glyph unicode="&#x201d;" glyph-name="quotedblright" horiz-adv-x="315" d="M198 692Q217 692 227 679T237 646Q237 618 223 589T183 538T124 508L113 533Q143 539 164 555T196 591T210 632L209 633Q205 627 200 624T187 621Q173 621 166 631T158 653Q158 670
169 681T198 692ZM323 692Q342 692 352 679T362 646Q362 618 348 589T308 538T249 508L238 533Q268 539 289 555T321 591T335 632L334 633Q330 627 325 624T312 621Q298 621 291 631T283 653Q283 670 294 681T323 692Z" />
<glyph unicode="&#x201e;" glyph-name="quotedblbase" horiz-adv-x="315" d="M53 64Q72 64 82 51T92 18Q92 -10 78 -39T38 -90T-21 -120L-32 -95Q-2 -89 19 -73T51 -37T65 4L64 5Q60 -1 55 -4T42 -7Q28 -7 21 3T13 25Q13 42 24 53T53 64ZM179 64Q198 64 208 51T218
18Q218 -10 204 -39T164 -90T105 -120L94 -95Q124 -89 145 -73T177 -37T191 4L190 5Q186 -1 181 -4T168 -7Q154 -7 147 3T139 25Q139 42 150 53T179 64Z" />
<glyph unicode="&#x2022;" glyph-name="bullet" horiz-adv-x="429" d="M230 259Q197 259 176 280T155 332Q155 369 180 393T242 418Q274 418 294 397T315 345Q315 308 291 284T230 259Z" />
<glyph unicode="&#x2039;" glyph-name="guilsinglleft" horiz-adv-x="278" d="M277 461L81 254L80 279L180 69H143L50 265L234 461H277Z" />
<glyph unicode="&#x203a;" glyph-name="guilsinglright" horiz-adv-x="277" d="M-4 69L192 276L193 251L93 461H130L223 265L39 69H-4Z" />
</font>
</defs>
</svg>
