<?xml version="1.0" standalone="no"?>
<!DOCTYPE svg PUBLIC "-//W3C//DTD SVG 1.1//EN" "http://www.w3.org/Graphics/SVG/1.1/DTD/svg11.dtd">
<svg xmlns="http://www.w3.org/2000/svg">
<defs >
<font id="KantumruyPro" horiz-adv-x="627" ><font-face
    font-family="Kantumruy Pro"
    units-per-em="1000"
    panose-1="0 0 0 0 0 0 0 0 0 0"
    ascent="920"
    descent="-260"
    alphabetic="0" />
<glyph unicode=" " glyph-name="space" horiz-adv-x="286" />
<glyph unicode="!" glyph-name="exclam" horiz-adv-x="301" d="M239 660V447L220 215H81L62 447V660H239ZM150 159Q195 159 221 137T247 75Q247 36 221 14T150 -8Q105 -8 80 14T54 75Q54 115 79 137T150 159Z" />
<glyph unicode="&quot;" glyph-name="quotedbl" horiz-adv-x="448" d="M403 678L374 401H261V678H403ZM205 678L176 401H63V678H205Z" />
<glyph unicode="#" glyph-name="numbersign" horiz-adv-x="688" d="M572 660L465 0H350L456 660H572ZM619 261V159H26V261H619ZM327 660L221 0H105L211 660H327ZM662 501V399H69V501H662Z" />
<glyph unicode="$" glyph-name="dollar" horiz-adv-x="629" d="M320 0Q258 0 202 14T99 55T21 115L101 227Q125 194 163 171T244 136T329 124Q380 124 408 140T437 188Q437 212 417 225T361 247L229 279Q152 298 101 339T49 452Q49 512 81 559T175 633T321 660Q407
660 474 633T591 551L514 450Q473 494 424 516T312 539Q274 539 250 531T215 508T203 475Q203 452 221 437T299 407L405 383Q459 371 500 351T563 297T586 210Q586 142 552 95T457 24T320 0ZM269 -88V748H373V-88H269Z" />
<glyph unicode="%" glyph-name="percent" horiz-adv-x="938" d="M175 0L634 661H764L305 0H175ZM216 670Q272 670 314 647T379 582T402 482Q402 425 379 383T314 317T216 294Q160 294 118 317T53 382T30 482Q30 539 53 581T118 647T216 670ZM216 556Q197 556 184
548T164 523T157 482Q157 459 164 442T184 417T216 408Q236 408 249 416T269 442T276 482Q276 506 269 522T249 547T216 556ZM721 366Q777 366 819 343T884 278T907 178Q907 121 884 79T819 14T721 -10Q665 -10 623 13T558 79T535 178Q535 235 558 277T623 343T721
366ZM721 252Q702 252 689 244T668 219T661 178Q661 155 668 138T688 113T721 104Q741 104 754 112T774 138T781 178Q781 202 774 218T754 243T721 252Z" />
<glyph unicode="&amp;" glyph-name="ampersand" horiz-adv-x="634" d="M253 -10Q186 -10 135 10T54 72T25 172Q25 209 40 248T96 319T213 364L244 373Q286 399 309 419T340 460T349 503Q349 529 334 543T294 558Q266 558 251 541T236 496Q236 481 241 466T262
429T308 372T388 280Q436 226 469 191T527 136T576 111T630 109L615 -10Q578 -10 548 -5T485 19T410 75T305 180Q235 255 192 303T128 385T99 444T91 501Q91 543 112 581T178 645T293 670Q360 670 401 648T463 591T483 515Q483 470 463 432T399 366T285 318L255
301Q223 281 205 265T179 230T171 185Q171 160 184 141T221 112T276 101Q320 101 355 116T422 155L436 176Q454 208 465 247T474 339L588 336Q588 272 568 217T508 120L478 96Q446 47 390 19T253 -10Z" />
<glyph unicode="&apos;" glyph-name="quotesingle" horiz-adv-x="250" d="M205 678L176 401H63V678H205Z" />
<glyph unicode="(" glyph-name="parenleft" horiz-adv-x="391" d="M301 736L381 658Q296 582 258 491T220 273Q220 146 258 55T381 -113L301 -191Q186 -114 127 1T67 273Q67 428 126 544T301 736Z" />
<glyph unicode=")" glyph-name="parenright" horiz-adv-x="391" d="M90 -191L10 -113Q95 -36 133 54T171 272Q171 400 133 491T10 658L90 736Q205 660 264 544T324 272Q324 118 265 2T90 -191Z" />
<glyph unicode="*" glyph-name="asterisk" horiz-adv-x="588" d="M322 502L406 424L489 315L391 244L313 357L266 460L294 481L322 502ZM266 502L294 481L322 460L274 357L196 244L99 315L182 424L266 502ZM76 615L205 570L305 514L294 481L283 448L169 461L39
500L76 615ZM354 730L351 593L329 481H294H259L237 593L233 730H354ZM513 615L550 500L418 461L305 448L294 481L283 514L383 570L513 615Z" />
<glyph unicode="+" glyph-name="plus" horiz-adv-x="604" d="M370 589V60H235V589H370ZM553 386V264H51V386H553Z" />
<glyph unicode="," glyph-name="comma" horiz-adv-x="290" d="M142 172Q197 172 223 136T250 49Q250 4 231 -37T180 -110T111 -158L42 -107Q70 -95 93 -79T134 -42T161 -1L156 2Q150 -2 143 -4T122 -6Q95 -6 69 14T42 76Q42 123 72 147T142 172Z" />
<glyph unicode="-" glyph-name="hyphen" horiz-adv-x="528" d="M447 337V198H81V337H447Z" />
<glyph unicode="." glyph-name="period" horiz-adv-x="290" d="M145 -9Q99 -9 72 15T45 81Q45 124 72 148T145 172Q192 172 218 148T245 81Q245 39 219 15T145 -9Z" />
<glyph unicode="/" glyph-name="slash" horiz-adv-x="468" d="M453 712L173 -70H15L295 712H453Z" />
<glyph unicode="0" glyph-name="zero" horiz-adv-x="632" d="M316 -10Q184 -10 116 75T48 330Q48 499 116 584T316 670Q448 670 516 585T584 330Q584 161 516 76T316 -10ZM316 124Q368 124 391 171T414 330Q414 441 391 488T316 536Q264 536 241 489T218 330Q218
219 241 172T316 124Z" />
<glyph unicode="1" glyph-name="one" horiz-adv-x="419" d="M179 0V380Q179 406 179 434T180 490Q149 459 112 437T34 407L19 549Q43 552 71 562T126 589T175 623T208 660H345V0H179Z" />
<glyph unicode="2" glyph-name="two" horiz-adv-x="584" d="M60 0V110Q142 163 200 209T294 296T348 374T365 446Q365 484 344 509T281 535Q237 535 213 501T186 400L39 445Q41 520 74 570T165 645T292 670Q378 670 432 639T511 559T536 458Q536 394 505 339T413
232T266 128V127Q283 128 306 129T353 130T398 131H543V0H60Z" />
<glyph unicode="3" glyph-name="three" horiz-adv-x="581" d="M295 -10Q192 -10 123 32T27 153L185 221Q190 168 217 146T288 123Q326 123 348 144T371 203Q371 229 361 244T333 267T288 275Q275 275 265 275T241 272V384Q248 383 256 383T274 382Q318 382 338
401T358 463Q358 499 339 518T285 537Q248 537 225 516T194 447L43 499Q54 554 89 592T178 650T296 670Q370 670 420 648T497 585T524 489Q524 446 511 417T477 370T437 344T404 333V330Q420 330 442 323T486 301T522 258T537 191Q537 129 505 84T419 15T295 -10Z"
/>
<glyph unicode="4" glyph-name="four" horiz-adv-x="634" d="M357 0V145H43V253Q49 262 54 270T69 295T102 345L308 660H508V263H606V145H508V0H357ZM181 263H359V463Q359 478 360 497T361 532T362 548H360Q352 533 345 520T330 493T312 464L202 293Q198 286 195
283T181 263Z" />
<glyph unicode="5" glyph-name="five" horiz-adv-x="571" d="M280 -10Q197 -10 135 23T30 133L181 208Q192 168 215 144T284 120Q313 120 334 131T366 163T378 216Q378 246 367 266T336 296T284 307Q252 307 226 298T183 268L54 292L95 660H501V527H219L203 395L200
379H201Q221 402 256 414T332 426Q395 426 440 400T509 329T533 226Q533 145 498 93T406 16T280 -10Z" />
<glyph unicode="6" glyph-name="six" horiz-adv-x="604" d="M335 670Q413 670 473 637T559 524L420 458Q410 493 388 513T324 534Q297 534 275 521T238 482T214 421T205 340Q205 336 205 333T205 324L207 318Q218 348 243 369T300 400T363 411Q422 411 468 387T542
319T569 211Q569 143 539 94T455 17T327 -10Q244 -10 181 28T83 140T48 324Q48 441 86 518T189 632T335 670ZM324 295Q299 295 279 285T247 254T235 207Q235 181 247 161T279 130T324 119Q366 119 389 142T412 207Q412 235 402 254T372 284T324 295Z" />
<glyph unicode="7" glyph-name="seven" horiz-adv-x="596" d="M33 660H564V538Q484 458 438 372T374 194T355 0H185Q185 165 246 304T443 570L479 525H33V660Z" />
<glyph unicode="8" glyph-name="eight" horiz-adv-x="615" d="M307 668Q416 668 482 620T548 487Q548 435 523 397T448 338V337Q506 318 538 279T570 180Q570 122 539 80T448 14T307 -10Q226 -10 168 13T77 79T45 180Q45 239 77 278T167 337V338Q118 357 92 395T66
487Q66 543 96 583T181 646T307 668ZM307 543Q269 543 247 523T225 467Q225 432 247 412T307 391Q345 391 367 411T390 467Q390 503 368 523T307 543ZM307 115Q337 115 358 125T391 153T403 197Q403 223 392 241T359 269T308 279Q278 279 257 270T224 242T212 197Q212
172 223 154T256 125T307 115Z" />
<glyph unicode="9" glyph-name="nine" horiz-adv-x="605" d="M287 670Q376 670 436 632T526 518T557 332Q557 213 522 137T427 26T287 -10Q204 -10 142 24T49 134L203 195Q211 161 232 141T290 120Q320 120 341 132T377 168T397 227T404 307Q404 311 404 315T404
323H401Q390 293 366 274T311 245T248 236Q188 236 141 261T68 333T41 442Q41 513 71 564T157 642T287 670ZM287 538Q247 538 223 514T199 446Q199 406 223 384T287 361Q313 361 333 372T364 402T376 449Q376 477 365 496T333 527T287 538Z" />
<glyph unicode=":" glyph-name="colon" horiz-adv-x="302" d="M151 329Q105 329 78 353T51 419Q51 462 78 486T151 510Q198 510 224 486T251 419Q251 377 225 353T151 329ZM151 -9Q105 -9 78 15T51 81Q51 124 78 148T151 172Q198 172 224 148T251 81Q251 39 225
15T151 -9Z" />
<glyph unicode=";" glyph-name="semicolon" horiz-adv-x="302" d="M148 172Q203 172 229 136T256 49Q256 4 237 -37T186 -110T117 -158L48 -107Q76 -95 99 -79T140 -42T167 -1L162 2Q156 -2 149 -4T128 -6Q101 -6 75 14T48 76Q48 123 78 147T148 172ZM151 329Q105
329 78 353T51 419Q51 462 78 486T151 510Q198 510 224 486T251 419Q251 377 225 353T151 329Z" />
<glyph unicode="&lt;" glyph-name="less" horiz-adv-x="604" d="M553 5L63 223V370L553 588V427L195 297L553 167V5Z" />
<glyph unicode="=" glyph-name="equal" horiz-adv-x="604" d="M539 483V366H65V483H539ZM539 267V150H65V267H539Z" />
<glyph unicode="&gt;" glyph-name="greater" horiz-adv-x="604" d="M51 588L541 370V223L51 5V166L409 296L51 426V588Z" />
<glyph unicode="?" glyph-name="question" horiz-adv-x="595" d="M209 214L210 366Q270 372 305 384T355 415T370 461Q370 484 362 500T335 524T290 532Q250 532 227 507T196 431L32 488Q44 539 75 580T162 645T302 670Q374 670 431 650T520 588T553 484Q553 422
528 384T461 326T369 300L359 214H209ZM290 -8Q245 -8 219 14T193 76Q193 116 219 139T290 162Q335 162 361 139T387 76Q387 37 361 15T290 -8Z" />
<glyph unicode="@" glyph-name="at" horiz-adv-x="919" d="M460 -185Q339 -185 245 -137T96 4T41 229Q41 325 74 405T166 543T306 633T482 665Q569 665 641 638T765 559T845 437T874 281Q874 203 854 148T802 59T731 9T656 -7Q588 -7 552 27T519 117Q497 66 457
37T366 8Q323 8 290 31T237 96T217 198Q217 249 232 297T274 382T341 442T430 465Q472 465 508 442T555 364L577 456H722L659 171Q656 158 654 148T652 128Q652 101 665 90T698 79Q724 79 746 99T783 163T798 275Q798 349 775 407T710 506T610 569T483 591Q404
591 339 566T227 493T154 379T128 229Q128 116 174 41T297 -73T467 -111Q536 -111 580 -94T659 -54L696 -116Q653 -144 600 -164T460 -185ZM433 117Q462 117 483 141T517 202T529 276Q529 301 522 318T500 345T464 355Q432 355 409 331T374 271T362 202Q362 176
370 157T394 127T433 117Z" />
<glyph unicode="A" glyph-name="A" horiz-adv-x="665" d="M661 0H484L440 149H222L177 0H4L230 660H436L661 0ZM254 266H408L331 533L254 266Z" />
<glyph unicode="B" glyph-name="B" horiz-adv-x="672" d="M73 0V660H388Q507 660 564 614T621 482Q621 427 589 386T490 334V333Q564 323 600 280T637 178Q637 93 579 47T404 0H73ZM239 121H374Q418 121 439 140T461 195Q461 230 440 248T374 267H239V121ZM239
390H358Q401 390 423 408T445 462Q445 498 423 516T358 534H239V390Z" />
<glyph unicode="C" glyph-name="C" horiz-adv-x="669" d="M646 189Q618 86 542 38T363 -10Q265 -10 194 30T84 147T45 330Q45 437 83 513T193 629T362 670Q429 670 486 651T582 591T638 488L487 427Q474 489 444 512T368 535Q322 535 289 512T239 444T221 330Q221
263 237 218T287 149T369 125Q414 125 446 151T490 233L646 189Z" />
<glyph unicode="D" glyph-name="D" horiz-adv-x="706" d="M349 660Q500 660 580 574T661 330Q661 172 581 86T349 0H73V660H349ZM332 130Q403 130 444 174T485 330Q485 405 466 448T413 511T332 530H245V130H332Z" />
<glyph unicode="E" glyph-name="E" horiz-adv-x="619" d="M73 0V660H575V527H245V393H508V268H245V133H588V0H73Z" />
<glyph unicode="F" glyph-name="F" horiz-adv-x="600" d="M574 527H245V387H508V254H245V0H73V660H574V527Z" />
<glyph unicode="G" glyph-name="G" horiz-adv-x="711" d="M339 -10Q253 -10 187 29T83 144T45 329Q45 436 84 512T197 629T369 670Q479 670 546 630T651 501L492 438Q480 489 448 512T370 535Q323 535 290 512T239 443T221 330Q221 260 238 214T291 144T379 121Q406
121 429 128T469 148T496 182T506 231V241H361V356H652V0H535L522 155L550 131Q530 64 477 27T339 -10Z" />
<glyph unicode="H" glyph-name="H" horiz-adv-x="730" d="M657 660V0H485V660H657ZM245 660V0H73V660H245ZM577 399V266H157V399H577Z" />
<glyph unicode="I" glyph-name="I" horiz-adv-x="318" d="M245 660V0H73V660H245Z" />
<glyph unicode="J" glyph-name="J" horiz-adv-x="606" d="M545 660V254Q545 129 475 60T275 -10Q181 -10 124 24T45 120T35 261L203 291Q192 200 211 163T282 125Q318 125 338 143T365 194T373 272V660H545Z" />
<glyph unicode="K" glyph-name="K" horiz-adv-x="681" d="M660 660L357 289L347 315L194 124L161 263L470 660H660ZM245 660V0H73V660H245ZM414 442L672 0H477L285 346L414 442Z" />
<glyph unicode="L" glyph-name="L" horiz-adv-x="590" d="M245 133H564V0H73V660H245V133Z" />
<glyph unicode="M" glyph-name="M" horiz-adv-x="898" d="M825 660V0H673V303L678 506H676L519 0H380L223 506H221L226 303V0H73V660H318L417 324L453 184H455L492 323L590 660H825Z" />
<glyph unicode="N" glyph-name="N" horiz-adv-x="729" d="M656 660V0H465L271 357L222 455H221L225 333V0H73V660H264L458 303L507 205H508L504 327V660H656Z" />
<glyph unicode="O" glyph-name="O" horiz-adv-x="725" d="M363 670Q462 670 533 630T642 513T680 330Q680 224 642 148T533 31T363 -10Q265 -10 194 30T84 147T45 330Q45 437 83 513T193 629T363 670ZM363 535Q317 535 286 512T238 444T221 330Q221 263 237 217T285
148T363 125Q409 125 440 148T487 217T504 330Q504 398 488 443T440 512T363 535Z" />
<glyph unicode="P" glyph-name="P" horiz-adv-x="656" d="M370 660Q487 660 553 602T619 440Q619 335 553 278T370 220H245V0H73V660H370ZM343 349Q394 349 420 371T446 440Q446 486 420 508T343 531H245V349H343Z" />
<glyph unicode="Q" glyph-name="Q" horiz-adv-x="725" d="M514 -203Q450 -203 402 -181T326 -117T299 -13Q299 7 304 28T322 72L421 95Q411 73 406 55T401 22Q401 -17 416 -38T457 -68T515 -77Q556 -77 584 -68T632 -43L657 -162Q632 -182 592 -192T514 -203ZM363
670Q462 670 533 630T642 513T680 330Q680 224 642 148T533 31T363 -10Q265 -10 194 30T84 147T45 330Q45 437 83 513T193 629T363 670ZM363 535Q317 535 286 512T238 444T221 330Q221 263 237 217T285 148T363 125Q409 125 440 148T487 217T504 330Q504 398 488
443T440 512T363 535Z" />
<glyph unicode="R" glyph-name="R" horiz-adv-x="677" d="M382 660Q498 660 562 605T626 457Q626 390 598 344T515 274T383 250L367 241H242V0H73V660H382ZM358 363Q401 363 427 381T453 447Q453 496 426 513T358 530H242V363H358ZM459 327L664 0H474L311 289L459 327Z" />
<glyph unicode="S" glyph-name="S" horiz-adv-x="633" d="M325 670Q414 670 483 642T604 558L522 447Q479 492 431 514T322 537Q287 537 266 529T234 507T224 475Q224 450 245 437T303 415L411 390Q508 368 553 324T598 206Q598 136 563 88T465 15T324 -10Q260
-10 202 4T97 46T16 108L98 223Q123 194 159 172T237 136T322 123Q356 123 377 130T410 151T421 184Q421 205 407 220T353 244L234 271Q185 282 142 302T72 360T45 455Q45 517 78 565T175 642T325 670Z" />
<glyph unicode="T" glyph-name="T" horiz-adv-x="641" d="M616 660V527H407V0H235V527H25V660H616Z" />
<glyph unicode="U" glyph-name="U" horiz-adv-x="698" d="M638 660V269Q638 130 565 60T349 -10Q207 -10 134 60T60 269V660H233V266Q233 195 262 160T349 125Q408 125 437 160T466 266V660H638Z" />
<glyph unicode="V" glyph-name="V" horiz-adv-x="671" d="M665 660L437 0H235L6 660H187L303 261L338 131L372 259L490 660H665Z" />
<glyph unicode="W" glyph-name="W" horiz-adv-x="985" d="M197 0L10 660H193L302 139L417 660H573L691 140L798 660H975L787 0H600L524 320L495 481H493L465 320L390 0H197Z" />
<glyph unicode="X" glyph-name="X" horiz-adv-x="651" d="M643 0H438L320 211L206 0H11L229 332L23 660H226L334 458L442 660H629L424 337L643 0Z" />
<glyph unicode="Y" glyph-name="Y" horiz-adv-x="645" d="M635 660L408 241V0H236V241L9 660H187L276 479L323 369L371 479L460 660H635Z" />
<glyph unicode="Z" glyph-name="Z" horiz-adv-x="622" d="M172 72L142 130H591V0H37V124L447 588L477 530H44V660H579V536L172 72Z" />
<glyph unicode="[" glyph-name="bracketleft" horiz-adv-x="391" d="M365 594H232V-49H365V-168H85V713H365V594Z" />
<glyph unicode="\" glyph-name="backslash" horiz-adv-x="468" d="M15 712H173L453 -70H295L15 712Z" />
<glyph unicode="]" glyph-name="bracketright" horiz-adv-x="391" d="M26 -49H159V594H26V713H306V-168H26V-49Z" />
<glyph unicode="^" glyph-name="asciicircum" horiz-adv-x="612" d="M25 355L234 724H378L588 355H438L306 612L175 355H25Z" />
<glyph unicode="_" glyph-name="underscore" horiz-adv-x="539" d="M539 -66V-201H0V-66H539Z" />
<glyph unicode="`" glyph-name="grave" horiz-adv-x="500" d="M296 738L363 565H239L138 738H296Z" />
<glyph unicode="a" glyph-name="a" horiz-adv-x="574" d="M336 317Q336 352 317 372T266 393Q234 393 211 377T179 318L35 352Q49 424 108 467T276 510Q348 510 399 489T478 425T505 320V137Q505 98 539 98Q547 98 554 99T568 102L558 5Q544 -2 526 -5T485 -9Q447
-9 417 3T370 41T353 106V112L372 119Q372 76 347 47T282 4T198 -10Q122 -10 77 25T32 128Q32 181 64 217T165 267L352 306L351 216L257 196Q230 190 215 179T200 144Q200 122 215 111T252 100Q269 100 284 105T310 120T329 147T336 185V317Z" />
<glyph unicode="b" glyph-name="b" horiz-adv-x="622" d="M380 -10Q307 -10 261 38T203 160L219 181L210 0H61V712H231V343L215 367Q229 429 271 469T386 510Q443 510 487 479T557 390T583 248Q583 167 558 109T487 21T380 -10ZM321 115Q364 115 388 148T412 250Q412
319 388 352T321 385Q293 385 273 369T242 322T231 249Q231 206 242 176T273 131T321 115Z" />
<glyph unicode="c" glyph-name="c" horiz-adv-x="562" d="M295 510Q370 510 420 489T498 432T534 355L377 303Q370 347 353 368T300 389Q269 389 248 374T217 328T206 248Q206 199 217 169T250 125T301 111Q325 111 341 120T368 148T382 192L535 143Q528 100 498
65T419 10T302 -10Q221 -10 161 21T68 110T35 250Q35 332 68 390T159 479T295 510Z" />
<glyph unicode="d" glyph-name="d" horiz-adv-x="622" d="M242 -10Q181 -10 136 20T65 109T39 248Q39 332 65 390T138 479T246 510Q314 510 355 469T407 363L391 342V712H561V0H409L398 170L418 155Q411 106 388 69T327 11T242 -10ZM301 115Q329 115 349 131T380
177T391 253Q391 295 381 324T350 369T302 385Q259 385 235 352T210 250Q210 181 234 148T301 115Z" />
<glyph unicode="e" glyph-name="e" horiz-adv-x="574" d="M302 -10Q220 -10 160 20T68 109T35 250Q35 333 68 391T159 479T294 510Q372 510 427 480T511 396T540 273Q540 254 539 237T536 207H145V298H461L380 267Q380 307 371 334T342 376T294 391Q263 391 241
376T208 329T197 247Q197 198 209 168T245 124T302 110Q338 110 361 125T394 167L530 122Q516 79 482 50T401 5T302 -10Z" />
<glyph unicode="f" glyph-name="f" horiz-adv-x="410" d="M290 726Q330 726 361 718T407 698L390 592Q380 598 366 602T331 607Q297 607 275 592T253 535V470L263 442V0H93V546Q93 610 120 649T193 707T290 726ZM402 500V379H15V500H402Z" />
<glyph unicode="g" glyph-name="g" horiz-adv-x="555" d="M540 634L554 520Q547 522 541 522T530 523Q487 523 466 502T444 448L384 470Q384 512 399 549T445 611T524 635Q527 635 531 635T540 634ZM370 111Q455 111 501 75T548 -30Q548 -92 515 -133T420 -195T275
-215Q141 -215 82 -181T22 -89Q22 -47 56 -21T167 7L163 -9Q102 -1 73 28T43 103Q43 150 81 181T180 214L243 185H227Q189 184 173 173T157 145Q157 129 170 120T212 111H370ZM277 -105Q324 -105 355 -99T401 -81T416 -54Q416 -38 405 -30T367 -22H190Q172 -22
161 -32T149 -57Q149 -79 183 -92T277 -105ZM282 510Q358 510 411 490T493 432T522 340Q522 286 494 249T412 191T282 171Q164 171 104 215T43 340Q43 394 71 432T152 490T282 510ZM282 413Q250 413 230 394T210 340Q210 306 230 287T282 268Q314 268 334 287T354
340Q354 375 334 394T282 413Z" />
<glyph unicode="h" glyph-name="h" horiz-adv-x="615" d="M61 0V712H231V409Q254 459 294 484T387 510Q438 510 476 490T535 431T557 333V0H387V286Q387 339 368 360T318 381Q295 381 275 369T243 331T231 263V0H61Z" />
<glyph unicode="i" glyph-name="i" horiz-adv-x="291" d="M231 500V0H61V500H231ZM146 558Q94 558 71 577T47 639Q47 682 70 701T146 721Q198 721 221 702T245 639Q245 597 222 578T146 558Z" />
<glyph unicode="j" glyph-name="j" horiz-adv-x="291" d="M37 -215Q-3 -215 -35 -207T-94 -183L-70 -73Q-59 -81 -43 -86T-6 -92Q24 -92 42 -75T61 -13V500H231V-28Q231 -95 208 -136T141 -196T37 -215ZM146 558Q94 558 71 577T47 639Q47 682 70 701T146 721Q198
721 221 702T245 639Q245 597 222 578T146 558Z" />
<glyph unicode="k" glyph-name="k" horiz-adv-x="617" d="M605 500L368 244L336 235L195 75L194 249L416 500H605ZM231 712V0H61V712H231ZM394 350L616 0H428L283 250L394 350Z" />
<glyph unicode="l" glyph-name="l" horiz-adv-x="322" d="M229 712V170Q229 140 238 125T274 109Q288 109 298 111T321 117L310 15Q293 4 264 -3T208 -10Q123 -10 91 31T59 148V712H229Z" />
<glyph unicode="m" glyph-name="m" horiz-adv-x="936" d="M61 0V500H213L218 403Q242 456 285 483T385 510Q439 510 481 485T542 411Q557 444 582 466T640 499T708 510Q757 510 795 490T855 431T878 333V0H708V294Q708 341 690 360T641 380Q616 380 597 368T566
330T555 267V0H385V294Q385 341 366 360T318 380Q295 380 275 368T243 331T231 264V0H61Z" />
<glyph unicode="n" glyph-name="n" horiz-adv-x="615" d="M61 0V500H213L222 328L203 347Q218 427 266 468T387 510Q438 510 476 490T535 431T557 333V0H387V288Q387 339 368 359T318 380Q295 380 275 369T243 332T231 265V0H61Z" />
<glyph unicode="o" glyph-name="o" horiz-adv-x="594" d="M296 510Q374 510 433 479T525 390T559 250Q559 168 526 110T433 21T296 -10Q219 -10 160 21T68 110T35 250Q35 332 68 390T160 479T296 510ZM296 389Q268 389 248 375T217 330T206 250Q206 201 216 171T247
126T296 111Q325 111 345 125T377 171T388 250Q388 299 377 329T346 374T296 389Z" />
<glyph unicode="p" glyph-name="p" horiz-adv-x="622" d="M61 -210V500H214L223 319L203 340Q214 414 261 462T381 510Q442 510 487 480T557 392T583 252Q583 169 557 111T486 21T379 -10Q312 -10 271 31T215 133L231 157V-210H61ZM321 115Q363 115 387 148T412
250Q412 319 388 352T322 385Q294 385 274 370T242 324T231 250Q231 208 241 178T272 132T321 115Z" />
<glyph unicode="q" glyph-name="q" horiz-adv-x="622" d="M391 -210V167L409 145Q399 75 355 33T242 -10Q182 -10 137 21T65 110T39 252Q39 334 65 391T137 479T245 510Q317 510 364 462T419 337L399 321L408 500H561V-210H391ZM301 115Q330 115 350 131T380 178T391
251Q391 296 380 326T350 370T302 385Q259 385 235 352T210 250Q210 181 234 148T301 115Z" />
<glyph unicode="r" glyph-name="r" horiz-adv-x="425" d="M61 0V500H211L218 392Q236 448 273 479T366 510Q385 510 398 507T419 499L402 359Q394 362 379 365T341 368Q312 368 287 355T246 317T231 252V0H61Z" />
<glyph unicode="s" glyph-name="s" horiz-adv-x="528" d="M268 -10Q193 -10 131 14T25 85L104 179Q129 147 170 126T261 104Q290 104 310 113T330 141Q330 155 320 163T281 178L213 192Q119 212 81 249T42 347Q42 388 67 425T143 486T274 510Q350 510 407 488T498
424L418 332Q394 362 357 379T282 396Q258 396 243 392T219 379T211 359Q211 345 224 336T268 320L358 302Q434 287 467 251T501 162Q501 89 443 40T268 -10Z" />
<glyph unicode="t" glyph-name="t" horiz-adv-x="432" d="M268 659V178Q268 142 285 127T333 111Q356 111 373 117T404 133L422 28Q397 11 360 1T283 -10Q198 -10 149 26T99 150V612L268 659ZM414 500V379H14V500H414Z" />
<glyph unicode="u" glyph-name="u" horiz-adv-x="614" d="M228 -10Q178 -10 140 7T80 64T58 166V500H228V206Q228 163 244 142T299 120Q316 120 331 126T358 146T376 181T383 232V500H553V0H401L396 94Q381 59 357 36T300 2T228 -10Z" />
<glyph unicode="v" glyph-name="v" horiz-adv-x="556" d="M381 500H557L380 0H176L-1 500H178L278 119L381 500Z" />
<glyph unicode="w" glyph-name="w" horiz-adv-x="895" d="M711 500H889L739 0H535L446 307L359 0H156L5 500H184L267 131L364 500H531L627 131L711 500Z" />
<glyph unicode="x" glyph-name="x" horiz-adv-x="584" d="M208 500L327 275L384 280L578 0H383L260 228H200L12 500H208ZM574 500L388 230L324 234L196 0H5L203 282L262 274L383 500H574Z" />
<glyph unicode="y" glyph-name="y" horiz-adv-x="558" d="M559 500L381 0Q353 -79 320 -126T242 -194T134 -215Q92 -215 58 -206T-3 -181L31 -66Q48 -79 68 -84T119 -90Q154 -90 170 -78T195 -42L207 -11L150 125L2 500H189L264 215L287 109L315 219L390 500H559Z" />
<glyph unicode="z" glyph-name="z" horiz-adv-x="511" d="M35 0V104L230 330L282 383L204 381H37V500H470V396L278 172L224 117L311 119H479V0H35Z" />
<glyph unicode="{" glyph-name="braceleft" horiz-adv-x="420" d="M393 -191Q263 -191 208 -153T153 -21V113Q153 169 128 193T41 217V327Q102 327 127 351T153 431V566Q153 658 208 697T393 736V628Q338 628 314 609T289 547V396Q289 346 264 316T192 273Q239
259 264 229T289 149V-1Q289 -44 313 -63T393 -83V-191Z" />
<glyph unicode="|" glyph-name="bar" horiz-adv-x="320" d="M235 713V-168H85V713H235Z" />
<glyph unicode="}" glyph-name="braceright" horiz-adv-x="420" d="M27 736Q157 736 212 698T267 566V432Q267 376 292 352T379 328V218Q318 218 293 194T267 114V-21Q267 -113 212 -152T27 -191V-83Q82 -83 106 -64T131 -2V149Q131 199 156 229T228 272Q181 286
156 316T131 396V546Q131 590 107 609T27 628V736Z" />
<glyph unicode="~" glyph-name="asciitilde" horiz-adv-x="597" d="M554 425Q550 330 510 281T393 231Q358 231 334 240T292 263T257 285T223 295Q202 295 191 280T175 236H43Q48 331 88 380T204 430Q239 430 263 421T306 398T340 376T374 366Q395 366 406 380T422
425H554Z" />
<glyph unicode="&#xa0;" glyph-name="uni00A0" horiz-adv-x="286" />
<glyph unicode="&#xa1;" glyph-name="exclamdown" horiz-adv-x="298" d="M61 -160V53L80 285H219L238 53V-160H61ZM150 341Q105 341 79 363T53 425Q53 464 79 486T150 508Q195 508 220 486T246 425Q246 385 221 363T150 341Z" />
<glyph unicode="&#xa2;" glyph-name="cent" horiz-adv-x="570" d="M311 -10Q227 -10 167 21T74 110T42 250Q42 332 74 390T166 479T305 510Q378 510 426 489T503 433T541 355L414 309Q407 353 382 378T312 404Q257 404 224 368T190 248Q190 165 225 131T312 96Q342
96 363 106T398 136T418 187L543 144Q533 98 503 64T424 10T311 -10ZM254 -100V600H358V-100H254Z" />
<glyph unicode="&#xa3;" glyph-name="sterling" horiz-adv-x="609" d="M52 270V348H471V270H52ZM155 -10Q103 -10 69 14T34 83Q34 127 71 151T162 176Q205 176 236 169T290 152T334 130T376 112T425 105Q460 105 476 125T490 188L599 176Q607 93 568 42T456 -10Q415
-10 382 2T322 32T269 68T217 99T159 111Q139 111 129 104T119 83Q119 70 130 62T159 54Q185 54 199 66T218 102T223 160Q223 204 208 239T160 324Q140 357 128 382T111 429T106 476Q106 532 135 575T218 644T345 670Q439 670 497 627T575 495L437 442Q425 496
402 521T337 547Q299 547 275 526T250 467Q250 453 254 439T267 405T291 358Q312 318 325 278T339 201Q339 150 319 102T258 22T155 -10Z" />
<glyph unicode="&#xa4;" glyph-name="currency" horiz-adv-x="646" d="M324 537Q387 537 435 511T509 438T536 330Q536 268 510 221T435 148T324 121Q261 121 213 147T137 221T110 330Q110 391 137 437T212 510T324 537ZM324 417Q287 417 264 393T240 330Q240
290 263 266T324 242Q361 242 384 266T407 330Q407 369 384 393T324 417ZM134 616L265 469L184 388L36 518L134 616ZM183 271L264 190L134 43L36 140L183 271ZM466 267L610 140L512 43L384 185L466 267ZM512 616L610 518L468 389L385 472L512 616Z" />
<glyph unicode="&#xa5;" glyph-name="yen" horiz-adv-x="654" d="M245 0V121H59V179H245V245H59V305H172L231 301L19 660H195L284 463L326 361H328L371 464L459 660H635L423 301L482 305H596V245H409V179H596V121H409V0H245Z" />
<glyph unicode="&#xa6;" glyph-name="brokenbar" horiz-adv-x="320" d="M235 713V333H85V713H235ZM235 212V-168H85V212H235Z" />
<glyph unicode="&#xa7;" glyph-name="section" horiz-adv-x="611" d="M414 99L355 181Q394 187 418 196T453 217T465 248Q465 271 447 284T394 305L225 337Q158 350 121 392T84 487Q84 542 112 583T193 647T315 670Q394 670 447 645T541 573L452 493Q424 528 388
544T307 561Q258 561 236 545T213 506Q213 485 230 471T306 446L402 428Q468 416 508 396T567 346T585 277Q585 201 539 157T414 99ZM298 -110Q216 -110 151 -84T50 -12L138 70Q163 36 206 17T301 -3Q345 -3 374 11T403 51Q403 68 387 79T329 99L180 131Q135 141
100 159T44 208T23 288Q23 336 44 369T103 422T186 451L238 370Q205 362 184 354T153 334T143 305Q143 278 165 266T223 246L375 217Q425 208 458 189T509 140T527 67Q527 12 500 -27T421 -88T298 -110Z" />
<glyph unicode="&#xa8;" glyph-name="dieresis" horiz-adv-x="500" d="M139 710Q180 710 202 690T225 633Q225 597 203 577T139 556Q100 556 78 576T55 633Q55 669 77 689T139 710ZM359 710Q400 710 422 690T445 633Q445 597 423 577T359 556Q319 556 297 576T275
633Q275 669 297 689T359 710Z" />
<glyph unicode="&#xa9;" glyph-name="copyright" horiz-adv-x="772" d="M386 -10Q286 -10 208 33T86 153T42 330Q42 430 86 506T208 626T386 670Q487 670 564 627T686 507T730 330Q730 230 686 154T565 34T386 -10ZM386 74Q463 74 520 107T610 197T643 330Q643
405 611 463T521 553T386 586Q310 586 252 554T162 463T129 330Q129 255 161 198T252 107T386 74ZM392 138Q301 138 251 189T201 329Q201 417 251 468T392 520Q460 520 504 490T565 410L466 363Q456 386 440 395T397 404Q363 404 343 385T323 329Q323 293 343 274T397
254Q423 254 441 263T470 299L564 254Q540 193 500 166T392 138Z" />
<glyph unicode="&#xaa;" glyph-name="ordfeminine" horiz-adv-x="438" d="M141 306Q86 306 56 331T26 397Q26 441 53 462T142 497L252 519V468L191 453Q168 448 158 438T147 412Q147 397 157 389T184 381Q197 381 209 386T230 402T239 434V529Q239 552 227 564T193
577Q172 577 155 566T131 525L29 549Q37 600 80 631T197 662Q281 662 323 629T365 527V412Q365 396 372 389T392 382Q406 382 412 385L403 318Q392 313 379 310T347 306Q306 306 282 327T257 390V409L273 404Q269 378 252 356T207 320T141 306ZM34 151V240H399V151H34Z"
/>
<glyph unicode="&#xab;" glyph-name="guillemotleft" horiz-adv-x="585" d="M308 461L187 265L308 69H160L35 265L160 461H308ZM550 461L429 265L550 69H402L277 265L402 461H550Z" />
<glyph unicode="&#xac;" glyph-name="logicalnot" horiz-adv-x="604" d="M544 314V97H407V314H544ZM544 386V264H60V386H544Z" />
<glyph unicode="&#xad;" glyph-name="uni00AD" horiz-adv-x="0" />
<glyph unicode="&#xae;" glyph-name="registered" horiz-adv-x="772" d="M386 -10Q286 -10 208 33T86 153T42 330Q42 430 86 506T208 626T386 670Q487 670 564 627T686 508T730 330Q730 230 686 154T565 34T386 -10ZM432 151L357 295L444 318L553 151H432ZM386
74Q463 74 520 107T610 197T643 330Q643 405 611 463T521 553T386 586Q310 586 252 554T162 463T129 330Q129 255 161 198T252 107T386 74ZM238 151V515H414Q470 515 507 482T545 396Q545 339 506 308T402 276H340V151H238ZM340 345H390Q414 345 428 355T442 388Q442
411 428 421T390 431H340V345Z" />
<glyph unicode="&#xaf;" glyph-name="overscore" horiz-adv-x="500" d="M432 674V569H68V674H432Z" />
<glyph unicode="&#xb0;" glyph-name="degree" horiz-adv-x="495" d="M248 298Q186 298 141 321T71 386T46 484Q46 541 70 582T140 647T248 670Q310 670 355 647T425 583T450 484Q450 428 425 386T355 321T248 298ZM248 407Q283 407 304 429T326 485Q326 519 305
540T248 562Q213 562 191 541T169 485Q169 451 191 429T248 407Z" />
<glyph unicode="&#xb1;" glyph-name="plusminus" horiz-adv-x="604" d="M364 652V185H241V652H364ZM553 477V360H51V477H553ZM553 115V1H51V115H553Z" />
<glyph unicode="&#xb2;" glyph-name="uni00B2" horiz-adv-x="392" d="M29 333V410Q53 424 75 436T118 462Q160 491 186 514T223 557T235 595Q235 615 223 627T188 640Q162 640 148 621T134 564L15 589Q17 656 64 695T191 735Q254 735 292 716T347 667T365 605Q365
580 354 556T322 510T268 466Q251 455 232 446T191 428V426Q207 428 233 429T282 430H370V333H29Z" />
<glyph unicode="&#xb3;" glyph-name="uni00B3" horiz-adv-x="379" d="M194 735Q267 735 307 705T347 622Q347 582 324 559T263 533V530Q306 529 330 508T355 445Q355 391 306 359T180 327Q108 327 66 355T9 434L123 469Q127 442 142 429T183 416Q206 416 219 428T233
459Q233 479 219 487T177 496Q173 496 169 496T160 495V560Q164 559 168 559T175 559Q200 559 213 569T226 600Q226 620 215 630T182 641Q160 641 146 629T128 591L19 623Q30 678 77 706T194 735Z" />
<glyph unicode="&#xb4;" glyph-name="acute" horiz-adv-x="540" d="M225 738H383L282 565H158L225 738Z" />
<glyph unicode="&#xb5;" glyph-name="uni00B5" horiz-adv-x="617" d="M61 -210V500H231V209Q231 167 246 144T301 120Q325 120 344 132T375 170T386 238V500H556V0H406L400 91Q379 41 343 16T259 -9Q240 -9 221 -4T187 13L231 75V-210H61Z" />
<glyph unicode="&#xb6;" glyph-name="paragraph" horiz-adv-x="748" d="M297 -100V177Q222 178 163 205T69 286T34 418Q34 497 70 550T170 632T318 660H682V-100H544V530H436V-100H297ZM294 307V530Q254 530 227 516T185 477T170 418Q170 384 184 359T226 321T294 307Z" />
<glyph unicode="&#xb7;" glyph-name="middot" horiz-adv-x="274" d="M137 263Q91 263 64 287T37 353Q37 396 64 420T137 444Q184 444 210 420T237 353Q237 311 211 287T137 263Z" />
<glyph unicode="&#xb8;" glyph-name="cedilla" horiz-adv-x="500" d="M178 10L219 37Q297 26 334 -5T371 -90Q371 -146 334 -180T231 -215Q193 -215 170 -207T128 -186L156 -105Q167 -112 181 -117T216 -123Q242 -123 258 -108T274 -66Q274 -43 253 -25T178 10Z" />
<glyph unicode="&#xb9;" glyph-name="uni00B9" horiz-adv-x="298" d="M152 730H256V333H133V549Q133 562 134 578T136 614Q112 596 83 583T19 565V666Q41 669 67 679T117 703T152 730Z" />
<glyph unicode="&#xba;" glyph-name="ordmasculine" horiz-adv-x="422" d="M211 306Q129 306 80 353T30 484Q30 568 79 615T211 662Q294 662 343 615T393 484Q393 400 344 353T211 306ZM36 151V240H386V151H36ZM211 388Q240 388 253 411T266 484Q266 534 253 557T211
580Q183 580 170 557T156 484Q156 434 169 411T211 388Z" />
<glyph unicode="&#xbb;" glyph-name="guillemotright" horiz-adv-x="585" d="M277 69L398 265L277 461H425L550 265L425 69H277ZM35 69L156 265L35 461H183L308 265L183 69H35Z" />
<glyph unicode="&#xbc;" glyph-name="onequarter" horiz-adv-x="884" d="M152 921H256V524H133V740Q133 753 134 769T136 805Q112 787 83 774T19 756V857Q41 860 67 870T117 894T152 921ZM125 0L602 661H722L245 0H125ZM870 162V81H809V-4H702V81H501V137L663
394H809V162H870ZM607 162H702V240Q702 260 703 281T705 320H702Q696 307 688 291T672 261L607 162Z" />
<glyph unicode="&#xbd;" glyph-name="onehalf" horiz-adv-x="941" d="M152 921H256V524H133V740Q133 753 134 769T136 805Q112 787 83 774T19 756V857Q41 860 67 870T117 894T152 921ZM125 0L602 661H722L245 0H125ZM578 -4V73Q602 87 624 99T667 125Q709 154
735 177T772 220T784 258Q784 278 772 290T737 303Q711 303 697 284T683 227L564 252Q566 319 613 358T740 398Q803 398 841 379T896 330T914 268Q914 243 903 219T871 173T817 129Q800 118 781 109T740 91V89Q756 91 782 92T831 93H919V-4H578Z" />
<glyph unicode="&#xbe;" glyph-name="threequarters" horiz-adv-x="965" d="M194 926Q267 926 307 896T347 813Q347 773 324 750T263 724V721Q306 720 330 699T355 636Q355 582 306 550T180 518Q108 518 66 546T9 625L123 660Q127 633 142 620T183 607Q206 607
219 619T233 650Q233 670 219 678T177 687Q173 687 169 687T160 686V751Q164 750 168 750T175 750Q200 750 213 760T226 791Q226 811 215 821T182 832Q160 832 146 820T128 782L19 814Q30 869 77 897T194 926ZM206 0L683 661H803L326 0H206ZM951 162V81H890V-4H783V81H582V137L744
394H890V162H951ZM688 162H783V240Q783 260 784 281T786 320H783Q777 307 769 291T753 261L688 162Z" />
<glyph unicode="&#xbf;" glyph-name="questiondown" horiz-adv-x="595" d="M386 287L385 135Q325 130 290 118T240 86T225 40Q225 17 234 1T260 -23T305 -31Q346 -31 369 -5T399 70L563 13Q552 -38 520 -79T433 -144T293 -169Q221 -169 165 -149T75 -87T42 17Q42
79 67 117T134 176T226 201L236 287H386ZM305 509Q350 509 376 487T402 425Q402 385 376 362T305 339Q260 339 234 362T208 425Q208 464 234 486T305 509Z" />
<glyph unicode="&#xc0;" glyph-name="Agrave" horiz-adv-x="665" d="M661 0H484L440 149H222L177 0H4L230 660H436L661 0ZM254 266H408L331 533L254 266ZM347 886L408 723H284L195 886H347Z" />
<glyph unicode="&#xc1;" glyph-name="Aacute" horiz-adv-x="665" d="M661 0H484L440 149H222L177 0H4L230 660H436L661 0ZM254 266H408L331 533L254 266ZM321 886H473L384 723H260L321 886Z" />
<glyph unicode="&#xc2;" glyph-name="Acircumflex" horiz-adv-x="665" d="M661 0H484L440 149H222L177 0H4L230 660H436L661 0ZM254 266H408L331 533L254 266ZM515 723H397L332 815L267 723H149L249 886H415L515 723Z" />
<glyph unicode="&#xc3;" glyph-name="Atilde" horiz-adv-x="665" d="M661 0H484L440 149H222L177 0H4L230 660H436L661 0ZM254 266H408L331 533L254 266ZM530 878Q526 798 492 759T407 719Q379 719 359 727T324 747T295 767T267 776Q250 776 242 762T229 720H133Q137
800 172 839T264 879Q291 879 310 871T343 851T369 831T396 822Q413 822 421 836T434 878H530Z" />
<glyph unicode="&#xc4;" glyph-name="Adieresis" horiz-adv-x="665" d="M661 0H484L440 149H222L177 0H4L230 660H436L661 0ZM254 266H408L331 533L254 266ZM221 870Q262 870 284 850T307 793Q307 757 285 737T221 716Q182 716 160 736T137 793Q137 829 159 849T221
870ZM441 870Q482 870 504 850T527 793Q527 757 505 737T441 716Q401 716 379 736T357 793Q357 829 379 849T441 870Z" />
<glyph unicode="&#xc5;" glyph-name="Aring" horiz-adv-x="665" d="M661 0H484L440 149H222L177 0H4L230 660H436L661 0ZM254 266H408L331 533L254 266ZM332 842Q395 842 433 808T471 717Q471 659 433 625T332 591Q268 591 230 625T192 717Q192 774 230 808T332
842ZM332 769Q308 769 293 755T278 717Q278 694 293 679T332 664Q356 664 370 679T385 717Q385 740 371 754T332 769Z" />
<glyph unicode="&#xc6;" glyph-name="AE" horiz-adv-x="913" d="M575 127H882V0H415V196H244L169 0H-4L273 660H868V533H575V391H799V271H575V127ZM280 308H415V538H373L280 308Z" />
<glyph unicode="&#xc7;" glyph-name="Ccedilla" horiz-adv-x="669" d="M646 189Q618 86 542 38T363 -10Q265 -10 194 30T84 147T45 330Q45 437 83 513T193 629T362 670Q429 670 486 651T582 591T638 488L487 427Q474 489 444 512T368 535Q322 535 289 512T239
444T221 330Q221 263 237 218T287 149T369 125Q414 125 446 151T490 233L646 189ZM277 10L318 37Q396 26 433 -5T470 -90Q470 -146 433 -180T330 -215Q292 -215 269 -207T227 -186L255 -105Q266 -112 280 -117T315 -123Q341 -123 357 -108T373 -66Q373 -43 352
-25T277 10Z" />
<glyph unicode="&#xc8;" glyph-name="Egrave" horiz-adv-x="619" d="M73 0V660H575V527H245V393H508V268H245V133H588V0H73ZM335 886L396 723H272L183 886H335Z" />
<glyph unicode="&#xc9;" glyph-name="Eacute" horiz-adv-x="619" d="M73 0V660H575V527H245V393H508V268H245V133H588V0H73ZM313 886H465L376 723H252L313 886Z" />
<glyph unicode="&#xca;" glyph-name="Ecircumflex" horiz-adv-x="619" d="M73 0V660H575V527H245V393H508V268H245V133H588V0H73ZM507 723H389L324 815L259 723H141L241 886H407L507 723Z" />
<glyph unicode="&#xcb;" glyph-name="Edieresis" horiz-adv-x="619" d="M73 0V660H575V527H245V393H508V268H245V133H588V0H73ZM213 870Q254 870 276 850T299 793Q299 757 277 737T213 716Q174 716 152 736T129 793Q129 829 151 849T213 870ZM433 870Q474 870
496 850T519 793Q519 757 497 737T433 716Q393 716 371 736T349 793Q349 829 371 849T433 870Z" />
<glyph unicode="&#xcc;" glyph-name="Igrave" horiz-adv-x="318" d="M245 660V0H73V660H245ZM166 886L227 723H103L14 886H166Z" />
<glyph unicode="&#xcd;" glyph-name="Iacute" horiz-adv-x="318" d="M245 660V0H73V660H245ZM152 886H304L215 723H91L152 886Z" />
<glyph unicode="&#xce;" glyph-name="Icircumflex" horiz-adv-x="318" d="M245 660V0H73V660H245ZM342 723H224L159 815L94 723H-24L76 886H242L342 723Z" />
<glyph unicode="&#xcf;" glyph-name="Idieresis" horiz-adv-x="318" d="M56 870Q95 870 117 850T140 793Q140 757 118 737T56 716Q18 716 -4 736T-26 793Q-26 829 -4 849T56 870ZM260 870Q299 870 321 850T344 793Q344 757 322 737T260 716Q222 716 200 736T178
793Q178 829 200 849T260 870ZM245 660V0H73V660H245Z" />
<glyph unicode="&#xd0;" glyph-name="Eth" horiz-adv-x="706" d="M13 270V390H399V270H13ZM349 660Q500 660 580 574T661 330Q661 172 581 86T349 0H73V660H349ZM332 130Q403 130 444 174T485 330Q485 405 466 448T413 511T332 530H245V130H332Z" />
<glyph unicode="&#xd1;" glyph-name="Ntilde" horiz-adv-x="729" d="M656 660V0H465L271 357L222 455H221L225 333V0H73V660H264L458 303L507 205H508L504 327V660H656ZM564 878Q560 798 526 759T441 719Q413 719 393 727T358 747T329 767T301 776Q284 776 276
762T263 720H167Q171 800 206 839T298 879Q325 879 344 871T377 851T403 831T430 822Q447 822 455 836T468 878H564Z" />
<glyph unicode="&#xd2;" glyph-name="Ograve" horiz-adv-x="725" d="M363 670Q462 670 533 630T642 513T680 330Q680 224 642 148T533 31T363 -10Q265 -10 194 30T84 147T45 330Q45 437 83 513T193 629T363 670ZM363 535Q317 535 286 512T238 444T221 330Q221
263 237 217T285 148T363 125Q409 125 440 148T487 217T504 330Q504 398 488 443T440 512T363 535ZM376 886L437 723H313L224 886H376Z" />
<glyph unicode="&#xd3;" glyph-name="Oacute" horiz-adv-x="725" d="M363 670Q462 670 533 630T642 513T680 330Q680 224 642 148T533 31T363 -10Q265 -10 194 30T84 147T45 330Q45 437 83 513T193 629T363 670ZM363 535Q317 535 286 512T238 444T221 330Q221
263 237 217T285 148T363 125Q409 125 440 148T487 217T504 330Q504 398 488 443T440 512T363 535ZM352 886H504L415 723H291L352 886Z" />
<glyph unicode="&#xd4;" glyph-name="Ocircumflex" horiz-adv-x="725" d="M363 670Q462 670 533 630T642 513T680 330Q680 224 642 148T533 31T363 -10Q265 -10 194 30T84 147T45 330Q45 437 83 513T193 629T363 670ZM363 535Q317 535 286 512T238 444T221 330Q221
263 237 217T285 148T363 125Q409 125 440 148T487 217T504 330Q504 398 488 443T440 512T363 535ZM546 723H428L363 815L298 723H180L280 886H446L546 723Z" />
<glyph unicode="&#xd5;" glyph-name="Otilde" horiz-adv-x="725" d="M363 670Q462 670 533 630T642 513T680 330Q680 224 642 148T533 31T363 -10Q265 -10 194 30T84 147T45 330Q45 437 83 513T193 629T363 670ZM363 535Q317 535 286 512T238 444T221 330Q221
263 237 217T285 148T363 125Q409 125 440 148T487 217T504 330Q504 398 488 443T440 512T363 535ZM561 878Q557 798 523 759T438 719Q410 719 390 727T355 747T326 767T298 776Q281 776 273 762T260 720H164Q168 800 203 839T295 879Q322 879 341 871T374 851T400
831T427 822Q444 822 452 836T465 878H561Z" />
<glyph unicode="&#xd6;" glyph-name="Odieresis" horiz-adv-x="725" d="M363 670Q462 670 533 630T642 513T680 330Q680 224 642 148T533 31T363 -10Q265 -10 194 30T84 147T45 330Q45 437 83 513T193 629T363 670ZM363 535Q317 535 286 512T238 444T221 330Q221
263 237 217T285 148T363 125Q409 125 440 148T487 217T504 330Q504 398 488 443T440 512T363 535ZM252 870Q293 870 315 850T338 793Q338 757 316 737T252 716Q213 716 191 736T168 793Q168 829 190 849T252 870ZM472 870Q513 870 535 850T558 793Q558 757 536
737T472 716Q432 716 410 736T388 793Q388 829 410 849T472 870Z" />
<glyph unicode="&#xd7;" glyph-name="multiply" horiz-adv-x="604" d="M458 78L550 170L146 574L54 482L458 78ZM146 78L550 482L458 574L54 170L146 78Z" />
<glyph unicode="&#xd8;" glyph-name="Oslash" horiz-adv-x="725" d="M252 113L203 154L472 524L523 486L252 113ZM62 -27L186 135L239 95L142 -27H62ZM548 515L495 555L595 681H675L548 515ZM363 670Q462 670 533 630T642 513T680 330Q680 224 642 148T533 31T363
-10Q265 -10 194 30T84 147T45 330Q45 437 83 513T193 629T363 670ZM363 535Q317 535 286 512T238 444T221 330Q221 263 237 217T285 148T363 125Q409 125 440 148T487 217T504 330Q504 398 488 443T440 512T363 535Z" />
<glyph unicode="&#xd9;" glyph-name="Ugrave" horiz-adv-x="698" d="M638 660V269Q638 130 565 60T349 -10Q207 -10 134 60T60 269V660H233V266Q233 195 262 160T349 125Q408 125 437 160T466 266V660H638ZM360 876L421 713H297L208 876H360Z" />
<glyph unicode="&#xda;" glyph-name="Uacute" horiz-adv-x="698" d="M638 660V269Q638 130 565 60T349 -10Q207 -10 134 60T60 269V660H233V266Q233 195 262 160T349 125Q408 125 437 160T466 266V660H638ZM338 876H490L401 713H277L338 876Z" />
<glyph unicode="&#xdb;" glyph-name="Ucircumflex" horiz-adv-x="698" d="M638 660V269Q638 130 565 60T349 -10Q207 -10 134 60T60 269V660H233V266Q233 195 262 160T349 125Q408 125 437 160T466 266V660H638ZM532 713H414L349 805L284 713H166L266 876H432L532 713Z" />
<glyph unicode="&#xdc;" glyph-name="Udieresis" horiz-adv-x="698" d="M638 660V269Q638 130 565 60T349 -10Q207 -10 134 60T60 269V660H233V266Q233 195 262 160T349 125Q408 125 437 160T466 266V660H638ZM238 860Q279 860 301 840T324 783Q324 747 302 727T238
706Q199 706 177 726T154 783Q154 819 176 839T238 860ZM458 860Q499 860 521 840T544 783Q544 747 522 727T458 706Q418 706 396 726T374 783Q374 819 396 839T458 860Z" />
<glyph unicode="&#xdd;" glyph-name="Yacute" horiz-adv-x="645" d="M635 660L408 241V0H236V241L9 660H187L276 479L323 369L371 479L460 660H635ZM311 878H463L374 715H250L311 878Z" />
<glyph unicode="&#xde;" glyph-name="Thorn" horiz-adv-x="662" d="M369 559Q492 559 557 503T623 337Q623 228 558 172T369 115H159V243H349Q450 243 450 338Q450 386 425 408T349 430H159V559H369ZM245 660V0H73V660H245Z" />
<glyph unicode="&#xdf;" glyph-name="germandbls" horiz-adv-x="646" d="M437 362Q493 362 532 339T592 277T613 187Q613 135 591 90T523 18T403 -10Q357 -10 323 -1T269 22L297 134Q311 125 327 119T370 112Q408 112 430 138T453 207Q453 252 426 275T349 299H294L311
418H341Q386 418 408 444T431 510Q431 552 406 573T339 594Q299 594 276 579T242 531T231 448V0H61V461Q61 541 89 598T179 686T345 717Q427 717 483 693T567 626T596 529Q596 488 578 451T524 390T437 364V362Z" />
<glyph unicode="&#xe0;" glyph-name="agrave" horiz-adv-x="574" d="M336 317Q336 352 317 372T266 393Q234 393 211 377T179 318L35 352Q49 424 108 467T276 510Q348 510 399 489T478 425T505 320V137Q505 98 539 98Q547 98 554 99T568 102L558 5Q544 -2 526
-5T485 -9Q447 -9 417 3T370 41T353 106V112L372 119Q372 76 347 47T282 4T198 -10Q122 -10 77 25T32 128Q32 181 64 217T165 267L352 306L351 216L257 196Q230 190 215 179T200 144Q200 122 215 111T252 100Q269 100 284 105T310 120T329 147T336 185V317ZM274
738L341 565H217L116 738H274Z" />
<glyph unicode="&#xe1;" glyph-name="aacute" horiz-adv-x="574" d="M336 317Q336 352 317 372T266 393Q234 393 211 377T179 318L35 352Q49 424 108 467T276 510Q348 510 399 489T478 425T505 320V137Q505 98 539 98Q547 98 554 99T568 102L558 5Q544 -2 526
-5T485 -9Q447 -9 417 3T370 41T353 106V112L372 119Q372 76 347 47T282 4T198 -10Q122 -10 77 25T32 128Q32 181 64 217T165 267L352 306L351 216L257 196Q230 190 215 179T200 144Q200 122 215 111T252 100Q269 100 284 105T310 120T329 147T336 185V317ZM264
738H422L321 565H197L264 738Z" />
<glyph unicode="&#xe2;" glyph-name="acircumflex" horiz-adv-x="574" d="M336 317Q336 352 317 372T266 393Q234 393 211 377T179 318L35 352Q49 424 108 467T276 510Q348 510 399 489T478 425T505 320V137Q505 98 539 98Q547 98 554 99T568 102L558 5Q544 -2
526 -5T485 -9Q447 -9 417 3T370 41T353 106V112L372 119Q372 76 347 47T282 4T198 -10Q122 -10 77 25T32 128Q32 181 64 217T165 267L352 306L351 216L257 196Q230 190 215 179T200 144Q200 122 215 111T252 100Q269 100 284 105T310 120T329 147T336 185V317ZM465
559H343L274 647L205 559H83L192 732H356L465 559Z" />
<glyph unicode="&#xe3;" glyph-name="atilde" horiz-adv-x="574" d="M336 317Q336 352 317 372T266 393Q234 393 211 377T179 318L35 352Q49 424 108 467T276 510Q348 510 399 489T478 425T505 320V137Q505 98 539 98Q547 98 554 99T568 102L558 5Q544 -2 526
-5T485 -9Q447 -9 417 3T370 41T353 106V112L372 119Q372 76 347 47T282 4T198 -10Q122 -10 77 25T32 128Q32 181 64 217T165 267L352 306L351 216L257 196Q230 190 215 179T200 144Q200 122 215 111T252 100Q269 100 284 105T310 120T329 147T336 185V317ZM472
718Q468 638 434 599T349 559Q321 559 301 567T266 587T237 607T209 616Q192 616 184 602T171 560H75Q79 640 114 679T206 719Q233 719 252 711T285 691T311 671T338 662Q355 662 363 676T376 718H472Z" />
<glyph unicode="&#xe4;" glyph-name="adieresis" horiz-adv-x="574" d="M336 317Q336 352 317 372T266 393Q234 393 211 377T179 318L35 352Q49 424 108 467T276 510Q348 510 399 489T478 425T505 320V137Q505 98 539 98Q547 98 554 99T568 102L558 5Q544 -2 526
-5T485 -9Q447 -9 417 3T370 41T353 106V112L372 119Q372 76 347 47T282 4T198 -10Q122 -10 77 25T32 128Q32 181 64 217T165 267L352 306L351 216L257 196Q230 190 215 179T200 144Q200 122 215 111T252 100Q269 100 284 105T310 120T329 147T336 185V317ZM163
710Q204 710 226 690T249 633Q249 597 227 577T163 556Q124 556 102 576T79 633Q79 669 101 689T163 710ZM383 710Q424 710 446 690T469 633Q469 597 447 577T383 556Q343 556 321 576T299 633Q299 669 321 689T383 710Z" />
<glyph unicode="&#xe5;" glyph-name="aring" horiz-adv-x="574" d="M336 317Q336 352 317 372T266 393Q234 393 211 377T179 318L35 352Q49 424 108 467T276 510Q348 510 399 489T478 425T505 320V137Q505 98 539 98Q547 98 554 99T568 102L558 5Q544 -2 526 -5T485
-9Q447 -9 417 3T370 41T353 106V112L372 119Q372 76 347 47T282 4T198 -10Q122 -10 77 25T32 128Q32 181 64 217T165 267L352 306L351 216L257 196Q230 190 215 179T200 144Q200 122 215 111T252 100Q269 100 284 105T310 120T329 147T336 185V317ZM273 802Q336
802 374 768T412 677Q412 619 374 585T273 551Q209 551 171 585T133 677Q133 734 171 768T273 802ZM273 729Q249 729 234 715T219 677Q219 654 234 639T273 624Q297 624 311 639T326 677Q326 700 312 714T273 729Z" />
<glyph unicode="&#xe6;" glyph-name="ae" horiz-adv-x="873" d="M207 -10Q125 -10 79 25T32 128Q32 183 68 219T168 268L337 302V315Q337 352 318 372T263 393Q233 393 211 377T179 318L34 352Q40 397 70 432T150 489T264 510Q345 510 397 483T463 399L408 397Q428
433 457 458T525 496T606 510Q681 510 733 480T812 396T839 273Q839 256 838 240T835 207H501V207Q501 160 534 135T609 110Q644 110 663 125T693 167L830 122Q808 58 748 24T611 -10Q526 -10 468 30T390 148L426 142Q420 110 403 83T358 34T293 2T207 -10ZM253
99Q275 99 294 109T325 138T337 186V215L256 197Q226 190 213 179T199 144Q199 125 213 112T253 99ZM501 298H678Q677 327 667 348T638 380T595 391Q558 391 534 369T501 298Z" />
<glyph unicode="&#xe7;" glyph-name="ccedilla" horiz-adv-x="562" d="M295 510Q370 510 420 489T498 432T534 355L377 303Q370 347 353 368T300 389Q269 389 248 374T217 328T206 248Q206 199 217 169T250 125T301 111Q325 111 341 120T368 148T382 192L535 143Q528
100 498 65T419 10T302 -10Q221 -10 161 21T68 110T35 250Q35 332 68 390T159 479T295 510ZM219 10L260 37Q338 26 375 -5T412 -90Q412 -146 375 -180T272 -215Q234 -215 211 -207T169 -186L197 -105Q208 -112 222 -117T257 -123Q283 -123 299 -108T315 -66Q315
-43 294 -25T219 10Z" />
<glyph unicode="&#xe8;" glyph-name="egrave" horiz-adv-x="574" d="M302 -10Q220 -10 160 20T68 109T35 250Q35 333 68 391T159 479T294 510Q372 510 427 480T511 396T540 273Q540 254 539 237T536 207H145V298H461L380 267Q380 307 371 334T342 376T294 391Q263
391 241 376T208 329T197 247Q197 198 209 168T245 124T302 110Q338 110 361 125T394 167L530 122Q516 79 482 50T401 5T302 -10ZM291 738L358 565H234L133 738H291Z" />
<glyph unicode="&#xe9;" glyph-name="eacute" horiz-adv-x="574" d="M302 -10Q220 -10 160 20T68 109T35 250Q35 333 68 391T159 479T294 510Q372 510 427 480T511 396T540 273Q540 254 539 237T536 207H145V298H461L380 267Q380 307 371 334T342 376T294 391Q263
391 241 376T208 329T197 247Q197 198 209 168T245 124T302 110Q338 110 361 125T394 167L530 122Q516 79 482 50T401 5T302 -10ZM281 738H439L338 565H214L281 738Z" />
<glyph unicode="&#xea;" glyph-name="ecircumflex" horiz-adv-x="574" d="M302 -10Q220 -10 160 20T68 109T35 250Q35 333 68 391T159 479T294 510Q372 510 427 480T511 396T540 273Q540 254 539 237T536 207H145V298H461L380 267Q380 307 371 334T342 376T294
391Q263 391 241 376T208 329T197 247Q197 198 209 168T245 124T302 110Q338 110 361 125T394 167L530 122Q516 79 482 50T401 5T302 -10ZM482 559H360L291 647L222 559H100L209 732H373L482 559Z" />
<glyph unicode="&#xeb;" glyph-name="edieresis" horiz-adv-x="574" d="M302 -10Q220 -10 160 20T68 109T35 250Q35 333 68 391T159 479T294 510Q372 510 427 480T511 396T540 273Q540 254 539 237T536 207H145V298H461L380 267Q380 307 371 334T342 376T294 391Q263
391 241 376T208 329T197 247Q197 198 209 168T245 124T302 110Q338 110 361 125T394 167L530 122Q516 79 482 50T401 5T302 -10ZM180 710Q221 710 243 690T266 633Q266 597 244 577T180 556Q141 556 119 576T96 633Q96 669 118 689T180 710ZM400 710Q441 710 463
690T486 633Q486 597 464 577T400 556Q360 556 338 576T316 633Q316 669 338 689T400 710Z" />
<glyph unicode="&#xec;" glyph-name="igrave" horiz-adv-x="291" d="M231 500V0H61V500H231ZM146 738L213 565H89L-12 738H146Z" />
<glyph unicode="&#xed;" glyph-name="iacute" horiz-adv-x="291" d="M231 500V0H61V500H231ZM136 738H294L193 565H69L136 738Z" />
<glyph unicode="&#xee;" glyph-name="icircumflex" horiz-adv-x="291" d="M231 500V0H61V500H231ZM337 559H215L146 647L77 559H-45L64 732H228L337 559Z" />
<glyph unicode="&#xef;" glyph-name="idieresis" horiz-adv-x="291" d="M242 554Q202 554 182 574T161 633Q161 671 181 691T242 712Q281 712 301 692T322 633Q322 595 302 575T242 554ZM49 554Q10 554 -10 574T-31 633Q-31 671 -11 691T49 712Q89 712 109 692T130
633Q130 595 110 575T49 554ZM231 500V0H61V500H231Z" />
<glyph unicode="&#xf0;" glyph-name="eth" horiz-adv-x="599" d="M296 -10Q217 -10 160 20T72 106T41 243Q41 323 71 379T155 465T277 495Q344 495 383 465T436 382L428 378Q419 457 388 515T304 622T174 722H329Q388 690 440 634T524 495T557 303Q557 204 525
134T434 27T296 -10ZM302 111Q334 111 355 126T386 171T396 243Q396 292 386 322T356 368T304 383Q274 383 254 368T223 322T213 243Q213 176 235 144T302 111ZM190 539L178 600L353 634L380 580L190 539ZM415 586L392 640L549 673L563 615L415 586Z" />
<glyph unicode="&#xf1;" glyph-name="ntilde" horiz-adv-x="615" d="M61 0V500H213L222 328L203 347Q218 427 266 468T387 510Q438 510 476 490T535 431T557 333V0H387V288Q387 339 368 359T318 380Q295 380 275 369T243 332T231 265V0H61ZM508 718Q504 638 470
599T385 559Q357 559 337 567T302 587T273 607T245 616Q228 616 220 602T207 560H111Q115 640 150 679T242 719Q269 719 288 711T321 691T347 671T374 662Q391 662 399 676T412 718H508Z" />
<glyph unicode="&#xf2;" glyph-name="ograve" horiz-adv-x="594" d="M296 510Q374 510 433 479T525 390T559 250Q559 168 526 110T433 21T296 -10Q219 -10 160 21T68 110T35 250Q35 332 68 390T160 479T296 510ZM296 389Q268 389 248 375T217 330T206 250Q206
201 216 171T247 126T296 111Q325 111 345 125T377 171T388 250Q388 299 377 329T346 374T296 389ZM296 738L363 565H239L138 738H296Z" />
<glyph unicode="&#xf3;" glyph-name="oacute" horiz-adv-x="594" d="M296 510Q374 510 433 479T525 390T559 250Q559 168 526 110T433 21T296 -10Q219 -10 160 21T68 110T35 250Q35 332 68 390T160 479T296 510ZM296 389Q268 389 248 375T217 330T206 250Q206
201 216 171T247 126T296 111Q325 111 345 125T377 171T388 250Q388 299 377 329T346 374T296 389ZM286 738H444L343 565H219L286 738Z" />
<glyph unicode="&#xf4;" glyph-name="ocircumflex" horiz-adv-x="594" d="M296 510Q374 510 433 479T525 390T559 250Q559 168 526 110T433 21T296 -10Q219 -10 160 21T68 110T35 250Q35 332 68 390T160 479T296 510ZM296 389Q268 389 248 375T217 330T206 250Q206
201 216 171T247 126T296 111Q325 111 345 125T377 171T388 250Q388 299 377 329T346 374T296 389ZM487 559H365L296 647L227 559H105L214 732H378L487 559Z" />
<glyph unicode="&#xf5;" glyph-name="otilde" horiz-adv-x="594" d="M296 510Q374 510 433 479T525 390T559 250Q559 168 526 110T433 21T296 -10Q219 -10 160 21T68 110T35 250Q35 332 68 390T160 479T296 510ZM296 389Q268 389 248 375T217 330T206 250Q206
201 216 171T247 126T296 111Q325 111 345 125T377 171T388 250Q388 299 377 329T346 374T296 389ZM494 718Q490 638 456 599T371 559Q343 559 323 567T288 587T259 607T231 616Q214 616 206 602T193 560H97Q101 640 136 679T228 719Q255 719 274 711T307 691T333
671T360 662Q377 662 385 676T398 718H494Z" />
<glyph unicode="&#xf6;" glyph-name="odieresis" horiz-adv-x="594" d="M296 510Q374 510 433 479T525 390T559 250Q559 168 526 110T433 21T296 -10Q219 -10 160 21T68 110T35 250Q35 332 68 390T160 479T296 510ZM296 389Q268 389 248 375T217 330T206 250Q206
201 216 171T247 126T296 111Q325 111 345 125T377 171T388 250Q388 299 377 329T346 374T296 389ZM185 710Q226 710 248 690T271 633Q271 597 249 577T185 556Q146 556 124 576T101 633Q101 669 123 689T185 710ZM405 710Q446 710 468 690T491 633Q491 597 469
577T405 556Q365 556 343 576T321 633Q321 669 343 689T405 710Z" />
<glyph unicode="&#xf7;" glyph-name="divide" horiz-adv-x="624" d="M564 386V264H60V386H564ZM313 28Q272 28 249 50T226 110Q226 150 249 172T313 194Q353 194 376 172T399 110Q399 72 376 50T313 28ZM313 458Q272 458 249 480T226 540Q226 580 249 602T313
624Q353 624 376 602T399 540Q399 502 376 480T313 458Z" />
<glyph unicode="&#xf8;" glyph-name="oslash" horiz-adv-x="594" d="M296 510Q374 510 433 479T525 390T559 250Q559 168 526 110T433 21T296 -10Q219 -10 160 21T68 110T35 250Q35 332 68 390T160 479T296 510ZM296 389Q268 389 248 375T217 330T206 250Q206
201 216 171T247 126T296 111Q325 111 345 125T377 171T388 250Q388 299 377 329T346 374T296 389ZM297 -25L740 524H807L364 -25H297Z" />
<glyph unicode="&#xf9;" glyph-name="ugrave" horiz-adv-x="614" d="M228 -10Q178 -10 140 7T80 64T58 166V500H228V206Q228 163 244 142T299 120Q316 120 331 126T358 146T376 181T383 232V500H553V0H401L396 94Q381 59 357 36T300 2T228 -10ZM302 734L369 561H245L144
734H302Z" />
<glyph unicode="&#xfa;" glyph-name="uacute" horiz-adv-x="614" d="M228 -10Q178 -10 140 7T80 64T58 166V500H228V206Q228 163 244 142T299 120Q316 120 331 126T358 146T376 181T383 232V500H553V0H401L396 94Q381 59 357 36T300 2T228 -10ZM292 734H450L349
561H225L292 734Z" />
<glyph unicode="&#xfb;" glyph-name="ucircumflex" horiz-adv-x="614" d="M228 -10Q178 -10 140 7T80 64T58 166V500H228V206Q228 163 244 142T299 120Q316 120 331 126T358 146T376 181T383 232V500H553V0H401L396 94Q381 59 357 36T300 2T228 -10ZM493 555H371L302
643L233 555H111L220 728H384L493 555Z" />
<glyph unicode="&#xfc;" glyph-name="udieresis" horiz-adv-x="614" d="M228 -10Q178 -10 140 7T80 64T58 166V500H228V206Q228 163 244 142T299 120Q316 120 331 126T358 146T376 181T383 232V500H553V0H401L396 94Q381 59 357 36T300 2T228 -10ZM191 706Q232
706 254 686T277 629Q277 593 255 573T191 552Q152 552 130 572T107 629Q107 665 129 685T191 706ZM411 706Q452 706 474 686T497 629Q497 593 475 573T411 552Q371 552 349 572T327 629Q327 665 349 685T411 706Z" />
<glyph unicode="&#xfd;" glyph-name="yacute" horiz-adv-x="558" d="M559 500L381 0Q353 -79 320 -126T242 -194T134 -215Q92 -215 58 -206T-3 -181L31 -66Q48 -79 68 -84T119 -90Q154 -90 170 -78T195 -42L207 -11L150 125L2 500H189L264 215L287 109L315 219L390
500H559ZM284 734H442L341 561H217L284 734Z" />
<glyph unicode="&#xfe;" glyph-name="thorn" horiz-adv-x="622" d="M61 -210V712H231V361L215 367Q229 429 271 469T386 510Q443 510 487 479T557 390T583 248Q583 167 557 110T486 21T379 -10Q311 -10 270 31T215 133L231 157V-210H61ZM321 115Q363 115 387 148T412
250Q412 319 388 352T322 385Q294 385 274 370T242 324T231 250Q231 208 241 178T272 132T321 115Z" />
<glyph unicode="&#xff;" glyph-name="ydieresis" horiz-adv-x="558" d="M559 500L381 0Q353 -79 320 -126T242 -194T134 -215Q92 -215 58 -206T-3 -181L31 -66Q48 -79 68 -84T119 -90Q154 -90 170 -78T195 -42L207 -11L150 125L2 500H189L264 215L287 109L315
219L390 500H559ZM183 706Q224 706 246 686T269 629Q269 593 247 573T183 552Q144 552 122 572T99 629Q99 665 121 685T183 706ZM403 706Q444 706 466 686T489 629Q489 593 467 573T403 552Q363 552 341 572T319 629Q319 665 341 685T403 706Z" />
<glyph unicode="&#x2013;" glyph-name="endash" horiz-adv-x="692" d="M614 335V200H78V335H614Z" />
<glyph unicode="&#x2014;" glyph-name="emdash" horiz-adv-x="1006" d="M928 335V200H78V335H928Z" />
<glyph unicode="&#x2018;" glyph-name="quoteleft" horiz-adv-x="294" d="M149 362Q94 362 68 399T41 485Q41 531 60 572T111 644T180 692L249 641Q222 630 198 613T157 576T130 535L135 532Q141 536 148 538T169 540Q196 540 222 520T249 458Q249 411 219 387T149 362Z" />
<glyph unicode="&#x2019;" glyph-name="quoteright" horiz-adv-x="294" d="M150 690Q205 690 231 654T258 567Q258 522 239 481T188 408T119 360L50 411Q78 423 101 439T142 476T169 517L164 520Q158 516 151 514T130 512Q103 512 77 532T50 594Q50 641 80 665T150 690Z" />
<glyph unicode="&#x201a;" glyph-name="quotesinglbase" horiz-adv-x="294" d="M150 172Q205 172 231 136T258 49Q258 4 239 -37T188 -110T119 -158L50 -107Q78 -95 101 -79T142 -42T169 -1L164 2Q158 -2 151 -4T130 -6Q103 -6 77 14T50 76Q50 123 80 147T150 172Z" />
<glyph unicode="&#x201c;" glyph-name="quotedblleft" horiz-adv-x="539" d="M149 362Q94 362 68 399T41 485Q41 531 60 572T111 644T180 692L249 641Q222 630 198 613T157 576T130 535L135 532Q141 536 148 538T169 540Q196 540 222 520T249 458Q249 411 219
387T149 362ZM394 362Q339 362 313 399T286 485Q286 531 305 572T356 644T425 692L494 641Q467 630 443 613T402 576T375 535L380 532Q386 536 393 538T414 540Q441 540 467 520T494 458Q494 411 464 387T394 362Z" />
<glyph unicode="&#x201d;" glyph-name="quotedblright" horiz-adv-x="539" d="M150 690Q205 690 231 654T258 567Q258 522 239 481T188 408T119 360L50 411Q78 423 101 439T142 476T169 517L164 520Q158 516 151 514T130 512Q103 512 77 532T50 594Q50 641 80
665T150 690ZM395 690Q450 690 476 654T503 567Q503 522 484 481T433 408T364 360L295 411Q323 423 346 439T387 476T414 517L409 520Q403 516 396 514T375 512Q348 512 322 532T295 594Q295 641 325 665T395 690Z" />
<glyph unicode="&#x201e;" glyph-name="quotedblbase" horiz-adv-x="534" d="M150 172Q205 172 231 136T258 49Q258 4 239 -37T188 -110T119 -158L50 -107Q78 -95 101 -79T142 -42T169 -1L164 2Q158 -2 151 -4T130 -6Q103 -6 77 14T50 76Q50 123 80 147T150 172ZM390
172Q445 172 471 136T498 49Q498 4 479 -37T428 -110T359 -158L290 -107Q318 -95 341 -79T382 -42T409 -1L404 2Q398 -2 391 -4T370 -6Q343 -6 317 14T290 76Q290 123 320 147T390 172Z" />
<glyph unicode="&#x2022;" glyph-name="bullet" horiz-adv-x="430" d="M215 184Q144 184 103 224T61 333Q61 401 102 441T215 481Q286 481 327 441T369 333Q369 264 328 224T215 184Z" />
<glyph unicode="&#x2039;" glyph-name="guilsinglleft" horiz-adv-x="343" d="M308 461L187 265L308 69H160L35 265L160 461H308Z" />
<glyph unicode="&#x203a;" glyph-name="guilsinglright" horiz-adv-x="343" d="M35 69L156 265L35 461H183L308 265L183 69H35Z" />
</font>
</defs>
</svg>
