<?xml version="1.0" standalone="no"?>
<!DOCTYPE svg PUBLIC "-//W3C//DTD SVG 1.1//EN" "http://www.w3.org/Graphics/SVG/1.1/DTD/svg11.dtd">
<svg xmlns="http://www.w3.org/2000/svg">
<defs >
<font id="KantumruyPro" horiz-adv-x="625" ><font-face
    font-family="Kantumruy Pro"
    units-per-em="1000"
    panose-1="0 0 0 0 0 0 0 0 0 0"
    ascent="920"
    descent="-260"
    alphabetic="0" />
<glyph unicode=" " glyph-name="space" horiz-adv-x="334" />
<glyph unicode="!" glyph-name="exclam" horiz-adv-x="257" d="M89 203L113 365L182 660H259L191 365L141 203H89ZM79 -9Q56 -9 41 5T25 42Q25 73 43 91T88 110Q111 110 126 96T141 58Q141 27 123 9T79 -9Z" />
<glyph unicode="&quot;" glyph-name="quotedbl" horiz-adv-x="379" d="M419 689L341 453H283L337 689H419ZM261 689L183 453H125L179 689H261Z" />
<glyph unicode="#" glyph-name="numbersign" horiz-adv-x="620" d="M293 0L514 660H578L357 0H293ZM28 189V244H564L563 189H28ZM68 0L289 660H353L132 0H68ZM94 418V473H629V418H94Z" />
<glyph unicode="$" glyph-name="dollar" horiz-adv-x="603" d="M309 1Q240 1 185 23T91 87T33 191L100 221Q115 166 147 131T222 79T315 62Q363 62 396 79T447 125T465 186Q465 212 454 229T422 259T372 280L272 309Q228 322 194 345T142 399T123 470Q123 524
151 567T230 635T349 660Q410 660 457 643T536 590T586 503L519 473Q508 523 481 550T419 589T345 600Q272 600 233 564T193 481Q193 444 220 416T289 376L397 345Q440 333 470 313T517 264T534 197Q534 138 504 94T422 26T309 1ZM194 -100L393 760H456L257 -100H194Z"
/>
<glyph unicode="%" glyph-name="percent" horiz-adv-x="871" d="M118 0L712 660H790L196 0H118ZM232 309Q165 309 129 350T92 455Q92 512 114 560T177 639T273 669Q340 669 376 628T413 522Q413 466 391 418T328 339T232 309ZM237 366Q273 366 298 389T336 447T349
520Q349 561 329 586T268 612Q232 612 207 589T169 531T156 457Q156 416 176 391T237 366ZM636 -9Q569 -9 533 32T496 138Q496 195 518 243T581 321T677 351Q744 351 780 310T816 205Q816 149 794 100T731 21T636 -9ZM641 48Q677 48 701 71T739 130T752 203Q752
244 732 269T672 295Q636 295 611 272T573 214T560 140Q560 99 580 74T641 48Z" />
<glyph unicode="&amp;" glyph-name="ampersand" horiz-adv-x="584" d="M223 -8Q127 -8 75 40T23 170Q23 231 49 272T121 340T230 385L263 399Q304 413 338 432T392 477T412 541Q412 576 394 594T347 613Q310 613 283 584T256 501Q256 468 266 427T293 338T333
243Q361 183 396 139T469 69T544 44L533 -11V-11Q457 -11 392 48T279 205Q253 259 233 310T202 409T191 497Q191 550 212 588T269 648T352 670Q411 670 443 636T475 552Q475 494 448 455T374 390T264 342L257 341Q206 325 169 304T111 253T90 174Q90 116 127 84T224
52Q274 52 308 69T377 117L390 127Q425 163 452 213T489 325L550 320Q538 253 505 190T425 82L407 68Q369 35 324 14T223 -8Z" />
<glyph unicode="&apos;" glyph-name="quotesingle" horiz-adv-x="221" d="M261 689L183 453H125L179 689H261Z" />
<glyph unicode="(" glyph-name="parenleft" horiz-adv-x="331" d="M162 -187Q113 -110 86 -13T59 181Q59 267 80 350T143 507T243 644T380 750L409 705Q318 647 256 563T162 379T130 174Q130 86 151 -1T210 -156L162 -187Z" />
<glyph unicode=")" glyph-name="parenright" horiz-adv-x="331" d="M172 750Q222 674 248 576T275 382Q275 296 254 213T191 56T91 -81T-46 -187L-75 -142Q17 -83 79 1T172 185T204 389Q204 478 183 564T124 719L172 750Z" />
<glyph unicode="*" glyph-name="asterisk" horiz-adv-x="556" d="M401 282L351 388L328 463L272 395L178 305L138 347L231 438L299 491L226 517L121 568L148 620L255 570L321 528L330 611L356 730H419L390 604L362 524L443 549L566 573L570 516L448 491L365 483L406
415L454 309L401 282Z" />
<glyph unicode="+" glyph-name="plus" horiz-adv-x="604" d="M408 562L295 69H227L340 562H408ZM567 350L552 283H68L84 350H567Z" />
<glyph unicode="," glyph-name="comma" horiz-adv-x="242" d="M86 110Q115 110 131 89T148 35Q148 -1 129 -38T75 -104T-8 -144L-31 -100Q7 -94 32 -80T73 -45T94 -1L93 0Q89 -4 83 -6T67 -8Q45 -8 34 8T22 44Q22 73 40 91T86 110Z" />
<glyph unicode="-" glyph-name="hyphen" horiz-adv-x="498" d="M422 300L405 225H82L99 300H422Z" />
<glyph unicode="." glyph-name="period" horiz-adv-x="250" d="M75 -9Q52 -9 37 5T21 42Q21 73 39 91T84 110Q107 110 122 96T137 58Q137 27 119 9T75 -9Z" />
<glyph unicode="/" glyph-name="slash" horiz-adv-x="411" d="M495 730L27 -70H-47L421 730H495Z" />
<glyph unicode="0" glyph-name="zero" horiz-adv-x="610" d="M285 -8Q219 -8 172 23T99 110T74 241Q74 281 78 318T91 389Q110 468 148 531T242 632T372 670Q435 670 480 639T549 552T573 422Q573 383 569 347T557 278Q539 198 501 133T409 30T285 -8ZM293 56Q342
56 380 88T444 174T485 289Q493 321 496 356T500 421Q500 516 464 561T364 606Q312 606 272 574T205 490T163 375Q148 306 148 242Q148 143 190 100T293 56Z" />
<glyph unicode="1" glyph-name="one" horiz-adv-x="360" d="M121 0L230 479Q235 498 238 513T247 542T258 574Q239 554 207 535T141 502T78 482L79 552Q113 561 153 578T228 618T283 660H346L193 0H121Z" />
<glyph unicode="2" glyph-name="two" horiz-adv-x="549" d="M22 0L39 68Q121 128 193 180T320 281T406 382T438 490Q438 547 405 574T321 602Q254 602 211 559T150 451L95 497Q118 571 177 620T325 670Q381 670 423 650T489 593T513 504Q513 435 478 375T386 262T264
160T137 66V65Q148 66 169 66T200 67H470L452 0H22Z" />
<glyph unicode="3" glyph-name="three" horiz-adv-x="544" d="M256 -10Q168 -10 112 39T39 171L115 193Q123 131 160 94T261 57Q306 57 337 76T384 127T400 195Q400 253 365 277T278 301Q271 301 265 301T251 300L267 371Q278 370 287 369T306 368Q349 368 379
383T426 427T443 496Q443 552 407 578T324 604Q265 604 233 575T182 500L119 538Q146 601 202 636T333 671Q385 671 426 652T491 596T515 508Q515 458 495 419T441 357T365 331L364 329Q415 321 444 288T473 202Q473 136 442 89T362 16T256 -10Z" />
<glyph unicode="4" glyph-name="four" horiz-adv-x="544" d="M266 0L307 177H17L32 239Q45 256 55 271T94 318L388 660H490L392 239H514L499 177H378L337 0H266ZM99 239H321L402 592L172 319Q153 297 135 278T99 239Z" />
<glyph unicode="5" glyph-name="five" horiz-adv-x="553" d="M259 -10Q200 -10 155 14T83 78T50 162L127 181Q131 151 145 123T188 76T267 57Q316 57 348 81T396 145T412 230Q412 298 374 329T282 360Q245 360 218 349T164 314L106 334L211 660H543L526 593H259L191
381Q214 400 245 410T311 421Q360 421 399 401T463 340T487 240Q487 169 459 112T380 23T259 -10Z" />
<glyph unicode="6" glyph-name="six" horiz-adv-x="567" d="M293 -10Q219 -10 171 21T99 109T75 241Q75 321 93 397T148 535T242 634T378 671Q446 671 498 636T566 524L494 501Q487 550 452 576T371 603Q318 603 279 577T212 505T168 405T146 293Q163 350 214
381T327 412Q411 412 460 362T510 229Q510 160 484 106T409 21T293 -10ZM297 57Q341 57 372 78T419 135T436 216Q436 272 401 309T300 346Q255 346 223 325T174 269T157 195Q157 164 167 139T196 96T240 67T297 57Z" />
<glyph unicode="7" glyph-name="seven" horiz-adv-x="516" d="M121 660H570L553 593Q473 519 409 430T298 234T227 0H148Q180 169 269 328T501 611L500 593H104L121 660Z" />
<glyph unicode="8" glyph-name="eight" horiz-adv-x="588" d="M282 -9Q218 -9 165 13T79 76T47 175Q47 229 71 268T137 331T235 362L234 348Q208 358 189 377T158 423T147 479Q147 535 174 578T248 646T357 671Q414 671 459 651T531 595T557 508Q557 441 515 392T402
328L401 344Q435 330 459 308T497 258T511 194Q511 133 482 88T401 17T282 -9ZM289 58Q357 58 396 92T436 186Q436 226 414 254T354 297T275 313Q232 313 198 297T143 251T122 181Q122 141 145 114T206 72T289 58ZM349 375Q388 375 418 391T465 435T482 499Q482
546 448 576T355 606Q315 606 285 590T238 545T221 481Q221 452 237 428T282 390T349 375Z" />
<glyph unicode="9" glyph-name="nine" horiz-adv-x="586" d="M247 -10Q159 -10 109 39T43 165L118 189Q123 155 138 125T182 76T253 57Q306 57 345 82T412 151T456 251T477 368Q466 330 440 304T379 264T308 250Q248 250 204 274T137 342T113 441Q113 504 141
556T219 639T336 670Q409 670 456 639T525 552T548 421Q548 341 530 264T474 125T380 27T247 -10ZM323 314Q368 314 400 335T449 392T466 467Q466 509 450 539T403 586T333 603Q288 603 256 584T205 531T187 453Q187 396 221 355T323 314Z" />
<glyph unicode=":" glyph-name="colon" horiz-adv-x="283" d="M182 396Q165 396 154 407T142 435Q142 458 156 472T189 486Q206 486 217 475T229 447Q229 424 216 410T182 396ZM90 -3Q73 -3 62 8T50 36Q50 59 64 73T97 87Q114 87 125 76T137 48Q137 25 124 11T90 -3Z" />
<glyph unicode=";" glyph-name="semicolon" horiz-adv-x="283" d="M100 110Q129 110 145 89T162 35Q162 -1 143 -38T90 -104T6 -144L-17 -100Q21 -94 46 -80T87 -45T108 -1L107 0Q103 -4 97 -6T81 -8Q59 -8 48 8T36 44Q36 73 54 91T100 110ZM192 508Q215 508 230
494T246 457Q246 426 228 408T183 389Q161 389 146 403T130 441Q130 472 148 490T192 508Z" />
<glyph unicode="&lt;" glyph-name="less" horiz-adv-x="590" d="M602 567L584 491L136 298L495 101L479 32L73 258L93 341L602 567Z" />
<glyph unicode="=" glyph-name="equal" horiz-adv-x="604" d="M581 439L565 371H95L110 439H581ZM535 238L519 171H49L64 238H535Z" />
<glyph unicode="&gt;" glyph-name="greater" horiz-adv-x="590" d="M-1 32L17 108L465 301L106 498L122 567L528 341L508 258L-1 32Z" />
<glyph unicode="?" glyph-name="question" horiz-adv-x="512" d="M195 201L230 348Q298 348 345 363T418 411T443 496Q443 549 407 575T317 601Q253 601 212 569T151 484L93 526Q111 568 143 600T220 650T320 668Q376 668 420 648T491 591T517 500Q517 437 488
393T408 324T291 295L270 201H195ZM196 -9Q173 -9 158 5T142 42Q142 73 160 91T205 110Q228 110 243 96T258 58Q258 27 240 9T196 -9Z" />
<glyph unicode="@" glyph-name="at" horiz-adv-x="929" d="M457 -193Q343 -193 255 -146T117 -11T67 195Q67 297 99 382T190 529T329 625T504 659Q593 659 661 632T777 557T848 442T872 297Q872 232 856 177T811 82T747 19T672 -4Q640 -4 618 9T587 45T581 96Q559
53 516 28T425 3Q374 3 336 28T276 97T254 200Q254 256 271 304T318 389T389 446T478 467Q537 467 576 435T627 348L653 458H717L641 132Q638 119 637 110T636 93Q636 65 649 56T681 47Q708 47 733 65T777 116T807 195T819 297Q819 368 797 424T734 521T633 583T498
605Q419 605 352 576T234 494T155 365T127 196Q127 90 172 15T293 -100T458 -140Q529 -140 577 -124T656 -89L678 -136Q651 -151 621 -164T551 -185T457 -193ZM445 58Q489 58 524 87T580 165T601 274Q601 317 586 347T545 394T482 411Q435 411 398 384T340 309T318
201Q318 156 333 124T376 75T445 58Z" />
<glyph unicode="A" glyph-name="A" horiz-adv-x="619" d="M-36 0L360 660H449L539 0H468L441 195H159L45 0H-36ZM201 262H432L389 583L201 262Z" />
<glyph unicode="B" glyph-name="B" horiz-adv-x="630" d="M46 0L199 660H426Q507 660 550 620T594 512Q594 466 577 428T529 364T456 328V327Q503 320 531 285T560 202Q560 108 495 54T317 0H46ZM135 67H317Q398 67 441 102T485 202Q485 232 472 253T433 285T366
296H187L135 67ZM202 363H371Q418 363 451 381T502 430T520 502Q520 551 489 572T407 593H255L202 363Z" />
<glyph unicode="C" glyph-name="C" horiz-adv-x="658" d="M353 -10Q279 -10 218 21T120 116T83 271Q83 346 104 417T168 545T271 636T414 670Q506 670 567 625T652 486L577 461Q560 536 517 569T407 603Q347 603 301 576T223 502T175 399T159 282Q159 212 185
162T257 84T357 57Q422 57 461 85T528 163L597 129Q557 65 499 28T353 -10Z" />
<glyph unicode="D" glyph-name="D" horiz-adv-x="689" d="M47 0L200 660H386Q468 660 526 626T615 531T646 392Q646 308 620 237T546 113T431 30T284 0H47ZM134 67H294Q357 67 407 92T494 162T550 262T569 381Q569 441 548 489T485 565T377 593H256L134 67Z" />
<glyph unicode="E" glyph-name="E" horiz-adv-x="606" d="M46 0L199 660H637L620 593H254L203 369H491L475 301H188L134 67H516L500 0H46Z" />
<glyph unicode="F" glyph-name="F" horiz-adv-x="566" d="M607 593H255L203 369H496L479 301H188L118 0H46L199 660H623L607 593Z" />
<glyph unicode="G" glyph-name="G" horiz-adv-x="690" d="M334 -8Q266 -8 209 25T117 121T83 272Q83 349 105 420T170 548T276 637T420 670Q478 670 527 653T613 597T668 493L595 468Q577 540 530 572T416 604Q353 604 305 577T225 503T175 399T158 281Q158 211
181 162T248 86T348 60Q403 60 444 80T512 136T551 224L559 258H355L371 325H638L559 0H502L531 139L539 131Q521 85 491 54T422 8T334 -8Z" />
<glyph unicode="H" glyph-name="H" horiz-adv-x="702" d="M693 660L540 0H468L621 660H693ZM271 660L118 0H46L199 660H271ZM587 369L571 301H154L169 369H587Z" />
<glyph unicode="I" glyph-name="I" horiz-adv-x="280" d="M271 660L118 0H46L199 660H271Z" />
<glyph unicode="J" glyph-name="J" horiz-adv-x="528" d="M202 -8Q135 -8 91 24T34 112T44 237L112 242Q86 160 111 109T209 57Q272 57 304 95T357 222L457 660H530L425 205Q415 162 399 124T357 56T294 9T202 -8Z" />
<glyph unicode="K" glyph-name="K" horiz-adv-x="614" d="M46 0L199 660H271L192 316L578 660H679L371 387L530 0H450L315 338L166 206L118 0H46Z" />
<glyph unicode="L" glyph-name="L" horiz-adv-x="564" d="M134 67H494L477 0H46L199 660H271L134 67Z" />
<glyph unicode="M" glyph-name="M" horiz-adv-x="816" d="M46 0L199 660H302L354 225L366 87H367L441 223L691 660H807L654 0H587L687 436L728 595H727L379 0H317L246 595H245L214 436L115 0H46Z" />
<glyph unicode="N" glyph-name="N" horiz-adv-x="702" d="M46 0L199 660H286L454 200L492 79H493L514 179L625 660H693L540 0H454L283 462L246 581H245L225 481L115 0H46Z" />
<glyph unicode="O" glyph-name="O" horiz-adv-x="723" d="M348 -10Q276 -10 216 23T120 121T84 277Q84 354 105 425T169 551T273 638T415 670Q487 670 546 637T641 539T677 383Q677 306 656 236T592 110T489 22T348 -10ZM357 58Q417 58 462 85T539 158T585 261T601
378Q601 449 576 499T507 575T405 602Q345 602 299 575T222 503T175 400T159 282Q159 212 184 162T253 85T357 58Z" />
<glyph unicode="P" glyph-name="P" horiz-adv-x="592" d="M46 0L199 660H383Q478 660 532 612T587 483Q587 417 556 366T468 286T336 257H148L163 325H354Q407 325 442 346T494 401T512 477Q512 530 478 561T377 593H255L118 0H46Z" />
<glyph unicode="Q" glyph-name="Q" horiz-adv-x="723" d="M441 -194Q394 -194 356 -176T295 -123T272 -43Q272 -29 274 -14T281 18L349 32Q338 1 338 -29Q338 -76 368 -100T448 -124Q477 -124 502 -117T550 -95L554 -166Q529 -182 498 -188T441 -194ZM348 -10Q276
-10 216 23T120 121T84 277Q84 354 105 425T169 551T273 638T415 670Q487 670 546 637T641 539T677 383Q677 306 656 236T592 110T489 22T348 -10ZM357 58Q417 58 462 85T539 158T585 261T601 378Q601 449 576 499T507 575T405 602Q345 602 299 575T222 503T175
400T159 282Q159 212 184 162T253 85T357 58Z" />
<glyph unicode="R" glyph-name="R" horiz-adv-x="620" d="M46 0L199 660H407Q494 660 544 614T594 485Q594 429 569 385T503 312T412 276L368 270H166L181 337H362Q415 337 449 357T501 411T519 487Q519 537 486 565T393 593H255L118 0H46ZM458 0L350 284L423
293L536 0H458Z" />
<glyph unicode="S" glyph-name="S" horiz-adv-x="620" d="M324 -8Q252 -8 195 14T98 80T39 187L111 222Q126 165 158 129T235 76T331 59Q379 59 412 76T463 121T481 182Q481 223 456 244T386 279L286 308Q212 330 172 373T132 475Q132 530 161 574T242 645T364
671Q457 671 520 631T609 509L537 475Q525 528 498 555T434 593T360 604Q310 604 276 588T225 546T207 487Q207 452 232 423T304 379L415 347Q486 327 521 289T556 194Q556 132 524 87T440 17T324 -8Z" />
<glyph unicode="T" glyph-name="T" horiz-adv-x="569" d="M635 660L619 593H401L264 0H192L329 593H107L124 660H635Z" />
<glyph unicode="U" glyph-name="U" horiz-adv-x="686" d="M315 -10Q230 -10 174 25T98 126T98 285L186 660H258L168 268Q152 199 167 152T223 81T320 57Q399 57 445 109T512 249L607 660H679L579 228Q554 120 488 55T315 -10Z" />
<glyph unicode="V" glyph-name="V" horiz-adv-x="604" d="M677 660L284 0H202L117 660H190L246 190L256 66L319 188L598 660H677Z" />
<glyph unicode="W" glyph-name="W" horiz-adv-x="917" d="M164 0L127 660H196L223 75L502 660H590L607 71L903 660H980L638 0H547L531 439L530 585H529L462 437L251 0H164Z" />
<glyph unicode="X" glyph-name="X" horiz-adv-x="567" d="M-35 0L266 346L141 660H220L320 398L541 660H625L348 336L482 0H406L294 283L53 0H-35Z" />
<glyph unicode="Y" glyph-name="Y" horiz-adv-x="539" d="M175 0L235 258L110 660H188L255 430L283 325L360 436L532 660H619L306 252L247 0H175Z" />
<glyph unicode="Z" glyph-name="Z" horiz-adv-x="573" d="M-6 0L9 66L500 593H129L145 660H607L591 595L99 67H497L480 0H-6Z" />
<glyph unicode="[" glyph-name="bracketleft" horiz-adv-x="335" d="M403 667H248L69 -105H224L209 -168H-13L195 730H417L403 667Z" />
<glyph unicode="\" glyph-name="backslash" horiz-adv-x="457" d="M126 730H190L344 -70H280L126 730Z" />
<glyph unicode="]" glyph-name="bracketright" horiz-adv-x="335" d="M-65 -105H90L269 667H114L129 730H351L143 -168H-79L-65 -105Z" />
<glyph unicode="^" glyph-name="asciicircum" horiz-adv-x="541" d="M52 355L347 730H416L536 355H468L370 669L130 355H52Z" />
<glyph unicode="_" glyph-name="underscore" horiz-adv-x="534" d="M454 -97L439 -164H-95L-80 -97H454Z" />
<glyph unicode="`" glyph-name="grave" horiz-adv-x="506" d="M362 748L408 583H353L290 748H362Z" />
<glyph unicode="a" glyph-name="a" horiz-adv-x="608" d="M243 -8Q187 -8 145 19T78 96T54 211Q54 273 72 327T124 423T203 487T303 510Q369 510 413 474T468 378L495 500H567L451 0H388L407 97Q383 49 339 21T243 -8ZM262 53Q298 53 330 72T386 125T424 203T438
296Q438 344 422 378T376 430T307 448Q254 448 213 417T149 332T125 211Q125 161 141 126T188 72T262 53Z" />
<glyph unicode="b" glyph-name="b" horiz-adv-x="597" d="M361 508Q414 508 455 482T519 407T543 289Q543 226 525 172T472 77T393 13T295 -10Q225 -10 183 29T129 123L102 0H30L198 730H270L198 416Q221 457 265 482T361 508ZM295 52Q345 52 385 83T448 169T472
290Q472 342 455 376T408 428T340 446Q287 446 247 415T183 329T160 203Q160 135 194 94T295 52Z" />
<glyph unicode="c" glyph-name="c" horiz-adv-x="519" d="M264 -9Q199 -9 152 20T80 101T55 214Q55 301 87 367T177 471T309 509Q362 509 402 490T468 436T502 356L427 338Q422 385 392 416T305 447Q254 447 214 417T151 335T128 216Q128 170 144 133T193 75T272
53Q311 53 345 75T395 137L464 112Q439 54 386 23T264 -9Z" />
<glyph unicode="d" glyph-name="d" horiz-adv-x="609" d="M244 -8Q188 -8 145 19T78 96T54 211Q54 273 72 327T124 423T204 487T304 510Q370 510 414 475T469 378L549 730H621L452 0H389L408 97Q384 49 340 21T244 -8ZM262 53Q298 53 330 72T386 124T425 202T439
296Q439 344 423 378T377 430T308 448Q255 448 214 417T149 332T125 211Q125 161 141 126T188 72T262 53Z" />
<glyph unicode="e" glyph-name="e" horiz-adv-x="551" d="M264 -9Q198 -9 151 21T80 101T55 213Q55 292 85 359T173 468T312 509Q370 509 411 484T475 416T497 318Q497 300 494 279T483 235H90L91 298H453L421 273Q424 286 425 297T427 320Q427 357 413 385T372
430T307 447Q259 447 225 427T170 373T138 298T128 212Q128 166 146 130T196 74T273 53Q323 53 356 75T410 134L467 96Q435 48 384 20T264 -9Z" />
<glyph unicode="f" glyph-name="f" horiz-adv-x="366" d="M67 0L204 593Q221 667 262 701T370 735Q396 735 418 729T453 711L428 652Q418 660 402 665T369 670Q328 670 305 648T270 573L254 500L249 476L139 0H67ZM70 438L86 500H403L388 438H70Z" />
<glyph unicode="g" glyph-name="g" horiz-adv-x="608" d="M206 -215Q150 -215 105 -195T32 -139T-6 -54L66 -28Q77 -87 110 -119T211 -152Q250 -152 284 -138T343 -89T382 8L408 128L420 135Q404 80 357 46T247 11Q191 11 147 39T77 117T52 226Q52 288 70 339T122
429T200 489T299 510Q350 510 388 489T448 428T470 338L456 333L495 500H567L450 -1Q424 -114 360 -164T206 -215ZM266 73Q314 73 352 102T413 183T436 297Q436 344 420 378T373 430T303 448Q251 448 211 420T147 342T124 227Q124 159 162 116T266 73Z" />
<glyph unicode="h" glyph-name="h" horiz-adv-x="581" d="M30 0L200 730H272L194 395L180 389Q200 448 251 479T364 510Q418 510 457 485T512 413T513 300L443 0H371L441 301Q457 370 430 408T344 447Q298 447 262 426T202 365T164 268L102 0H30Z" />
<glyph unicode="i" glyph-name="i" horiz-adv-x="249" d="M218 500L102 0H30L146 500H218ZM213 596Q191 596 177 609T163 644Q163 673 180 690T221 707Q243 707 257 694T271 659Q271 631 254 614T213 596Z" />
<glyph unicode="j" glyph-name="j" horiz-adv-x="241" d="M-65 -215Q-92 -215 -119 -207T-162 -181L-136 -117Q-123 -128 -105 -135T-69 -143Q-38 -143 -21 -123T7 -58L138 500H210L76 -77Q60 -148 21 -181T-65 -215ZM461 596Q439 596 425 609T411 644Q411 673
428 690T469 707Q491 707 505 694T519 659Q519 631 502 614T461 596Z" />
<glyph unicode="k" glyph-name="k" horiz-adv-x="524" d="M549 500L295 285L279 274L92 116L106 208L448 500H549ZM271 730L102 0H30L199 730H271ZM308 322L444 0H366L249 284L308 322Z" />
<glyph unicode="l" glyph-name="l" horiz-adv-x="294" d="M151 -7Q90 -7 68 33T60 140L196 730H268L131 137Q121 94 135 75T183 56Q208 56 224 60L205 3Q190 -3 179 -5T151 -7Z" />
<glyph unicode="m" glyph-name="m" horiz-adv-x="919" d="M30 0L146 500H210L189 385L180 389Q200 448 251 479T366 510Q418 510 456 486T509 414T509 298L439 0H367L437 299Q454 370 428 408T345 447Q297 447 262 426T202 364T165 268L102 0H30ZM704 0L773 299Q790
370 764 408T682 447Q634 447 598 426T538 364T500 267L493 368Q521 438 578 474T702 510Q755 510 793 485T846 413T845 298L776 0H704Z" />
<glyph unicode="n" glyph-name="n" horiz-adv-x="581" d="M30 0L146 500H210L189 385L180 389Q200 448 251 479T364 510Q420 510 459 485T513 413T513 300L443 0H371L441 301Q457 370 430 408T344 447Q298 447 262 426T202 365T164 268L102 0H30Z" />
<glyph unicode="o" glyph-name="o" horiz-adv-x="576" d="M271 -9Q202 -9 154 21T80 102T55 214Q55 300 87 366T176 471T306 509Q375 509 423 479T496 399T521 287Q521 201 489 134T400 29T271 -9ZM273 53Q324 53 363 83T425 165T448 284Q448 352 413 399T303
447Q252 447 213 417T151 336T128 217Q128 172 144 135T192 75T273 53Z" />
<glyph unicode="p" glyph-name="p" horiz-adv-x="598" d="M-19 -210L145 500H209L185 373L173 363Q191 431 243 469T364 508Q416 508 456 482T520 407T544 291Q544 227 525 172T472 77T393 13T294 -10Q245 -10 208 11T149 69T125 157L139 168L53 -210H-19ZM296
52Q346 52 386 84T449 170T473 292Q473 341 456 375T409 428T339 446Q287 446 247 415T183 328T159 203Q159 135 194 94T296 52Z" />
<glyph unicode="q" glyph-name="q" horiz-adv-x="608" d="M331 -210L407 116L411 114Q390 59 345 26T243 -8Q188 -8 146 19T79 96T54 211Q54 274 73 328T125 424T204 487T302 510Q354 510 390 489T447 431T469 349L459 341L495 500H567L403 -210H331ZM261 53Q311
53 350 85T413 172T437 295Q437 343 421 377T375 430T307 448Q255 448 214 417T149 333T125 211Q125 161 141 126T188 72T261 53Z" />
<glyph unicode="r" glyph-name="r" horiz-adv-x="371" d="M30 0L146 500H205L191 381L181 388Q204 444 252 477T352 510Q367 510 379 508T401 500L379 432Q370 437 358 440T330 443Q293 443 261 425T204 369T166 275L102 0H30Z" />
<glyph unicode="s" glyph-name="s" horiz-adv-x="495" d="M241 -11Q185 -11 141 7T66 59T20 137L89 167Q106 111 144 82T245 52Q297 52 325 77T353 140Q353 167 338 183T292 208L205 234Q147 251 118 284T89 362Q89 404 111 437T175 490T272 510Q318 510 356 496T423
453T464 383L399 351Q386 396 352 422T268 448Q214 448 187 427T159 368Q159 338 178 322T226 296L321 268Q370 254 397 223T425 150Q425 78 374 34T241 -11Z" />
<glyph unicode="t" glyph-name="t" horiz-adv-x="378" d="M216 -8Q149 -8 114 33T95 151L200 613L279 635L165 147Q154 98 175 77T230 56Q253 56 271 63T303 81L317 22Q293 5 269 -1T216 -8ZM64 438L79 500H394L378 438H64Z" />
<glyph unicode="u" glyph-name="u" horiz-adv-x="578" d="M209 -8Q156 -8 116 16T59 87T57 200L126 500H198L130 202Q114 131 142 93T228 55Q273 55 307 75T366 136T403 232L465 500H537L421 0H358L379 116L388 111Q368 52 319 22T209 -8Z" />
<glyph unicode="v" glyph-name="v" horiz-adv-x="475" d="M444 500H525L218 0H145L66 500H137L202 54L184 58L444 500Z" />
<glyph unicode="w" glyph-name="w" horiz-adv-x="782" d="M126 0L77 500H147L182 91L398 500H470L518 85L736 500H813L541 0H469L416 407L199 0H126Z" />
<glyph unicode="x" glyph-name="x" horiz-adv-x="500" d="M-32 0L225 276L243 291L430 500H518L274 235L255 216L59 0H-32ZM336 0L228 224L219 240L92 500H174L276 286L279 277L417 0H336Z" />
<glyph unicode="y" glyph-name="y" horiz-adv-x="488" d="M5 -215Q-33 -215 -59 -205T-100 -181L-70 -121Q-54 -136 -37 -144T2 -152Q34 -152 59 -133T109 -74L156 4L73 500H144L190 194L208 80L272 188L456 500H538L166 -98Q141 -139 115 -165T61 -203T5 -215Z" />
<glyph unicode="z" glyph-name="z" horiz-adv-x="495" d="M-2 0L12 59L341 390L394 440L311 438H95L110 500H493L478 438L174 133L99 62H201H412L397 0H-2Z" />
<glyph unicode="{" glyph-name="braceleft" horiz-adv-x="324" d="M178 -187Q105 -187 74 -153T55 -64L104 148Q116 203 96 226T30 250H24L38 313H52Q96 313 123 331T162 398L216 637Q228 688 266 719T374 750H396L384 694H380Q330 694 310 677T280 624L227 391Q217
346 186 314T107 275Q149 265 166 233T172 154L122 -62Q115 -97 132 -114T191 -134H193L180 -187H178Z" />
<glyph unicode="|" glyph-name="bar" horiz-adv-x="230" d="M257 730L49 -168H-13L195 730H257Z" />
<glyph unicode="}" glyph-name="braceright" horiz-adv-x="325" d="M-68 -187L-56 -133H-53Q-3 -133 18 -115T48 -61L102 172Q112 217 143 249T221 289Q179 299 163 331T156 410L205 623Q213 658 196 676T136 694H134L148 750H149Q224 750 255 716T273 627L224
415Q212 360 232 337T298 313H304L290 250H276Q232 250 205 232T167 165L112 -74Q100 -125 63 -156T-46 -187H-68Z" />
<glyph unicode="~" glyph-name="asciitilde" horiz-adv-x="532" d="M520 385Q507 337 482 306T427 259T363 243Q330 243 309 254T270 280T235 306T192 317Q165 317 144 298T111 243H42Q55 291 79 322T135 369T201 385Q233 385 254 374T292 348T327 322T370 311Q428
311 452 385H520Z" />
<glyph unicode="&#xa0;" glyph-name="uni00A0" horiz-adv-x="334" />
<glyph unicode="&#xa1;" glyph-name="exclamdown" horiz-adv-x="253" d="M159 297L135 135L66 -160H-11L57 135L107 297H159ZM169 509Q192 509 207 495T223 458Q223 427 205 409T160 390Q138 390 123 404T107 442Q107 473 125 491T169 509Z" />
<glyph unicode="&#xa2;" glyph-name="cent" horiz-adv-x="547" d="M272 -9Q207 -9 160 20T87 100T62 213Q62 299 94 366T184 471T317 509Q371 509 411 490T477 436T511 356L439 338Q435 385 403 418T313 451Q261 451 220 420T156 336T132 216Q132 170 149 132T200
72T280 50Q319 50 356 73T407 137L474 112Q448 54 394 23T272 -9ZM177 -100L339 600H399L237 -100H177Z" />
<glyph unicode="&#xa3;" glyph-name="sterling" horiz-adv-x="579" d="M86 281L100 340H447L433 281H86ZM394 -9Q351 -9 320 2T263 31T217 65T174 94T126 106Q107 106 97 97T86 73Q86 57 95 49T123 40Q149 40 172 64T209 127T223 213Q223 255 215 294T198 372T190
452Q190 517 219 566T295 643T398 671Q447 671 485 651T548 593T575 506L510 486Q506 536 477 571T396 606Q355 606 324 586T275 530T257 447Q257 407 262 372T273 301T279 219Q279 174 267 133T232 60T179 10T114 -8Q76 -8 50 14T24 69Q24 106 53 132T131 158Q164
158 190 147T238 120T282 88T329 61T388 50Q426 50 447 74T481 153L538 133Q527 86 507 55T458 7T394 -9Z" />
<glyph unicode="&#xa4;" glyph-name="currency" horiz-adv-x="644" d="M342 536Q400 536 445 510T515 438T541 332Q541 271 515 224T444 149T339 122Q282 122 237 148T166 221T140 328Q140 388 166 435T238 509T342 536ZM342 471Q285 471 249 431T212 328Q212
266 248 227T340 187Q396 187 432 228T469 331Q469 392 434 431T342 471ZM137 588L250 473L203 427L90 542L137 588ZM200 233L245 187L133 69L87 115L200 233ZM477 230L590 115L544 69L431 184L477 230ZM548 588L593 542L481 425L436 471L548 588Z" />
<glyph unicode="&#xa5;" glyph-name="yen" horiz-adv-x="584" d="M202 0L228 110H58L70 160H240L258 239H88L101 294H212L257 290L131 660H204L287 402L311 315H313L369 404L558 660H644L354 289L393 294H505L492 239H321L303 160H474L463 110H291L266 0H202Z" />
<glyph unicode="&#xa6;" glyph-name="brokenbar" horiz-adv-x="230" d="M257 730L173 367H111L195 730H257ZM133 195L49 -168H-13L71 195H133Z" />
<glyph unicode="&#xa7;" glyph-name="section" horiz-adv-x="574" d="M246 -110Q196 -110 151 -96T72 -52T21 21L87 59Q104 12 145 -19T259 -50Q322 -50 355 -23T388 49Q388 81 370 100T302 133L189 166Q139 181 107 200T60 246T45 310Q45 363 81 397T176 436L207
407Q157 404 134 379T110 322Q110 299 120 282T153 251T210 228L328 194Q395 175 428 146T461 66Q461 18 438 -22T368 -86T246 -110ZM403 126L385 160Q429 160 455 183T481 247Q481 279 460 298T392 331L276 365Q218 382 186 412T153 503Q153 548 176 586T245 647T358
670Q397 670 437 659T514 621T576 548L514 511Q485 563 445 585T348 608Q312 608 285 596T242 563T226 513Q226 476 245 456T313 422L429 387Q488 369 517 339T546 261Q546 228 531 199T484 149T403 126Z" />
<glyph unicode="&#xa8;" glyph-name="dieresis" horiz-adv-x="506" d="M434 584Q414 584 401 597T387 629Q387 657 403 673T444 689Q464 689 477 677T491 644Q491 616 475 600T434 584ZM241 584Q221 584 208 597T195 629Q195 657 211 673T252 689Q272 689 285
677T298 644Q298 616 282 600T241 584Z" />
<glyph unicode="&#xa9;" glyph-name="copyright" horiz-adv-x="805" d="M421 -10Q320 -10 243 35T123 157T80 330Q80 427 123 503T243 625T421 670Q523 670 599 626T719 504T762 330Q762 234 719 157T600 35T421 -10ZM421 49Q503 49 565 86T663 187T698 330Q698
409 663 472T566 573T421 611Q339 611 277 574T179 473T144 330Q144 251 179 188T276 87T421 49ZM429 143Q344 143 296 192T247 328Q247 414 295 463T429 513Q488 513 526 488T584 417L531 391Q518 426 493 442T428 459Q372 459 340 425T307 328Q307 267 339 232T428
197Q469 197 497 215T538 269L588 249Q570 200 530 172T429 143Z" />
<glyph unicode="&#xaa;" glyph-name="ordfeminine" horiz-adv-x="347" d="M182 327Q134 327 103 365T72 466Q72 523 93 568T152 640T236 666Q262 666 283 653T315 613T324 549L310 525L343 660H402L325 336H273L309 489L305 437Q289 382 255 355T182 327ZM28 204L39
252H309L297 204H28ZM204 377Q235 377 256 399T289 456T301 528Q301 568 283 592T235 616Q201 616 179 594T145 538T133 466Q133 428 151 403T204 377Z" />
<glyph unicode="&#xab;" glyph-name="guillemotleft" horiz-adv-x="477" d="M306 461L109 242L112 293L205 69H135L52 265L226 461H306ZM476 461L279 242L282 293L375 69H305L222 265L396 461H476Z" />
<glyph unicode="&#xac;" glyph-name="logicalnot" horiz-adv-x="604" d="M559 319L517 137H445L487 319H559ZM566 350L551 283H69L84 350H566Z" />
<glyph unicode="&#xad;" glyph-name="uni00AD" horiz-adv-x="0" />
<glyph unicode="&#xae;" glyph-name="registered" horiz-adv-x="810" d="M423 670Q527 670 604 628T723 510T765 330Q765 227 723 151T604 32T423 -10Q320 -10 243 32T124 150T81 330Q81 433 123 509T243 628T423 670ZM356 513V143H295V513H356ZM472 317L593 143H524L422
296L472 317ZM423 611Q339 611 277 577T180 479T145 330Q145 245 179 182T276 84T423 49Q508 49 570 84T666 182T701 330Q701 416 667 479T570 576T423 611ZM447 513Q509 513 547 482T585 397Q585 343 547 312T447 281H332V328H447Q485 328 504 345T524 397Q524
432 505 449T447 467H332V513H447Z" />
<glyph unicode="&#xaf;" glyph-name="overscore" horiz-adv-x="506" d="M501 658L488 597H179L193 658H501Z" />
<glyph unicode="&#xb0;" glyph-name="degree" horiz-adv-x="433" d="M277 348Q229 348 192 368T133 425T111 509Q111 556 132 592T191 649T277 670Q325 670 362 650T421 593T442 509Q442 462 421 426T363 369T277 348ZM277 406Q321 406 350 435T379 509Q379 553
350 582T277 611Q232 611 203 582T174 509Q174 464 203 435T277 406Z" />
<glyph unicode="&#xb1;" glyph-name="plusminus" horiz-adv-x="591" d="M419 638L307 148H239L351 638H419ZM570 427L554 359H86L102 427H570ZM488 67L471 0H3L20 67H488Z" />
<glyph unicode="&#xb2;" glyph-name="uni00B2" horiz-adv-x="358" d="M78 333L90 383Q134 413 176 441T251 497T304 556T324 619Q324 653 307 668T263 683Q229 683 205 659T173 592L119 623Q133 673 170 704T266 735Q324 735 355 704T387 628Q387 586 367 551T314
487T244 432T172 384V383Q183 384 198 384T222 385H360L348 333H78Z" />
<glyph unicode="&#xb3;" glyph-name="uni00B3" horiz-adv-x="337" d="M207 327Q151 327 113 357T66 440L130 455Q135 420 153 400T209 380Q242 380 261 401T281 452Q281 480 264 494T213 509Q209 509 206 509T197 508L210 559Q215 558 221 558T233 557Q266 557
286 575T306 625Q306 654 288 668T244 683Q216 683 196 668T167 624L111 651Q128 691 163 713T248 735Q301 735 335 709T369 636Q369 593 345 564T279 530L278 529Q308 525 326 506T345 452Q345 413 326 385T275 342T207 327Z" />
<glyph unicode="&#xb4;" glyph-name="acute" horiz-adv-x="600" d="M413 748H500L359 583H292L413 748Z" />
<glyph unicode="&#xb5;" glyph-name="uni00B5" horiz-adv-x="600" d="M-19 -210L145 500H217L149 202Q133 129 162 92T248 55Q294 55 329 75T388 136T425 232L487 500H559L443 0H380L393 78Q368 35 327 14T236 -8Q200 -8 167 7T115 58V58L53 -210H-19Z" />
<glyph unicode="&#xb6;" glyph-name="paragraph" horiz-adv-x="640" d="M210 -100L279 199Q233 201 196 216T133 259T94 321T80 400Q80 484 114 542T213 630T365 660H645L469 -100H406L568 600H437L276 -100H210ZM293 259L371 600H336Q281 600 238 578T170 513T145
407Q145 343 184 301T293 259Z" />
<glyph unicode="&#xb7;" glyph-name="middot" horiz-adv-x="219" d="M130 296Q107 296 92 310T76 347Q76 378 94 396T139 415Q162 415 177 401T192 363Q192 332 174 314T130 296Z" />
<glyph unicode="&#xb8;" glyph-name="cedilla" horiz-adv-x="513" d="M189 5L231 26Q272 7 295 -21T318 -91Q318 -131 300 -158T253 -199T191 -213Q156 -213 130 -199T91 -169L120 -124Q134 -140 153 -148T194 -157Q224 -157 242 -138T261 -89Q261 -57 243 -36T189 5Z" />
<glyph unicode="&#xb9;" glyph-name="uni00B9" horiz-adv-x="236" d="M134 333L194 595Q197 608 201 622T208 647T212 659Q190 640 162 626T107 605L113 664Q131 669 154 679T199 702T235 729H289L197 333H134Z" />
<glyph unicode="&#xba;" glyph-name="ordmasculine" horiz-adv-x="346" d="M212 327Q154 327 117 364T80 466Q80 521 101 566T161 638T248 666Q307 666 343 629T380 528Q380 476 359 430T300 356T212 327ZM28 204L39 252H308L296 204H28ZM216 377Q249 377 272
399T306 455T318 527Q318 568 299 592T244 616Q212 616 189 594T155 538T143 466Q143 426 161 402T216 377Z" />
<glyph unicode="&#xbb;" glyph-name="guillemotright" horiz-adv-x="476" d="M-4 69L193 288L190 237L96 461H167L250 265L76 69H-4ZM166 69L363 288L360 237L266 461H337L420 265L246 69H166Z" />
<glyph unicode="&#xbc;" glyph-name="onequarter" horiz-adv-x="747" d="M375 524L435 786Q438 799 442 813T449 838T453 850Q431 831 403 817T348 796L354 855Q372 860 395 870T440 893T476 920H530L438 524H375ZM36 0L641 660H720L113 0H36ZM548 -4L572 98H405L416
145Q425 157 430 163T442 177T459 198L618 393H694L635 143H708L698 98H625L602 -4H548ZM473 143H581L627 335L497 170Q492 165 491 164T487 159T473 143Z" />
<glyph unicode="&#xbd;" glyph-name="onehalf" horiz-adv-x="841" d="M375 524L435 786Q438 799 442 813T449 838T453 850Q431 831 403 817T348 796L354 855Q372 860 395 870T440 893T476 920H530L438 524H375ZM36 0L641 660H720L113 0H36ZM483 -4L495 46Q539
76 581 104T656 160T709 219T729 282Q729 316 712 331T668 346Q634 346 610 322T578 255L524 286Q538 336 575 367T671 398Q729 398 760 367T792 291Q792 249 772 214T719 150T649 95T577 47V46Q588 47 603 47T627 48H765L753 -4H483Z" />
<glyph unicode="&#xbe;" glyph-name="threequarters" horiz-adv-x="848" d="M448 518Q392 518 354 548T307 631L371 646Q376 611 394 591T450 571Q483 571 502 592T522 643Q522 671 505 685T454 700Q450 700 447 700T438 699L451 750Q456 749 462 749T474 748Q507
748 527 766T547 816Q547 845 529 859T485 874Q457 874 437 859T408 815L352 842Q369 882 404 904T489 926Q542 926 576 900T610 827Q610 784 586 755T520 721L519 720Q549 716 567 697T586 643Q586 604 567 576T516 533T448 518ZM137 0L742 660H821L214 0H137ZM649
-4L673 98H506L517 145Q526 157 531 163T543 177T560 198L719 393H795L736 143H809L799 98H726L703 -4H649ZM574 143H682L728 335L598 170Q593 165 592 164T588 159T574 143Z" />
<glyph unicode="&#xbf;" glyph-name="questiondown" horiz-adv-x="512" d="M305 298L270 151Q202 151 155 136T82 88T57 3Q57 -49 93 -75T183 -102Q247 -102 288 -70T349 15L407 -27Q390 -68 358 -100T280 -151T180 -169Q124 -169 80 -149T9 -91T-17 -1Q-17 62
12 106T92 176T209 204L230 298H305ZM304 508Q327 508 342 494T358 457Q358 426 340 408T295 389Q273 389 258 403T242 441Q242 472 260 490T304 508Z" />
<glyph unicode="&#xc0;" glyph-name="Agrave" horiz-adv-x="619" d="M-36 0L360 660H449L539 0H468L441 195H159L45 0H-36ZM201 262H432L389 583L201 262ZM426 901L466 743H415L352 901H426Z" />
<glyph unicode="&#xc1;" glyph-name="Aacute" horiz-adv-x="619" d="M-36 0L360 660H449L539 0H468L441 195H159L45 0H-36ZM201 262H432L389 583L201 262ZM468 901H552L432 743H371L468 901Z" />
<glyph unicode="&#xc2;" glyph-name="Acircumflex" horiz-adv-x="619" d="M-36 0L360 660H449L539 0H468L441 195H159L45 0H-36ZM201 262H432L389 583L201 262ZM490 900L564 743H502L444 852L337 743H265L411 900H490Z" />
<glyph unicode="&#xc3;" glyph-name="Atilde" horiz-adv-x="619" d="M-36 0L360 660H449L539 0H468L441 195H159L45 0H-36ZM201 262H432L389 583L201 262ZM602 873Q590 810 558 778T485 745Q460 745 444 755T415 779T392 803T366 814Q349 814 335 795T312 744H255Q267
806 299 839T372 872Q397 872 413 862T442 838T465 814T491 803Q508 803 522 822T545 873H602Z" />
<glyph unicode="&#xc4;" glyph-name="Adieresis" horiz-adv-x="619" d="M-36 0L360 660H449L539 0H468L441 195H159L45 0H-36ZM201 262H432L389 583L201 262ZM518 744Q498 744 485 757T471 789Q471 817 487 833T528 849Q548 849 561 837T575 804Q575 776 559 760T518
744ZM325 744Q305 744 292 757T279 789Q279 817 295 833T336 849Q356 849 369 837T382 804Q382 776 366 760T325 744Z" />
<glyph unicode="&#xc5;" glyph-name="Aring" horiz-adv-x="619" d="M-36 0L360 660H449L539 0H468L441 195H159L45 0H-36ZM201 262H432L389 583L201 262ZM417 842Q466 842 497 812T529 739Q529 685 495 650T407 615Q358 615 326 645T294 719Q294 772 329 807T417
842ZM416 797Q386 797 365 777T344 723Q344 696 363 678T409 660Q438 660 458 680T479 734Q479 761 462 779T416 797Z" />
<glyph unicode="&#xc6;" glyph-name="AE" horiz-adv-x="913" d="M-54 0L469 660H944L928 593H585L533 368H796L781 301H517L463 67H823L806 0H375L426 218H203L33 0H-54ZM257 286H442L513 593H499L257 286Z" />
<glyph unicode="&#xc7;" glyph-name="Ccedilla" horiz-adv-x="658" d="M353 -10Q279 -10 218 21T120 116T83 271Q83 346 104 417T168 545T271 636T414 670Q506 670 567 625T652 486L577 461Q560 536 517 569T407 603Q347 603 301 576T223 502T175 399T159 282Q159
212 185 162T257 84T357 57Q422 57 461 85T528 163L597 129Q557 65 499 28T353 -10ZM294 5L336 26Q377 7 400 -21T423 -91Q423 -131 405 -158T358 -199T296 -213Q261 -213 235 -199T196 -169L225 -124Q239 -140 258 -148T299 -157Q329 -157 347 -138T366 -89Q366
-57 348 -36T294 5Z" />
<glyph unicode="&#xc8;" glyph-name="Egrave" horiz-adv-x="606" d="M46 0L199 660H637L620 593H254L203 369H491L475 301H188L134 67H516L500 0H46ZM422 901L462 743H411L348 901H422Z" />
<glyph unicode="&#xc9;" glyph-name="Eacute" horiz-adv-x="606" d="M46 0L199 660H637L620 593H254L203 369H491L475 301H188L134 67H516L500 0H46ZM482 901H566L446 743H385L482 901Z" />
<glyph unicode="&#xca;" glyph-name="Ecircumflex" horiz-adv-x="606" d="M46 0L199 660H637L620 593H254L203 369H491L475 301H188L134 67H516L500 0H46ZM504 900L578 743H516L458 852L351 743H279L425 900H504Z" />
<glyph unicode="&#xcb;" glyph-name="Edieresis" horiz-adv-x="606" d="M46 0L199 660H637L620 593H254L203 369H491L475 301H188L134 67H516L500 0H46ZM532 744Q512 744 499 757T485 789Q485 817 501 833T542 849Q562 849 575 837T589 804Q589 776 573 760T532
744ZM339 744Q319 744 306 757T293 789Q293 817 309 833T350 849Q370 849 383 837T396 804Q396 776 380 760T339 744Z" />
<glyph unicode="&#xcc;" glyph-name="Igrave" horiz-adv-x="280" d="M271 660L118 0H46L199 660H271ZM240 901L280 743H229L166 901H240Z" />
<glyph unicode="&#xcd;" glyph-name="Iacute" horiz-adv-x="280" d="M271 660L118 0H46L199 660H271ZM317 901H401L281 743H220L317 901Z" />
<glyph unicode="&#xce;" glyph-name="Icircumflex" horiz-adv-x="280" d="M271 660L118 0H46L199 660H271ZM328 900L402 743H340L282 852L175 743H103L249 900H328Z" />
<glyph unicode="&#xcf;" glyph-name="Idieresis" horiz-adv-x="264" d="M327 744Q308 744 296 756T284 788Q284 814 300 831T341 849Q360 849 372 837T384 805Q384 780 369 762T327 744ZM173 744Q154 744 142 756T129 788Q129 814 145 831T186 849Q205 849 217
837T230 805Q230 779 214 762T173 744ZM266 660L113 0H41L194 660H266Z" />
<glyph unicode="&#xd0;" glyph-name="Eth" horiz-adv-x="721" d="M26 300L42 367H411L396 300H26ZM65 0L218 660H404Q486 660 544 626T633 531T664 392Q664 308 638 237T564 113T449 30T302 0H65ZM152 67H312Q375 67 425 92T512 162T568 262T587 381Q587 441 566
489T503 565T395 593H274L152 67Z" />
<glyph unicode="&#xd1;" glyph-name="Ntilde" horiz-adv-x="702" d="M46 0L199 660H286L454 200L492 79H493L514 179L625 660H693L540 0H454L283 462L246 581H245L225 481L115 0H46ZM644 873Q632 810 600 778T527 745Q502 745 486 755T457 779T434 803T408 814Q391
814 377 795T354 744H297Q309 806 341 839T414 872Q439 872 455 862T484 838T507 814T533 803Q550 803 564 822T587 873H644Z" />
<glyph unicode="&#xd2;" glyph-name="Ograve" horiz-adv-x="723" d="M348 -10Q276 -10 216 23T120 121T84 277Q84 354 105 425T169 551T273 638T415 670Q487 670 546 637T641 539T677 383Q677 306 656 236T592 110T489 22T348 -10ZM357 58Q417 58 462 85T539 158T585
261T601 378Q601 449 576 499T507 575T405 602Q345 602 299 575T222 503T175 400T159 282Q159 212 184 162T253 85T357 58ZM439 901L479 743H428L365 901H439Z" />
<glyph unicode="&#xd3;" glyph-name="Oacute" horiz-adv-x="723" d="M348 -10Q276 -10 216 23T120 121T84 277Q84 354 105 425T169 551T273 638T415 670Q487 670 546 637T641 539T677 383Q677 306 656 236T592 110T489 22T348 -10ZM357 58Q417 58 462 85T539 158T585
261T601 378Q601 449 576 499T507 575T405 602Q345 602 299 575T222 503T175 400T159 282Q159 212 184 162T253 85T357 58ZM499 901H583L463 743H402L499 901Z" />
<glyph unicode="&#xd4;" glyph-name="Ocircumflex" horiz-adv-x="723" d="M348 -10Q276 -10 216 23T120 121T84 277Q84 354 105 425T169 551T273 638T415 670Q487 670 546 637T641 539T677 383Q677 306 656 236T592 110T489 22T348 -10ZM357 58Q417 58 462 85T539
158T585 261T601 378Q601 449 576 499T507 575T405 602Q345 602 299 575T222 503T175 400T159 282Q159 212 184 162T253 85T357 58ZM521 900L595 743H533L475 852L368 743H296L442 900H521Z" />
<glyph unicode="&#xd5;" glyph-name="Otilde" horiz-adv-x="723" d="M348 -10Q276 -10 216 23T120 121T84 277Q84 354 105 425T169 551T273 638T415 670Q487 670 546 637T641 539T677 383Q677 306 656 236T592 110T489 22T348 -10ZM357 58Q417 58 462 85T539 158T585
261T601 378Q601 449 576 499T507 575T405 602Q345 602 299 575T222 503T175 400T159 282Q159 212 184 162T253 85T357 58ZM633 873Q621 810 589 778T516 745Q491 745 475 755T446 779T423 803T397 814Q380 814 366 795T343 744H286Q298 806 330 839T403 872Q428
872 444 862T473 838T496 814T522 803Q539 803 553 822T576 873H633Z" />
<glyph unicode="&#xd6;" glyph-name="Odieresis" horiz-adv-x="723" d="M348 -10Q276 -10 216 23T120 121T84 277Q84 354 105 425T169 551T273 638T415 670Q487 670 546 637T641 539T677 383Q677 306 656 236T592 110T489 22T348 -10ZM357 58Q417 58 462 85T539
158T585 261T601 378Q601 449 576 499T507 575T405 602Q345 602 299 575T222 503T175 400T159 282Q159 212 184 162T253 85T357 58ZM549 744Q529 744 516 757T502 789Q502 817 518 833T559 849Q579 849 592 837T606 804Q606 776 590 760T549 744ZM356 744Q336 744
323 757T310 789Q310 817 326 833T367 849Q387 849 400 837T413 804Q413 776 397 760T356 744Z" />
<glyph unicode="&#xd7;" glyph-name="multiply" horiz-adv-x="604" d="M91 102L50 155L516 532L557 479L91 102ZM426 102L128 491L181 532L478 143L426 102Z" />
<glyph unicode="&#xd8;" glyph-name="Oslash" horiz-adv-x="723" d="M206 91L170 129L555 567L588 527L206 91ZM45 -12L170 129L206 91L115 -12H45ZM588 527L555 567L649 674H720L588 527ZM348 -10Q276 -10 216 23T120 121T84 277Q84 354 105 425T169 551T273
638T415 670Q487 670 546 637T641 539T677 383Q677 306 656 236T592 110T489 22T348 -10ZM357 58Q417 58 462 85T539 158T585 261T601 378Q601 449 576 499T507 575T405 602Q345 602 299 575T222 503T175 400T159 282Q159 212 184 162T253 85T357 58Z" />
<glyph unicode="&#xd9;" glyph-name="Ugrave" horiz-adv-x="686" d="M315 -10Q230 -10 174 25T98 126T98 285L186 660H258L168 268Q152 199 167 152T223 81T320 57Q399 57 445 109T512 249L607 660H679L579 228Q554 120 488 55T315 -10ZM433 879L473 721H422L359
879H433Z" />
<glyph unicode="&#xda;" glyph-name="Uacute" horiz-adv-x="686" d="M315 -10Q230 -10 174 25T98 126T98 285L186 660H258L168 268Q152 199 167 152T223 81T320 57Q399 57 445 109T512 249L607 660H679L579 228Q554 120 488 55T315 -10ZM497 878H581L461 720H400L497
878Z" />
<glyph unicode="&#xdb;" glyph-name="Ucircumflex" horiz-adv-x="686" d="M315 -10Q230 -10 174 25T98 126T98 285L186 660H258L168 268Q152 199 167 152T223 81T320 57Q399 57 445 109T512 249L607 660H679L579 228Q554 120 488 55T315 -10ZM515 878L589 721H527L469
830L362 721H290L436 878H515Z" />
<glyph unicode="&#xdc;" glyph-name="Udieresis" horiz-adv-x="686" d="M315 -10Q230 -10 174 25T98 126T98 285L186 660H258L168 268Q152 199 167 152T223 81T320 57Q399 57 445 109T512 249L607 660H679L579 228Q554 120 488 55T315 -10ZM543 722Q523 722 510
735T496 767Q496 795 512 811T553 827Q573 827 586 815T600 782Q600 754 584 738T543 722ZM350 722Q330 722 317 735T304 767Q304 795 320 811T361 827Q381 827 394 815T407 782Q407 754 391 738T350 722Z" />
<glyph unicode="&#xdd;" glyph-name="Yacute" horiz-adv-x="539" d="M175 0L235 258L110 660H188L255 430L283 325L360 436L532 660H619L306 252L247 0H175ZM426 878H510L390 720H329L426 878Z" />
<glyph unicode="&#xde;" glyph-name="Thorn" horiz-adv-x="594" d="M124 132L140 200H333Q387 200 422 222T474 280T492 359Q492 409 457 438T357 468H199L217 535H363Q458 535 512 487T566 359Q566 293 535 242T450 162T325 132H124ZM46 0L199 660H271L118 0H46Z" />
<glyph unicode="&#xdf;" glyph-name="germandbls" horiz-adv-x="577" d="M306 -10Q269 -10 237 0T185 24L208 87Q225 74 252 65T310 56Q355 56 386 79T432 138T448 217Q448 277 412 315T305 353Q300 353 294 353T283 352L298 416Q307 415 315 415T333 414Q385
414 420 433T474 485T493 562Q493 596 479 619T440 655T379 668Q315 668 276 628T217 498L102 0H30L152 528Q177 635 238 685T386 735Q443 735 482 715T543 658T564 574Q564 523 541 479T479 409T393 381V379Q425 375 453 355T498 302T516 222Q516 153 490 101T416
20T306 -10Z" />
<glyph unicode="&#xe0;" glyph-name="agrave" horiz-adv-x="608" d="M243 -8Q187 -8 145 19T78 96T54 211Q54 273 72 327T124 423T203 487T303 510Q369 510 413 474T468 378L495 500H567L451 0H388L407 97Q383 49 339 21T243 -8ZM262 53Q298 53 330 72T386 125T424
203T438 296Q438 344 422 378T376 430T307 448Q254 448 213 417T149 332T125 211Q125 161 141 126T188 72T262 53ZM328 748L374 583H319L256 748H328Z" />
<glyph unicode="&#xe1;" glyph-name="aacute" horiz-adv-x="608" d="M243 -8Q187 -8 145 19T78 96T54 211Q54 273 72 327T124 423T203 487T303 510Q369 510 413 474T468 378L495 500H567L451 0H388L407 97Q383 49 339 21T243 -8ZM262 53Q298 53 330 72T386 125T424
203T438 296Q438 344 422 378T376 430T307 448Q254 448 213 417T149 332T125 211Q125 161 141 126T188 72T262 53ZM415 748H502L361 583H294L415 748Z" />
<glyph unicode="&#xe2;" glyph-name="acircumflex" horiz-adv-x="608" d="M243 -8Q187 -8 145 19T78 96T54 211Q54 273 72 327T124 423T203 487T303 510Q369 510 413 474T468 378L495 500H567L451 0H388L407 97Q383 49 339 21T243 -8ZM262 53Q298 53 330 72T386
125T424 203T438 296Q438 344 422 378T376 430T307 448Q254 448 213 417T149 332T125 211Q125 161 141 126T188 72T262 53ZM191 577L334 741H415L482 577H420L366 693L261 577H191Z" />
<glyph unicode="&#xe3;" glyph-name="atilde" horiz-adv-x="608" d="M243 -8Q187 -8 145 19T78 96T54 211Q54 273 72 327T124 423T203 487T303 510Q369 510 413 474T468 378L495 500H567L451 0H388L407 97Q383 49 339 21T243 -8ZM262 53Q298 53 330 72T386 125T424
203T438 296Q438 344 422 378T376 430T307 448Q254 448 213 417T149 332T125 211Q125 161 141 126T188 72T262 53ZM527 713Q515 650 483 618T410 585Q385 585 369 595T340 619T317 643T291 654Q274 654 260 635T237 584H180Q192 646 224 679T297 712Q322 712 338
702T367 678T390 654T416 643Q433 643 447 662T470 713H527Z" />
<glyph unicode="&#xe4;" glyph-name="adieresis" horiz-adv-x="608" d="M243 -8Q187 -8 145 19T78 96T54 211Q54 273 72 327T124 423T203 487T303 510Q369 510 413 474T468 378L495 500H567L451 0H388L407 97Q383 49 339 21T243 -8ZM262 53Q298 53 330 72T386
125T424 203T438 296Q438 344 422 378T376 430T307 448Q254 448 213 417T149 332T125 211Q125 161 141 126T188 72T262 53ZM443 584Q423 584 410 597T396 629Q396 657 412 673T453 689Q473 689 486 677T500 644Q500 616 484 600T443 584ZM250 584Q230 584 217 597T204
629Q204 657 220 673T261 689Q281 689 294 677T307 644Q307 616 291 600T250 584Z" />
<glyph unicode="&#xe5;" glyph-name="aring" horiz-adv-x="608" d="M243 -8Q187 -8 145 19T78 96T54 211Q54 273 72 327T124 423T203 487T303 510Q369 510 413 474T468 378L495 500H567L451 0H388L407 97Q383 49 339 21T243 -8ZM262 53Q298 53 330 72T386 125T424
203T438 296Q438 344 422 378T376 430T307 448Q254 448 213 417T149 332T125 211Q125 161 141 126T188 72T262 53ZM365 803Q414 803 445 773T477 700Q477 646 443 611T355 576Q306 576 274 606T242 680Q242 733 277 768T365 803ZM364 758Q334 758 313 738T292 684Q292
657 311 639T357 621Q386 621 406 641T427 695Q427 722 410 740T364 758Z" />
<glyph unicode="&#xe6;" glyph-name="ae" horiz-adv-x="863" d="M197 -10Q118 -10 78 29T38 126Q38 171 61 201T125 249T220 274L408 298L405 242L245 221Q184 213 149 193T113 128Q113 91 136 71T204 51Q269 51 309 89T365 197L390 309Q392 320 393 329T394 346Q394
392 364 419T282 447Q227 447 191 425T129 352L77 389Q107 447 160 478T289 509Q333 509 367 494T421 452T443 396L431 400Q460 449 513 479T635 509Q689 509 728 484T788 416T809 317Q809 299 806 278T796 235H431L439 298H738Q739 302 739 306T739 319Q739 356
725 385T686 430T628 447Q579 447 544 427T487 372T455 296T444 209Q444 164 461 129T510 73T585 53Q634 53 667 75T723 134L779 96Q748 48 697 20T579 -9Q522 -9 480 14T414 75T390 155L405 166Q399 118 372 78T300 14T197 -10Z" />
<glyph unicode="&#xe7;" glyph-name="ccedilla" horiz-adv-x="519" d="M264 -9Q199 -9 152 20T80 101T55 214Q55 301 87 367T177 471T309 509Q362 509 402 490T468 436T502 356L427 338Q422 385 392 416T305 447Q254 447 214 417T151 335T128 216Q128 170 144
133T193 75T272 53Q311 53 345 75T395 137L464 112Q439 54 386 23T264 -9ZM187 5L229 26Q270 7 293 -21T316 -91Q316 -131 298 -158T251 -199T189 -213Q154 -213 128 -199T89 -169L118 -124Q132 -140 151 -148T192 -157Q222 -157 240 -138T259 -89Q259 -57 241
-36T187 5Z" />
<glyph unicode="&#xe8;" glyph-name="egrave" horiz-adv-x="551" d="M264 -9Q198 -9 151 21T80 101T55 213Q55 292 85 359T173 468T312 509Q370 509 411 484T475 416T497 318Q497 300 494 279T483 235H90L91 298H453L421 273Q424 286 425 297T427 320Q427 357
413 385T372 430T307 447Q259 447 225 427T170 373T138 298T128 212Q128 166 146 130T196 74T273 53Q323 53 356 75T410 134L467 96Q435 48 384 20T264 -9ZM316 748L362 583H307L244 748H316Z" />
<glyph unicode="&#xe9;" glyph-name="eacute" horiz-adv-x="551" d="M264 -9Q198 -9 151 21T80 101T55 213Q55 292 85 359T173 468T312 509Q370 509 411 484T475 416T497 318Q497 300 494 279T483 235H90L91 298H453L421 273Q424 286 425 297T427 320Q427 357
413 385T372 430T307 447Q259 447 225 427T170 373T138 298T128 212Q128 166 146 130T196 74T273 53Q323 53 356 75T410 134L467 96Q435 48 384 20T264 -9ZM403 748H490L349 583H282L403 748Z" />
<glyph unicode="&#xea;" glyph-name="ecircumflex" horiz-adv-x="551" d="M264 -9Q198 -9 151 21T80 101T55 213Q55 292 85 359T173 468T312 509Q370 509 411 484T475 416T497 318Q497 300 494 279T483 235H90L91 298H453L421 273Q424 286 425 297T427 320Q427
357 413 385T372 430T307 447Q259 447 225 427T170 373T138 298T128 212Q128 166 146 130T196 74T273 53Q323 53 356 75T410 134L467 96Q435 48 384 20T264 -9ZM179 577L322 741H403L470 577H408L354 693L249 577H179Z" />
<glyph unicode="&#xeb;" glyph-name="edieresis" horiz-adv-x="551" d="M264 -9Q198 -9 151 21T80 101T55 213Q55 292 85 359T173 468T312 509Q370 509 411 484T475 416T497 318Q497 300 494 279T483 235H90L91 298H453L421 273Q424 286 425 297T427 320Q427 357
413 385T372 430T307 447Q259 447 225 427T170 373T138 298T128 212Q128 166 146 130T196 74T273 53Q323 53 356 75T410 134L467 96Q435 48 384 20T264 -9ZM431 584Q411 584 398 597T384 629Q384 657 400 673T441 689Q461 689 474 677T488 644Q488 616 472 600T431
584ZM238 584Q218 584 205 597T192 629Q192 657 208 673T249 689Q269 689 282 677T295 644Q295 616 279 600T238 584Z" />
<glyph unicode="&#xec;" glyph-name="igrave" horiz-adv-x="249" d="M218 500L102 0H30L146 500H218ZM188 748L234 583H179L116 748H188Z" />
<glyph unicode="&#xed;" glyph-name="iacute" horiz-adv-x="249" d="M218 500L102 0H30L146 500H218ZM275 748H362L221 583H154L275 748Z" />
<glyph unicode="&#xee;" glyph-name="icircumflex" horiz-adv-x="249" d="M218 500L102 0H30L146 500H218ZM51 577L194 741H275L342 577H280L226 693L121 577H51Z" />
<glyph unicode="&#xef;" glyph-name="idieresis" horiz-adv-x="233" d="M274 584Q255 584 243 596T231 627Q231 654 247 671T287 689Q306 689 318 677T330 646Q330 620 315 602T274 584ZM121 584Q102 584 90 596T78 627Q78 654 94 671T135 689Q154 689 166 677T178
646Q178 619 162 602T121 584ZM213 500L97 0H25L141 500H213Z" />
<glyph unicode="&#xf0;" glyph-name="eth" horiz-adv-x="581" d="M258 -10Q193 -10 147 20T76 101T52 212Q52 289 84 351T171 450T294 487Q345 487 383 468T444 415T466 334L452 332Q454 346 454 361T455 393Q455 497 410 583T261 730H348Q411 701 450 644T508
518T527 381Q527 302 511 231T460 106T376 21T258 -10ZM270 53Q310 53 341 71T395 121T430 190T442 270Q442 321 423 355T370 406T294 424Q256 424 225 407T171 360T136 293T124 214Q124 168 142 132T194 74T270 53ZM253 541L241 592L425 634L456 591L253 541ZM456
591L426 634L579 674L593 623L456 591Z" />
<glyph unicode="&#xf1;" glyph-name="ntilde" horiz-adv-x="581" d="M30 0L146 500H210L189 385L180 389Q200 448 251 479T364 510Q420 510 459 485T513 413T513 300L443 0H371L441 301Q457 370 430 408T344 447Q298 447 262 426T202 365T164 268L102 0H30ZM555
713Q543 650 511 618T438 585Q413 585 397 595T368 619T345 643T319 654Q302 654 288 635T265 584H208Q220 646 252 679T325 712Q350 712 366 702T395 678T418 654T444 643Q461 643 475 662T498 713H555Z" />
<glyph unicode="&#xf2;" glyph-name="ograve" horiz-adv-x="576" d="M271 -9Q202 -9 154 21T80 102T55 214Q55 300 87 366T176 471T306 509Q375 509 423 479T496 399T521 287Q521 201 489 134T400 29T271 -9ZM273 53Q324 53 363 83T425 165T448 284Q448 352 413
399T303 447Q252 447 213 417T151 336T128 217Q128 172 144 135T192 75T273 53ZM321 748L367 583H312L249 748H321Z" />
<glyph unicode="&#xf3;" glyph-name="oacute" horiz-adv-x="576" d="M271 -9Q202 -9 154 21T80 102T55 214Q55 300 87 366T176 471T306 509Q375 509 423 479T496 399T521 287Q521 201 489 134T400 29T271 -9ZM273 53Q324 53 363 83T425 165T448 284Q448 352 413
399T303 447Q252 447 213 417T151 336T128 217Q128 172 144 135T192 75T273 53ZM408 748H495L354 583H287L408 748Z" />
<glyph unicode="&#xf4;" glyph-name="ocircumflex" horiz-adv-x="576" d="M271 -9Q202 -9 154 21T80 102T55 214Q55 300 87 366T176 471T306 509Q375 509 423 479T496 399T521 287Q521 201 489 134T400 29T271 -9ZM273 53Q324 53 363 83T425 165T448 284Q448 352
413 399T303 447Q252 447 213 417T151 336T128 217Q128 172 144 135T192 75T273 53ZM184 577L327 741H408L475 577H413L359 693L254 577H184Z" />
<glyph unicode="&#xf5;" glyph-name="otilde" horiz-adv-x="576" d="M271 -9Q202 -9 154 21T80 102T55 214Q55 300 87 366T176 471T306 509Q375 509 423 479T496 399T521 287Q521 201 489 134T400 29T271 -9ZM273 53Q324 53 363 83T425 165T448 284Q448 352 413
399T303 447Q252 447 213 417T151 336T128 217Q128 172 144 135T192 75T273 53ZM520 713Q508 650 476 618T403 585Q378 585 362 595T333 619T310 643T284 654Q267 654 253 635T230 584H173Q185 646 217 679T290 712Q315 712 331 702T360 678T383 654T409 643Q426
643 440 662T463 713H520Z" />
<glyph unicode="&#xf6;" glyph-name="odieresis" horiz-adv-x="576" d="M271 -9Q202 -9 154 21T80 102T55 214Q55 300 87 366T176 471T306 509Q375 509 423 479T496 399T521 287Q521 201 489 134T400 29T271 -9ZM273 53Q324 53 363 83T425 165T448 284Q448 352
413 399T303 447Q252 447 213 417T151 336T128 217Q128 172 144 135T192 75T273 53ZM436 584Q416 584 403 597T389 629Q389 657 405 673T446 689Q466 689 479 677T493 644Q493 616 477 600T436 584ZM243 584Q223 584 210 597T197 629Q197 657 213 673T254 689Q274
689 287 677T300 644Q300 616 284 600T243 584Z" />
<glyph unicode="&#xf7;" glyph-name="divide" horiz-adv-x="604" d="M566 350L551 283H69L84 350H566ZM268 62Q245 62 230 76T214 113Q214 144 232 162T277 181Q300 181 315 167T330 129Q330 98 312 80T268 62ZM358 451Q335 451 320 465T304 502Q304 533 322 551T367
570Q390 570 405 556T420 518Q420 487 402 469T358 451Z" />
<glyph unicode="&#xf8;" glyph-name="oslash" horiz-adv-x="576" d="M271 -9Q202 -9 154 21T80 102T55 214Q55 300 87 366T176 471T306 509Q375 509 423 479T496 399T521 287Q521 201 489 134T400 29T271 -9ZM273 53Q324 53 363 83T425 165T448 284Q448 352 413
399T303 447Q252 447 213 417T151 336T128 217Q128 172 144 135T192 75T273 53ZM257 -26L762 527H827L323 -26H257Z" />
<glyph unicode="&#xf9;" glyph-name="ugrave" horiz-adv-x="578" d="M209 -8Q156 -8 116 16T59 87T57 200L126 500H198L130 202Q114 131 142 93T228 55Q273 55 307 75T366 136T403 232L465 500H537L421 0H358L379 116L388 111Q368 52 319 22T209 -8ZM328 737L374
572H319L256 737H328Z" />
<glyph unicode="&#xfa;" glyph-name="uacute" horiz-adv-x="578" d="M209 -8Q156 -8 116 16T59 87T57 200L126 500H198L130 202Q114 131 142 93T228 55Q273 55 307 75T366 136T403 232L465 500H537L421 0H358L379 116L388 111Q368 52 319 22T209 -8ZM415 737H502L361
572H294L415 737Z" />
<glyph unicode="&#xfb;" glyph-name="ucircumflex" horiz-adv-x="578" d="M209 -8Q156 -8 116 16T59 87T57 200L126 500H198L130 202Q114 131 142 93T228 55Q273 55 307 75T366 136T403 232L465 500H537L421 0H358L379 116L388 111Q368 52 319 22T209 -8ZM191
566L334 730H415L482 566H420L366 682L261 566H191Z" />
<glyph unicode="&#xfc;" glyph-name="udieresis" horiz-adv-x="578" d="M209 -8Q156 -8 116 16T59 87T57 200L126 500H198L130 202Q114 131 142 93T228 55Q273 55 307 75T366 136T403 232L465 500H537L421 0H358L379 116L388 111Q368 52 319 22T209 -8ZM443 573Q423
573 410 586T396 618Q396 646 412 662T453 678Q473 678 486 666T500 633Q500 605 484 589T443 573ZM250 573Q230 573 217 586T204 618Q204 646 220 662T261 678Q281 678 294 666T307 633Q307 605 291 589T250 573Z" />
<glyph unicode="&#xfd;" glyph-name="yacute" horiz-adv-x="488" d="M5 -215Q-33 -215 -59 -205T-100 -181L-70 -121Q-54 -136 -37 -144T2 -152Q34 -152 59 -133T109 -74L156 4L73 500H144L190 194L208 80L272 188L456 500H538L166 -98Q141 -139 115 -165T61 -203T5
-215ZM387 737H474L333 572H266L387 737Z" />
<glyph unicode="&#xfe;" glyph-name="thorn" horiz-adv-x="598" d="M-19 -210L198 730H270L190 385L176 363Q194 431 245 469T367 508Q416 508 456 482T520 407T544 291Q544 227 525 172T472 77T393 13T294 -10Q245 -10 208 11T149 69T125 157L139 168L53 -210H-19ZM296
52Q346 52 386 84T449 170T473 292Q473 341 456 375T409 428T339 446Q287 446 247 415T183 328T159 203Q159 135 194 94T296 52Z" />
<glyph unicode="&#xff;" glyph-name="ydieresis" horiz-adv-x="488" d="M5 -215Q-33 -215 -59 -205T-100 -181L-70 -121Q-54 -136 -37 -144T2 -152Q34 -152 59 -133T109 -74L156 4L73 500H144L190 194L208 80L272 188L456 500H538L166 -98Q141 -139 115 -165T61
-203T5 -215ZM415 573Q395 573 382 586T368 618Q368 646 384 662T425 678Q445 678 458 666T472 633Q472 605 456 589T415 573ZM222 573Q202 573 189 586T176 618Q176 646 192 662T233 678Q253 678 266 666T279 633Q279 605 263 589T222 573Z" />
<glyph unicode="&#x2013;" glyph-name="endash" horiz-adv-x="657" d="M587 296L572 229H75L91 296H587Z" />
<glyph unicode="&#x2014;" glyph-name="emdash" horiz-adv-x="1005" d="M935 296L920 229H75L91 296H935Z" />
<glyph unicode="&#x2018;" glyph-name="quoteleft" horiz-adv-x="232" d="M172 446Q144 446 127 465T110 516Q110 557 131 596T189 663T269 699L287 655Q250 652 225 636T185 598T165 560L167 559Q169 561 175 562T189 564Q212 564 224 550T236 515Q236 485 218
466T172 446Z" />
<glyph unicode="&#x2019;" glyph-name="quoteright" horiz-adv-x="232" d="M217 699Q246 699 262 678T279 624Q279 588 260 551T206 485T123 445L100 489Q138 495 163 509T204 544T225 588L224 589Q220 585 214 583T198 581Q176 581 165 597T153 633Q153 662 171
680T217 699Z" />
<glyph unicode="&#x201a;" glyph-name="quotesinglbase" horiz-adv-x="232" d="M337 110Q366 110 382 89T399 35Q399 -1 380 -38T326 -104T243 -144L220 -100Q258 -94 283 -80T324 -45T345 -1L344 0Q340 -4 334 -6T318 -8Q296 -8 285 8T273 44Q273 73 291 91T337 110Z" />
<glyph unicode="&#x201c;" glyph-name="quotedblleft" horiz-adv-x="405" d="M172 446Q144 446 127 465T110 516Q110 557 131 596T189 663T269 699L287 655Q250 652 225 636T185 598T165 560L167 559Q169 561 175 562T189 564Q212 564 224 550T236 515Q236 485
218 466T172 446ZM345 446Q317 446 300 465T283 516Q283 557 304 596T362 663T442 699L460 655Q423 652 398 636T358 598T338 560L340 559Q342 561 348 562T362 564Q385 564 397 550T409 515Q409 485 391 466T345 446Z" />
<glyph unicode="&#x201d;" glyph-name="quotedblright" horiz-adv-x="405" d="M217 699Q246 699 262 678T279 624Q279 588 260 551T206 485T123 445L100 489Q138 495 163 509T204 544T225 588L224 589Q220 585 214 583T198 581Q176 581 165 597T153 633Q153 662
171 680T217 699ZM390 699Q419 699 435 678T452 624Q452 588 433 551T379 485T296 445L273 489Q311 495 336 509T377 544T398 588L397 589Q393 585 387 583T371 581Q349 581 338 597T326 633Q326 662 344 680T390 699Z" />
<glyph unicode="&#x201e;" glyph-name="quotedblbase" horiz-adv-x="406" d="M337 110Q366 110 382 89T399 35Q399 -1 380 -38T326 -104T243 -144L220 -100Q258 -94 283 -80T324 -45T345 -1L344 0Q340 -4 334 -6T318 -8Q296 -8 285 8T273 44Q273 73 291 91T337
110ZM255 110Q284 110 300 89T317 35Q317 -1 298 -38T244 -104T161 -144L138 -100Q176 -94 201 -80T242 -45T263 -1L262 0Q258 -4 252 -6T236 -8Q214 -8 203 8T191 44Q191 73 209 91T255 110Z" />
<glyph unicode="&#x2022;" glyph-name="bullet" horiz-adv-x="423" d="M225 223Q176 223 147 254T117 329Q117 383 152 417T239 451Q288 451 317 420T347 345Q347 291 313 257T225 223Z" />
<glyph unicode="&#x2039;" glyph-name="guilsinglleft" horiz-adv-x="307" d="M306 461L109 242L112 293L205 69H135L52 265L226 461H306Z" />
<glyph unicode="&#x203a;" glyph-name="guilsinglright" horiz-adv-x="306" d="M-4 69L193 288L190 237L96 461H167L250 265L76 69H-4Z" />
</font>
</defs>
</svg>
