<?xml version="1.0" standalone="no"?>
<!DOCTYPE svg PUBLIC "-//W3C//DTD SVG 1.1//EN" "http://www.w3.org/Graphics/SVG/1.1/DTD/svg11.dtd">
<svg xmlns="http://www.w3.org/2000/svg">
<defs >
<font id="KantumruyPro" horiz-adv-x="625" ><font-face
    font-family="Kantumruy Pro Light"
    units-per-em="1000"
    panose-1="0 0 0 0 0 0 0 0 0 0"
    ascent="920"
    descent="-260"
    alphabetic="0" />
<glyph unicode=" " glyph-name="space" horiz-adv-x="319" />
<glyph unicode="!" glyph-name="exclam" horiz-adv-x="236" d="M82 194L108 347L181 660H240L168 347L124 194H82ZM67 -8Q48 -8 36 4T23 34Q23 59 38 74T74 90Q93 90 105 78T118 47Q118 22 103 7T67 -8Z" />
<glyph unicode="&quot;" glyph-name="quotedbl" horiz-adv-x="340" d="M377 686L311 472H265L314 686H377ZM238 686L172 472H126L175 686H238Z" />
<glyph unicode="#" glyph-name="numbersign" horiz-adv-x="608" d="M288 0L509 660H559L338 0H288ZM30 196V239H553L552 196H30ZM71 0L291 660H342L121 0H71ZM93 425V468H614V425H93Z" />
<glyph unicode="$" glyph-name="dollar" horiz-adv-x="595" d="M302 1Q235 1 181 24T90 89T36 191L88 214Q101 160 132 123T209 67T306 48Q357 48 393 66T449 116T469 183Q469 213 456 233T418 266T361 289L277 313Q233 326 198 348T143 401T123 475Q123 529 150
570T228 636T345 660Q407 660 452 642T528 588T575 503L522 480Q511 527 485 556T423 599T342 613Q265 613 222 575T178 483Q178 439 209 410T290 366L380 340Q423 328 454 309T504 260T523 191Q523 134 494 91T414 25T302 1ZM195 -100L394 760H443L244 -100H195Z"
/>
<glyph unicode="%" glyph-name="percent" horiz-adv-x="838" d="M109 0L704 660H766L171 0H109ZM227 314Q162 314 127 354T92 457Q92 514 113 561T174 637T269 666Q333 666 367 626T402 523Q402 468 381 420T320 343T227 314ZM231 359Q270 359 297 382T338 443T352
521Q352 566 330 594T265 622Q225 622 198 599T157 538T142 460Q142 414 165 387T231 359ZM608 -6Q544 -6 509 34T473 137Q473 194 494 241T556 317T650 346Q714 346 748 306T783 203Q783 148 762 100T701 23T608 -6ZM612 38Q652 38 678 62T719 123T733 201Q733
246 711 274T646 302Q607 302 580 279T538 218T523 140Q523 94 546 66T612 38Z" />
<glyph unicode="&amp;" glyph-name="ampersand" horiz-adv-x="567" d="M217 -9Q126 -9 75 37T24 163Q24 222 49 262T120 329T228 375L253 386Q299 403 336 424T394 474T416 544Q416 581 396 602T340 624Q298 624 269 592T239 506Q239 474 249 431T277 339T321
238Q354 170 389 125T460 56T531 33L522 -11V-11Q454 -11 393 46T278 209Q252 262 232 314T200 415T188 503Q188 553 208 590T264 648T343 669Q402 669 434 635T466 552Q466 495 439 456T364 390T255 341L249 340Q196 322 158 300T98 247T76 166Q76 105 115 72T217
38Q267 38 304 56T375 105L386 114Q424 154 452 210T489 336L537 333Q526 259 494 192T413 78L400 67Q362 34 317 13T217 -9Z" />
<glyph unicode="&apos;" glyph-name="quotesingle" horiz-adv-x="200" d="M238 686L172 472H126L175 686H238Z" />
<glyph unicode="(" glyph-name="parenleft" horiz-adv-x="309" d="M154 -182Q108 -107 83 -12T58 179Q58 265 79 348T140 507T239 643T371 747L394 712Q302 654 239 569T145 382T113 174Q113 86 133 0T191 -158L154 -182Z" />
<glyph unicode=")" glyph-name="parenright" horiz-adv-x="309" d="M158 747Q205 673 230 578T255 386Q255 300 234 217T172 58T73 -78T-59 -182L-81 -147Q11 -88 73 -3T167 184T199 391Q199 480 180 566T121 723L158 747Z" />
<glyph unicode="*" glyph-name="asterisk" horiz-adv-x="541" d="M399 292L348 401L323 473L267 408L171 315L139 348L234 442L300 495L229 522L121 574L142 615L251 564L317 524L328 606L354 730H404L375 601L350 521L429 544L555 569L558 523L433 498L352 488L391
422L441 313L399 292Z" />
<glyph unicode="+" glyph-name="plus" horiz-adv-x="604" d="M399 557L288 72H235L346 557H399ZM562 342L551 290H73L85 342H562Z" />
<glyph unicode="," glyph-name="comma" horiz-adv-x="221" d="M71 90Q95 90 109 73T123 27Q123 -5 106 -39T58 -98T-14 -133L-32 -98Q3 -92 26 -77T63 -41T81 1L80 2Q76 -3 70 -5T55 -7Q37 -7 28 6T18 36Q18 59 33 74T71 90Z" />
<glyph unicode="-" glyph-name="hyphen" horiz-adv-x="475" d="M403 294L390 236H79L92 294H403Z" />
<glyph unicode="." glyph-name="period" horiz-adv-x="226" d="M62 -8Q43 -8 31 4T18 34Q18 59 32 74T69 90Q88 90 100 78T112 47Q112 22 98 7T62 -8Z" />
<glyph unicode="/" glyph-name="slash" horiz-adv-x="393" d="M475 730L13 -70H-45L417 730H475Z" />
<glyph unicode="0" glyph-name="zero" horiz-adv-x="600" d="M280 -7Q214 -7 167 24T96 111T72 240Q72 280 76 318T89 390Q108 468 145 531T238 631T365 669Q429 669 473 638T541 551T565 422Q565 383 561 346T548 276Q530 197 493 133T402 31T280 -7ZM286 42Q339
42 380 75T449 164T492 284Q500 317 504 352T508 421Q508 519 469 569T359 619Q303 619 261 586T189 499T145 379Q129 309 129 241Q129 140 173 91T286 42Z" />
<glyph unicode="1" glyph-name="one" horiz-adv-x="339" d="M121 0L236 504Q240 521 243 535T252 564T261 591Q241 567 210 547T145 511T82 489V543Q116 553 154 571T226 612T281 660H330L177 0H121Z" />
<glyph unicode="2" glyph-name="two" horiz-adv-x="538" d="M17 0L30 53Q117 117 192 172T325 280T413 385T445 496Q445 559 410 588T319 617Q250 617 204 573T139 459L96 494Q118 570 176 620T322 670Q376 670 417 651T481 595T504 507Q504 439 469 380T377 265T249
157T107 51V50Q117 51 134 51T160 52H454L440 0H17Z" />
<glyph unicode="3" glyph-name="three" horiz-adv-x="527" d="M244 -10Q158 -10 103 38T32 169L91 186Q100 121 140 82T248 42Q296 42 330 62T383 117T402 192Q402 251 366 279T271 308Q264 308 258 308T244 307L256 363Q267 362 275 361T292 360Q340 360 374
377T426 426T445 500Q445 560 407 589T317 619Q256 619 219 589T161 509L112 539Q139 602 194 636T324 671Q375 671 415 652T478 596T501 509Q501 459 481 420T426 359T349 332L348 330Q398 322 428 287T459 198Q459 134 429 88T350 16T244 -10Z" />
<glyph unicode="4" glyph-name="four" horiz-adv-x="528" d="M267 0L310 185H19L30 233Q41 247 50 259T83 299L396 660H476L376 233H498L487 185H365L322 0H267ZM83 233H321L407 607L145 300Q128 281 113 265T83 233Z" />
<glyph unicode="5" glyph-name="five" horiz-adv-x="538" d="M253 -10Q194 -10 150 14T79 78T47 163L106 178Q110 144 126 113T176 62T259 42Q311 42 346 68T400 136T418 227Q418 299 377 333T278 368Q237 368 206 355T150 318L104 334L207 660H535L522 608H244L171
370Q194 391 228 403T300 416Q350 416 389 396T452 335T476 235Q476 166 449 111T372 23T253 -10Z" />
<glyph unicode="6" glyph-name="six" horiz-adv-x="550" d="M283 -10Q212 -10 165 21T95 109T72 241Q72 321 90 397T146 535T241 633T374 670Q439 670 488 636T553 531L497 512Q489 563 452 590T369 617Q313 617 270 589T197 513T150 404T127 277Q145 338 197
372T315 406Q397 406 446 357T495 222Q495 155 469 103T396 20T283 -10ZM286 42Q333 42 367 64T419 125T438 213Q438 276 400 315T294 355Q247 355 212 333T157 274T137 194Q137 163 147 136T176 88T223 54T286 42Z" />
<glyph unicode="7" glyph-name="seven" horiz-adv-x="497" d="M117 660H558L545 608Q461 530 394 438T280 238T205 0H143Q180 175 270 335T504 624V608H104L117 660Z" />
<glyph unicode="8" glyph-name="eight" horiz-adv-x="577" d="M272 -9Q210 -9 159 13T77 75T46 173Q46 229 72 268T142 331T240 359L246 347Q217 356 195 376T159 424T146 484Q146 538 172 580T244 647T351 671Q407 671 451 651T521 595T546 509Q546 440 502 391T383
331L379 343Q414 332 441 310T484 257T500 189Q500 129 471 85T391 16T272 -9ZM279 43Q354 43 397 80T441 182Q441 224 418 254T356 302T270 320Q225 320 188 303T127 254T104 178Q104 134 127 104T191 59T279 43ZM343 367Q385 367 418 384T469 432T487 502Q487
554 450 587T349 621Q305 621 273 603T222 554T203 486Q203 454 221 427T270 384T343 367Z" />
<glyph unicode="9" glyph-name="nine" horiz-adv-x="567" d="M236 -10Q152 -10 102 37T36 158L94 176Q101 140 119 110T167 61T241 42Q296 42 338 69T409 145T456 254T476 384Q465 343 438 314T375 270T299 255Q241 255 198 279T132 346T108 446Q108 507 135 558T211
639T325 670Q393 670 439 640T508 555T531 423Q531 341 513 264T457 124T364 26T236 -10ZM310 304Q357 304 392 327T447 387T467 470Q467 513 449 546T399 599T323 618Q275 618 240 597T185 539T166 455Q166 391 203 348T310 304Z" />
<glyph unicode=":" glyph-name="colon" horiz-adv-x="257" d="M172 413Q158 413 148 422T138 447Q138 466 150 478T178 490Q192 490 202 481T212 456Q212 437 201 425T172 413ZM76 -4Q61 -4 52 5T42 30Q42 50 53 61T82 73Q96 73 106 64T116 40Q116 20 105 8T76 -4Z" />
<glyph unicode=";" glyph-name="semicolon" horiz-adv-x="257" d="M84 90Q108 90 122 73T136 27Q136 -5 119 -39T72 -98T-1 -133L-19 -98Q16 -92 39 -77T76 -41T94 1L93 2Q89 -3 83 -5T68 -7Q50 -7 41 6T31 36Q31 59 46 74T84 90ZM180 506Q199 506 212 495T225
464Q225 439 210 424T173 408Q155 408 143 420T130 451Q130 476 145 491T180 506Z" />
<glyph unicode="&lt;" glyph-name="less" horiz-adv-x="587" d="M589 560L575 499L125 298L482 93L469 39L75 267L91 332L589 560Z" />
<glyph unicode="=" glyph-name="equal" horiz-adv-x="604" d="M574 434L562 382H103L115 434H574ZM528 232L515 180H57L69 232H528Z" />
<glyph unicode="&gt;" glyph-name="greater" horiz-adv-x="587" d="M9 39L24 100L473 301L117 506L129 560L523 332L507 267L9 39Z" />
<glyph unicode="?" glyph-name="question" horiz-adv-x="493" d="M191 186L227 336Q297 337 345 355T418 408T443 498Q443 556 406 586T309 616Q242 616 200 582T138 495L93 527Q110 569 140 600T213 650T311 668Q367 668 409 648T476 591T500 501Q500 438 472
393T392 322T274 294L249 186H191ZM185 -8Q166 -8 154 4T141 34Q141 59 156 74T192 90Q211 90 223 78T236 47Q236 22 221 7T185 -8Z" />
<glyph unicode="@" glyph-name="at" horiz-adv-x="916" d="M450 -187Q338 -187 252 -140T117 -7T68 198Q68 302 101 386T192 531T328 624T497 656Q587 656 654 629T767 553T836 437T859 294Q859 232 844 178T803 84T741 21T667 -2Q635 -2 614 12T585 50T580 101Q558
58 515 32T421 6Q370 6 332 31T272 101T251 203Q251 259 268 307T314 392T384 449T473 470Q536 470 576 433T624 331L654 460H705L628 133Q625 121 624 111T623 93Q623 61 639 50T675 38Q704 38 729 57T774 112T805 193T817 293Q817 364 796 423T733 524T632 590T493
614Q415 614 347 586T226 503T145 373T116 199Q116 91 160 14T281 -104T451 -145Q523 -145 575 -128T661 -90L679 -127Q652 -142 620 -156T546 -178T450 -187ZM435 49Q483 49 520 79T580 160T602 276Q602 326 586 358T541 408T475 425Q426 425 387 397T325 318T301
204Q301 156 317 121T364 68T435 49Z" />
<glyph unicode="A" glyph-name="A" horiz-adv-x="598" d="M-39 0L359 660H429L521 0H466L437 207H147L24 0H-39ZM180 259H429L382 600L180 259Z" />
<glyph unicode="B" glyph-name="B" horiz-adv-x="624" d="M44 0L197 660H417Q499 660 542 620T586 512Q586 466 568 428T517 363T439 328V328Q492 321 522 285T552 200Q552 106 488 53T311 0H44ZM113 52H311Q399 52 446 90T494 200Q494 231 480 254T437 291T359
304H171L113 52ZM182 356H367Q418 356 454 376T509 430T529 505Q529 558 495 583T402 608H241L182 356Z" />
<glyph unicode="C" glyph-name="C" horiz-adv-x="651" d="M346 -10Q273 -10 213 22T116 117T80 271Q80 347 101 418T164 546T267 636T409 670Q498 670 559 624T644 487L586 468Q568 545 521 581T403 618Q339 618 290 590T208 513T157 404T139 280Q139 205 167
152T243 71T349 42Q418 42 462 72T536 156L589 129Q550 64 491 27T346 -10Z" />
<glyph unicode="D" glyph-name="D" horiz-adv-x="681" d="M46 0L199 660H385Q466 660 523 626T610 531T641 393Q641 309 615 238T542 113T428 30T282 0H46ZM114 52H289Q356 52 409 78T501 151T560 257T581 384Q581 448 559 498T491 578T378 608H243L114 52Z" />
<glyph unicode="E" glyph-name="E" horiz-adv-x="590" d="M44 0L197 660H626L612 608H240L184 362H479L466 309H172L113 52H502L489 0H44Z" />
<glyph unicode="F" glyph-name="F" horiz-adv-x="550" d="M599 608H240L184 362H481L468 309H172L100 0H44L197 660H612L599 608Z" />
<glyph unicode="G" glyph-name="G" horiz-adv-x="682" d="M332 -8Q263 -8 206 24T114 120T80 272Q80 349 102 420T166 548T272 637T416 670Q473 670 521 652T606 595T660 494L604 475Q583 549 533 584T413 619Q346 619 295 591T209 513T156 404T138 279Q138 204
164 152T236 72T342 44Q396 44 440 64T514 125T559 227L568 267H358L371 319H630L554 0H509L542 152L550 150Q532 95 500 60T425 9T332 -8Z" />
<glyph unicode="H" glyph-name="H" horiz-adv-x="690" d="M683 660L530 0H474L627 660H683ZM253 660L100 0H44L197 660H253ZM585 362L572 309H145L157 362H585Z" />
<glyph unicode="I" glyph-name="I" horiz-adv-x="260" d="M253 660L100 0H44L197 660H253Z" />
<glyph unicode="J" glyph-name="J" horiz-adv-x="509" d="M191 -9Q126 -9 84 22T29 108T39 232L92 236Q65 148 93 95T197 42Q263 42 298 82T354 213L456 660H513L407 200Q397 156 381 118T339 52T278 7T191 -9Z" />
<glyph unicode="K" glyph-name="K" horiz-adv-x="589" d="M44 0L197 660H253L170 300L576 660H656L350 390L508 0H446L306 351L150 214L100 0H44Z" />
<glyph unicode="L" glyph-name="L" horiz-adv-x="547" d="M113 52H478L465 0H44L197 660H253L113 52Z" />
<glyph unicode="M" glyph-name="M" horiz-adv-x="797" d="M44 0L197 660H277L343 175L353 67V67L411 173L700 660H790L637 0H584L694 478L727 607V607L364 0H314L233 607H232L207 478L98 0H44Z" />
<glyph unicode="N" glyph-name="N" horiz-adv-x="690" d="M44 0L197 660H265L460 159L492 61H493L511 149L630 660H683L530 0H462L265 503L234 599H233L215 511L98 0H44Z" />
<glyph unicode="O" glyph-name="O" horiz-adv-x="712" d="M342 -10Q271 -10 212 23T117 121T81 276Q81 354 102 425T165 551T268 638T410 670Q481 670 540 637T633 539T668 384Q668 307 647 236T585 110T483 22T342 -10ZM349 43Q413 43 461 71T543 147T593 255T610
380Q610 456 583 509T509 589T402 617Q338 617 289 589T207 513T157 405T140 280Q140 205 167 152T241 71T349 43Z" />
<glyph unicode="P" glyph-name="P" horiz-adv-x="579" d="M44 0L197 660H375Q468 660 522 613T576 487Q576 422 546 372T460 293T330 264H138L149 316H344Q401 316 439 339T498 399T518 482Q518 540 480 574T370 608H241L100 0H44Z" />
<glyph unicode="Q" glyph-name="Q" horiz-adv-x="712" d="M429 -194Q385 -194 349 -177T292 -126T271 -49Q271 -34 273 -19T280 13L333 22Q323 -9 323 -38Q323 -88 353 -114T435 -140Q461 -140 485 -133T531 -113L535 -167Q513 -182 484 -188T429 -194ZM342 -10Q271
-10 212 23T117 121T81 276Q81 354 102 425T165 551T268 638T410 670Q481 670 540 637T633 539T668 384Q668 307 647 236T585 110T483 22T342 -10ZM349 43Q413 43 461 71T543 147T593 255T610 380Q610 456 583 509T509 589T402 617Q338 617 289 589T207 513T157
405T140 280Q140 205 167 152T241 71T349 43Z" />
<glyph unicode="R" glyph-name="R" horiz-adv-x="610" d="M44 0L197 660H400Q488 660 536 615T585 490Q585 433 561 388T493 315T393 282L361 277H151L162 329H357Q414 329 451 350T508 409T527 491Q527 545 492 576T390 608H241L100 0H44ZM461 0L352 291L409
297L521 0H461Z" />
<glyph unicode="S" glyph-name="S" horiz-adv-x="606" d="M313 -8Q242 -8 186 15T92 81T38 186L94 213Q106 157 138 120T217 63T318 44Q368 44 405 61T463 109T484 179Q484 222 455 247T374 288L281 315Q209 336 170 379T130 481Q130 535 158 578T237 646T357
671Q448 671 510 631T596 510L540 484Q528 537 500 566T435 607T354 619Q301 619 264 602T208 555T188 490Q188 449 216 417T296 370L395 341Q469 320 506 282T543 188Q543 127 511 83T427 15T313 -8Z" />
<glyph unicode="T" glyph-name="T" horiz-adv-x="551" d="M622 660L610 608H387L247 0H191L331 608H106L119 660H622Z" />
<glyph unicode="U" glyph-name="U" horiz-adv-x="674" d="M309 -10Q224 -10 169 25T95 126T95 282L184 660H240L150 269Q133 196 149 145T207 68T312 42Q396 42 446 97T518 249L613 660H669L570 233Q544 121 479 56T309 -10Z" />
<glyph unicode="V" glyph-name="V" horiz-adv-x="585" d="M659 660L267 0H202L116 660H172L235 161L244 52L300 158L597 660H659Z" />
<glyph unicode="W" glyph-name="W" horiz-adv-x="902" d="M166 0L124 660H178L212 59L505 660H575L596 56L907 660H967L620 0H549L530 460L528 601H527L459 456L234 0H166Z" />
<glyph unicode="X" glyph-name="X" horiz-adv-x="546" d="M-37 0L265 345L138 660H199L307 385L541 660H607L329 336L464 0H405L287 296L32 0H-37Z" />
<glyph unicode="Y" glyph-name="Y" horiz-adv-x="521" d="M174 0L234 257L110 660H171L239 427L271 310L360 435L533 660H600L289 253L230 0H174Z" />
<glyph unicode="Z" glyph-name="Z" horiz-adv-x="558" d="M-13 0L-1 51L512 608H127L139 660H596L583 610L69 52H481L468 0H-13Z" />
<glyph unicode="[" glyph-name="bracketleft" horiz-adv-x="316" d="M392 681H234L49 -119H207L195 -168H-15L193 730H403L392 681Z" />
<glyph unicode="\" glyph-name="backslash" horiz-adv-x="434" d="M129 730H179L319 -70H268L129 730Z" />
<glyph unicode="]" glyph-name="bracketright" horiz-adv-x="316" d="M-73 -119H85L270 681H112L124 730H334L126 -168H-84L-73 -119Z" />
<glyph unicode="^" glyph-name="asciicircum" horiz-adv-x="531" d="M55 355L349 730H403L523 355H470L367 682L116 355H55Z" />
<glyph unicode="_" glyph-name="underscore" horiz-adv-x="524" d="M444 -97L432 -149H-92L-80 -97H444Z" />
<glyph unicode="`" glyph-name="grave" horiz-adv-x="519" d="M360 743L407 583H364L303 743H360Z" />
<glyph unicode="a" glyph-name="a" horiz-adv-x="597" d="M242 -9Q184 -9 142 19T76 97T52 211Q52 274 70 328T121 423T200 487T300 510Q372 510 417 469T469 360L501 500H557L441 0H391L413 105Q388 55 344 23T242 -9ZM256 39Q296 39 330 60T390 118T430 201T445
299Q445 353 427 389T376 443T302 462Q245 462 201 429T132 340T107 211Q107 157 125 118T177 59T256 39Z" />
<glyph unicode="b" glyph-name="b" horiz-adv-x="586" d="M351 509Q405 509 446 482T510 406T533 289Q533 227 516 173T465 78T388 14T290 -10Q214 -10 170 34T117 144L85 0H29L197 730H253L179 407Q203 454 249 481T351 509ZM290 38Q344 38 386 71T453 162T478
290Q478 345 459 383T408 440T335 460Q278 460 235 427T167 335T143 202Q143 128 181 83T290 38Z" />
<glyph unicode="c" glyph-name="c" horiz-adv-x="511" d="M258 -9Q196 -9 150 19T78 98T53 213Q53 299 84 366T172 471T303 509Q353 509 392 490T456 438T489 358L431 344Q424 396 391 428T300 461Q244 461 201 429T134 341T109 215Q109 163 128 124T182 62T264
39Q309 39 346 64T401 134L454 114Q428 56 377 24T258 -9Z" />
<glyph unicode="d" glyph-name="d" horiz-adv-x="598" d="M243 -9Q185 -9 142 19T76 97T52 212Q52 274 70 328T121 423T200 487T301 510Q373 510 418 470T470 359L555 730H611L442 0H392L414 105Q390 55 345 23T243 -9ZM257 39Q297 39 331 60T391 117T431 200T446
299Q446 353 428 389T377 443T303 462Q246 462 202 429T133 340T107 211Q107 157 126 118T178 59T257 39Z" />
<glyph unicode="e" glyph-name="e" horiz-adv-x="536" d="M258 -9Q193 -9 147 21T77 101T53 213Q53 292 83 359T169 468T304 509Q361 509 401 484T464 415T486 315Q486 299 484 281T475 242H81L82 291H450L426 272Q429 285 430 295T431 316Q431 357 416 390T372
442T300 461Q252 461 216 441T157 385T121 305T109 212Q109 162 128 123T182 62T264 39Q317 39 353 64T413 128L458 99Q426 51 376 21T258 -9Z" />
<glyph unicode="f" glyph-name="f" horiz-adv-x="347" d="M63 0L200 592Q216 664 256 699T360 735Q385 735 405 729T439 710L419 664Q408 674 393 679T359 685Q314 685 289 659T251 574L234 500L230 480L119 0H63ZM70 452L83 500H386L375 452H70Z" />
<glyph unicode="g" glyph-name="g" horiz-adv-x="597" d="M203 -215Q148 -215 104 -195T31 -139T-6 -53L49 -33Q61 -97 100 -131T208 -166Q252 -166 287 -150T348 -96T387 3L417 137L424 135Q406 81 358 46T245 11Q189 11 145 38T76 115T51 227Q51 287 69 338T119
428T196 488T296 510Q352 510 392 484T452 413T469 310H458L502 500H558L440 -4Q415 -113 355 -164T203 -215ZM259 59Q313 59 354 91T419 178T443 297Q443 351 424 387T373 443T298 462Q241 462 198 431T131 346T107 227Q107 151 148 105T259 59Z" />
<glyph unicode="h" glyph-name="h" horiz-adv-x="569" d="M29 0L199 730H255L174 385L163 381Q184 441 236 475T355 510Q409 510 447 485T501 412T501 298L432 0H376L445 298Q463 376 434 418T341 461Q290 461 252 439T188 375T149 277L85 0H29Z" />
<glyph unicode="i" glyph-name="i" horiz-adv-x="230" d="M201 500L85 0H29L145 500H201ZM202 597Q184 597 173 608T161 637Q161 660 175 674T209 688Q227 688 238 677T250 648Q250 625 236 611T202 597Z" />
<glyph unicode="j" glyph-name="j" horiz-adv-x="220" d="M-83 -215Q-107 -215 -130 -208T-168 -186L-147 -136Q-135 -146 -119 -153T-86 -160Q-50 -160 -29 -136T4 -60L135 500H191L57 -76Q41 -145 4 -180T-83 -215ZM448 597Q430 597 419 608T407 637Q407 660
421 674T455 688Q473 688 484 677T496 648Q496 625 482 611T448 597Z" />
<glyph unicode="k" glyph-name="k" horiz-adv-x="504" d="M533 500L280 288L266 279L85 127L97 200L453 500H533ZM254 730L85 0H29L198 730H254ZM288 316L426 0H365L242 287L288 316Z" />
<glyph unicode="l" glyph-name="l" horiz-adv-x="276" d="M136 -8Q81 -8 62 30T57 134L194 730H250L112 131Q102 86 113 64T160 41Q185 41 201 47L186 2Q174 -3 163 -5T136 -8Z" />
<glyph unicode="m" glyph-name="m" horiz-adv-x="916" d="M29 0L145 500H195L171 378L163 381Q184 441 236 475T358 510Q412 510 449 485T501 413T499 297L430 0H374L443 297Q462 376 434 418T343 461Q290 461 252 438T188 374T150 277L85 0H29ZM719 0L787 297Q806
376 778 418T688 461Q635 461 596 438T532 372T493 275L490 365Q518 435 574 472T703 510Q757 510 794 485T846 412T844 297L775 0H719Z" />
<glyph unicode="n" glyph-name="n" horiz-adv-x="569" d="M29 0L145 500H195L171 378L163 381Q184 441 236 475T355 510Q411 510 449 485T502 412T501 298L432 0H376L445 298Q463 376 434 418T341 461Q290 461 252 439T188 375T149 277L85 0H29Z" />
<glyph unicode="o" glyph-name="o" horiz-adv-x="564" d="M264 -9Q197 -9 150 21T78 102T53 213Q53 300 84 366T172 471T301 509Q369 509 415 479T486 399T511 288Q511 201 479 134T392 29T264 -9ZM266 39Q321 39 363 71T430 159T454 286Q454 361 415 411T299
461Q243 461 201 429T134 342T110 215Q110 166 128 126T181 63T266 39Z" />
<glyph unicode="p" glyph-name="p" horiz-adv-x="587" d="M-20 -210L144 500H194L166 364L157 359Q177 430 230 469T353 509Q407 509 448 482T512 405T535 290Q535 228 517 173T465 78T387 14T289 -10Q236 -10 197 13T137 78T114 174L128 191L36 -210H-20ZM291
38Q345 38 387 72T454 163T479 291Q479 344 461 382T410 440T335 460Q278 460 235 427T167 335T142 202Q142 128 181 83T291 38Z" />
<glyph unicode="q" glyph-name="q" horiz-adv-x="597" d="M337 -210L416 128L417 117Q395 61 350 26T243 -9Q186 -9 143 19T76 97T52 212Q52 274 70 328T122 424T200 487T298 510Q355 510 393 484T451 414T467 318L459 316L501 500H557L393 -210H337ZM255 39Q309
39 351 72T417 164T442 295Q442 350 424 387T373 443T301 462Q246 462 202 430T133 341T108 211Q108 158 126 119T177 60T255 39Z" />
<glyph unicode="r" glyph-name="r" horiz-adv-x="356" d="M29 0L145 500H192L172 372L163 379Q187 437 234 473T336 510Q352 510 365 507T388 499L370 446Q361 452 348 455T320 458Q280 458 247 437T189 377T151 282L85 0H29Z" />
<glyph unicode="s" glyph-name="s" horiz-adv-x="486" d="M234 -11Q178 -11 134 8T62 60T23 140L76 162Q89 103 129 71T237 38Q295 38 326 66T358 138Q358 169 342 187T290 215L201 242Q147 258 118 288T89 365Q89 408 111 440T174 491T267 510Q313 510 351 496T416
452T453 378L403 354Q392 406 355 433T264 461Q207 461 176 437T144 370Q144 337 164 319T217 290L313 262Q362 247 388 218T414 146Q414 76 364 33T234 -11Z" />
<glyph unicode="t" glyph-name="t" horiz-adv-x="356" d="M201 -9Q136 -9 104 32T89 148L196 618L258 635L143 144Q131 91 151 66T211 41Q234 41 252 48T285 67L296 21Q275 5 251 -2T201 -9ZM63 452L74 500H373L361 452H63Z" />
<glyph unicode="u" glyph-name="u" horiz-adv-x="566" d="M207 -9Q152 -9 113 16T57 88T56 203L125 500H181L113 204Q95 124 126 82T221 40Q270 40 306 62T368 126T406 223L470 500H526L410 0H361L385 123L393 119Q371 58 321 25T207 -9Z" />
<glyph unicode="v" glyph-name="v" horiz-adv-x="466" d="M449 500H512L205 0H148L70 500H125L193 42L179 46L449 500Z" />
<glyph unicode="w" glyph-name="w" horiz-adv-x="769" d="M126 0L80 500H134L170 72L403 500H459L510 68L739 500H799L527 0H471L417 426L183 0H126Z" />
<glyph unicode="x" glyph-name="x" horiz-adv-x="483" d="M-34 0L222 273L236 284L433 500H502L261 242L246 226L38 0H-34ZM340 0L225 232L218 245L90 500H154L261 282L265 274L404 0H340Z" />
<glyph unicode="y" glyph-name="y" horiz-adv-x="477" d="M-6 -215Q-40 -215 -64 -206T-101 -182L-76 -136Q-63 -151 -46 -158T-8 -166Q25 -166 52 -146T107 -79L157 3L74 500H130L183 155L197 62L251 152L459 500H523L152 -99Q126 -140 101 -166T49 -203T-6 -215Z" />
<glyph unicode="z" glyph-name="z" horiz-adv-x="480" d="M-7 0L4 46L355 405L405 453L329 452H94L105 500H483L471 452L145 119L72 48H167H397L386 0H-7Z" />
<glyph unicode="{" glyph-name="braceleft" horiz-adv-x="305" d="M164 -182Q99 -182 70 -149T54 -61L105 159Q117 211 95 235T28 258H22L33 307H45Q91 307 120 327T159 392L215 637Q226 687 262 717T361 747H383L373 703H364Q317 703 296 684T265 627L210 386Q201
346 171 316T95 278Q136 268 152 238T158 163L106 -61Q98 -99 116 -119T174 -141H178L168 -182H164Z" />
<glyph unicode="|" glyph-name="bar" horiz-adv-x="211" d="M241 730L33 -168H-16L192 730H241Z" />
<glyph unicode="}" glyph-name="braceright" horiz-adv-x="306" d="M-73 -182L-63 -140H-55Q-8 -140 14 -120T45 -62L101 179Q109 219 139 250T214 288Q174 298 158 328T152 403L203 624Q212 663 194 683T135 704H131L141 747H145Q211 747 239 714T256 626L205
406Q193 354 214 330T282 307H288L277 258H265Q219 258 191 238T152 173L95 -72Q84 -122 49 -152T-51 -182H-73Z" />
<glyph unicode="~" glyph-name="asciitilde" horiz-adv-x="517" d="M505 388Q492 344 470 316T419 274T360 260Q327 260 306 271T266 297T230 323T186 334Q157 334 135 315T100 258H46Q58 301 80 329T132 372T193 386Q224 386 245 375T283 349T320 323T365 312Q426
312 451 388H505Z" />
<glyph unicode="&#xa0;" glyph-name="uni00A0" horiz-adv-x="319" />
<glyph unicode="&#xa1;" glyph-name="exclamdown" horiz-adv-x="230" d="M146 306L120 153L47 -160H-12L60 153L104 306H146ZM161 508Q180 508 192 497T205 466Q205 441 191 426T154 410Q136 410 123 422T110 453Q110 478 125 493T161 508Z" />
<glyph unicode="&#xa2;" glyph-name="cent" horiz-adv-x="538" d="M268 -9Q206 -9 159 19T87 98T61 212Q61 297 92 364T181 470T313 509Q365 509 404 490T469 438T502 358L447 344Q440 396 405 430T310 464Q253 464 209 431T140 341T115 215Q115 163 134 123T190
60T275 37Q320 37 360 63T416 134L468 114Q442 56 389 24T268 -9ZM177 -100L339 600H386L224 -100H177Z" />
<glyph unicode="&#xa3;" glyph-name="sterling" horiz-adv-x="565" d="M82 287L93 333H429L418 287H82ZM374 -7Q332 -7 302 4T247 33T201 68T159 97T111 109Q90 109 78 98T65 70Q65 52 76 42T106 32Q135 32 159 56T199 120T214 207Q214 253 206 293T189 372T180
455Q180 519 208 568T282 644T383 671Q430 671 467 651T527 595T553 510L502 494Q498 548 467 584T381 621Q338 621 305 599T252 539T233 451Q233 409 239 373T252 299T258 211Q258 167 246 128T213 59T163 11T100 -6Q65 -6 41 14T16 67Q16 102 43 126T114 150Q146
150 171 139T217 112T261 78T309 50T370 39Q411 39 435 64T471 143L515 127Q505 84 486 54T439 9T374 -7Z" />
<glyph unicode="&#xa4;" glyph-name="currency" d="M333 530Q389 530 431 506T498 437T522 333Q522 274 498 228T430 155T330 129Q275 129 232 154T165 225T140 328Q140 387 164 433T233 504T333 530ZM333 480Q272 480 234 438T196 328Q196 262 233 221T330 180Q390
180 428 223T466 333Q466 398 430 439T333 480ZM126 583L235 470L198 434L89 546L126 583ZM195 227L231 190L121 75L85 112L195 227ZM463 225L573 111L537 75L428 188L463 225ZM542 583L577 547L468 432L432 469L542 583Z" />
<glyph unicode="&#xa5;" glyph-name="yen" horiz-adv-x="573" d="M204 0L231 117H54L63 156H241L261 244H83L94 287H217L259 284L134 660H191L282 372L301 303H303L349 373L564 660H631L336 284L374 287H499L488 244H310L290 156H468L460 117H280L254 0H204Z" />
<glyph unicode="&#xa6;" glyph-name="brokenbar" horiz-adv-x="211" d="M241 730L157 366H108L192 730H241ZM117 196L33 -168H-16L69 196H117Z" />
<glyph unicode="&#xa7;" glyph-name="section" horiz-adv-x="562" d="M242 -110Q194 -110 152 -97T79 -55T30 14L82 43Q99 -5 141 -34T252 -63Q319 -63 353 -33T388 45Q388 80 369 101T303 136L185 173Q141 187 111 204T66 248T51 311Q51 362 86 396T185 435L210
411Q154 408 128 381T101 320Q101 294 113 276T147 244T203 221L323 183Q383 165 414 136T445 57Q445 11 423 -27T356 -87T242 -110ZM385 127L369 155Q418 154 447 180T477 251Q477 284 455 304T383 340L273 374Q215 393 185 423T154 510Q154 553 176 589T242 648T351
670Q390 670 428 659T500 623T555 555L507 526Q480 578 440 600T344 622Q303 622 274 608T228 571T211 518Q211 479 231 457T301 419L412 384Q472 365 500 336T528 261Q528 227 512 197T464 148T385 127Z" />
<glyph unicode="&#xa8;" glyph-name="dieresis" horiz-adv-x="519" d="M439 588Q422 588 411 599T400 626Q400 649 413 662T447 676Q464 676 475 666T486 638Q486 615 473 602T439 588ZM249 588Q232 588 221 599T210 626Q210 649 223 662T257 676Q274 676 285
666T296 638Q296 615 283 602T249 588Z" />
<glyph unicode="&#xa9;" glyph-name="copyright" horiz-adv-x="800" d="M419 -10Q318 -10 242 35T123 157T80 330Q80 427 122 503T241 625T419 670Q520 670 596 626T714 504T757 330Q757 234 715 157T596 35T419 -10ZM419 36Q504 36 569 75T670 180T707 330Q707
413 671 479T569 585T419 624Q333 624 268 585T167 480T131 330Q131 247 167 181T268 75T419 36ZM428 143Q343 143 295 192T246 328Q246 414 294 463T428 513Q486 513 524 488T581 416L539 395Q526 434 498 452T427 470Q365 470 329 433T293 328Q293 262 329 224T427
186Q471 186 502 207T545 266L585 250Q569 201 528 172T428 143Z" />
<glyph unicode="&#xaa;" glyph-name="ordfeminine" horiz-adv-x="349" d="M190 327Q140 327 109 365T78 467Q78 523 99 568T156 639T238 666Q267 666 289 651T323 607T330 538L319 517L353 660H400L323 336H281L313 468L311 433Q296 382 263 355T190 327ZM33 209L42
248H305L296 209H33ZM206 367Q239 367 262 390T299 450T312 528Q312 575 292 600T237 626Q201 626 177 603T139 544T126 467Q126 423 147 395T206 367Z" />
<glyph unicode="&#xab;" glyph-name="guillemotleft" horiz-adv-x="449" d="M293 461L96 247L98 287L194 69H139L51 265L230 461H293ZM448 461L251 247L253 287L349 69H294L206 265L385 461H448Z" />
<glyph unicode="&#xac;" glyph-name="logicalnot" horiz-adv-x="604" d="M554 318L515 148H459L498 318H554ZM560 342L548 290H75L87 342H560Z" />
<glyph unicode="&#xad;" glyph-name="uni00AD" horiz-adv-x="0" />
<glyph unicode="&#xae;" glyph-name="registered" horiz-adv-x="810" d="M423 670Q527 670 604 628T723 510T765 330Q765 227 723 151T604 32T423 -10Q321 -10 244 32T124 150T81 330Q81 433 124 509T244 628T423 670ZM345 513V143H297V513H345ZM471 318L590 143H535L431
302L471 318ZM423 624Q336 624 270 588T168 485T132 330Q132 242 168 176T270 73T423 36Q512 36 577 73T678 176T715 330Q715 419 679 485T577 587T423 624ZM450 513Q511 513 546 484T582 401Q582 349 547 320T450 290H325V327H450Q492 327 513 346T535 401Q535
439 514 457T450 476H325V513H450Z" />
<glyph unicode="&#xaf;" glyph-name="overscore" horiz-adv-x="519" d="M499 647L488 599H191L202 647H499Z" />
<glyph unicode="&#xb0;" glyph-name="degree" horiz-adv-x="412" d="M268 363Q222 363 187 382T131 436T111 516Q111 561 131 596T186 650T268 670Q314 670 349 651T404 596T424 516Q424 471 405 437T350 383T268 363ZM268 408Q315 408 344 438T374 516Q374 563
345 593T268 624Q220 624 191 594T161 516Q161 469 190 439T268 408Z" />
<glyph unicode="&#xb1;" glyph-name="plusminus" horiz-adv-x="588" d="M409 633L295 136H242L356 633H409ZM559 412L547 359H91L103 412H559ZM477 52L464 0H8L21 52H477Z" />
<glyph unicode="&#xb2;" glyph-name="uni00B2" horiz-adv-x="359" d="M85 333L94 373Q137 403 179 432T255 492T310 555T331 625Q331 660 313 677T266 694Q230 694 204 669T170 599L127 623Q141 673 177 704T268 735Q321 735 350 705T380 631Q380 588 359 551T305
483T232 425T159 373V373Q169 373 182 373T203 374H352L342 333H85Z" />
<glyph unicode="&#xb3;" glyph-name="uni00B3" horiz-adv-x="342" d="M208 327Q156 327 120 355T75 438L124 450Q130 410 151 390T210 369Q246 369 267 392T288 449Q288 481 269 497T217 514Q214 514 210 514T201 513L212 554Q217 553 222 553T234 552Q268 552
290 573T313 630Q313 661 295 677T247 694Q217 694 195 678T164 633L120 654Q137 692 170 713T249 735Q300 735 331 709T363 638Q363 596 339 566T275 531L274 529Q301 524 320 505T339 449Q339 412 321 385T273 342T208 327Z" />
<glyph unicode="&#xb4;" glyph-name="acute" horiz-adv-x="600" d="M422 743H489L354 583H301L422 743Z" />
<glyph unicode="&#xb5;" glyph-name="uni00B5" horiz-adv-x="589" d="M-20 -210L144 500H200L132 203Q114 124 146 82T241 40Q291 40 328 62T390 126T428 223L493 500H549L433 0H383L400 90Q375 43 332 17T232 -9Q188 -9 152 12T102 77V77L36 -210H-20Z" />
<glyph unicode="&#xb6;" glyph-name="paragraph" horiz-adv-x="606" d="M204 -100L276 215Q230 216 194 230T132 271T93 333T80 411Q80 489 111 545T204 630T352 660H614L438 -100H388L553 613H420L255 -100H204ZM287 262L368 613H331Q269 613 225 590T156 522T131
416Q131 348 172 305T287 262Z" />
<glyph unicode="&#xb7;" glyph-name="middot" horiz-adv-x="211" d="M127 308Q108 308 96 320T83 350Q83 375 98 390T134 406Q153 406 165 394T178 363Q178 338 163 323T127 308Z" />
<glyph unicode="&#xb8;" glyph-name="cedilla" horiz-adv-x="538" d="M215 4L250 19Q286 0 307 -27T328 -93Q328 -131 312 -157T268 -196T208 -210Q173 -210 149 -196T113 -165L136 -130Q149 -146 167 -156T210 -166Q243 -166 263 -146T283 -92Q283 -61 266 -38T215 4Z" />
<glyph unicode="&#xb9;" glyph-name="uni00B9" horiz-adv-x="223" d="M131 333L195 609Q198 622 201 635T208 658T212 672Q192 654 165 639T108 614L113 659Q130 665 152 675T196 700T231 729H273L181 333H131Z" />
<glyph unicode="&#xba;" glyph-name="ordmasculine" horiz-adv-x="349" d="M213 326Q158 326 123 362T87 466Q87 522 107 567T165 639T249 666Q306 666 341 630T376 527Q376 474 356 428T299 354T213 326ZM35 209L44 248H304L295 209H35ZM216 366Q251 366 276
389T314 448T327 526Q327 574 306 600T247 626Q213 626 188 604T150 545T136 467Q136 419 157 393T216 366Z" />
<glyph unicode="&#xbb;" glyph-name="guillemotright" horiz-adv-x="448" d="M-4 69L193 283L191 243L95 461H150L238 265L59 69H-4ZM151 69L348 283L346 243L250 461H305L393 265L214 69H151Z" />
<glyph unicode="&#xbc;" glyph-name="onequarter" horiz-adv-x="712" d="M372 524L436 800Q439 813 442 826T449 849T453 863Q433 845 406 830T349 805L354 850Q371 856 393 866T437 891T472 920H514L422 524H372ZM26 0L628 660H691L87 0H26ZM517 -4L542 103H373L382
141Q390 152 394 157T404 168T423 190L592 393H652L593 139H665L657 103H585L560 -4H517ZM428 139H550L599 347L456 171Q450 165 448 162T441 155T428 139Z" />
<glyph unicode="&#xbd;" glyph-name="onehalf" horiz-adv-x="816" d="M372 524L436 800Q439 813 442 826T449 849T453 863Q433 845 406 830T349 805L354 850Q371 856 393 866T437 891T472 920H514L422 524H372ZM26 0L628 660H691L87 0H26ZM464 -4L473 36Q516 66
558 95T634 155T689 218T710 288Q710 323 692 340T645 357Q609 357 583 332T549 262L506 286Q520 336 556 367T647 398Q700 398 729 368T759 294Q759 251 738 214T684 146T611 88T538 36V36Q548 36 561 36T582 37H731L721 -4H464Z" />
<glyph unicode="&#xbe;" glyph-name="threequarters" horiz-adv-x="830" d="M449 518Q397 518 361 546T316 629L365 641Q371 601 392 581T451 560Q487 560 508 583T529 640Q529 672 510 688T458 705Q455 705 451 705T442 704L453 745Q458 744 463 744T475 743Q509
743 531 764T554 821Q554 852 536 868T488 885Q458 885 436 869T405 824L361 845Q378 883 411 904T490 926Q541 926 572 900T604 829Q604 787 580 757T516 722L515 720Q542 715 561 696T580 640Q580 603 562 576T514 533T449 518ZM145 0L747 660H810L206 0H145ZM636
-4L661 103H492L501 141Q509 152 513 157T523 168T542 190L711 393H771L712 139H784L776 103H704L679 -4H636ZM547 139H669L718 347L575 171Q569 165 567 162T560 155T547 139Z" />
<glyph unicode="&#xbf;" glyph-name="questiondown" horiz-adv-x="493" d="M290 311L254 162Q183 161 135 143T63 90T38 0Q38 -57 75 -87T171 -118Q238 -118 281 -84T342 3L388 -29Q371 -70 341 -102T267 -152T169 -170Q114 -170 72 -150T5 -92T-20 -3Q-20 60
8 105T88 176T207 204L231 311H290ZM295 506Q314 506 327 495T340 464Q340 439 325 424T288 408Q270 408 258 420T245 451Q245 476 260 491T295 506Z" />
<glyph unicode="&#xc0;" glyph-name="Agrave" horiz-adv-x="598" d="M-39 0L359 660H429L521 0H466L437 207H147L24 0H-39ZM180 259H429L382 600L180 259ZM404 898L444 743H404L346 898H404Z" />
<glyph unicode="&#xc1;" glyph-name="Aacute" horiz-adv-x="598" d="M-39 0L359 660H429L521 0H466L437 207H147L24 0H-39ZM180 259H429L382 600L180 259ZM472 898H537L420 743H371L472 898Z" />
<glyph unicode="&#xc2;" glyph-name="Acircumflex" horiz-adv-x="598" d="M-39 0L359 660H429L521 0H466L437 207H147L24 0H-39ZM180 259H429L382 600L180 259ZM472 896L546 743H497L436 858L322 743H265L410 896H472Z" />
<glyph unicode="&#xc3;" glyph-name="Atilde" horiz-adv-x="598" d="M-39 0L359 660H429L521 0H466L437 207H147L24 0H-39ZM180 259H429L382 600L180 259ZM584 864Q571 806 542 778T477 749Q453 749 438 759T410 783T387 807T360 818Q340 818 326 800T302 748H257Q269
805 298 834T364 863Q388 863 404 853T431 829T454 805T482 794Q500 794 514 813T539 864H584Z" />
<glyph unicode="&#xc4;" glyph-name="Adieresis" horiz-adv-x="598" d="M-39 0L359 660H429L521 0H466L437 207H147L24 0H-39ZM180 259H429L382 600L180 259ZM506 748Q489 748 478 759T467 786Q467 809 480 822T514 836Q531 836 542 826T553 798Q553 775 540 762T506
748ZM316 748Q299 748 288 759T277 786Q277 809 290 822T324 836Q341 836 352 826T363 798Q363 775 350 762T316 748Z" />
<glyph unicode="&#xc5;" glyph-name="Aring" horiz-adv-x="598" d="M-39 0L359 660H429L521 0H466L437 207H147L24 0H-39ZM180 259H429L382 600L180 259ZM406 832Q451 832 480 805T509 737Q509 687 477 656T397 624Q352 624 323 651T294 719Q294 768 326 800T406
832ZM405 795Q375 795 355 775T334 722Q334 695 352 678T399 660Q427 660 447 680T468 734Q468 760 451 777T405 795Z" />
<glyph unicode="&#xc6;" glyph-name="AE" horiz-adv-x="894" d="M-57 0L474 660H929L917 608H567L510 361H782L770 309H498L439 52H805L792 0H370L423 228H193L12 0H-57ZM235 281H436L511 608H497L235 281Z" />
<glyph unicode="&#xc7;" glyph-name="Ccedilla" horiz-adv-x="651" d="M346 -10Q273 -10 213 22T116 117T80 271Q80 347 101 418T164 546T267 636T409 670Q498 670 559 624T644 487L586 468Q568 545 521 581T403 618Q339 618 290 590T208 513T157 404T139 280Q139
205 167 152T243 71T349 42Q418 42 462 72T536 156L589 129Q550 64 491 27T346 -10ZM296 4L331 19Q367 0 388 -27T409 -93Q409 -131 393 -157T349 -196T289 -210Q254 -210 230 -196T194 -165L217 -130Q230 -146 248 -156T291 -166Q324 -166 344 -146T364 -92Q364
-61 347 -38T296 4Z" />
<glyph unicode="&#xc8;" glyph-name="Egrave" horiz-adv-x="590" d="M44 0L197 660H626L612 608H240L184 362H479L466 309H172L113 52H502L489 0H44ZM407 898L447 743H407L349 898H407Z" />
<glyph unicode="&#xc9;" glyph-name="Eacute" horiz-adv-x="590" d="M44 0L197 660H626L612 608H240L184 362H479L466 309H172L113 52H502L489 0H44ZM488 898H553L436 743H387L488 898Z" />
<glyph unicode="&#xca;" glyph-name="Ecircumflex" horiz-adv-x="590" d="M44 0L197 660H626L612 608H240L184 362H479L466 309H172L113 52H502L489 0H44ZM488 896L562 743H513L452 858L338 743H281L426 896H488Z" />
<glyph unicode="&#xcb;" glyph-name="Edieresis" horiz-adv-x="590" d="M44 0L197 660H626L612 608H240L184 362H479L466 309H172L113 52H502L489 0H44ZM522 748Q505 748 494 759T483 786Q483 809 496 822T530 836Q547 836 558 826T569 798Q569 775 556 762T522
748ZM332 748Q315 748 304 759T293 786Q293 809 306 822T340 836Q357 836 368 826T379 798Q379 775 366 762T332 748Z" />
<glyph unicode="&#xcc;" glyph-name="Igrave" horiz-adv-x="260" d="M253 660L100 0H44L197 660H253ZM224 898L264 743H224L166 898H224Z" />
<glyph unicode="&#xcd;" glyph-name="Iacute" horiz-adv-x="260" d="M253 660L100 0H44L197 660H253ZM317 898H382L265 743H216L317 898Z" />
<glyph unicode="&#xce;" glyph-name="Icircumflex" horiz-adv-x="260" d="M253 660L100 0H44L197 660H253ZM309 896L383 743H334L273 858L159 743H102L247 896H309Z" />
<glyph unicode="&#xcf;" glyph-name="Idieresis" horiz-adv-x="240" d="M306 748Q291 748 281 758T271 785Q271 807 284 821T318 836Q333 836 343 826T353 799Q353 778 340 763T306 748ZM168 748Q152 748 142 758T131 785Q131 807 144 821T178 836Q194 836 204
826T214 799Q214 777 201 763T168 748ZM247 660L94 0H38L191 660H247Z" />
<glyph unicode="&#xd0;" glyph-name="Eth" horiz-adv-x="713" d="M25 308L37 360H395L383 308H25ZM61 0L214 660H400Q481 660 538 626T625 531T655 393Q655 309 630 238T557 113T443 30T297 0H61ZM129 52H304Q371 52 424 78T516 151T575 257T596 384Q596 448 574
498T506 578T392 608H258L129 52Z" />
<glyph unicode="&#xd1;" glyph-name="Ntilde" horiz-adv-x="690" d="M44 0L197 660H265L460 159L492 61H493L511 149L630 660H683L530 0H462L265 503L234 599H233L215 511L98 0H44ZM629 864Q616 806 587 778T522 749Q498 749 483 759T455 783T432 807T405 818Q385
818 371 800T347 748H302Q314 805 343 834T409 863Q433 863 449 853T476 829T499 805T527 794Q545 794 559 813T584 864H629Z" />
<glyph unicode="&#xd2;" glyph-name="Ograve" horiz-adv-x="712" d="M342 -10Q271 -10 212 23T117 121T81 276Q81 354 102 425T165 551T268 638T410 670Q481 670 540 637T633 539T668 384Q668 307 647 236T585 110T483 22T342 -10ZM349 43Q413 43 461 71T543 147T593
255T610 380Q610 456 583 509T509 589T402 617Q338 617 289 589T207 513T157 405T140 280Q140 205 167 152T241 71T349 43ZM425 898L465 743H425L367 898H425Z" />
<glyph unicode="&#xd3;" glyph-name="Oacute" horiz-adv-x="712" d="M342 -10Q271 -10 212 23T117 121T81 276Q81 354 102 425T165 551T268 638T410 670Q481 670 540 637T633 539T668 384Q668 307 647 236T585 110T483 22T342 -10ZM349 43Q413 43 461 71T543 147T593
255T610 380Q610 456 583 509T509 589T402 617Q338 617 289 589T207 513T157 405T140 280Q140 205 167 152T241 71T349 43ZM506 898H571L454 743H405L506 898Z" />
<glyph unicode="&#xd4;" glyph-name="Ocircumflex" horiz-adv-x="712" d="M342 -10Q271 -10 212 23T117 121T81 276Q81 354 102 425T165 551T268 638T410 670Q481 670 540 637T633 539T668 384Q668 307 647 236T585 110T483 22T342 -10ZM349 43Q413 43 461 71T543
147T593 255T610 380Q610 456 583 509T509 589T402 617Q338 617 289 589T207 513T157 405T140 280Q140 205 167 152T241 71T349 43ZM506 896L580 743H531L470 858L356 743H299L444 896H506Z" />
<glyph unicode="&#xd5;" glyph-name="Otilde" horiz-adv-x="712" d="M342 -10Q271 -10 212 23T117 121T81 276Q81 354 102 425T165 551T268 638T410 670Q481 670 540 637T633 539T668 384Q668 307 647 236T585 110T483 22T342 -10ZM349 43Q413 43 461 71T543 147T593
255T610 380Q610 456 583 509T509 589T402 617Q338 617 289 589T207 513T157 405T140 280Q140 205 167 152T241 71T349 43ZM618 864Q605 806 576 778T511 749Q487 749 472 759T444 783T421 807T394 818Q374 818 360 800T336 748H291Q303 805 332 834T398 863Q422
863 438 853T465 829T488 805T516 794Q534 794 548 813T573 864H618Z" />
<glyph unicode="&#xd6;" glyph-name="Odieresis" horiz-adv-x="712" d="M342 -10Q271 -10 212 23T117 121T81 276Q81 354 102 425T165 551T268 638T410 670Q481 670 540 637T633 539T668 384Q668 307 647 236T585 110T483 22T342 -10ZM349 43Q413 43 461 71T543
147T593 255T610 380Q610 456 583 509T509 589T402 617Q338 617 289 589T207 513T157 405T140 280Q140 205 167 152T241 71T349 43ZM540 748Q523 748 512 759T501 786Q501 809 514 822T548 836Q565 836 576 826T587 798Q587 775 574 762T540 748ZM350 748Q333 748
322 759T311 786Q311 809 324 822T358 836Q375 836 386 826T397 798Q397 775 384 762T350 748Z" />
<glyph unicode="&#xd7;" glyph-name="multiply" horiz-adv-x="604" d="M96 111L64 153L518 520L550 478L96 111ZM430 111L143 488L184 520L471 143L430 111Z" />
<glyph unicode="&#xd8;" glyph-name="Oslash" horiz-adv-x="712" d="M191 85L163 116L562 570L589 538L191 85ZM50 -12L163 116L191 85L106 -12H50ZM589 538L562 570L654 674H710L589 538ZM342 -10Q271 -10 212 23T117 121T81 276Q81 354 102 425T165 551T268
638T410 670Q481 670 540 637T633 539T668 384Q668 307 647 236T585 110T483 22T342 -10ZM349 43Q413 43 461 71T543 147T593 255T610 380Q610 456 583 509T509 589T402 617Q338 617 289 589T207 513T157 405T140 280Q140 205 167 152T241 71T349 43Z" />
<glyph unicode="&#xd9;" glyph-name="Ugrave" horiz-adv-x="674" d="M309 -10Q224 -10 169 25T95 126T95 282L184 660H240L150 269Q133 196 149 145T207 68T312 42Q396 42 446 97T518 249L613 660H669L570 233Q544 121 479 56T309 -10ZM421 871L461 716H421L363 871H421Z" />
<glyph unicode="&#xda;" glyph-name="Uacute" horiz-adv-x="674" d="M309 -10Q224 -10 169 25T95 126T95 282L184 660H240L150 269Q133 196 149 145T207 68T312 42Q396 42 446 97T518 249L613 660H669L570 233Q544 121 479 56T309 -10ZM503 870H568L451 715H402L503 870Z" />
<glyph unicode="&#xdb;" glyph-name="Ucircumflex" horiz-adv-x="674" d="M309 -10Q224 -10 169 25T95 126T95 282L184 660H240L150 269Q133 196 149 145T207 68T312 42Q396 42 446 97T518 249L613 660H669L570 233Q544 121 479 56T309 -10ZM502 869L576 716H527L466
831L352 716H295L440 869H502Z" />
<glyph unicode="&#xdc;" glyph-name="Udieresis" horiz-adv-x="674" d="M309 -10Q224 -10 169 25T95 126T95 282L184 660H240L150 269Q133 196 149 145T207 68T312 42Q396 42 446 97T518 249L613 660H669L570 233Q544 121 479 56T309 -10ZM536 721Q519 721 508
732T497 759Q497 782 510 795T544 809Q561 809 572 799T583 771Q583 748 570 735T536 721ZM346 721Q329 721 318 732T307 759Q307 782 320 795T354 809Q371 809 382 799T393 771Q393 748 380 735T346 721Z" />
<glyph unicode="&#xdd;" glyph-name="Yacute" horiz-adv-x="521" d="M174 0L234 257L110 660H171L239 427L271 310L360 435L533 660H600L289 253L230 0H174ZM431 870H496L379 715H330L431 870Z" />
<glyph unicode="&#xde;" glyph-name="Thorn" horiz-adv-x="577" d="M113 133L124 185H321Q379 185 417 208T475 271T495 356Q495 412 457 444T348 477H190L203 529H352Q445 529 499 482T553 356Q553 292 523 242T440 162T314 133H113ZM44 0L197 660H253L100 0H44Z" />
<glyph unicode="&#xdf;" glyph-name="germandbls" horiz-adv-x="562" d="M293 -10Q256 -10 226 0T177 25L196 74Q213 60 239 51T297 41Q346 41 380 65T431 128T448 214Q448 280 410 318T296 358Q292 358 287 358T277 357L289 407Q298 406 307 406T324 405Q379
405 417 426T476 483T497 565Q497 600 483 626T442 668T373 683Q306 683 264 641T202 510L85 0H29L151 533Q176 636 234 685T379 735Q436 735 474 714T532 656T552 574Q552 522 530 479T467 409T375 379V377Q410 373 438 353T484 298T501 218Q501 151 476 100T404
19T293 -10Z" />
<glyph unicode="&#xe0;" glyph-name="agrave" horiz-adv-x="597" d="M242 -9Q184 -9 142 19T76 97T52 211Q52 274 70 328T121 423T200 487T300 510Q372 510 417 469T469 360L501 500H557L441 0H391L413 105Q388 55 344 23T242 -9ZM256 39Q296 39 330 60T390 118T430
201T445 299Q445 353 427 389T376 443T302 462Q245 462 201 429T132 340T107 211Q107 157 125 118T177 59T256 39ZM314 743L361 583H318L257 743H314Z" />
<glyph unicode="&#xe1;" glyph-name="aacute" horiz-adv-x="597" d="M242 -9Q184 -9 142 19T76 97T52 211Q52 274 70 328T121 423T200 487T300 510Q372 510 417 469T469 360L501 500H557L441 0H391L413 105Q388 55 344 23T242 -9ZM256 39Q296 39 330 60T390 118T430
201T445 299Q445 353 427 389T376 443T302 462Q245 462 201 429T132 340T107 211Q107 157 125 118T177 59T256 39ZM421 743H488L353 583H300L421 743Z" />
<glyph unicode="&#xe2;" glyph-name="acircumflex" horiz-adv-x="597" d="M242 -9Q184 -9 142 19T76 97T52 211Q52 274 70 328T121 423T200 487T300 510Q372 510 417 469T469 360L501 500H557L441 0H391L413 105Q388 55 344 23T242 -9ZM256 39Q296 39 330 60T390
118T430 201T445 299Q445 353 427 389T376 443T302 462Q245 462 201 429T132 340T107 211Q107 157 125 118T177 59T256 39ZM199 579L337 736H400L465 579H417L362 698L254 579H199Z" />
<glyph unicode="&#xe3;" glyph-name="atilde" horiz-adv-x="597" d="M242 -9Q184 -9 142 19T76 97T52 211Q52 274 70 328T121 423T200 487T300 510Q372 510 417 469T469 360L501 500H557L441 0H391L413 105Q388 55 344 23T242 -9ZM256 39Q296 39 330 60T390 118T430
201T445 299Q445 353 427 389T376 443T302 462Q245 462 201 429T132 340T107 211Q107 157 125 118T177 59T256 39ZM512 704Q499 646 470 618T405 589Q381 589 366 599T338 623T315 647T288 658Q268 658 254 640T230 588H185Q197 645 226 674T292 703Q316 703 332
693T359 669T382 645T410 634Q428 634 442 653T467 704H512Z" />
<glyph unicode="&#xe4;" glyph-name="adieresis" horiz-adv-x="597" d="M242 -9Q184 -9 142 19T76 97T52 211Q52 274 70 328T121 423T200 487T300 510Q372 510 417 469T469 360L501 500H557L441 0H391L413 105Q388 55 344 23T242 -9ZM256 39Q296 39 330 60T390
118T430 201T445 299Q445 353 427 389T376 443T302 462Q245 462 201 429T132 340T107 211Q107 157 125 118T177 59T256 39ZM435 588Q418 588 407 599T396 626Q396 649 409 662T443 676Q460 676 471 666T482 638Q482 615 469 602T435 588ZM245 588Q228 588 217 599T206
626Q206 649 219 662T253 676Q270 676 281 666T292 638Q292 615 279 602T245 588Z" />
<glyph unicode="&#xe5;" glyph-name="aring" horiz-adv-x="597" d="M242 -9Q184 -9 142 19T76 97T52 211Q52 274 70 328T121 423T200 487T300 510Q372 510 417 469T469 360L501 500H557L441 0H391L413 105Q388 55 344 23T242 -9ZM256 39Q296 39 330 60T390 118T430
201T445 299Q445 353 427 389T376 443T302 462Q245 462 201 429T132 340T107 211Q107 157 125 118T177 59T256 39ZM356 784Q401 784 430 757T459 689Q459 639 427 608T347 576Q302 576 273 603T244 671Q244 720 276 752T356 784ZM355 747Q325 747 305 727T284 674Q284
647 302 630T349 612Q377 612 397 632T418 686Q418 712 401 729T355 747Z" />
<glyph unicode="&#xe6;" glyph-name="ae" horiz-adv-x="851" d="M187 -10Q113 -10 73 26T33 121Q33 165 56 196T121 245T221 269L402 291L400 247L241 228Q170 220 131 196T91 123Q91 82 117 60T192 38Q261 38 304 78T366 203L390 310Q392 322 393 332T395 351Q395
403 362 432T274 461Q217 461 180 437T118 361L77 390Q106 448 156 478T279 509Q324 509 358 493T412 449T433 386L424 389Q451 442 504 475T627 509Q681 509 719 484T779 415T800 315Q800 298 798 280T789 242H419L425 291H744Q746 295 746 300T746 315Q746 357
731 390T688 442T622 461Q574 461 538 440T477 384T441 304T429 210Q429 162 446 123T497 62T578 39Q631 39 668 63T729 128L772 99Q742 51 692 21T574 -9Q515 -9 473 17T409 84T386 170L398 179Q388 120 360 78T288 13T187 -10Z" />
<glyph unicode="&#xe7;" glyph-name="ccedilla" horiz-adv-x="511" d="M258 -9Q196 -9 150 19T78 98T53 213Q53 299 84 366T172 471T303 509Q353 509 392 490T456 438T489 358L431 344Q424 396 391 428T300 461Q244 461 201 429T134 341T109 215Q109 163 128 124T182
62T264 39Q309 39 346 64T401 134L454 114Q428 56 377 24T258 -9ZM193 4L228 19Q264 0 285 -27T306 -93Q306 -131 290 -157T246 -196T186 -210Q151 -210 127 -196T91 -165L114 -130Q127 -146 145 -156T188 -166Q221 -166 241 -146T261 -92Q261 -61 244 -38T193
4Z" />
<glyph unicode="&#xe8;" glyph-name="egrave" horiz-adv-x="536" d="M258 -9Q193 -9 147 21T77 101T53 213Q53 292 83 359T169 468T304 509Q361 509 401 484T464 415T486 315Q486 299 484 281T475 242H81L82 291H450L426 272Q429 285 430 295T431 316Q431 357
416 390T372 442T300 461Q252 461 216 441T157 385T121 305T109 212Q109 162 128 123T182 62T264 39Q317 39 353 64T413 128L458 99Q426 51 376 21T258 -9ZM300 743L347 583H304L243 743H300Z" />
<glyph unicode="&#xe9;" glyph-name="eacute" horiz-adv-x="536" d="M258 -9Q193 -9 147 21T77 101T53 213Q53 292 83 359T169 468T304 509Q361 509 401 484T464 415T486 315Q486 299 484 281T475 242H81L82 291H450L426 272Q429 285 430 295T431 316Q431 357
416 390T372 442T300 461Q252 461 216 441T157 385T121 305T109 212Q109 162 128 123T182 62T264 39Q317 39 353 64T413 128L458 99Q426 51 376 21T258 -9ZM407 743H474L339 583H286L407 743Z" />
<glyph unicode="&#xea;" glyph-name="ecircumflex" horiz-adv-x="536" d="M258 -9Q193 -9 147 21T77 101T53 213Q53 292 83 359T169 468T304 509Q361 509 401 484T464 415T486 315Q486 299 484 281T475 242H81L82 291H450L426 272Q429 285 430 295T431 316Q431
357 416 390T372 442T300 461Q252 461 216 441T157 385T121 305T109 212Q109 162 128 123T182 62T264 39Q317 39 353 64T413 128L458 99Q426 51 376 21T258 -9ZM186 579L324 736H387L452 579H404L349 698L241 579H186Z" />
<glyph unicode="&#xeb;" glyph-name="edieresis" horiz-adv-x="536" d="M258 -9Q193 -9 147 21T77 101T53 213Q53 292 83 359T169 468T304 509Q361 509 401 484T464 415T486 315Q486 299 484 281T475 242H81L82 291H450L426 272Q429 285 430 295T431 316Q431 357
416 390T372 442T300 461Q252 461 216 441T157 385T121 305T109 212Q109 162 128 123T182 62T264 39Q317 39 353 64T413 128L458 99Q426 51 376 21T258 -9ZM421 588Q404 588 393 599T382 626Q382 649 395 662T429 676Q446 676 457 666T468 638Q468 615 455 602T421
588ZM231 588Q214 588 203 599T192 626Q192 649 205 662T239 676Q256 676 267 666T278 638Q278 615 265 602T231 588Z" />
<glyph unicode="&#xec;" glyph-name="igrave" horiz-adv-x="230" d="M201 500L85 0H29L145 500H201ZM170 743L217 583H174L113 743H170Z" />
<glyph unicode="&#xed;" glyph-name="iacute" horiz-adv-x="230" d="M201 500L85 0H29L145 500H201ZM277 743H344L209 583H156L277 743Z" />
<glyph unicode="&#xee;" glyph-name="icircumflex" horiz-adv-x="230" d="M201 500L85 0H29L145 500H201ZM55 579L193 736H256L321 579H273L218 698L110 579H55Z" />
<glyph unicode="&#xef;" glyph-name="idieresis" horiz-adv-x="210" d="M251 588Q236 588 226 598T216 624Q216 646 229 661T262 676Q277 676 287 666T297 640Q297 618 284 603T251 588ZM118 588Q103 588 93 598T83 624Q83 646 96 661T130 676Q145 676 155 666T165
640Q165 617 152 603T118 588ZM194 500L78 0H22L138 500H194Z" />
<glyph unicode="&#xf0;" glyph-name="eth" horiz-adv-x="570" d="M253 -10Q188 -10 143 21T74 102T51 212Q51 290 83 352T170 450T292 487Q344 487 384 466T446 406T469 314L458 310Q462 334 464 359T466 407Q466 514 421 595T283 730H353Q410 703 447 651T503
534T522 401Q522 317 506 243T455 112T371 23T253 -10ZM261 39Q304 39 338 58T397 111T435 185T448 269Q448 324 428 361T372 418T292 438Q253 438 219 421T160 372T121 301T107 214Q107 164 126 125T181 62T261 39ZM261 550L252 591L435 631L459 597L261 550ZM459
597L436 631L579 667L589 627L459 597Z" />
<glyph unicode="&#xf1;" glyph-name="ntilde" horiz-adv-x="569" d="M29 0L145 500H195L171 378L163 381Q184 441 236 475T355 510Q411 510 449 485T502 412T501 298L432 0H376L445 298Q463 376 434 418T341 461Q290 461 252 439T188 375T149 277L85 0H29ZM537
704Q524 646 495 618T430 589Q406 589 391 599T363 623T340 647T313 658Q293 658 279 640T255 588H210Q222 645 251 674T317 703Q341 703 357 693T384 669T407 645T435 634Q453 634 467 653T492 704H537Z" />
<glyph unicode="&#xf2;" glyph-name="ograve" horiz-adv-x="564" d="M264 -9Q197 -9 150 21T78 102T53 213Q53 300 84 366T172 471T301 509Q369 509 415 479T486 399T511 288Q511 201 479 134T392 29T264 -9ZM266 39Q321 39 363 71T430 159T454 286Q454 361 415
411T299 461Q243 461 201 429T134 342T110 215Q110 166 128 126T181 63T266 39ZM308 743L355 583H312L251 743H308Z" />
<glyph unicode="&#xf3;" glyph-name="oacute" horiz-adv-x="564" d="M264 -9Q197 -9 150 21T78 102T53 213Q53 300 84 366T172 471T301 509Q369 509 415 479T486 399T511 288Q511 201 479 134T392 29T264 -9ZM266 39Q321 39 363 71T430 159T454 286Q454 361 415
411T299 461Q243 461 201 429T134 342T110 215Q110 166 128 126T181 63T266 39ZM415 743H482L347 583H294L415 743Z" />
<glyph unicode="&#xf4;" glyph-name="ocircumflex" horiz-adv-x="564" d="M264 -9Q197 -9 150 21T78 102T53 213Q53 300 84 366T172 471T301 509Q369 509 415 479T486 399T511 288Q511 201 479 134T392 29T264 -9ZM266 39Q321 39 363 71T430 159T454 286Q454 361
415 411T299 461Q243 461 201 429T134 342T110 215Q110 166 128 126T181 63T266 39ZM194 579L332 736H395L460 579H412L357 698L249 579H194Z" />
<glyph unicode="&#xf5;" glyph-name="otilde" horiz-adv-x="564" d="M264 -9Q197 -9 150 21T78 102T53 213Q53 300 84 366T172 471T301 509Q369 509 415 479T486 399T511 288Q511 201 479 134T392 29T264 -9ZM266 39Q321 39 363 71T430 159T454 286Q454 361 415
411T299 461Q243 461 201 429T134 342T110 215Q110 166 128 126T181 63T266 39ZM507 704Q494 646 465 618T400 589Q376 589 361 599T333 623T310 647T283 658Q263 658 249 640T225 588H180Q192 645 221 674T287 703Q311 703 327 693T354 669T377 645T405 634Q423
634 437 653T462 704H507Z" />
<glyph unicode="&#xf6;" glyph-name="odieresis" horiz-adv-x="564" d="M264 -9Q197 -9 150 21T78 102T53 213Q53 300 84 366T172 471T301 509Q369 509 415 479T486 399T511 288Q511 201 479 134T392 29T264 -9ZM266 39Q321 39 363 71T430 159T454 286Q454 361
415 411T299 461Q243 461 201 429T134 342T110 215Q110 166 128 126T181 63T266 39ZM429 588Q412 588 401 599T390 626Q390 649 403 662T437 676Q454 676 465 666T476 638Q476 615 463 602T429 588ZM239 588Q222 588 211 599T200 626Q200 649 213 662T247 676Q264
676 275 666T286 638Q286 615 273 602T239 588Z" />
<glyph unicode="&#xf7;" glyph-name="divide" horiz-adv-x="604" d="M560 342L548 290H75L87 342H560ZM270 76Q251 76 238 88T225 118Q225 143 240 158T277 173Q296 173 308 161T320 130Q320 105 306 91T270 76ZM358 459Q339 459 327 471T314 501Q314 526 329
541T365 557Q384 557 396 545T409 514Q409 489 394 474T358 459Z" />
<glyph unicode="&#xf8;" glyph-name="oslash" horiz-adv-x="564" d="M264 -9Q197 -9 150 21T78 102T53 213Q53 300 84 366T172 471T301 509Q369 509 415 479T486 399T511 288Q511 201 479 134T392 29T264 -9ZM266 39Q321 39 363 71T430 159T454 286Q454 361 415
411T299 461Q243 461 201 429T134 342T110 215Q110 166 128 126T181 63T266 39ZM248 -26L772 527H824L301 -26H248Z" />
<glyph unicode="&#xf9;" glyph-name="ugrave" horiz-adv-x="566" d="M207 -9Q152 -9 113 16T57 88T56 203L125 500H181L113 204Q95 124 126 82T221 40Q270 40 306 62T368 126T406 223L470 500H526L410 0H361L385 123L393 119Q371 58 321 25T207 -9ZM313 729L360
569H317L256 729H313Z" />
<glyph unicode="&#xfa;" glyph-name="uacute" horiz-adv-x="566" d="M207 -9Q152 -9 113 16T57 88T56 203L125 500H181L113 204Q95 124 126 82T221 40Q270 40 306 62T368 126T406 223L470 500H526L410 0H361L385 123L393 119Q371 58 321 25T207 -9ZM420 729H487L352
569H299L420 729Z" />
<glyph unicode="&#xfb;" glyph-name="ucircumflex" horiz-adv-x="566" d="M207 -9Q152 -9 113 16T57 88T56 203L125 500H181L113 204Q95 124 126 82T221 40Q270 40 306 62T368 126T406 223L470 500H526L410 0H361L385 123L393 119Q371 58 321 25T207 -9ZM198 565L336
722H399L464 565H416L361 684L253 565H198Z" />
<glyph unicode="&#xfc;" glyph-name="udieresis" horiz-adv-x="566" d="M207 -9Q152 -9 113 16T57 88T56 203L125 500H181L113 204Q95 124 126 82T221 40Q270 40 306 62T368 126T406 223L470 500H526L410 0H361L385 123L393 119Q371 58 321 25T207 -9ZM434 574Q417
574 406 585T395 612Q395 635 408 648T442 662Q459 662 470 652T481 624Q481 601 468 588T434 574ZM244 574Q227 574 216 585T205 612Q205 635 218 648T252 662Q269 662 280 652T291 624Q291 601 278 588T244 574Z" />
<glyph unicode="&#xfd;" glyph-name="yacute" horiz-adv-x="477" d="M-6 -215Q-40 -215 -64 -206T-101 -182L-76 -136Q-63 -151 -46 -158T-8 -166Q25 -166 52 -146T107 -79L157 3L74 500H130L183 155L197 62L251 152L459 500H523L152 -99Q126 -140 101 -166T49
-203T-6 -215ZM392 729H459L324 569H271L392 729Z" />
<glyph unicode="&#xfe;" glyph-name="thorn" horiz-adv-x="587" d="M-20 -210L197 730H253L170 372L159 359Q179 430 232 469T355 509Q407 509 447 482T511 405T535 290Q535 228 517 173T465 78T387 14T289 -10Q236 -10 197 13T137 78T114 174L128 191L36 -210H-20ZM291
38Q345 38 387 72T454 163T479 291Q479 344 461 382T410 440T335 460Q278 460 235 427T167 335T142 202Q142 128 181 83T291 38Z" />
<glyph unicode="&#xff;" glyph-name="ydieresis" horiz-adv-x="477" d="M-6 -215Q-40 -215 -64 -206T-101 -182L-76 -136Q-63 -151 -46 -158T-8 -166Q25 -166 52 -146T107 -79L157 3L74 500H130L183 155L197 62L251 152L459 500H523L152 -99Q126 -140 101 -166T49
-203T-6 -215ZM406 574Q389 574 378 585T367 612Q367 635 380 648T414 662Q431 662 442 652T453 624Q453 601 440 588T406 574ZM216 574Q199 574 188 585T177 612Q177 635 190 648T224 662Q241 662 252 652T263 624Q263 601 250 588T216 574Z" />
<glyph unicode="&#x2013;" glyph-name="endash" horiz-adv-x="643" d="M576 291L564 238H74L86 291H576Z" />
<glyph unicode="&#x2014;" glyph-name="emdash" horiz-adv-x="986" d="M918 291L907 238H74L86 291H918Z" />
<glyph unicode="&#x2018;" glyph-name="quoteleft" horiz-adv-x="213" d="M167 474Q143 474 129 490T115 533Q115 569 133 603T184 663T254 696L268 661Q234 657 211 641T174 603T158 565L159 564Q162 568 168 569T181 571Q200 571 210 559T220 530Q220 506 205
490T167 474Z" />
<glyph unicode="&#x2019;" glyph-name="quoteright" horiz-adv-x="213" d="M209 696Q233 696 247 679T261 633Q261 601 244 567T196 508T124 473L106 508Q141 514 164 529T201 565T219 607L218 608Q214 603 208 601T193 599Q175 599 166 612T156 642Q156 665 171
680T209 696Z" />
<glyph unicode="&#x201a;" glyph-name="quotesinglbase" horiz-adv-x="213" d="M325 90Q349 90 363 73T377 27Q377 -5 360 -39T312 -98T240 -133L222 -98Q257 -92 280 -77T317 -41T335 1L334 2Q330 -3 324 -5T309 -7Q291 -7 282 6T272 36Q272 59 287 74T325 90Z" />
<glyph unicode="&#x201c;" glyph-name="quotedblleft" horiz-adv-x="365" d="M167 474Q143 474 129 490T115 533Q115 569 133 603T184 663T254 696L268 661Q234 657 211 641T174 603T158 565L159 564Q162 568 168 569T181 571Q200 571 210 559T220 530Q220 506
205 490T167 474ZM319 474Q295 474 281 490T267 533Q267 569 285 603T336 663T406 696L420 661Q386 657 363 641T326 603T310 565L311 564Q314 568 320 569T333 571Q352 571 362 559T372 530Q372 506 357 490T319 474Z" />
<glyph unicode="&#x201d;" glyph-name="quotedblright" horiz-adv-x="365" d="M209 696Q233 696 247 679T261 633Q261 601 244 567T196 508T124 473L106 508Q141 514 164 529T201 565T219 607L218 608Q214 603 208 601T193 599Q175 599 166 612T156 642Q156 665
171 680T209 696ZM360 696Q384 696 398 679T412 633Q412 601 395 567T347 508T275 473L257 508Q292 514 315 529T352 565T370 607L369 608Q365 603 359 601T344 599Q326 599 317 612T307 642Q307 665 322 680T360 696Z" />
<glyph unicode="&#x201e;" glyph-name="quotedblbase" horiz-adv-x="366" d="M325 90Q349 90 363 73T377 27Q377 -5 360 -39T312 -98T240 -133L222 -98Q257 -92 280 -77T317 -41T335 1L334 2Q330 -3 324 -5T309 -7Q291 -7 282 6T272 36Q272 59 287 74T325 90ZM221
90Q245 90 259 73T273 27Q273 -5 256 -39T208 -98T136 -133L118 -98Q153 -92 176 -77T213 -41T231 1L230 2Q226 -3 220 -5T205 -7Q187 -7 178 6T168 36Q168 59 183 74T221 90Z" />
<glyph unicode="&#x2022;" glyph-name="bullet" horiz-adv-x="426" d="M227 239Q185 239 160 266T134 330Q134 377 164 406T240 436Q282 436 307 410T333 345Q333 298 303 269T227 239Z" />
<glyph unicode="&#x2039;" glyph-name="guilsinglleft" horiz-adv-x="294" d="M293 461L96 247L98 287L194 69H139L51 265L230 461H293Z" />
<glyph unicode="&#x203a;" glyph-name="guilsinglright" horiz-adv-x="293" d="M-4 69L193 283L191 243L95 461H150L238 265L59 69H-4Z" />
</font>
</defs>
</svg>
