<?xml version="1.0" standalone="no"?>
<!DOCTYPE svg PUBLIC "-//W3C//DTD SVG 1.1//EN" "http://www.w3.org/Graphics/SVG/1.1/DTD/svg11.dtd">
<svg xmlns="http://www.w3.org/2000/svg">
<defs >
<font id="KantumruyPro" horiz-adv-x="627" ><font-face
    font-family="Kantumruy Pro Light"
    units-per-em="1000"
    panose-1="0 0 0 0 0 0 0 0 0 0"
    ascent="920"
    descent="-260"
    alphabetic="0" />
<glyph unicode=" " glyph-name="space" horiz-adv-x="319" />
<glyph unicode="!" glyph-name="exclam" horiz-adv-x="238" d="M148 660V347L141 194H97L90 347V660H148ZM119 90Q141 90 154 77T168 40Q168 19 155 6T119 -8Q97 -8 84 5T70 41Q70 63 84 76T119 90Z" />
<glyph unicode="&quot;" glyph-name="quotedbl" horiz-adv-x="342" d="M277 686L261 472H216V686H277ZM137 686L121 472H76V686H137Z" />
<glyph unicode="#" glyph-name="numbersign" horiz-adv-x="636" d="M507 660L401 0H353L459 660H507ZM569 239V196H29V239H569ZM281 660L175 0H127L233 660H281ZM608 469V426H67V469H608Z" />
<glyph unicode="$" glyph-name="dollar" horiz-adv-x="586" d="M301 1Q237 1 187 19T101 72T47 154L93 191Q108 147 137 116T210 69T304 52Q379 52 425 84T472 177Q472 218 446 244T360 285L230 315Q146 335 109 375T72 477Q72 527 98 569T175 636T294 661Q374
661 431 626T521 520L477 485Q449 552 402 581T287 610Q237 610 201 593T147 548T128 484Q128 441 154 412T248 367L371 339Q428 327 462 305T512 253T528 181Q528 128 500 88T420 24T301 1ZM273 -100V760H321V-100H273Z" />
<glyph unicode="%" glyph-name="percent" horiz-adv-x="811" d="M168 0L590 660H644L221 0H168ZM191 666Q239 666 272 643T323 580T340 490Q340 440 323 400T273 337T191 314Q143 314 110 337T60 400T43 490Q43 540 60 580T110 643T191 666ZM191 622Q159 622 137
605T104 558T93 490Q93 451 104 422T137 376T191 359Q225 359 247 375T279 421T290 490Q290 528 279 558T247 605T191 622ZM620 346Q668 346 701 323T751 260T769 170Q769 119 752 79T701 17T620 -6Q573 -6 540 16T489 79T471 170Q471 220 488 260T539 323T620
346ZM620 302Q587 302 565 285T532 238T521 170Q521 132 532 102T565 55T620 38Q653 38 675 55T708 102T719 170Q719 208 708 238T675 285T620 302Z" />
<glyph unicode="&amp;" glyph-name="ampersand" horiz-adv-x="583" d="M242 -10Q183 -10 139 11T71 69T47 157Q47 203 64 240T118 308T213 368L240 383Q280 406 308 427T351 474T366 536Q366 576 342 598T276 621Q231 621 206 594T181 527Q181 507 186 489T208
444T255 374T341 259Q396 187 432 142T495 73T542 41T588 32L576 -10Q549 -10 525 -1T471 33T402 105T304 228Q253 296 219 341T166 417T138 474T129 527Q129 565 146 597T196 649T279 669Q319 669 350 654T398 609T415 541Q415 500 400 468T353 407T266 347L243
337Q193 311 162 286T115 232T100 162Q100 123 120 95T173 51T246 36Q303 36 343 58T414 120L422 129Q450 174 464 232T476 358L524 354Q525 288 510 222T457 103L446 89Q412 44 362 17T242 -10Z" />
<glyph unicode="&apos;" glyph-name="quotesingle" horiz-adv-x="202" d="M137 686L121 472H76V686H137Z" />
<glyph unicode="(" glyph-name="parenleft" horiz-adv-x="314" d="M260 747L292 714Q197 630 156 524T115 283Q115 149 156 43T292 -149L260 -182Q159 -95 109 21T58 283Q58 429 108 544T260 747Z" />
<glyph unicode=")" glyph-name="parenright" horiz-adv-x="314" d="M53 -182L22 -149Q118 -64 158 42T199 282Q199 416 159 523T22 714L53 747Q155 660 205 545T256 282Q256 137 206 21T53 -182Z" />
<glyph unicode="*" glyph-name="asterisk" horiz-adv-x="549" d="M286 510L354 433L427 331L390 304L315 405L263 494L274 502L286 510ZM263 510L274 502L286 494L234 405L159 304L122 331L195 433L263 510ZM64 594L184 556L279 515L274 502L270 489L169 511L50
551L64 594ZM298 730V604L289 502H274H260L251 604V730H298ZM485 594L498 551L379 511L279 489L274 502L270 515L364 556L485 594Z" />
<glyph unicode="+" glyph-name="plus" horiz-adv-x="604" d="M329 557V72H276V557H329ZM541 342V290H63V342H541Z" />
<glyph unicode="," glyph-name="comma" horiz-adv-x="229" d="M115 90Q143 90 158 69T174 12Q174 -16 165 -43T135 -93T84 -131L53 -104Q78 -95 96 -78T124 -41T135 -1L132 1Q129 -3 124 -5T108 -8Q94 -8 80 4T66 40Q66 60 80 75T115 90Z" />
<glyph unicode="-" glyph-name="hyphen" horiz-adv-x="475" d="M393 294V236H82V294H393Z" />
<glyph unicode="." glyph-name="period" horiz-adv-x="244" d="M122 -8Q100 -8 87 5T73 41Q73 63 86 76T122 90Q144 90 157 77T171 40Q171 19 158 6T122 -8Z" />
<glyph unicode="/" glyph-name="slash" horiz-adv-x="404" d="M373 730L84 -70H31L320 730H373Z" />
<glyph unicode="0" glyph-name="zero" horiz-adv-x="589" d="M295 -10Q186 -10 125 78T63 330Q63 495 124 582T295 670Q403 670 464 583T526 330Q526 166 465 78T295 -10ZM295 40Q379 40 423 114T468 330Q468 471 424 545T295 620Q211 620 166 546T121 330Q121
189 165 115T295 40Z" />
<glyph unicode="1" glyph-name="one" horiz-adv-x="342" d="M187 0V516Q187 530 187 549T189 587Q159 547 119 520T35 480L22 531Q41 536 65 548T114 579T161 617T194 660H243V0H187Z" />
<glyph unicode="2" glyph-name="two" horiz-adv-x="544" d="M66 0V46Q156 119 221 177T329 283T391 376T411 468Q411 536 371 577T263 618Q191 618 148 570T100 442L51 470Q57 530 84 575T156 645T264 670Q327 670 373 645T444 574T469 468Q469 402 435 340T330
208T146 51V50Q155 51 168 51T196 51T217 52H488V0H66Z" />
<glyph unicode="3" glyph-name="three" horiz-adv-x="535" d="M270 -10Q185 -10 124 31T41 144L96 173Q111 114 154 78T273 42Q342 42 382 80T422 184Q422 226 406 253T360 293T285 307Q272 307 259 307T233 304V360Q243 359 253 359T273 359Q340 359 374 393T408
491Q408 552 372 585T273 618Q211 618 173 588T117 506L64 531Q80 573 109 604T181 653T275 671Q337 671 379 649T443 587T465 498Q465 464 456 436T431 387T393 352T346 334V333Q377 331 401 319T443 287T470 241T480 183Q480 126 453 83T379 15T270 -10Z" />
<glyph unicode="4" glyph-name="four" horiz-adv-x="567" d="M354 0V185H42V227Q42 227 42 227T42 227T43 227L338 660H409V233H529V185H409V0H354ZM101 233H354V524Q354 538 354 551T355 579T356 613H355Q348 600 340 586T322 557T300 522L101 233Q101 233 101
233T101 233Z" />
<glyph unicode="5" glyph-name="five" horiz-adv-x="543" d="M272 -10Q190 -10 136 28T58 144L112 172Q125 110 165 76T273 42Q320 42 355 62T409 118T428 202Q428 253 410 288T359 343T279 362Q223 362 185 343T124 290L75 299L110 660H459V608H156L132 362L130
349H132Q155 378 193 396T289 414Q348 414 392 388T461 315T486 205Q486 140 459 92T383 17T272 -10Z" />
<glyph unicode="6" glyph-name="six" horiz-adv-x="563" d="M306 670Q379 670 424 637T494 538L442 514Q428 560 395 589T303 618Q255 618 220 594T161 527T127 431T116 316Q116 303 116 289T119 258H122Q130 310 157 343T224 392T302 409Q365 409 410 384T481
311T507 200Q507 136 482 89T409 16T297 -10Q221 -10 169 32T90 151T63 330Q63 442 95 517T182 631T306 670ZM298 356Q253 356 219 335T165 278T145 200Q145 157 164 121T218 64T296 43Q368 43 408 85T449 201Q449 248 431 282T379 336T298 356Z" />
<glyph unicode="7" glyph-name="seven" horiz-adv-x="515" d="M33 660H490V608Q412 521 361 426T284 225T255 0H197Q203 177 263 335T444 624L453 608H33V660Z" />
<glyph unicode="8" glyph-name="eight" horiz-adv-x="575" d="M288 669Q377 669 430 624T484 501Q484 446 456 406T378 348V347Q440 329 476 284T512 175Q512 119 484 78T406 13T288 -10Q221 -10 171 13T92 77T63 175Q63 238 99 283T197 347V348Q148 365 120 405T91
501Q91 553 115 590T184 648T288 669ZM288 617Q225 617 187 585T148 496Q148 439 186 406T288 373Q350 373 388 406T427 496Q427 552 389 584T288 617ZM288 42Q338 42 375 59T433 107T454 180Q454 223 433 254T375 302T288 320Q239 320 201 303T142 254T121 180Q121
138 141 107T200 59T288 42Z" />
<glyph unicode="9" glyph-name="nine" horiz-adv-x="577" d="M278 670Q356 670 408 628T487 510T514 330Q514 218 486 143T405 29T278 -10Q200 -10 145 28T67 136L121 165Q136 111 173 77T280 42Q333 42 368 66T424 131T454 229T463 348Q463 365 462 378T458 405H455Q448
351 420 317T352 267T272 251Q210 251 164 276T91 347T65 456Q65 521 90 569T164 643T278 670ZM278 617Q205 617 164 573T123 454Q123 386 165 345T277 304Q323 304 357 325T412 381T432 463Q432 507 412 542T357 597T278 617Z" />
<glyph unicode=":" glyph-name="colon" horiz-adv-x="257" d="M136 409Q114 409 101 422T87 457Q87 479 100 492T136 506Q158 506 171 493T185 457Q185 436 172 423T136 409ZM136 -8Q114 -8 101 5T87 41Q87 63 100 76T136 90Q158 90 171 77T185 40Q185 19 172 6T136 -8Z" />
<glyph unicode=";" glyph-name="semicolon" horiz-adv-x="257" d="M128 90Q156 90 171 69T187 12Q187 -16 178 -43T148 -93T97 -131L66 -104Q91 -95 109 -78T137 -41T148 -1L145 1Q142 -3 137 -5T121 -8Q107 -8 93 4T78 40Q78 60 92 75T128 90ZM136 409Q114 409
101 422T87 457Q87 479 100 492T136 506Q158 506 171 493T185 457Q185 436 172 423T136 409Z" />
<glyph unicode="&lt;" glyph-name="less" horiz-adv-x="604" d="M542 39L79 267V332L542 560V502L124 301L542 99V39Z" />
<glyph unicode="=" glyph-name="equal" horiz-adv-x="604" d="M531 434V382H73V434H531ZM531 232V180H73V232H531Z" />
<glyph unicode="&gt;" glyph-name="greater" horiz-adv-x="604" d="M62 560L525 332V267L62 39V97L480 298L62 500V560Z" />
<glyph unicode="?" glyph-name="question" horiz-adv-x="495" d="M210 186V333Q279 349 318 367T373 414T390 484Q390 525 374 555T325 601T245 618Q176 618 135 580T85 473L36 500Q45 553 73 591T145 649T248 670Q309 670 354 648T424 586T449 492Q449 435 427
397T364 336T267 302V186H210ZM247 -8Q225 -8 212 5T198 41Q198 63 211 76T247 90Q269 90 282 77T296 41Q296 19 283 6T247 -8Z" />
<glyph unicode="@" glyph-name="at" horiz-adv-x="909" d="M467 -186Q346 -186 256 -136T116 7T66 223Q66 323 97 402T185 539T317 626T480 656Q571 656 641 625T757 541T828 419T852 276Q852 214 837 163T797 74T737 16T665 -4Q616 -4 593 26T573 100Q551 57
510 31T417 4Q366 4 328 30T268 101T247 203Q247 258 263 306T309 390T378 447T466 468Q528 468 568 431T616 329L646 459H696L621 131Q619 121 618 112T617 93Q617 59 634 48T672 36Q709 36 740 65T790 149T810 275Q810 344 789 405T725 513T621 587T482 614Q404
614 337 588T220 510T141 387T113 223Q113 109 158 27T284 -100T467 -144Q542 -144 596 -123T685 -70L711 -106Q670 -139 611 -162T467 -186ZM431 47Q478 47 514 77T572 158T594 273Q594 323 578 356T533 406T468 423Q420 423 382 395T321 317T298 203Q298 155
314 120T361 66T431 47Z" />
<glyph unicode="A" glyph-name="A" horiz-adv-x="612" d="M591 0H531L455 202H156L80 0H21L273 660H339L591 0ZM176 254H435L305 605L176 254Z" />
<glyph unicode="B" glyph-name="B" horiz-adv-x="616" d="M105 0V660H329Q434 660 484 614T535 484Q535 430 507 389T422 335V334Q482 324 517 282T552 179Q552 95 495 48T329 0H105ZM161 52H339Q415 52 454 85T493 179Q493 242 454 274T339 307H161V52ZM161 359H328Q402
359 439 389T476 483Q476 545 439 576T328 608H161V359Z" />
<glyph unicode="C" glyph-name="C" horiz-adv-x="651" d="M608 168Q580 83 513 37T353 -10Q266 -10 201 31T100 149T64 330Q64 434 99 510T200 628T352 670Q416 670 464 652T547 598T598 509L544 483Q523 550 477 584T355 618Q286 618 234 584T152 485T122 330Q122
241 150 177T231 77T353 42Q427 42 479 79T552 189L608 168Z" />
<glyph unicode="D" glyph-name="D" horiz-adv-x="686" d="M307 660Q457 660 540 576T623 334Q623 172 540 86T307 0H105V660H307ZM311 52Q433 52 498 125T564 334Q564 422 535 483T449 576T311 608H161V52H311Z" />
<glyph unicode="E" glyph-name="E" horiz-adv-x="596" d="M105 0V660H538V608H161V362H458V309H161V52H553V0H105Z" />
<glyph unicode="F" glyph-name="F" horiz-adv-x="568" d="M536 608H161V362H457V309H161V0H105V660H536V608Z" />
<glyph unicode="G" glyph-name="G" horiz-adv-x="685" d="M356 -10Q267 -10 201 31T100 149T64 330Q64 435 101 511T204 628T358 670Q453 670 514 631T606 510L555 483Q534 550 484 584T358 618Q288 618 235 583T152 484T122 330Q122 241 150 177T230 77T358 42Q408
42 445 58T508 101T547 164T560 238V273H348V325H611V0H566L563 139L574 137Q551 69 496 30T356 -10Z" />
<glyph unicode="H" glyph-name="H" horiz-adv-x="699" d="M594 660V0H538V660H594ZM161 660V0H105V660H161ZM565 362V309H134V362H565Z" />
<glyph unicode="I" glyph-name="I" horiz-adv-x="265" d="M161 660V0H105V660H161Z" />
<glyph unicode="J" glyph-name="J" horiz-adv-x="520" d="M422 660V220Q422 113 369 52T220 -10Q154 -10 110 17T48 94T41 211L94 224Q83 134 113 88T219 42Q275 42 307 66T352 133T366 232V660H422Z" />
<glyph unicode="K" glyph-name="K" horiz-adv-x="598" d="M571 660L304 375L296 366L133 191L132 267L497 660H571ZM161 660V0H105V660H161ZM310 412L576 0H508L265 378L310 412Z" />
<glyph unicode="L" glyph-name="L" horiz-adv-x="556" d="M161 52H532V0H105V660H161V52Z" />
<glyph unicode="M" glyph-name="M" horiz-adv-x="808" d="M703 660V0H649V477L655 607V607L429 0H379L153 607H152L158 477V0H105V660H189L369 180L403 66H405L440 179L619 660H703Z" />
<glyph unicode="N" glyph-name="N" horiz-adv-x="698" d="M593 660V0H524L207 503L156 595H155L158 511V0H105V660H174L491 158L542 64H543L540 149V660H593Z" />
<glyph unicode="O" glyph-name="O" horiz-adv-x="715" d="M357 670Q447 670 513 629T615 511T651 330Q651 225 615 149T513 32T357 -10Q267 -10 201 31T100 149T64 330Q64 435 99 511T201 628T357 670ZM357 618Q285 618 232 583T151 484T122 330Q122 241 150 177T232
77T357 42Q430 42 482 77T564 176T593 330Q593 419 564 483T483 583T357 618Z" />
<glyph unicode="P" glyph-name="P" horiz-adv-x="571" d="M317 660Q414 660 471 608T529 465Q529 374 472 322T317 270H161V0H105V660H317ZM309 323Q390 323 430 359T470 465Q470 534 430 571T309 608H161V323H309Z" />
<glyph unicode="Q" glyph-name="Q" horiz-adv-x="715" d="M511 -195Q464 -195 423 -175T358 -109T333 8Q333 14 333 21T334 35L383 34Q382 27 381 22T380 10Q380 -47 398 -79T447 -125T513 -139Q544 -139 572 -130T617 -102L636 -153Q615 -173 580 -184T511 -195ZM357
670Q447 670 513 629T615 511T651 330Q651 225 615 149T513 32T357 -10Q267 -10 201 31T100 149T64 330Q64 435 99 511T201 628T357 670ZM357 618Q285 618 232 583T151 484T122 330Q122 241 150 177T232 77T357 42Q430 42 482 77T564 176T593 330Q593 419 564 483T483
583T357 618Z" />
<glyph unicode="R" glyph-name="R" horiz-adv-x="624" d="M341 660Q436 660 493 610T550 472Q550 414 524 374T450 313T340 284H335H161V0H105V660H341ZM340 336Q413 336 452 371T491 472Q491 539 452 573T340 608H161V336H340ZM379 326L583 0H517L333 295L379 326Z" />
<glyph unicode="S" glyph-name="S" horiz-adv-x="602" d="M300 670Q386 670 446 634T540 525L495 489Q466 558 417 588T295 618Q240 618 203 601T147 554T127 488Q127 444 154 415T254 368L381 339Q472 318 510 278T548 176Q548 120 518 79T435 14T310 -10Q242
-10 189 9T99 64T43 147L91 186Q106 141 136 109T212 59T312 42Q364 42 404 57T467 101T490 171Q490 211 463 239T369 283L235 314Q176 328 139 351T86 407T69 481Q69 532 97 575T177 644T300 670Z" />
<glyph unicode="T" glyph-name="T" horiz-adv-x="561" d="M536 660V608H308V0H252V608H24V660H536Z" />
<glyph unicode="U" glyph-name="U" horiz-adv-x="671" d="M580 660V242Q580 118 516 54T335 -10Q219 -10 155 54T91 242V660H147V254Q147 156 191 99T335 42Q435 42 479 99T524 254V660H580Z" />
<glyph unicode="V" glyph-name="V" horiz-adv-x="600" d="M576 660L333 0H268L24 660H84L265 160L300 52L336 160L516 660H576Z" />
<glyph unicode="W" glyph-name="W" horiz-adv-x="921" d="M230 0L31 660H89L265 52L429 660H494L658 50L834 660H889L691 0H622L497 456L461 600H460L425 456L299 0H230Z" />
<glyph unicode="X" glyph-name="X" horiz-adv-x="552" d="M526 0H461L275 292L86 0H20L245 338L40 660H106L280 385L455 660H518L310 340L526 0Z" />
<glyph unicode="Y" glyph-name="Y" horiz-adv-x="529" d="M517 660L292 257V0H236V257L12 660H78L200 434L264 315L329 434L450 660H517Z" />
<glyph unicode="Z" glyph-name="Z" horiz-adv-x="580" d="M96 32L86 52H536V0H46V50L472 628L481 608H55V660H522V610L96 32Z" />
<glyph unicode="[" glyph-name="bracketleft" horiz-adv-x="318" d="M293 681H135V-119H293V-168H83V730H293V681Z" />
<glyph unicode="\" glyph-name="backslash" horiz-adv-x="404" d="M31 730H84L373 -70H320L31 730Z" />
<glyph unicode="]" glyph-name="bracketright" horiz-adv-x="318" d="M25 -119H183V681H25V730H235V-168H25V-119Z" />
<glyph unicode="^" glyph-name="asciicircum" horiz-adv-x="550" d="M31 355L248 730H302L519 355H461L275 682L89 355H31Z" />
<glyph unicode="_" glyph-name="underscore" horiz-adv-x="524" d="M524 -97V-149H0V-97H524Z" />
<glyph unicode="`" glyph-name="grave" horiz-adv-x="519" d="M251 743L330 583H284L190 743H251Z" />
<glyph unicode="a" glyph-name="a" horiz-adv-x="514" d="M377 328Q377 390 345 425T252 461Q200 461 163 437T107 357L61 386Q82 444 131 477T254 510Q307 510 347 491T410 434T433 338V90Q433 40 476 40Q485 40 494 42T510 47L507 2Q500 -2 489 -4T462 -7Q440
-7 420 2T388 33T376 90V114H391Q381 72 353 45T288 4T212 -10Q145 -10 101 23T57 121Q57 175 91 210T193 259L387 300V253L220 217Q166 206 140 184T114 124Q114 85 141 62T220 39Q248 39 275 47T326 72T363 115T377 178V328Z" />
<glyph unicode="b" glyph-name="b" horiz-adv-x="591" d="M317 -10Q252 -10 203 27T137 126L144 136L140 0H90V730H146V371L139 381Q158 440 206 475T318 510Q379 510 428 479T505 390T534 250Q534 169 506 111T428 21T317 -10ZM310 39Q388 39 433 96T478 250Q478
347 434 404T311 461Q263 461 226 435T167 361T146 249Q146 185 167 138T225 65T310 39Z" />
<glyph unicode="c" glyph-name="c" horiz-adv-x="526" d="M282 510Q331 510 369 494T433 448T475 376L422 350Q408 404 372 432T280 461Q230 461 192 436T132 364T111 250Q111 185 132 137T192 64T280 39Q320 39 350 53T401 93T429 155L480 137Q467 91 439 58T371
8T280 -10Q215 -10 164 21T84 110T55 250Q55 331 84 389T165 479T282 510Z" />
<glyph unicode="d" glyph-name="d" horiz-adv-x="591" d="M274 -10Q213 -10 164 21T86 110T57 250Q57 333 86 391T166 479T278 510Q342 510 389 474T451 375L445 370V730H501V0H451L446 135L453 138Q446 91 420 58T355 8T274 -10ZM280 39Q328 39 365 65T424 140T445
254Q445 319 424 365T367 436T283 461Q204 461 159 404T113 250Q113 153 158 96T280 39Z" />
<glyph unicode="e" glyph-name="e" horiz-adv-x="540" d="M284 -10Q217 -10 166 21T85 110T55 250Q55 331 84 389T163 479T278 510Q344 510 390 480T460 397T485 275Q485 263 485 254T483 238H91V288H458L430 280Q430 337 411 377T358 439T277 461Q228 461 190
436T131 363T110 250Q110 184 132 137T193 65T283 39Q336 39 374 63T433 130L478 104Q460 69 432 44T366 4T284 -10Z" />
<glyph unicode="f" glyph-name="f" horiz-adv-x="345" d="M260 735Q286 735 306 728T338 709L323 664Q311 674 298 679T266 684Q222 684 198 658T173 579V500V480V0H117V584Q117 629 133 663T182 716T260 735ZM334 500V452H25V500H334Z" />
<glyph unicode="g" glyph-name="g" horiz-adv-x="498" d="M485 592L498 542Q497 542 496 542T492 542Q445 542 420 518T395 449L361 466Q361 505 376 533T419 576T481 592Q483 592 483 592T485 592ZM334 53Q404 53 444 22T484 -62Q484 -109 455 -143T374 -196T257
-215Q149 -215 92 -176T35 -80Q35 -38 63 -7T149 30L145 19Q113 28 90 49T67 111Q67 150 96 178T178 211L228 191H211Q166 188 142 169T117 119Q117 87 141 70T202 53H334ZM258 -169Q313 -169 352 -156T413 -119T434 -69Q434 -35 406 -15T321 6H183Q142 6 114 -15T86
-72Q86 -115 132 -142T258 -169ZM251 510Q308 510 351 489T419 432T444 346Q444 297 419 260T351 202T251 181Q160 181 109 227T57 346Q57 395 81 431T150 489T251 510ZM251 465Q192 465 153 432T114 346Q114 293 153 260T251 226Q310 226 348 259T387 346Q387
399 349 432T251 465Z" />
<glyph unicode="h" glyph-name="h" horiz-adv-x="581" d="M90 0V730H146V404Q168 455 213 482T316 510Q368 510 408 490T473 428T497 324V0H441V306Q441 388 404 424T308 461Q267 461 230 441T169 380T146 279V0H90Z" />
<glyph unicode="i" glyph-name="i" horiz-adv-x="236" d="M146 500V0H90V500H146ZM122 597Q99 597 86 610T72 646Q72 668 85 681T122 695Q144 695 157 682T171 646Q171 624 158 611T122 597Z" />
<glyph unicode="j" glyph-name="j" horiz-adv-x="223" d="M-3 -215Q-29 -215 -51 -207T-88 -186L-76 -133Q-64 -146 -46 -153T-6 -161Q31 -161 54 -134T77 -51V500H133V-56Q133 -112 114 -147T63 -198T-3 -215ZM362 597Q339 597 326 610T312 646Q312 668 325 681T362
695Q384 695 397 682T411 646Q411 624 398 611T362 597Z" />
<glyph unicode="k" glyph-name="k" horiz-adv-x="514" d="M487 500L280 287L267 274L119 121V192L415 500H487ZM146 730V0H90V730H146ZM284 316L496 0H428L239 284L284 316Z" />
<glyph unicode="l" glyph-name="l" horiz-adv-x="259" d="M142 730V120Q142 80 153 60T196 39Q213 39 223 42T250 52L243 3Q231 -3 215 -6T182 -10Q127 -10 107 25T86 118V730H142Z" />
<glyph unicode="m" glyph-name="m" horiz-adv-x="938" d="M90 0V500H140L143 401Q166 453 213 481T316 510Q376 510 422 481T487 393Q500 430 528 456T594 497T670 511Q720 511 761 491T828 429T853 324V1H797V318Q797 391 759 426T663 462Q618 462 581 440T522
378T500 285V0H444V318Q444 391 406 426T309 461Q269 461 232 440T170 379T146 280V0H90Z" />
<glyph unicode="n" glyph-name="n" horiz-adv-x="581" d="M90 0V500H140L144 378L136 386Q155 447 204 478T316 510Q368 510 408 489T473 427T497 323V0H441V305Q441 387 404 424T308 461Q267 461 230 441T169 380T146 279V0H90Z" />
<glyph unicode="o" glyph-name="o" horiz-adv-x="567" d="M284 510Q351 510 402 479T482 390T512 250Q512 169 483 111T402 21T284 -10Q218 -10 166 21T85 110T55 250Q55 331 84 389T166 479T284 510ZM284 462Q232 462 193 436T133 363T111 250Q111 185 132 138T193
64T284 38Q337 38 375 63T434 137T456 250Q456 316 435 363T375 436T284 462Z" />
<glyph unicode="p" glyph-name="p" horiz-adv-x="591" d="M90 -210V500H140L144 364L137 374Q154 437 203 473T319 510Q380 510 428 479T505 390T534 250Q534 169 506 111T428 21T317 -10Q253 -10 206 25T139 119L146 130V-210H90ZM310 39Q387 39 432 96T478 250Q478
347 434 404T312 461Q264 461 227 435T168 362T146 250Q146 186 167 139T225 65T310 39Z" />
<glyph unicode="q" glyph-name="q" horiz-adv-x="591" d="M445 -210V145L453 138Q440 67 390 29T274 -10Q213 -10 164 21T86 110T57 250Q57 333 86 391T166 479T278 510Q343 510 392 473T454 368L446 367L451 500H501V-210H445ZM280 39Q329 39 366 65T424 140T445
252Q445 318 424 365T367 436T282 461Q204 461 159 404T113 250Q113 153 158 96T280 39Z" />
<glyph unicode="r" glyph-name="r" horiz-adv-x="363" d="M90 0V500H137L144 400Q161 450 199 480T290 510Q307 510 321 507T345 495L334 445Q325 451 313 454T277 458Q244 458 214 436T165 373T146 278V0H90Z" />
<glyph unicode="s" glyph-name="s" horiz-adv-x="488" d="M250 -10Q179 -10 123 21T41 110L88 143Q106 93 149 66T254 39Q312 39 346 64T380 130Q380 158 364 178T302 209L192 234Q123 250 94 283T65 365Q65 405 87 437T151 490T246 510Q316 510 363 481T431 394L385
363Q370 415 332 438T246 461Q208 461 180 449T136 417T120 369Q120 342 138 320T201 286L316 260Q380 246 408 216T436 138Q436 70 385 30T250 -10Z" />
<glyph unicode="t" glyph-name="t" horiz-adv-x="365" d="M173 639V134Q173 88 193 65T252 42Q279 42 298 51T334 79L353 32Q334 13 307 2T245 -10Q189 -10 153 22T117 125V624L173 639ZM346 500V452H24V500H346Z" />
<glyph unicode="u" glyph-name="u" horiz-adv-x="575" d="M256 -10Q208 -10 169 9T107 68T84 170V500H140V184Q140 112 172 76T270 39Q305 39 334 52T384 89T417 145T429 216V500H485V0H436L433 97Q419 64 394 40T334 3T256 -10Z" />
<glyph unicode="v" glyph-name="v" horiz-adv-x="484" d="M409 500H469L271 0H214L16 500H79L243 58L409 500Z" />
<glyph unicode="w" glyph-name="w" horiz-adv-x="794" d="M704 500H766L601 0H544L395 428L250 0H193L28 500H90L223 67L368 500H425L571 67L704 500Z" />
<glyph unicode="x" glyph-name="x" horiz-adv-x="489" d="M106 500L259 284L265 278L465 0H395L231 230L223 239L35 500H106ZM453 500L269 243L262 239L92 0H25L228 279L234 280L387 500H453Z" />
<glyph unicode="y" glyph-name="y" horiz-adv-x="482" d="M466 500L239 -90Q222 -133 203 -160T158 -201T95 -215Q66 -215 41 -206T-1 -181L16 -133Q32 -151 52 -158T93 -166Q123 -166 146 -148T189 -77L219 0L169 123L19 500H82L221 131L245 60L273 138L406 500H466Z" />
<glyph unicode="z" glyph-name="z" horiz-adv-x="490" d="M50 0V43L320 394L372 453L296 452H49V500H435V457L171 114L114 47L200 48H446V0H50Z" />
<glyph unicode="{" glyph-name="braceleft" horiz-adv-x="317" d="M280 -182Q204 -182 169 -151T133 -62V158Q133 210 106 234T21 258V307Q78 307 105 331T133 407V627Q133 685 168 716T280 747V701Q231 701 209 683T186 631V403Q186 355 160 325T86 283Q134 272
160 242T186 163V-66Q186 -100 208 -118T280 -136V-182Z" />
<glyph unicode="|" glyph-name="bar" horiz-adv-x="215" d="M132 730V-168H83V730H132Z" />
<glyph unicode="}" glyph-name="braceright" horiz-adv-x="317" d="M37 747Q113 747 148 716T183 627V407Q183 355 211 331T296 307V258Q239 258 211 234T183 158V-62Q183 -119 148 -150T37 -182V-136Q86 -136 108 -118T131 -66V162Q131 211 157 241T231 282Q183
294 157 324T131 402V631Q131 665 109 683T37 701V747Z" />
<glyph unicode="~" glyph-name="asciitilde" horiz-adv-x="517" d="M474 388Q468 324 439 292T357 260Q324 260 299 271T254 297T212 323T165 334Q135 334 119 315T97 258H43Q49 321 78 353T161 386Q194 386 219 375T264 349T306 323T352 312Q382 312 398 332T421
388H474Z" />
<glyph unicode="&#xa0;" glyph-name="uni00A0" horiz-adv-x="319" />
<glyph unicode="&#xa1;" glyph-name="exclamdown" horiz-adv-x="230" d="M86 -160V153L93 306H137L144 153V-160H86ZM116 410Q93 410 80 423T66 460Q66 481 80 494T116 508Q137 508 150 495T164 459Q164 437 151 424T116 410Z" />
<glyph unicode="&#xa2;" glyph-name="cent" horiz-adv-x="535" d="M289 -10Q221 -10 170 21T91 110T62 250Q62 331 90 389T170 479T290 510Q338 510 376 494T441 448T482 376L430 350Q416 406 379 435T289 464Q211 464 163 408T115 250Q115 149 162 93T288 36Q326
36 356 50T408 90T437 155L487 138Q475 92 447 59T379 8T289 -10ZM260 -100V600H306V-100H260Z" />
<glyph unicode="&#xa3;" glyph-name="sterling" horiz-adv-x="581" d="M85 287V333H439V287H85ZM151 -8Q103 -8 76 14T49 71Q49 105 78 128T157 152Q195 152 223 141T274 112T319 78T366 50T425 38Q469 38 491 63T514 141H559Q559 66 525 29T432 -8Q394 -8 365
4T310 33T260 69T211 98T155 110Q129 110 114 99T99 71Q99 52 115 42T156 31Q196 31 218 48T248 95T256 156Q256 194 243 231T200 318Q179 355 168 382T152 432T147 480Q147 538 172 581T243 647T344 670Q420 670 467 631T530 518L481 492Q470 551 437 585T343
619Q277 619 238 583T198 480Q198 458 202 438T216 395T243 339Q270 287 285 244T301 160Q301 119 286 80T238 17T151 -8Z" />
<glyph unicode="&#xa4;" glyph-name="currency" horiz-adv-x="641" d="M321 530Q379 530 423 505T493 435T518 331Q518 272 493 227T424 155T321 129Q263 129 219 155T149 226T123 331Q123 390 148 435T218 505T321 530ZM321 480Q258 480 219 439T179 331Q179
263 218 222T321 180Q384 180 423 221T462 331Q462 397 423 438T321 480ZM103 583L218 470L181 434L67 546L103 583ZM181 227L216 190L103 75L67 112L181 227ZM459 225L574 111L538 75L424 188L459 225ZM538 583L574 547L462 432L426 469L538 583Z" />
<glyph unicode="&#xa5;" glyph-name="yen" horiz-adv-x="580" d="M265 0V117H76V156H265V244H76V287H212L252 284L38 660H102L255 372L289 301H291L325 373L478 660H542L328 284L368 287H504V244H314V156H504V117H314V0H265Z" />
<glyph unicode="&#xa6;" glyph-name="brokenbar" horiz-adv-x="215" d="M132 730V366H83V730H132ZM132 196V-168H83V196H132Z" />
<glyph unicode="&#xa7;" glyph-name="section" horiz-adv-x="541" d="M366 138L334 161Q370 164 398 175T442 208T458 258Q458 297 435 319T353 353L235 377Q159 392 126 427T93 517Q93 561 116 595T181 650T281 670Q344 670 392 647T466 576L424 543Q403 585
367 603T280 622Q216 622 181 594T145 521Q145 479 168 458T246 426L361 404Q414 394 446 376T494 332T510 270Q510 219 473 182T366 138ZM264 -110Q190 -110 142 -84T70 -14L113 21Q130 -19 168 -41T267 -63Q332 -63 368 -34T404 42Q404 78 382 99T313 130L187
156Q137 167 104 184T55 228T38 295Q38 328 54 354T101 397T169 419L192 400Q165 393 141 381T103 349T89 303Q89 266 115 242T203 205L324 181Q367 173 396 155T440 110T455 46Q455 3 433 -32T368 -89T264 -110Z" />
<glyph unicode="&#xa8;" glyph-name="dieresis" horiz-adv-x="519" d="M164 676Q184 676 196 664T208 632Q208 612 196 600T164 588Q145 588 133 600T121 632Q121 651 133 663T164 676ZM355 676Q375 676 387 664T399 632Q399 612 387 600T354 588Q335 588 323
600T311 632Q311 651 323 663T355 676Z" />
<glyph unicode="&#xa9;" glyph-name="copyright" horiz-adv-x="807" d="M403 -10Q302 -10 226 35T108 157T65 330Q65 427 107 503T226 625T403 670Q505 670 581 625T699 504T742 330Q742 234 700 157T581 35T403 -10ZM403 36Q489 36 553 75T654 180T691 330Q691
413 655 479T554 585T403 624Q318 624 253 585T152 480T115 330Q115 247 151 181T253 75T403 36ZM412 143Q329 143 281 192T233 328Q233 414 281 463T412 513Q469 513 507 488T563 416L521 395Q509 434 481 452T411 470Q350 470 316 433T281 328Q281 262 315 224T411
186Q455 186 485 207T527 266L567 250Q551 201 511 172T412 143Z" />
<glyph unicode="&#xaa;" glyph-name="ordfeminine" horiz-adv-x="372" d="M141 327Q93 327 65 350T36 414Q36 452 60 475T141 508L261 530V497L158 477Q116 469 101 455T85 417Q85 394 102 380T148 366Q170 366 194 374T236 402T253 457V549Q253 585 233 605T175
626Q140 626 114 611T73 559L37 579Q50 617 85 641T174 665Q234 665 268 636T302 551V398Q302 378 310 371T332 363Q348 363 357 367L353 335Q347 331 339 329T320 327Q294 327 277 342T259 394V414L268 409Q260 383 241 365T195 337T141 327ZM36 209V248H340V209H36Z"
/>
<glyph unicode="&#xab;" glyph-name="guillemotleft" horiz-adv-x="450" d="M244 461L110 265L244 69H182L49 265L182 461H244ZM399 461L265 265L399 69H337L204 265L337 461H399Z" />
<glyph unicode="&#xac;" glyph-name="logicalnot" horiz-adv-x="604" d="M538 318V148H482V318H538ZM538 342V290H66V342H538Z" />
<glyph unicode="&#xad;" glyph-name="uni00AD" horiz-adv-x="0" />
<glyph unicode="&#xae;" glyph-name="registered" horiz-adv-x="807" d="M403 -10Q302 -10 226 35T108 157T65 330Q65 427 107 503T226 625T403 670Q505 670 581 626T699 504T742 330Q742 234 700 157T581 35T403 -10ZM506 143L402 302L441 318L560 143H506ZM403
36Q489 36 553 75T654 180T691 330Q691 413 655 479T554 585T403 624Q318 624 253 585T152 480T115 330Q115 247 151 181T253 75T403 36ZM275 143V513H421Q482 513 517 484T553 401Q553 349 518 320T421 290H322V143H275ZM322 327H420Q462 327 483 346T505 401Q505
439 484 457T420 476H322V327Z" />
<glyph unicode="&#xaf;" glyph-name="overscore" horiz-adv-x="519" d="M416 647V599H102V647H416Z" />
<glyph unicode="&#xb0;" glyph-name="degree" horiz-adv-x="426" d="M213 363Q167 363 132 382T77 437T57 516Q57 561 77 596T132 650T213 670Q260 670 295 651T350 596T370 516Q370 472 350 437T295 383T213 363ZM213 408Q260 408 290 438T320 516Q320 563 290
593T213 624Q166 624 136 594T106 516Q106 469 136 439T213 408Z" />
<glyph unicode="&#xb1;" glyph-name="plusminus" horiz-adv-x="604" d="M329 633V136H276V633H329ZM538 412V359H66V412H538ZM538 52V0H66V52H538Z" />
<glyph unicode="&#xb2;" glyph-name="uni00B2" horiz-adv-x="352" d="M42 333V369Q67 388 92 408T140 447Q181 482 206 509T244 560T256 609Q256 646 234 670T170 694Q129 694 104 667T78 593L33 608Q37 666 74 700T173 735Q216 735 246 719T292 674T308 611Q308
581 292 550T246 489T176 427Q161 415 143 401T106 373V372Q115 373 130 373T155 374H319V333H42Z" />
<glyph unicode="&#xb3;" glyph-name="uni00B3" horiz-adv-x="342" d="M166 735Q227 735 260 705T293 628Q293 586 270 563T218 533V532Q251 530 276 506T302 439Q302 388 263 358T165 327Q109 327 73 351T24 421L70 443Q77 407 100 388T165 369Q203 369 227 389T251
445Q251 483 226 498T160 514Q156 514 153 514T143 513V551Q148 550 152 550T158 550Q196 550 218 568T241 621Q241 656 221 675T164 694Q131 694 109 677T81 629L35 646Q48 690 83 712T166 735Z" />
<glyph unicode="&#xb4;" glyph-name="acute" horiz-adv-x="600" d="M310 743H371L277 583H231L310 743Z" />
<glyph unicode="&#xb5;" glyph-name="uni00B5" horiz-adv-x="582" d="M90 -210V500H146V185Q146 111 181 75T277 39Q320 39 356 60T414 122T436 223V500H492V0H445L441 101Q420 50 375 20T272 -10Q231 -10 198 7T145 61H146V-210H90Z" />
<glyph unicode="&#xb6;" glyph-name="paragraph" horiz-adv-x="604" d="M283 -100V215Q209 215 154 243T68 321T37 437Q37 504 69 554T158 632T294 660H517V-100H467V613H334V-100H283ZM283 262V613Q223 613 180 592T113 530T90 437Q90 384 113 344T179 283T283 262Z" />
<glyph unicode="&#xb7;" glyph-name="middot" horiz-adv-x="213" d="M114 308Q92 308 79 321T65 356Q65 379 78 392T114 406Q136 406 149 392T163 356Q163 335 150 322T114 308Z" />
<glyph unicode="&#xb8;" glyph-name="cedilla" horiz-adv-x="538" d="M233 4L268 19Q324 -1 347 -32T370 -105Q370 -150 340 -180T262 -210Q231 -210 208 -201T167 -176L182 -136Q198 -149 215 -157T256 -165Q286 -165 304 -147T323 -94Q323 -65 304 -43T233 4Z" />
<glyph unicode="&#xb9;" glyph-name="uni00B9" horiz-adv-x="225" d="M124 730H166V333H117V606Q117 623 117 640T119 676Q99 653 71 636T14 611V654Q32 658 53 669T94 697T124 730Z" />
<glyph unicode="&#xba;" glyph-name="ordmasculine" horiz-adv-x="355" d="M177 327Q109 327 70 370T31 496Q31 578 70 621T177 665Q246 665 285 622T324 496Q324 414 285 371T177 327ZM40 209V248H314V209H40ZM177 367Q227 367 251 399T275 496Q275 560 251 593T177
626Q127 626 104 593T80 496Q80 432 103 400T177 367Z" />
<glyph unicode="&#xbb;" glyph-name="guillemotright" horiz-adv-x="450" d="M207 69L341 265L207 461H268L402 265L268 69H207ZM51 69L186 265L51 461H113L246 265L113 69H51Z" />
<glyph unicode="&#xbc;" glyph-name="onequarter" horiz-adv-x="721" d="M124 921H166V524H117V797Q117 814 117 831T119 867Q99 844 71 827T14 802V845Q32 849 53 860T94 888T124 921ZM76 0L536 660H592L132 0H76ZM698 139V103H626V-4H583V103H389V131L570 393H626V139H698ZM437
139H583V288Q583 302 583 317T585 351H582Q577 340 568 325T551 300L437 139Z" />
<glyph unicode="&#xbd;" glyph-name="onehalf" horiz-adv-x="794" d="M124 921H166V524H117V797Q117 814 117 831T119 867Q99 844 71 827T14 802V845Q32 849 53 860T94 888T124 921ZM76 0L536 660H592L132 0H76ZM484 -4V32Q509 51 534 71T582 110Q623 145 648
172T686 223T698 272Q698 309 676 333T612 357Q571 357 546 330T520 256L475 271Q479 329 516 363T615 398Q658 398 688 382T734 337T750 274Q750 244 734 213T688 152T618 90Q603 78 585 64T548 36V35Q557 36 572 36T597 37H761V-4H484Z" />
<glyph unicode="&#xbe;" glyph-name="threequarters" horiz-adv-x="838" d="M166 926Q227 926 260 896T293 819Q293 777 270 754T218 724V723Q251 721 276 697T302 630Q302 579 263 549T165 518Q109 518 73 542T24 612L70 634Q77 598 100 579T165 560Q203 560
227 580T251 636Q251 674 226 689T160 705Q156 705 153 705T143 704V742Q148 741 152 741T158 741Q196 741 218 759T241 812Q241 847 221 866T164 885Q131 885 109 868T81 820L35 837Q48 881 83 903T166 926ZM193 0L653 660H709L249 0H193ZM815 139V103H743V-4H700V103H506V131L687
393H743V139H815ZM554 139H700V288Q700 302 700 317T702 351H699Q694 340 685 325T668 300L554 139Z" />
<glyph unicode="&#xbf;" glyph-name="questiondown" horiz-adv-x="495" d="M285 311V165Q217 150 178 131T122 84T105 14Q105 -27 121 -57T170 -103T250 -120Q319 -120 360 -81T410 25L459 -2Q450 -54 422 -92T350 -151T247 -172Q186 -172 141 -150T71 -88T46
6Q46 63 68 101T131 162T228 195V311H285ZM248 506Q270 506 283 493T297 457Q297 435 284 422T248 408Q226 408 213 421T199 457Q199 479 212 492T248 506Z" />
<glyph unicode="&#xc0;" glyph-name="Agrave" horiz-adv-x="612" d="M591 0H531L455 202H156L80 0H21L273 660H339L591 0ZM176 254H435L305 605L176 254ZM269 898L339 743H293L210 898H269Z" />
<glyph unicode="&#xc1;" glyph-name="Aacute" horiz-adv-x="612" d="M591 0H531L455 202H156L80 0H21L273 660H339L591 0ZM176 254H435L305 605L176 254ZM345 898H405L322 743H276L345 898Z" />
<glyph unicode="&#xc2;" glyph-name="Acircumflex" horiz-adv-x="612" d="M591 0H531L455 202H156L80 0H21L273 660H339L591 0ZM176 254H435L305 605L176 254ZM446 743H393L305 858L217 743H164L274 896H336L446 743Z" />
<glyph unicode="&#xc3;" glyph-name="Atilde" horiz-adv-x="612" d="M591 0H531L455 202H156L80 0H21L273 660H339L591 0ZM176 254H435L305 605L176 254ZM477 864Q471 807 446 778T376 749Q349 749 330 759T296 783T267 806T235 817Q210 817 197 799T177 748H132Q139
805 164 834T236 863Q262 863 280 853T314 829T343 806T375 795Q400 795 413 813T432 864H477Z" />
<glyph unicode="&#xc4;" glyph-name="Adieresis" horiz-adv-x="612" d="M591 0H531L455 202H156L80 0H21L273 660H339L591 0ZM176 254H435L305 605L176 254ZM209 836Q229 836 241 824T253 792Q253 772 241 760T209 748Q190 748 178 760T166 792Q166 811 178 823T209
836ZM400 836Q420 836 432 824T444 792Q444 772 432 760T399 748Q380 748 368 760T356 792Q356 811 368 823T400 836Z" />
<glyph unicode="&#xc5;" glyph-name="Aring" horiz-adv-x="612" d="M591 0H531L455 202H156L80 0H21L273 660H339L591 0ZM176 254H435L305 605L176 254ZM303 832Q352 832 382 803T412 728Q412 682 382 653T303 624Q255 624 225 653T194 728Q194 774 224 803T303
832ZM303 796Q274 796 254 777T234 728Q234 700 254 681T303 661Q333 661 353 680T373 728Q373 758 353 777T303 796Z" />
<glyph unicode="&#xc6;" glyph-name="AE" horiz-adv-x="894" d="M484 52H851V0H428V228H193L63 0H1L382 660H836V608H484V361H757V309H484V52ZM223 281H428V608H410L223 281Z" />
<glyph unicode="&#xc7;" glyph-name="Ccedilla" horiz-adv-x="651" d="M608 168Q580 83 513 37T353 -10Q266 -10 201 31T100 149T64 330Q64 434 99 510T200 628T352 670Q416 670 464 652T547 598T598 509L544 483Q523 550 477 584T355 618Q286 618 234 584T152
485T122 330Q122 241 150 177T231 77T353 42Q427 42 479 79T552 189L608 168ZM300 4L335 19Q391 -1 414 -32T437 -105Q437 -150 407 -180T329 -210Q298 -210 275 -201T234 -176L249 -136Q265 -149 282 -157T323 -165Q353 -165 371 -147T390 -94Q390 -65 371 -43T300
4Z" />
<glyph unicode="&#xc8;" glyph-name="Egrave" horiz-adv-x="596" d="M105 0V660H538V608H161V362H458V309H161V52H553V0H105ZM281 898L351 743H305L222 898H281Z" />
<glyph unicode="&#xc9;" glyph-name="Eacute" horiz-adv-x="596" d="M105 0V660H538V608H161V362H458V309H161V52H553V0H105ZM371 898H431L348 743H302L371 898Z" />
<glyph unicode="&#xca;" glyph-name="Ecircumflex" horiz-adv-x="596" d="M105 0V660H538V608H161V362H458V309H161V52H553V0H105ZM462 743H409L321 858L233 743H180L290 896H352L462 743Z" />
<glyph unicode="&#xcb;" glyph-name="Edieresis" horiz-adv-x="596" d="M105 0V660H538V608H161V362H458V309H161V52H553V0H105ZM225 836Q245 836 257 824T269 792Q269 772 257 760T225 748Q206 748 194 760T182 792Q182 811 194 823T225 836ZM416 836Q436 836
448 824T460 792Q460 772 448 760T415 748Q396 748 384 760T372 792Q372 811 384 823T416 836Z" />
<glyph unicode="&#xcc;" glyph-name="Igrave" horiz-adv-x="265" d="M161 660V0H105V660H161ZM86 898L156 743H110L27 898H86Z" />
<glyph unicode="&#xcd;" glyph-name="Iacute" horiz-adv-x="265" d="M161 660V0H105V660H161ZM179 898H239L156 743H110L179 898Z" />
<glyph unicode="&#xce;" glyph-name="Icircumflex" horiz-adv-x="265" d="M161 660V0H105V660H161ZM274 743H221L133 858L45 743H-8L102 896H164L274 743Z" />
<glyph unicode="&#xcf;" glyph-name="Idieresis" horiz-adv-x="265" d="M57 836Q77 836 89 824T101 792Q101 772 89 760T56 748Q37 748 25 760T13 792Q13 811 25 823T57 836ZM209 836Q228 836 240 824T252 792Q252 772 240 760T209 748Q189 748 177 760T165 792Q165
811 177 823T209 836ZM161 660V0H105V660H161Z" />
<glyph unicode="&#xd0;" glyph-name="Eth" horiz-adv-x="709" d="M18 308V360H374V308H18ZM307 660Q457 660 540 576T623 334Q623 172 540 86T307 0H105V660H307ZM311 52Q433 52 498 125T564 334Q564 422 535 483T449 576T311 608H161V52H311Z" />
<glyph unicode="&#xd1;" glyph-name="Ntilde" horiz-adv-x="698" d="M593 660V0H524L207 503L156 595H155L158 511V0H105V660H174L491 158L542 64H543L540 149V660H593ZM526 864Q520 807 495 778T425 749Q398 749 379 759T345 783T316 806T284 817Q259 817 246
799T226 748H181Q188 805 213 834T285 863Q311 863 329 853T363 829T392 806T424 795Q449 795 462 813T481 864H526Z" />
<glyph unicode="&#xd2;" glyph-name="Ograve" horiz-adv-x="715" d="M357 670Q447 670 513 629T615 511T651 330Q651 225 615 149T513 32T357 -10Q267 -10 201 31T100 149T64 330Q64 435 99 511T201 628T357 670ZM357 618Q285 618 232 583T151 484T122 330Q122
241 150 177T232 77T357 42Q430 42 482 77T564 176T593 330Q593 419 564 483T483 583T357 618ZM317 898L387 743H341L258 898H317Z" />
<glyph unicode="&#xd3;" glyph-name="Oacute" horiz-adv-x="715" d="M357 670Q447 670 513 629T615 511T651 330Q651 225 615 149T513 32T357 -10Q267 -10 201 31T100 149T64 330Q64 435 99 511T201 628T357 670ZM357 618Q285 618 232 583T151 484T122 330Q122
241 150 177T232 77T357 42Q430 42 482 77T564 176T593 330Q593 419 564 483T483 583T357 618ZM397 898H457L374 743H328L397 898Z" />
<glyph unicode="&#xd4;" glyph-name="Ocircumflex" horiz-adv-x="715" d="M357 670Q447 670 513 629T615 511T651 330Q651 225 615 149T513 32T357 -10Q267 -10 201 31T100 149T64 330Q64 435 99 511T201 628T357 670ZM357 618Q285 618 232 583T151 484T122 330Q122
241 150 177T232 77T357 42Q430 42 482 77T564 176T593 330Q593 419 564 483T483 583T357 618ZM498 743H445L357 858L269 743H216L326 896H388L498 743Z" />
<glyph unicode="&#xd5;" glyph-name="Otilde" horiz-adv-x="715" d="M357 670Q447 670 513 629T615 511T651 330Q651 225 615 149T513 32T357 -10Q267 -10 201 31T100 149T64 330Q64 435 99 511T201 628T357 670ZM357 618Q285 618 232 583T151 484T122 330Q122
241 150 177T232 77T357 42Q430 42 482 77T564 176T593 330Q593 419 564 483T483 583T357 618ZM529 864Q523 807 498 778T428 749Q401 749 382 759T348 783T319 806T287 817Q262 817 249 799T229 748H184Q191 805 216 834T288 863Q314 863 332 853T366 829T395
806T427 795Q452 795 465 813T484 864H529Z" />
<glyph unicode="&#xd6;" glyph-name="Odieresis" horiz-adv-x="715" d="M357 670Q447 670 513 629T615 511T651 330Q651 225 615 149T513 32T357 -10Q267 -10 201 31T100 149T64 330Q64 435 99 511T201 628T357 670ZM357 618Q285 618 232 583T151 484T122 330Q122
241 150 177T232 77T357 42Q430 42 482 77T564 176T593 330Q593 419 564 483T483 583T357 618ZM261 836Q281 836 293 824T305 792Q305 772 293 760T261 748Q242 748 230 760T218 792Q218 811 230 823T261 836ZM452 836Q472 836 484 824T496 792Q496 772 484 760T451
748Q432 748 420 760T408 792Q408 811 420 823T452 836Z" />
<glyph unicode="&#xd7;" glyph-name="multiply" horiz-adv-x="604" d="M468 111L506 149L135 520L97 482L468 111ZM135 111L506 482L468 520L97 149L135 111Z" />
<glyph unicode="&#xd8;" glyph-name="Oslash" horiz-adv-x="715" d="M207 62L174 89L527 587L561 561L207 62ZM87 -34L174 89L207 62L139 -34H87ZM561 561L527 587L597 686H649L561 561ZM357 670Q447 670 513 629T615 511T651 330Q651 225 615 149T513 32T357
-10Q267 -10 201 31T100 149T64 330Q64 435 99 511T201 628T357 670ZM357 618Q285 618 232 583T151 484T122 330Q122 241 150 177T232 77T357 42Q430 42 482 77T564 176T593 330Q593 419 564 483T483 583T357 618Z" />
<glyph unicode="&#xd9;" glyph-name="Ugrave" horiz-adv-x="671" d="M580 660V242Q580 118 516 54T335 -10Q219 -10 155 54T91 242V660H147V254Q147 156 191 99T335 42Q435 42 479 99T524 254V660H580ZM325 882L395 727H349L266 882H325Z" />
<glyph unicode="&#xda;" glyph-name="Uacute" horiz-adv-x="671" d="M580 660V242Q580 118 516 54T335 -10Q219 -10 155 54T91 242V660H147V254Q147 156 191 99T335 42Q435 42 479 99T524 254V660H580ZM375 867H435L352 712H306L375 867Z" />
<glyph unicode="&#xdb;" glyph-name="Ucircumflex" horiz-adv-x="671" d="M580 660V242Q580 118 516 54T335 -10Q219 -10 155 54T91 242V660H147V254Q147 156 191 99T335 42Q435 42 479 99T524 254V660H580ZM476 712H423L335 827L247 712H194L304 865H366L476 712Z" />
<glyph unicode="&#xdc;" glyph-name="Udieresis" horiz-adv-x="671" d="M580 660V242Q580 118 516 54T335 -10Q219 -10 155 54T91 242V660H147V254Q147 156 191 99T335 42Q435 42 479 99T524 254V660H580ZM239 805Q259 805 271 793T283 761Q283 741 271 729T239
717Q220 717 208 729T196 761Q196 780 208 792T239 805ZM430 805Q450 805 462 793T474 761Q474 741 462 729T429 717Q410 717 398 729T386 761Q386 780 398 792T430 805Z" />
<glyph unicode="&#xdd;" glyph-name="Yacute" horiz-adv-x="529" d="M517 660L292 257V0H236V257L12 660H78L200 434L264 315L329 434L450 660H517ZM304 871H364L281 716H235L304 871Z" />
<glyph unicode="&#xde;" glyph-name="Thorn" horiz-adv-x="584" d="M306 536Q420 536 477 485T535 338Q535 243 478 192T306 141H133V193H314Q477 193 477 338Q477 411 436 447T314 484H133V536H306ZM161 660V0H105V660H161Z" />
<glyph unicode="&#xdf;" glyph-name="germandbls" horiz-adv-x="581" d="M355 384Q414 383 452 357T508 289T527 197Q527 140 506 93T445 18T344 -10Q301 -10 270 0T222 25L239 72Q258 57 281 49T341 41Q403 41 438 85T473 198Q473 278 430 317T308 357H257L258
407H303Q368 407 406 447T444 552Q444 618 406 650T304 683Q245 683 210 659T161 591T146 485V0H90V504Q90 574 111 625T181 706T309 735Q371 735 414 712T479 649T501 562Q501 517 484 478T434 413T355 385V384Z" />
<glyph unicode="&#xe0;" glyph-name="agrave" horiz-adv-x="514" d="M377 328Q377 390 345 425T252 461Q200 461 163 437T107 357L61 386Q82 444 131 477T254 510Q307 510 347 491T410 434T433 338V90Q433 40 476 40Q485 40 494 42T510 47L507 2Q500 -2 489 -4T462
-7Q440 -7 420 2T388 33T376 90V114H391Q381 72 353 45T288 4T212 -10Q145 -10 101 23T57 121Q57 175 91 210T193 259L387 300V253L220 217Q166 206 140 184T114 124Q114 85 141 62T220 39Q248 39 275 47T326 72T363 115T377 178V328ZM206 743L285 583H239L145
743H206Z" />
<glyph unicode="&#xe1;" glyph-name="aacute" horiz-adv-x="514" d="M377 328Q377 390 345 425T252 461Q200 461 163 437T107 357L61 386Q82 444 131 477T254 510Q307 510 347 491T410 434T433 338V90Q433 40 476 40Q485 40 494 42T510 47L507 2Q500 -2 489 -4T462
-7Q440 -7 420 2T388 33T376 90V114H391Q381 72 353 45T288 4T212 -10Q145 -10 101 23T57 121Q57 175 91 210T193 259L387 300V253L220 217Q166 206 140 184T114 124Q114 85 141 62T220 39Q248 39 275 47T326 72T363 115T377 178V328ZM301 743H362L268 583H222L301
743Z" />
<glyph unicode="&#xe2;" glyph-name="acircumflex" horiz-adv-x="514" d="M377 328Q377 390 345 425T252 461Q200 461 163 437T107 357L61 386Q82 444 131 477T254 510Q307 510 347 491T410 434T433 338V90Q433 40 476 40Q485 40 494 42T510 47L507 2Q500 -2 489
-4T462 -7Q440 -7 420 2T388 33T376 90V114H391Q381 72 353 45T288 4T212 -10Q145 -10 101 23T57 121Q57 175 91 210T193 259L387 300V253L220 217Q166 206 140 184T114 124Q114 85 141 62T220 39Q248 39 275 47T326 72T363 115T377 178V328ZM398 579H346L255 699L164
579H112L223 736H287L398 579Z" />
<glyph unicode="&#xe3;" glyph-name="atilde" horiz-adv-x="514" d="M377 328Q377 390 345 425T252 461Q200 461 163 437T107 357L61 386Q82 444 131 477T254 510Q307 510 347 491T410 434T433 338V90Q433 40 476 40Q485 40 494 42T510 47L507 2Q500 -2 489 -4T462
-7Q440 -7 420 2T388 33T376 90V114H391Q381 72 353 45T288 4T212 -10Q145 -10 101 23T57 121Q57 175 91 210T193 259L387 300V253L220 217Q166 206 140 184T114 124Q114 85 141 62T220 39Q248 39 275 47T326 72T363 115T377 178V328ZM427 704Q421 647 396 618T326
589Q299 589 280 599T246 623T217 646T185 657Q160 657 147 639T127 588H82Q89 645 114 674T186 703Q212 703 230 693T264 669T293 646T325 635Q350 635 363 653T382 704H427Z" />
<glyph unicode="&#xe4;" glyph-name="adieresis" horiz-adv-x="514" d="M377 328Q377 390 345 425T252 461Q200 461 163 437T107 357L61 386Q82 444 131 477T254 510Q307 510 347 491T410 434T433 338V90Q433 40 476 40Q485 40 494 42T510 47L507 2Q500 -2 489
-4T462 -7Q440 -7 420 2T388 33T376 90V114H391Q381 72 353 45T288 4T212 -10Q145 -10 101 23T57 121Q57 175 91 210T193 259L387 300V253L220 217Q166 206 140 184T114 124Q114 85 141 62T220 39Q248 39 275 47T326 72T363 115T377 178V328ZM159 676Q179 676 191
664T203 632Q203 612 191 600T159 588Q140 588 128 600T116 632Q116 651 128 663T159 676ZM350 676Q370 676 382 664T394 632Q394 612 382 600T349 588Q330 588 318 600T306 632Q306 651 318 663T350 676Z" />
<glyph unicode="&#xe5;" glyph-name="aring" horiz-adv-x="514" d="M377 328Q377 390 345 425T252 461Q200 461 163 437T107 357L61 386Q82 444 131 477T254 510Q307 510 347 491T410 434T433 338V90Q433 40 476 40Q485 40 494 42T510 47L507 2Q500 -2 489 -4T462
-7Q440 -7 420 2T388 33T376 90V114H391Q381 72 353 45T288 4T212 -10Q145 -10 101 23T57 121Q57 175 91 210T193 259L387 300V253L220 217Q166 206 140 184T114 124Q114 85 141 62T220 39Q248 39 275 47T326 72T363 115T377 178V328ZM252 783Q301 783 331 754T361
679Q361 633 331 604T252 575Q204 575 174 604T143 679Q143 725 173 754T252 783ZM252 747Q223 747 203 728T183 679Q183 651 203 632T252 612Q282 612 302 631T322 679Q322 709 302 728T252 747Z" />
<glyph unicode="&#xe6;" glyph-name="ae" horiz-adv-x="856" d="M215 -10Q147 -10 102 23T57 121Q57 174 91 210T191 259L379 297V328Q379 390 345 425T253 461Q201 461 164 436T107 357L61 386Q76 425 103 452T168 495T252 510Q320 510 367 476T425 371L408 374Q423
416 451 446T518 493T599 510Q663 510 707 481T776 399T801 281Q801 269 801 260T798 244H438V236Q438 144 483 92T605 39Q654 39 692 63T750 130L795 104Q768 51 719 21T606 -10Q531 -10 476 30T401 144L417 149Q414 109 395 79T347 29T284 0T215 -10ZM221 39Q260
39 296 54T355 100T379 181V249L221 217Q167 206 141 184T114 124Q114 85 141 62T221 39ZM437 294H746Q745 344 727 381T676 440T599 461Q535 461 491 417T437 294Z" />
<glyph unicode="&#xe7;" glyph-name="ccedilla" horiz-adv-x="526" d="M282 510Q331 510 369 494T433 448T475 376L422 350Q408 404 372 432T280 461Q230 461 192 436T132 364T111 250Q111 185 132 137T192 64T280 39Q320 39 350 53T401 93T429 155L480 137Q467
91 439 58T371 8T280 -10Q215 -10 164 21T84 110T55 250Q55 331 84 389T165 479T282 510ZM231 4L266 19Q322 -1 345 -32T368 -105Q368 -150 338 -180T260 -210Q229 -210 206 -201T165 -176L180 -136Q196 -149 213 -157T254 -165Q284 -165 302 -147T321 -94Q321
-65 302 -43T231 4Z" />
<glyph unicode="&#xe8;" glyph-name="egrave" horiz-adv-x="540" d="M284 -10Q217 -10 166 21T85 110T55 250Q55 331 84 389T163 479T278 510Q344 510 390 480T460 397T485 275Q485 263 485 254T483 238H91V288H458L430 280Q430 337 411 377T358 439T277 461Q228
461 190 436T131 363T110 250Q110 184 132 137T193 65T283 39Q336 39 374 63T433 130L478 104Q460 69 432 44T366 4T284 -10ZM224 743L303 583H257L163 743H224Z" />
<glyph unicode="&#xe9;" glyph-name="eacute" horiz-adv-x="540" d="M284 -10Q217 -10 166 21T85 110T55 250Q55 331 84 389T163 479T278 510Q344 510 390 480T460 397T485 275Q485 263 485 254T483 238H91V288H458L430 280Q430 337 411 377T358 439T277 461Q228
461 190 436T131 363T110 250Q110 184 132 137T193 65T283 39Q336 39 374 63T433 130L478 104Q460 69 432 44T366 4T284 -10ZM319 743H380L286 583H240L319 743Z" />
<glyph unicode="&#xea;" glyph-name="ecircumflex" horiz-adv-x="540" d="M284 -10Q217 -10 166 21T85 110T55 250Q55 331 84 389T163 479T278 510Q344 510 390 480T460 397T485 275Q485 263 485 254T483 238H91V288H458L430 280Q430 337 411 377T358 439T277
461Q228 461 190 436T131 363T110 250Q110 184 132 137T193 65T283 39Q336 39 374 63T433 130L478 104Q460 69 432 44T366 4T284 -10ZM416 579H364L273 699L182 579H130L241 736H305L416 579Z" />
<glyph unicode="&#xeb;" glyph-name="edieresis" horiz-adv-x="540" d="M284 -10Q217 -10 166 21T85 110T55 250Q55 331 84 389T163 479T278 510Q344 510 390 480T460 397T485 275Q485 263 485 254T483 238H91V288H458L430 280Q430 337 411 377T358 439T277 461Q228
461 190 436T131 363T110 250Q110 184 132 137T193 65T283 39Q336 39 374 63T433 130L478 104Q460 69 432 44T366 4T284 -10ZM177 676Q197 676 209 664T221 632Q221 612 209 600T177 588Q158 588 146 600T134 632Q134 651 146 663T177 676ZM368 676Q388 676 400
664T412 632Q412 612 400 600T367 588Q348 588 336 600T324 632Q324 651 336 663T368 676Z" />
<glyph unicode="&#xec;" glyph-name="igrave" horiz-adv-x="236" d="M146 500V0H90V500H146ZM69 743L148 583H102L8 743H69Z" />
<glyph unicode="&#xed;" glyph-name="iacute" horiz-adv-x="236" d="M146 500V0H90V500H146ZM164 743H225L131 583H85L164 743Z" />
<glyph unicode="&#xee;" glyph-name="icircumflex" horiz-adv-x="236" d="M146 500V0H90V500H146ZM261 579H209L118 699L27 579H-25L86 736H150L261 579Z" />
<glyph unicode="&#xef;" glyph-name="idieresis" horiz-adv-x="236" d="M187 588Q167 588 155 600T142 632Q142 651 154 663T187 676Q207 676 219 664T231 632Q231 612 219 600T187 588ZM49 588Q29 588 17 600T5 632Q5 651 17 663T49 676Q69 676 81 664T94 632Q94
612 82 600T49 588ZM146 500V0H90V500H146Z" />
<glyph unicode="&#xf0;" glyph-name="eth" horiz-adv-x="585" d="M284 -10Q215 -10 165 20T86 106T58 238Q58 314 87 369T166 455T280 485Q351 485 398 454T466 367L459 359Q449 450 417 520T334 642T211 730H289Q360 690 410 630T487 485T514 286Q514 195 488
129T411 26T284 -10ZM287 39Q343 39 381 67T439 143T459 246Q459 305 437 347T377 413T287 436Q235 436 197 412T137 343T116 238Q116 145 162 92T287 39ZM208 548L197 591L383 633L407 599L208 548ZM408 599L384 633L513 668L524 626L408 599Z" />
<glyph unicode="&#xf1;" glyph-name="ntilde" horiz-adv-x="581" d="M90 0V500H140L144 378L136 386Q155 447 204 478T316 510Q368 510 408 489T473 427T497 323V0H441V305Q441 387 404 424T308 461Q267 461 230 441T169 380T146 279V0H90ZM470 704Q464 647 439
618T369 589Q342 589 323 599T289 623T260 646T228 657Q203 657 190 639T170 588H125Q132 645 157 674T229 703Q255 703 273 693T307 669T336 646T368 635Q393 635 406 653T425 704H470Z" />
<glyph unicode="&#xf2;" glyph-name="ograve" horiz-adv-x="567" d="M284 510Q351 510 402 479T482 390T512 250Q512 169 483 111T402 21T284 -10Q218 -10 166 21T85 110T55 250Q55 331 84 389T166 479T284 510ZM284 462Q232 462 193 436T133 363T111 250Q111
185 132 138T193 64T284 38Q337 38 375 63T434 137T456 250Q456 316 435 363T375 436T284 462ZM235 742L314 582H268L174 742H235Z" />
<glyph unicode="&#xf3;" glyph-name="oacute" horiz-adv-x="567" d="M284 510Q351 510 402 479T482 390T512 250Q512 169 483 111T402 21T284 -10Q218 -10 166 21T85 110T55 250Q55 331 84 389T166 479T284 510ZM284 462Q232 462 193 436T133 363T111 250Q111
185 132 138T193 64T284 38Q337 38 375 63T434 137T456 250Q456 316 435 363T375 436T284 462ZM330 742H391L297 582H251L330 742Z" />
<glyph unicode="&#xf4;" glyph-name="ocircumflex" horiz-adv-x="567" d="M284 510Q351 510 402 479T482 390T512 250Q512 169 483 111T402 21T284 -10Q218 -10 166 21T85 110T55 250Q55 331 84 389T166 479T284 510ZM284 462Q232 462 193 436T133 363T111 250Q111
185 132 138T193 64T284 38Q337 38 375 63T434 137T456 250Q456 316 435 363T375 436T284 462ZM427 578H375L284 698L193 578H141L252 735H316L427 578Z" />
<glyph unicode="&#xf5;" glyph-name="otilde" horiz-adv-x="567" d="M284 510Q351 510 402 479T482 390T512 250Q512 169 483 111T402 21T284 -10Q218 -10 166 21T85 110T55 250Q55 331 84 389T166 479T284 510ZM284 462Q232 462 193 436T133 363T111 250Q111
185 132 138T193 64T284 38Q337 38 375 63T434 137T456 250Q456 316 435 363T375 436T284 462ZM456 703Q450 646 425 617T355 588Q328 588 309 598T275 622T246 645T214 656Q189 656 176 638T156 587H111Q118 644 143 673T215 702Q241 702 259 692T293 668T322
645T354 634Q379 634 392 652T411 703H456Z" />
<glyph unicode="&#xf6;" glyph-name="odieresis" horiz-adv-x="567" d="M284 510Q351 510 402 479T482 390T512 250Q512 169 483 111T402 21T284 -10Q218 -10 166 21T85 110T55 250Q55 331 84 389T166 479T284 510ZM284 462Q232 462 193 436T133 363T111 250Q111
185 132 138T193 64T284 38Q337 38 375 63T434 137T456 250Q456 316 435 363T375 436T284 462ZM188 675Q208 675 220 663T232 631Q232 611 220 599T188 587Q169 587 157 599T145 631Q145 650 157 662T188 675ZM379 675Q399 675 411 663T423 631Q423 611 411 599T378
587Q359 587 347 599T335 631Q335 650 347 662T379 675Z" />
<glyph unicode="&#xf7;" glyph-name="divide" horiz-adv-x="604" d="M538 342V290H66V342H538ZM309 76Q287 76 274 89T260 124Q260 146 273 159T309 173Q331 173 344 160T358 124Q358 103 345 90T309 76ZM309 459Q287 459 274 472T260 508Q260 530 273 543T309
557Q331 557 344 544T358 508Q358 486 345 473T309 459Z" />
<glyph unicode="&#xf8;" glyph-name="oslash" horiz-adv-x="567" d="M284 510Q351 510 402 479T482 390T512 250Q512 169 483 111T402 21T284 -10Q218 -10 166 21T85 110T55 250Q55 331 84 389T166 479T284 510ZM284 462Q232 462 193 436T133 363T111 250Q111
185 132 138T193 64T284 38Q337 38 375 63T434 137T456 250Q456 316 435 363T375 436T284 462ZM299 -30L731 530H780L348 -30H299Z" />
<glyph unicode="&#xf9;" glyph-name="ugrave" horiz-adv-x="575" d="M256 -10Q208 -10 169 9T107 68T84 170V500H140V184Q140 112 172 76T270 39Q305 39 334 52T384 89T417 145T429 216V500H485V0H436L433 97Q419 64 394 40T334 3T256 -10ZM236 729L315 569H269L175
729H236Z" />
<glyph unicode="&#xfa;" glyph-name="uacute" horiz-adv-x="575" d="M256 -10Q208 -10 169 9T107 68T84 170V500H140V184Q140 112 172 76T270 39Q305 39 334 52T384 89T417 145T429 216V500H485V0H436L433 97Q419 64 394 40T334 3T256 -10ZM331 729H392L298 569H252L331
729Z" />
<glyph unicode="&#xfb;" glyph-name="ucircumflex" horiz-adv-x="575" d="M256 -10Q208 -10 169 9T107 68T84 170V500H140V184Q140 112 172 76T270 39Q305 39 334 52T384 89T417 145T429 216V500H485V0H436L433 97Q419 64 394 40T334 3T256 -10ZM428 565H376L285
685L194 565H142L253 722H317L428 565Z" />
<glyph unicode="&#xfc;" glyph-name="udieresis" horiz-adv-x="575" d="M256 -10Q208 -10 169 9T107 68T84 170V500H140V184Q140 112 172 76T270 39Q305 39 334 52T384 89T417 145T429 216V500H485V0H436L433 97Q419 64 394 40T334 3T256 -10ZM189 662Q209 662
221 650T233 618Q233 598 221 586T189 574Q170 574 158 586T146 618Q146 637 158 649T189 662ZM380 662Q400 662 412 650T424 618Q424 598 412 586T379 574Q360 574 348 586T336 618Q336 637 348 649T380 662Z" />
<glyph unicode="&#xfd;" glyph-name="yacute" horiz-adv-x="482" d="M466 500L239 -90Q222 -133 203 -160T158 -201T95 -215Q66 -215 41 -206T-1 -181L16 -133Q32 -151 52 -158T93 -166Q123 -166 146 -148T189 -77L219 0L169 123L19 500H82L221 131L245 60L273
138L406 500H466ZM289 729H350L256 569H210L289 729Z" />
<glyph unicode="&#xfe;" glyph-name="thorn" horiz-adv-x="591" d="M90 -210V730H146V364L139 380Q158 439 206 474T318 510Q379 510 428 479T505 390T534 250Q534 169 506 111T428 21T317 -10Q253 -10 206 25T139 119L146 130V-210H90ZM310 39Q387 39 432 96T478
250Q478 347 434 404T312 461Q264 461 227 435T168 362T146 250Q146 186 167 139T225 65T310 39Z" />
<glyph unicode="&#xff;" glyph-name="ydieresis" horiz-adv-x="482" d="M466 500L239 -90Q222 -133 203 -160T158 -201T95 -215Q66 -215 41 -206T-1 -181L16 -133Q32 -151 52 -158T93 -166Q123 -166 146 -148T189 -77L219 0L169 123L19 500H82L221 131L245 60L273
138L406 500H466ZM147 662Q167 662 179 650T191 618Q191 598 179 586T147 574Q128 574 116 586T104 618Q104 637 116 649T147 662ZM338 662Q358 662 370 650T382 618Q382 598 370 586T337 574Q318 574 306 586T294 618Q294 637 306 649T338 662Z" />
<glyph unicode="&#x2013;" glyph-name="endash" horiz-adv-x="644" d="M567 291V238H77V291H567Z" />
<glyph unicode="&#x2014;" glyph-name="emdash" horiz-adv-x="986" d="M909 291V238H77V291H909Z" />
<glyph unicode="&#x2018;" glyph-name="quoteleft" horiz-adv-x="224" d="M113 475Q85 475 69 497T53 553Q53 582 63 609T93 658T144 696L174 669Q150 660 132 643T104 606T93 566L96 565Q99 568 104 570T120 573Q134 573 148 561T162 525Q162 505 148 490T113 475Z" />
<glyph unicode="&#x2019;" glyph-name="quoteright" horiz-adv-x="224" d="M116 696Q144 696 159 675T175 618Q175 590 166 563T136 513T85 475L54 502Q79 511 97 528T125 565T136 605L133 607Q130 603 125 601T109 598Q95 598 81 610T67 646Q67 666 81 681T116 696Z" />
<glyph unicode="&#x201a;" glyph-name="quotesinglbase" horiz-adv-x="224" d="M116 90Q144 90 159 69T175 12Q175 -16 166 -43T136 -93T85 -131L54 -104Q79 -95 97 -78T125 -41T136 -1L133 1Q130 -3 125 -5T109 -8Q95 -8 81 4T67 40Q67 60 81 75T116 90Z" />
<glyph unicode="&#x201c;" glyph-name="quotedblleft" horiz-adv-x="379" d="M113 475Q85 475 69 497T53 553Q53 582 63 609T93 658T144 696L174 669Q150 660 132 643T104 606T93 566L96 565Q99 568 104 570T120 573Q134 573 148 561T162 525Q162 505 148 490T113
475ZM267 475Q239 475 224 497T208 553Q208 582 217 609T247 658T298 696L329 669Q304 660 286 643T258 606T247 566L250 565Q253 568 258 570T274 573Q289 573 303 561T317 525Q317 505 303 490T267 475Z" />
<glyph unicode="&#x201d;" glyph-name="quotedblright" horiz-adv-x="379" d="M116 696Q144 696 159 675T175 618Q175 590 166 563T136 513T85 475L54 502Q79 511 97 528T125 565T136 605L133 607Q130 603 125 601T109 598Q95 598 81 610T67 646Q67 666 81 681T116
696ZM270 696Q298 696 313 675T329 618Q329 590 320 563T290 513T239 475L208 502Q233 511 251 528T279 565T290 605L287 607Q284 603 279 601T263 598Q249 598 235 610T221 646Q221 666 235 681T270 696Z" />
<glyph unicode="&#x201e;" glyph-name="quotedblbase" horiz-adv-x="379" d="M116 90Q144 90 159 69T175 12Q175 -16 166 -43T136 -93T85 -131L54 -104Q79 -95 97 -78T125 -41T136 -1L133 1Q130 -3 125 -5T109 -8Q95 -8 81 4T67 40Q67 60 81 75T116 90ZM270 90Q298
90 313 69T329 12Q329 -16 320 -43T290 -93T239 -131L208 -104Q233 -95 251 -78T279 -41T290 -1L287 1Q284 -3 279 -5T263 -8Q249 -8 235 4T221 40Q221 60 235 75T270 90Z" />
<glyph unicode="&#x2022;" glyph-name="bullet" horiz-adv-x="430" d="M215 240Q172 240 143 267T114 337Q114 381 143 408T215 436Q259 436 287 409T316 338Q316 295 288 268T215 240Z" />
<glyph unicode="&#x2039;" glyph-name="guilsinglleft" horiz-adv-x="295" d="M244 461L110 265L244 69H182L49 265L182 461H244Z" />
<glyph unicode="&#x203a;" glyph-name="guilsinglright" horiz-adv-x="295" d="M51 69L186 265L51 461H113L246 265L113 69H51Z" />
</font>
</defs>
</svg>
