<?xml version="1.0" standalone="no"?>
<!DOCTYPE svg PUBLIC "-//W3C//DTD SVG 1.1//EN" "http://www.w3.org/Graphics/SVG/1.1/DTD/svg11.dtd">
<svg xmlns="http://www.w3.org/2000/svg">
<defs >
<font id="KantumruyPro" horiz-adv-x="627" ><font-face
    font-family="Kantumruy Pro SemiBold"
    units-per-em="1000"
    panose-1="0 0 0 0 0 0 0 0 0 0"
    ascent="920"
    descent="-260"
    alphabetic="0" />
<glyph unicode=" " glyph-name="space" horiz-adv-x="302" />
<glyph unicode="!" glyph-name="exclam" horiz-adv-x="288" d="M216 660V420L200 211H88L72 420V660H216ZM143 143Q183 143 205 123T228 67Q228 32 206 12T143 -8Q105 -8 83 12T60 67Q60 103 82 123T143 143Z" />
<glyph unicode="&quot;" glyph-name="quotedbl" horiz-adv-x="426" d="M375 682L348 418H254V682H375ZM190 682L163 418H69V682H190Z" />
<glyph unicode="#" glyph-name="numbersign" horiz-adv-x="672" d="M555 660L447 0H350L457 660H555ZM604 255V169H25V255H604ZM314 660L207 0H109L216 660H314ZM647 492V406H68V492H647Z" />
<glyph unicode="$" glyph-name="dollar" horiz-adv-x="619" d="M315 0Q252 0 198 16T100 60T29 125L102 217Q123 182 158 157T236 119T323 105Q381 105 414 125T447 185Q447 213 426 229T364 257L229 289Q149 308 103 349T56 459Q56 516 87 561T176 633T314 660Q399
660 463 631T573 542L502 459Q465 510 417 534T305 558Q264 558 237 547T197 519T183 478Q183 450 203 431T284 397L397 371Q453 359 492 338T551 284T571 202Q571 138 539 93T448 24T315 0ZM270 -92V752H360V-92H270Z" />
<glyph unicode="%" glyph-name="percent" horiz-adv-x="901" d="M174 0L618 661H728L284 0H174ZM208 670Q262 670 301 647T362 582T384 484Q384 429 363 387T302 322T208 299Q155 299 116 322T55 387T33 484Q33 540 54 582T115 647T208 670ZM208 574Q186 574 171
564T148 533T140 484Q140 456 148 436T171 405T208 394Q231 394 246 405T270 436T278 484Q278 513 270 533T247 563T208 574ZM692 361Q745 361 784 338T845 274T867 176Q867 120 846 79T785 14T692 -10Q639 -10 600 13T539 78T517 176Q517 232 538 273T599 338T692
361ZM692 266Q670 266 655 256T631 225T623 176Q623 148 631 128T654 97T692 86Q715 86 730 96T754 127T762 176Q762 204 754 224T731 255T692 266Z" />
<glyph unicode="&amp;" glyph-name="ampersand" horiz-adv-x="623" d="M252 -10Q186 -10 137 11T60 72T33 169Q33 209 48 247T103 317T213 367L245 379Q286 404 310 424T344 465T354 512Q354 542 337 558T290 574Q257 574 240 555T223 505Q223 489 228 473T249
434T296 373T378 274Q428 214 462 176T521 118T569 92T621 88L606 -10Q571 -10 543 -4T483 22T410 83T306 193Q242 266 202 313T140 394T111 453T103 509Q103 549 123 585T184 646T291 670Q349 670 387 650T445 597T464 523Q464 480 446 444T389 379T283 327L253
312Q215 290 193 272T162 232T153 180Q153 151 168 130T210 96T269 84Q317 84 353 101T420 146L433 164Q454 200 466 243T475 344L572 340Q573 276 554 218T496 116L471 93Q438 46 383 18T252 -10Z" />
<glyph unicode="&apos;" glyph-name="quotesingle" horiz-adv-x="241" d="M190 682L163 418H69V682H190Z" />
<glyph unicode="(" glyph-name="parenleft" horiz-adv-x="374" d="M291 741L358 674Q269 594 231 499T192 276Q192 149 230 53T358 -123L291 -190Q179 -108 122 8T65 276Q65 427 122 543T291 741Z" />
<glyph unicode=")" glyph-name="parenright" horiz-adv-x="374" d="M83 -190L16 -123Q105 -43 143 52T182 275Q182 403 144 498T16 674L83 741Q194 660 251 544T309 275Q309 125 252 9T83 -190Z" />
<glyph unicode="*" glyph-name="asterisk" horiz-adv-x="580" d="M314 504L395 425L474 319L392 260L316 368L267 469L290 486L314 504ZM267 504L290 486L314 469L264 368L187 260L107 319L186 425L267 504ZM74 609L199 567L299 514L290 486L281 459L169 475L43
514L74 609ZM340 730L338 598L320 486H290H261L242 598L239 730H340ZM507 609L538 514L411 475L299 459L290 486L281 514L381 567L507 609Z" />
<glyph unicode="+" glyph-name="plus" horiz-adv-x="604" d="M359 580V63H246V580H359ZM550 374V270H54V374H550Z" />
<glyph unicode="," glyph-name="comma" horiz-adv-x="278" d="M137 152Q185 152 209 119T233 39Q233 -1 216 -39T171 -106T105 -152L47 -107Q74 -96 96 -80T134 -43T157 -2L152 1Q147 -3 141 -5T121 -7Q97 -7 74 11T50 67Q50 107 76 129T137 152Z" />
<glyph unicode="-" glyph-name="hyphen" horiz-adv-x="518" d="M435 325V207H83V325H435Z" />
<glyph unicode="." glyph-name="period" horiz-adv-x="285" d="M142 -9Q103 -9 79 12T55 71Q55 109 79 130T142 152Q183 152 206 131T229 71Q229 34 206 13T142 -9Z" />
<glyph unicode="/" glyph-name="slash" horiz-adv-x="454" d="M435 718L148 -70H20L306 718H435Z" />
<glyph unicode="0" glyph-name="zero" horiz-adv-x="622" d="M311 -10Q186 -10 120 76T53 330Q53 498 119 584T311 670Q435 670 501 584T568 330Q568 162 502 76T311 -10ZM311 101Q371 101 400 156T429 330Q429 449 400 504T311 559Q250 559 221 504T192 330Q192
211 221 156T311 101Z" />
<glyph unicode="1" glyph-name="one" horiz-adv-x="401" d="M183 0V418Q183 440 183 465T184 516Q153 483 115 461T35 428L19 545Q41 548 68 559T122 586T172 622T205 660H318V0H183Z" />
<glyph unicode="2" glyph-name="two" horiz-adv-x="576" d="M64 0V93Q149 153 209 202T306 294T361 375T379 452Q379 498 353 527T277 557Q226 557 196 519T163 411L43 454Q47 524 78 572T163 645T285 670Q364 670 416 641T493 563T518 460Q518 397 487 340T393
226T236 108V107Q250 108 271 108T314 109T353 110H528V0H64Z" />
<glyph unicode="3" glyph-name="three" horiz-adv-x="573" d="M289 -10Q192 -10 125 32T32 150L162 208Q170 154 202 128T286 101Q333 101 360 127T387 198Q387 228 376 246T343 274T289 283Q276 283 265 283T241 280V379Q248 378 256 378T274 377Q326 377 349
400T373 472Q373 514 350 536T284 559Q240 559 213 536T175 463L51 509Q64 560 97 596T181 651T292 670Q363 670 411 648T484 585T509 492Q509 452 497 423T466 375T427 346T390 334V331Q411 331 434 322T477 296T510 253T523 190Q523 129 493 84T410 15T289 -10Z"
/>
<glyph unicode="4" glyph-name="four" horiz-adv-x="618" d="M356 0V155H43V245Q47 252 50 257T61 274T83 307L317 660H481V255H585V155H481V0H356ZM161 255H358V475Q358 490 358 508T359 541T361 565H359Q351 551 343 536T325 505T306 475L175 275Q172 271 170
269T161 255Z" />
<glyph unicode="5" glyph-name="five" horiz-adv-x="567" d="M279 -10Q196 -10 137 25T40 136L165 199Q177 153 203 126T282 99Q316 99 341 112T379 151T393 212Q393 248 380 272T343 309T284 322Q247 322 218 310T169 274L62 294L101 660H491V549H204L186 387L183
373H184Q205 397 240 410T321 424Q383 424 428 398T497 326T521 220Q521 144 489 93T401 16T279 -10Z" />
<glyph unicode="6" glyph-name="six" horiz-adv-x="597" d="M327 670Q404 670 460 637T543 527L428 472Q416 511 391 534T318 557Q286 557 261 541T218 494T191 423T181 332Q181 328 181 324T181 311L184 307Q195 342 220 365T280 400T346 412Q407 412 453 388T527
318T554 208Q554 141 525 92T444 17T320 -10Q239 -10 179 30T86 145T53 326Q53 441 89 517T188 632T327 670ZM318 312Q288 312 264 299T226 261T212 206Q212 175 226 151T264 113T318 99Q368 99 396 127T424 206Q424 239 412 262T376 299T318 312Z" />
<glyph unicode="7" glyph-name="seven" horiz-adv-x="576" d="M35 660H544V556Q464 474 417 386T349 201T329 0H190Q191 166 251 311T443 583L471 547H35V660Z" />
<glyph unicode="8" glyph-name="eight" horiz-adv-x="607" d="M303 668Q407 668 469 621T531 491Q531 439 506 400T433 341V340Q490 321 522 280T555 179Q555 121 525 79T438 14T303 -10Q227 -10 171 13T83 79T52 179Q52 239 84 280T175 340V341Q127 360 101 399T75
491Q75 546 104 585T184 646T303 668ZM303 562Q259 562 233 539T207 475Q207 434 233 411T303 387Q347 387 374 410T401 475Q401 516 375 539T303 562ZM303 96Q339 96 364 108T404 141T418 193Q418 223 404 245T365 278T304 290Q269 290 243 279T203 245T189 193Q189
163 203 142T243 108T303 96Z" />
<glyph unicode="9" glyph-name="nine" horiz-adv-x="601" d="M287 670Q372 670 430 630T518 514T548 331Q548 215 515 139T424 27T287 -10Q205 -10 145 26T55 135L182 189Q192 149 218 124T289 99Q326 99 351 115T393 159T416 229T423 322Q423 328 423 332T423
341H419Q409 305 384 283T325 250T258 239Q197 239 150 264T77 336T50 445Q50 515 79 565T161 642T287 670ZM287 559Q237 559 209 530T181 447Q181 400 210 373T287 346Q318 346 342 359T379 396T393 452Q393 485 380 508T342 545T287 559Z" />
<glyph unicode=":" glyph-name="colon" horiz-adv-x="296" d="M151 349Q112 349 88 370T64 429Q64 467 88 488T151 510Q192 510 215 489T238 429Q238 392 215 371T151 349ZM151 -9Q112 -9 88 12T64 71Q64 109 88 130T151 152Q192 152 215 131T238 71Q238 34 215
13T151 -9Z" />
<glyph unicode=";" glyph-name="semicolon" horiz-adv-x="296" d="M146 152Q194 152 217 119T241 39Q241 -1 225 -39T180 -106T114 -152L55 -107Q83 -96 105 -80T142 -43T165 -2L161 1Q156 -3 149 -5T129 -7Q106 -7 83 11T59 67Q59 107 85 129T146 152ZM151 349Q112
349 88 370T64 429Q64 467 88 488T151 510Q192 510 215 489T238 429Q238 392 215 371T151 349Z" />
<glyph unicode="&lt;" glyph-name="less" horiz-adv-x="604" d="M550 14L67 234V361L550 581V449L174 298L550 148V14Z" />
<glyph unicode="=" glyph-name="equal" horiz-adv-x="604" d="M538 469V368H66V469H538ZM538 258V157H66V258H538Z" />
<glyph unicode="&gt;" glyph-name="greater" horiz-adv-x="604" d="M54 581L537 361V234L54 14V146L430 297L54 447V581Z" />
<glyph unicode="?" glyph-name="question" horiz-adv-x="569" d="M210 210L211 361Q274 369 310 382T361 417T377 469Q377 496 366 515T333 545T278 555Q230 555 202 526T165 442L34 492Q45 543 76 583T159 646T288 670Q357 670 410 649T494 588T525 488Q525 427
501 389T435 330T342 304L335 210H210ZM280 -8Q241 -8 218 12T195 68Q195 103 218 124T280 145Q319 145 342 124T365 68Q365 33 342 13T280 -8Z" />
<glyph unicode="@" glyph-name="at" horiz-adv-x="921" d="M463 -187Q342 -187 249 -138T103 4T49 227Q49 324 81 404T173 542T311 631T484 663Q572 663 643 635T766 554T844 432T871 279Q871 205 853 151T804 62T736 10T661 -7Q599 -7 567 25T537 109Q515 61
475 34T384 6Q339 6 304 29T249 96T228 198Q228 251 243 299T287 384T355 443T444 465Q491 465 528 439T576 358L599 456H718L651 157Q648 145 647 135T645 117Q645 89 658 79T692 68Q721 68 746 90T787 159T803 275Q803 347 781 406T716 507T615 573T485 596Q406
596 341 570T227 496T153 380T127 227Q127 114 173 37T296 -80T468 -120Q540 -120 586 -102T666 -59L702 -115Q660 -144 606 -165T463 -187ZM436 97Q470 97 495 123T535 189T550 274Q550 305 540 327T512 360T468 372Q432 372 405 347T362 283T347 201Q347 169
357 146T388 110T436 97Z" />
<glyph unicode="A" glyph-name="A" horiz-adv-x="655" d="M644 0H500L447 162H205L152 0H11L244 660H411L644 0ZM235 263H417L326 552L235 263Z" />
<glyph unicode="B" glyph-name="B" horiz-adv-x="658" d="M84 0V660H370Q486 660 541 614T597 481Q597 428 566 387T473 335V334Q541 323 577 281T613 180Q613 95 554 48T381 0H84ZM219 103H366Q418 103 443 126T469 191Q469 233 444 255T366 277H219V103ZM219
382H350Q401 382 427 403T453 468Q453 510 427 531T350 553H219V382Z" />
<glyph unicode="C" glyph-name="C" horiz-adv-x="667" d="M637 182Q608 85 535 38T362 -10Q267 -10 198 31T90 148T52 330Q52 436 90 512T197 629T361 670Q427 670 481 651T573 594T628 496L503 444Q488 506 454 531T367 557Q314 557 276 531T216 455T195 330Q195
257 215 207T273 130T366 103Q419 103 456 132T508 221L637 182Z" />
<glyph unicode="D" glyph-name="D" horiz-adv-x="704" d="M337 660Q488 660 570 575T652 330Q652 172 570 86T337 0H84V660H337ZM328 109Q412 109 460 162T508 330Q508 408 486 456T424 528T328 551H223V109H328Z" />
<glyph unicode="E" glyph-name="E" horiz-adv-x="617" d="M84 0V660H567V549H223V385H495V279H223V111H580V0H84Z" />
<glyph unicode="F" glyph-name="F" horiz-adv-x="595" d="M566 549H223V381H495V269H223V0H84V660H566V549Z" />
<glyph unicode="G" glyph-name="G" horiz-adv-x="707" d="M347 -10Q259 -10 193 30T89 146T52 329Q52 436 91 512T201 629T368 670Q473 670 538 631T640 506L512 452Q497 506 460 531T369 557Q316 557 277 531T217 454T195 330Q195 255 215 204T276 127T374 100Q407
100 433 109T480 134T511 175T523 233V248H358V348H643V0H545L535 146L559 129Q537 63 484 27T347 -10Z" />
<glyph unicode="H" glyph-name="H" horiz-adv-x="724" d="M640 660V0H500V660H640ZM223 660V0H84V660H223ZM573 389V277H153V389H573Z" />
<glyph unicode="I" glyph-name="I" horiz-adv-x="308" d="M223 660V0H84V660H223Z" />
<glyph unicode="J" glyph-name="J" horiz-adv-x="584" d="M511 660V244Q511 124 445 57T260 -10Q174 -10 121 22T47 113T38 246L173 271Q163 182 184 143T264 103Q307 103 330 123T362 178T371 262V660H511Z" />
<glyph unicode="K" glyph-name="K" horiz-adv-x="663" d="M639 660L346 315L335 329L178 142L155 267L480 660H639ZM223 660V0H84V660H223ZM387 433L648 0H489L280 355L387 433Z" />
<glyph unicode="L" glyph-name="L" horiz-adv-x="584" d="M223 111H557V0H84V660H223V111Z" />
<glyph unicode="M" glyph-name="M" horiz-adv-x="875" d="M791 660V0H666V346L672 535H670L495 0H381L205 535H203L209 346V0H84V660H285L402 294L440 152H442L481 293L597 660H791Z" />
<glyph unicode="N" glyph-name="N" horiz-adv-x="723" d="M639 660V0H482L259 391L206 495H205L209 381V0H84V660H241L464 269L517 165H518L514 279V660H639Z" />
<glyph unicode="O" glyph-name="O" horiz-adv-x="725" d="M363 670Q459 670 528 629T635 512T673 330Q673 224 636 148T529 31T363 -10Q267 -10 198 31T90 148T52 330Q52 436 90 512T197 629T363 670ZM363 557Q310 557 273 531T215 455T195 330Q195 257 215 206T272
129T363 103Q416 103 453 129T510 206T530 330Q530 404 510 454T453 531T363 557Z" />
<glyph unicode="P" glyph-name="P" horiz-adv-x="633" d="M356 660Q466 660 530 604T594 447Q594 346 530 290T356 234H223V0H84V660H356ZM335 343Q394 343 423 369T452 447Q452 499 423 525T335 551H223V343H335Z" />
<glyph unicode="Q" glyph-name="Q" horiz-adv-x="725" d="M517 -200Q458 -200 412 -179T339 -115T312 -5Q312 12 315 29T328 64L415 79Q408 62 404 47T400 20Q400 -25 416 -49T459 -82T518 -92Q557 -92 585 -83T633 -57L657 -159Q633 -179 594 -189T517 -200ZM363
670Q459 670 528 629T635 512T673 330Q673 224 636 148T529 31T363 -10Q267 -10 198 31T90 148T52 330Q52 436 90 512T197 629T363 670ZM363 557Q310 557 273 531T215 455T195 330Q195 257 215 206T272 129T363 103Q416 103 453 129T510 206T530 330Q530 404 510
454T453 531T363 557Z" />
<glyph unicode="R" glyph-name="R" horiz-adv-x="665" d="M371 660Q480 660 542 607T605 461Q605 397 577 353T497 285T371 259L358 253H221V0H84V660H371ZM354 357Q406 357 434 379T463 454Q463 507 434 529T354 551H221V357H354ZM436 328L642 0H486L317 290L436 328Z" />
<glyph unicode="S" glyph-name="S" horiz-adv-x="628" d="M319 670Q407 670 473 640T587 548L513 458Q473 510 425 534T315 559Q275 559 249 549T211 520T199 479Q199 449 221 431T289 403L405 376Q500 354 542 311T585 197Q585 132 552 86T458 15T321 -10Q256
-10 200 6T99 51T25 118L100 213Q123 180 156 155T232 116T321 101Q360 101 386 110T427 138T442 180Q442 206 425 224T362 254L235 283Q182 295 142 317T78 374T54 462Q54 521 86 568T177 642T319 670Z" />
<glyph unicode="T" glyph-name="T" horiz-adv-x="621" d="M594 660V549H380V0H241V549H26V660H594Z" />
<glyph unicode="U" glyph-name="U" horiz-adv-x="694" d="M623 660V261Q623 126 553 58T347 -10Q213 -10 142 58T71 261V660H211V265Q211 186 243 145T347 103Q418 103 450 144T483 265V660H623Z" />
<glyph unicode="V" glyph-name="V" horiz-adv-x="655" d="M642 660L409 0H246L13 660H160L293 237L329 110L365 236L499 660H642Z" />
<glyph unicode="W" glyph-name="W" horiz-adv-x="969" d="M207 0L18 660H166L293 115L421 660H553L683 115L809 660H951L762 0H607L517 358L487 515H485L455 358L366 0H207Z" />
<glyph unicode="X" glyph-name="X" horiz-adv-x="626" d="M611 0H446L309 233L174 0H15L235 334L30 660H194L320 438L447 660H599L393 338L611 0Z" />
<glyph unicode="Y" glyph-name="Y" horiz-adv-x="613" d="M603 660L376 247V0H236V247L10 660H157L257 464L307 357L357 464L457 660H603Z" />
<glyph unicode="Z" glyph-name="Z" horiz-adv-x="615" d="M154 62L130 109H578V0H42V104L456 598L480 551H50V660H566V556L154 62Z" />
<glyph unicode="[" glyph-name="bracketleft" horiz-adv-x="374" d="M346 618H206V-67H346V-168H85V719H346V618Z" />
<glyph unicode="\" glyph-name="backslash" horiz-adv-x="454" d="M20 718H148L435 -70H306L20 718Z" />
<glyph unicode="]" glyph-name="bracketright" horiz-adv-x="374" d="M27 -67H167V618H27V719H288V-168H27V-67Z" />
<glyph unicode="^" glyph-name="asciicircum" horiz-adv-x="594" d="M26 355L237 726H357L568 355H444L297 631L151 355H26Z" />
<glyph unicode="_" glyph-name="underscore" horiz-adv-x="537" d="M537 -76V-189H0V-76H537Z" />
<glyph unicode="`" glyph-name="grave" horiz-adv-x="502" d="M282 741L353 571H250L150 741H282Z" />
<glyph unicode="a" glyph-name="a" horiz-adv-x="558" d="M348 320Q348 362 326 386T264 411Q226 411 199 392T160 328L44 363Q60 430 117 470T271 510Q337 510 385 490T459 428T486 326V123Q486 84 521 84Q529 84 537 85T552 88L544 4Q532 -2 516 -5T479 -8Q445
-8 418 3T375 39T359 102V110L378 114Q374 73 348 45T284 4T204 -10Q132 -10 87 25T41 127Q41 180 74 216T175 266L363 306V225L248 201Q214 194 196 180T178 139Q178 113 196 99T244 85Q264 85 283 90T316 108T339 139T348 184V320Z" />
<glyph unicode="b" glyph-name="b" horiz-adv-x="616" d="M362 -10Q293 -10 246 34T186 145L200 163L192 0H71V718H209V356L195 376Q211 435 255 472T367 510Q425 510 471 479T544 390T571 249Q571 168 544 110T470 21T362 -10ZM320 95Q373 95 402 134T432 250Q432
326 403 365T320 405Q286 405 261 386T223 332T209 249Q209 200 223 166T262 113T320 95Z" />
<glyph unicode="c" glyph-name="c" horiz-adv-x="554" d="M293 510Q360 510 406 490T479 437T518 362L390 316Q381 362 359 385T295 408Q259 408 233 390T194 337T181 249Q181 196 195 161T235 109T296 92Q325 92 345 102T378 133T396 182L520 141Q511 97 482
63T406 9T297 -10Q221 -10 164 21T74 110T42 250Q42 332 74 390T162 479T293 510Z" />
<glyph unicode="d" glyph-name="d" horiz-adv-x="616" d="M253 -10Q193 -10 146 20T73 109T46 249Q46 332 73 390T149 479T258 510Q324 510 366 472T421 371L407 355V718H545V0H422L412 156L429 147Q422 99 398 64T336 9T253 -10ZM296 95Q330 95 354 113T393 167T407
254Q407 302 394 335T356 387T298 405Q245 405 215 366T184 250Q184 174 213 135T296 95Z" />
<glyph unicode="e" glyph-name="e" horiz-adv-x="567" d="M298 -10Q221 -10 164 20T74 109T42 250Q42 332 74 390T162 479T291 510Q365 510 417 480T498 396T526 275Q526 257 525 242T522 215H132V297H461L394 274Q394 317 382 347T347 393T291 409Q254 409 228
391T188 338T174 248Q174 195 189 160T232 108T298 91Q339 91 365 108T406 157L516 115Q501 75 469 47T392 5T298 -10Z" />
<glyph unicode="f" glyph-name="f" horiz-adv-x="396" d="M285 729Q321 729 348 721T390 702L373 612Q362 619 348 623T315 627Q279 627 257 610T234 549V480L241 453V0H103V558Q103 616 127 654T192 710T285 729ZM386 500V398H20V500H386Z" />
<glyph unicode="g" glyph-name="g" horiz-adv-x="540" d="M525 620L540 523Q535 524 530 524T521 525Q477 525 454 504T431 446L377 468Q377 509 392 544T438 600T513 621Q515 621 518 621T525 620ZM362 94Q442 94 486 59T530 -39Q530 -97 498 -136T407 -195T270
-215Q143 -215 85 -179T26 -86Q26 -44 58 -16T161 14L156 -1Q105 7 78 34T50 105Q50 149 85 179T179 213L239 186H224Q183 184 166 170T148 137Q148 116 163 105T210 94H362ZM272 -122Q321 -122 354 -114T403 -91T420 -58Q420 -37 405 -26T354 -15H187Q164 -15
149 -28T133 -61Q133 -88 170 -105T272 -122ZM273 510Q343 510 393 490T471 431T498 341Q498 289 471 251T393 193T273 172Q163 172 106 217T48 341Q48 393 75 431T152 489T273 510ZM273 426Q234 426 209 404T184 341Q184 302 209 280T273 257Q311 257 336 279T362
341Q362 381 337 403T273 426Z" />
<glyph unicode="h" glyph-name="h" horiz-adv-x="608" d="M71 0V718H209V412Q232 461 273 485T367 510Q418 510 457 490T518 430T541 329V0H403V290Q403 352 379 377T317 403Q290 403 265 389T225 345T209 265V0H71Z" />
<glyph unicode="i" glyph-name="i" horiz-adv-x="280" d="M209 500V0H71V500H209ZM142 570Q98 570 77 588T55 645Q55 682 76 700T142 719Q186 719 207 701T228 645Q228 607 207 589T142 570Z" />
<glyph unicode="j" glyph-name="j" horiz-adv-x="274" d="M28 -215Q-9 -215 -38 -207T-90 -183L-69 -87Q-58 -96 -41 -102T-3 -109Q28 -109 46 -90T65 -24V500H203V-36Q203 -101 181 -140T119 -197T28 -215ZM390 570Q346 570 325 588T303 645Q303 682 324 700T390
719Q434 719 455 701T476 645Q476 607 455 589T390 570Z" />
<glyph unicode="k" glyph-name="k" horiz-adv-x="591" d="M573 500L346 257L319 246L174 86L173 232L416 500H573ZM209 718V0H71V718H209ZM365 341L584 0H429L271 260L365 341Z" />
<glyph unicode="l" glyph-name="l" horiz-adv-x="308" d="M206 718V155Q206 123 216 107T254 91Q269 91 279 93T304 101L294 11Q278 2 252 -4T203 -10Q126 -10 97 30T68 140V718H206Z" />
<glyph unicode="m" glyph-name="m" horiz-adv-x="936" d="M71 0V500H194L199 407Q223 458 267 484T364 510Q418 510 461 485T525 409Q540 443 566 465T626 499T694 510Q743 510 782 490T845 430T869 329V0H731V301Q731 355 707 378T646 402Q616 402 592 387T554
343T539 271V0H401V301Q401 355 377 378T317 402Q290 402 265 388T225 344T209 266V0H71Z" />
<glyph unicode="n" glyph-name="n" horiz-adv-x="608" d="M71 0V500H194L202 347L186 363Q203 436 251 473T367 510Q418 510 457 490T518 429T541 329V0H403V291Q403 352 379 377T317 402Q290 402 265 389T225 345T209 267V0H71Z" />
<glyph unicode="o" glyph-name="o" horiz-adv-x="589" d="M294 510Q368 510 425 479T514 390T547 250Q547 168 515 110T425 21T294 -10Q220 -10 163 21T74 110T42 250Q42 332 74 390T163 479T294 510ZM294 408Q259 408 234 391T195 338T181 250Q181 197 194 162T233
110T294 92Q330 92 355 109T394 162T408 250Q408 303 394 338T355 390T294 408Z" />
<glyph unicode="p" glyph-name="p" horiz-adv-x="616" d="M71 -210V500H195L203 337L186 355Q199 423 246 466T364 510Q425 510 471 480T544 391T571 251Q571 169 544 111T469 21T362 -10Q297 -10 254 28T195 124L209 145V-210H71ZM320 95Q372 95 402 134T432
250Q432 326 403 365T322 405Q288 405 263 387T223 334T209 250Q209 202 222 168T260 114T320 95Z" />
<glyph unicode="q" glyph-name="q" horiz-adv-x="616" d="M407 -210V158L423 140Q412 71 366 31T253 -10Q193 -10 147 21T73 110T46 251Q46 334 73 391T149 479T257 510Q326 510 373 466T430 350L413 340L421 500H545V-210H407ZM296 95Q330 95 355 114T393 168T407
252Q407 302 393 336T355 388T297 405Q244 405 214 366T184 250Q184 174 213 135T296 95Z" />
<glyph unicode="r" glyph-name="r" horiz-adv-x="411" d="M71 0V500H192L199 399Q217 452 254 481T347 510Q364 510 377 507T400 499L384 383Q376 387 362 389T325 392Q295 392 269 377T226 333T209 259V0H71Z" />
<glyph unicode="s" glyph-name="s" horiz-adv-x="520" d="M265 -10Q192 -10 131 16T31 93L104 171Q127 133 168 110T262 87Q298 87 321 100T345 138Q345 155 334 167T290 186L208 203Q122 222 86 258T50 352Q50 393 74 428T147 487T267 510Q341 510 395 485T480
415L407 340Q386 376 349 394T273 413Q245 413 226 407T197 389T187 361Q187 344 201 331T249 311L348 291Q421 276 452 241T484 156Q484 84 428 37T265 -10Z" />
<glyph unicode="t" glyph-name="t" horiz-adv-x="418" d="M244 653V165Q244 127 262 110T312 93Q336 93 354 100T387 120L407 30Q383 12 348 1T275 -10Q199 -10 153 24T107 142V615L244 653ZM399 500V398H19V500H399Z" />
<glyph unicode="u" glyph-name="u" horiz-adv-x="606" d="M239 -10Q190 -10 151 8T90 65T67 168V500H205V201Q205 149 225 124T293 98Q314 98 333 106T366 130T389 171T397 229V500H535V0H412L408 90Q392 57 368 35T311 1T239 -10Z" />
<glyph unicode="v" glyph-name="v" horiz-adv-x="537" d="M390 500H533L349 0H188L4 500H151L269 104L390 500Z" />
<glyph unicode="w" glyph-name="w" horiz-adv-x="868" d="M709 500H855L699 0H538L432 340L329 0H169L12 500H159L256 116L366 500H502L611 116L709 500Z" />
<glyph unicode="x" glyph-name="x" horiz-adv-x="559" d="M182 500L309 280L350 281L545 0H385L252 226L209 229L20 500H182ZM540 500L354 232L309 234L169 0H13L213 283L255 278L384 500H540Z" />
<glyph unicode="y" glyph-name="y" horiz-adv-x="537" d="M533 500L340 -28Q316 -95 288 -136T220 -196T125 -215Q86 -215 54 -206T-2 -181L28 -83Q45 -98 65 -104T113 -110Q146 -110 164 -96T194 -50L211 -7L156 124L7 500H160L251 197L276 99L305 203L394 500H533Z" />
<glyph unicode="z" glyph-name="z" horiz-adv-x="510" d="M42 0V88L256 345L310 402L231 400H43V500H463V412L251 157L195 98L283 100H472V0H42Z" />
<glyph unicode="{" glyph-name="braceleft" horiz-adv-x="394" d="M361 -190Q246 -190 197 -154T148 -35V124Q148 180 122 204T36 228V322Q96 322 122 346T148 426V586Q148 667 197 704T361 741V649Q308 649 285 632T262 575V401Q262 350 236 319T161 276Q210
263 236 232T262 151V-23Q262 -62 285 -80T361 -98V-190Z" />
<glyph unicode="|" glyph-name="bar" horiz-adv-x="292" d="M207 719V-168H85V719H207Z" />
<glyph unicode="}" glyph-name="braceright" horiz-adv-x="394" d="M33 741Q148 741 197 705T246 586V427Q246 371 271 347T358 323V228Q297 228 272 204T246 125V-35Q246 -116 197 -153T33 -190V-98Q86 -98 109 -81T132 -24V150Q132 201 158 232T233 275Q184
288 158 319T132 400V574Q132 614 109 631T33 649V741Z" />
<glyph unicode="~" glyph-name="asciitilde" horiz-adv-x="576" d="M533 412Q528 325 491 280T384 235Q349 235 325 245T281 268T245 292T208 302Q184 302 172 286T154 238H43Q48 325 85 370T193 415Q227 415 252 405T295 382T331 358T368 348Q391 348 404 364T422
412H533Z" />
<glyph unicode="&#xa0;" glyph-name="uni00A0" horiz-adv-x="302" />
<glyph unicode="&#xa1;" glyph-name="exclamdown" horiz-adv-x="283" d="M70 -160V80L86 289H198L214 80V-160H70ZM142 357Q103 357 81 377T58 433Q58 468 80 488T142 508Q181 508 203 488T226 433Q226 397 204 377T142 357Z" />
<glyph unicode="&#xa2;" glyph-name="cent" horiz-adv-x="562" d="M306 -10Q228 -10 170 21T81 110T50 250Q50 332 81 390T169 479T302 510Q368 510 413 491T485 438T525 362L418 320Q409 367 381 393T307 419Q246 419 209 378T171 249Q171 161 209 121T307 81Q338
81 362 91T401 124T423 178L528 142Q517 96 488 62T413 9T306 -10ZM256 -100V600H346V-100H256Z" />
<glyph unicode="&#xa3;" glyph-name="sterling" horiz-adv-x="605" d="M62 274V345H463V274H62ZM155 -10Q104 -10 72 14T39 80Q39 121 74 146T162 171Q204 171 234 163T287 142T331 117T374 96T425 87Q462 87 479 108T496 175L588 167Q593 86 556 38T449 -10Q410
-10 378 2T319 32T267 68T216 98T160 110Q138 110 128 102T117 80Q117 66 129 58T160 49Q190 49 206 63T227 102T232 160Q232 202 218 237T172 322Q152 357 140 382T124 430T119 476Q119 533 147 576T226 645T345 670Q433 670 488 628T562 502L449 455Q436 510
411 538T339 566Q294 566 266 541T237 470Q237 454 241 438T254 403T278 354Q301 310 315 269T329 189Q329 142 311 96T254 20T155 -10Z" />
<glyph unicode="&#xa4;" glyph-name="currency" horiz-adv-x="650" d="M326 537Q388 537 435 511T509 438T536 330Q536 269 510 222T436 148T326 121Q264 121 216 148T141 222T114 330Q114 391 141 437T216 510T326 537ZM326 435Q281 435 253 406T225 330Q225
282 253 253T326 224Q370 224 397 253T425 330Q425 377 398 406T326 435ZM128 607L255 470L185 401L47 526L128 607ZM184 259L253 189L128 51L47 132L184 259ZM467 255L603 132L522 51L397 185L467 255ZM522 607L603 526L470 401L399 472L522 607Z" />
<glyph unicode="&#xa5;" glyph-name="yen" horiz-adv-x="635" d="M252 0V117H66V173H252V243H66V301H184L237 297L24 660H170L275 443L317 345H319L361 444L465 660H611L398 297L451 301H570V243H383V173H570V117H383V0H252Z" />
<glyph unicode="&#xa6;" glyph-name="brokenbar" horiz-adv-x="292" d="M207 719V344H85V719H207ZM207 206V-168H85V206H207Z" />
<glyph unicode="&#xa7;" glyph-name="section" horiz-adv-x="592" d="M404 112L350 176Q388 181 413 190T450 214T462 250Q462 277 444 293T383 318L227 347Q158 361 123 401T87 495Q87 547 114 586T190 648T306 670Q380 670 432 645T521 573L444 505Q417 542
381 559T300 576Q247 576 221 557T195 510Q195 484 213 468T286 441L392 422Q455 410 493 390T548 342T565 275Q565 208 523 166T404 112ZM288 -110Q207 -110 146 -83T54 -11L130 59Q154 23 195 3T291 -18Q341 -18 371 0T402 50Q402 70 386 84T328 107L180 138Q134
148 100 166T46 214T26 290Q26 333 45 363T99 413T177 440L222 378Q191 370 170 361T139 338T129 306Q129 277 151 261T216 236L363 208Q411 199 443 180T491 132T507 62Q507 10 481 -28T406 -88T288 -110Z" />
<glyph unicode="&#xa8;" glyph-name="dieresis" horiz-adv-x="502" d="M145 703Q180 703 200 685T220 634Q220 602 200 584T145 565Q111 565 91 583T71 634Q71 666 91 684T145 703ZM356 703Q391 703 411 685T431 634Q431 602 411 584T356 565Q321 565 302 583T282
634Q282 666 301 684T356 703Z" />
<glyph unicode="&#xa9;" glyph-name="copyright" horiz-adv-x="786" d="M393 -10Q293 -10 216 34T94 154T50 330Q50 429 94 505T215 626T393 670Q495 670 572 626T692 506T736 330Q736 231 693 155T572 34T393 -10ZM393 66Q472 66 531 100T623 194T656 330Q656
406 623 466T531 560T393 594Q315 594 256 560T163 466T130 330Q130 254 163 195T255 101T393 66ZM400 140Q311 140 262 190T213 329Q213 416 262 467T400 518Q464 518 506 490T566 412L482 372Q471 399 452 410T403 422Q362 422 339 398T315 329Q315 285 338 260T403
235Q433 235 454 247T487 289L566 252Q544 195 504 168T400 140Z" />
<glyph unicode="&#xaa;" glyph-name="ordfeminine" horiz-adv-x="416" d="M140 313Q87 313 57 338T27 403Q27 445 53 467T140 502L251 523V476L180 459Q152 454 141 443T129 415Q129 398 141 389T172 379Q187 379 202 385T228 404T239 442V535Q239 561 225 575T186
590Q162 590 142 578T113 533L29 558Q39 605 79 634T188 663Q265 663 304 631T344 534V409Q344 392 352 386T372 379Q387 379 393 382L386 324Q376 319 364 316T336 313Q299 313 277 333T254 392V411L268 404Q263 379 246 359T201 326T140 313ZM32 168V244H379V168H32Z"
/>
<glyph unicode="&#xab;" glyph-name="guillemotleft" horiz-adv-x="550" d="M291 461L167 265L291 69H166L40 265L166 461H291ZM509 461L385 265L509 69H384L258 265L384 461H509Z" />
<glyph unicode="&#xac;" glyph-name="logicalnot" horiz-adv-x="604" d="M544 316V110H428V316H544ZM544 374V270H60V374H544Z" />
<glyph unicode="&#xad;" glyph-name="uni00AD" horiz-adv-x="0" />
<glyph unicode="&#xae;" glyph-name="registered" horiz-adv-x="786" d="M393 -10Q293 -10 216 34T94 154T50 330Q50 429 94 505T215 626T393 670Q495 670 572 627T692 507T736 330Q736 231 693 155T572 34T393 -10ZM452 148L368 295L443 318L556 148H452ZM393
66Q472 66 531 100T623 194T656 330Q656 406 623 466T531 560T393 594Q315 594 256 560T163 466T130 330Q130 254 163 195T255 101T393 66ZM250 148V514H415Q473 514 510 482T548 396Q548 340 510 309T407 278H338V148H250ZM338 339H398Q427 339 443 352T459 391Q459
418 443 430T398 443H338V339Z" />
<glyph unicode="&#xaf;" glyph-name="overscore" horiz-adv-x="502" d="M426 669V578H76V669H426Z" />
<glyph unicode="&#xb0;" glyph-name="degree" horiz-adv-x="480" d="M240 314Q183 314 140 336T74 399T50 492Q50 546 73 586T140 648T240 670Q298 670 340 648T406 586T430 492Q430 439 407 399T341 337T240 314ZM240 407Q278 407 302 431T326 493Q326 530 302
554T240 578Q202 578 178 554T154 493Q154 455 178 431T240 407Z" />
<glyph unicode="&#xb1;" glyph-name="plusminus" horiz-adv-x="604" d="M355 647V173H250V647H355ZM550 461V360H54V461H550ZM550 99V1H54V99H550Z" />
<glyph unicode="&#xb2;" glyph-name="uni00B2" horiz-adv-x="379" d="M33 333V399Q56 414 79 428T122 457Q166 489 191 513T228 558T239 599Q239 623 225 638T182 654Q153 654 136 633T119 572L20 595Q23 660 67 697T185 735Q243 735 278 716T331 668T348 606Q348
580 336 554T300 503T239 452Q224 442 206 432T168 413V412Q182 413 206 414T248 415H355V333H33Z" />
<glyph unicode="&#xb3;" glyph-name="uni00B3" horiz-adv-x="369" d="M187 735Q257 735 295 705T333 624Q333 582 309 559T251 533V531Q290 530 315 508T341 443Q341 390 295 359T177 327Q109 327 69 353T14 430L110 463Q115 433 132 419T178 404Q205 404 221
418T238 455Q238 480 221 490T172 500Q168 500 165 500T156 499V558Q160 557 164 557T170 557Q199 557 214 569T230 606Q230 630 216 642T178 655Q153 655 137 642T117 601L24 629Q36 682 79 708T187 735Z" />
<glyph unicode="&#xb4;" glyph-name="acute" horiz-adv-x="560" d="M249 741H381L282 571H179L249 741Z" />
<glyph unicode="&#xb5;" glyph-name="uni00B5" horiz-adv-x="611" d="M71 -210V500H209V203Q209 152 230 125T296 98Q325 98 349 112T387 156T402 236V500H540V0H419L413 90Q392 41 353 16T267 -9Q242 -9 219 -1T179 24L209 66V-210H71Z" />
<glyph unicode="&#xb6;" glyph-name="paragraph" horiz-adv-x="712" d="M295 -100V184Q220 185 162 213T70 294T36 422Q36 498 71 551T169 632T315 660H639V-100H525V553H410V-100H295ZM293 291V553Q247 553 215 537T167 491T150 422Q150 382 167 353T215 307T293 291Z" />
<glyph unicode="&#xb7;" glyph-name="middot" horiz-adv-x="257" d="M132 274Q92 274 69 295T45 354Q45 391 68 413T132 435Q172 435 195 413T219 354Q219 317 196 296T132 274Z" />
<glyph unicode="&#xb8;" glyph-name="cedilla" horiz-adv-x="504" d="M190 8L231 33Q302 20 335 -12T368 -94Q368 -147 332 -180T236 -214Q200 -214 177 -206T135 -185L160 -113Q172 -121 187 -127T223 -134Q250 -134 266 -118T283 -72Q283 -48 263 -30T190 8Z" />
<glyph unicode="&#xb9;" glyph-name="uni00B9" horiz-adv-x="275" d="M142 730H229V333H126V563Q126 577 127 594T129 630Q106 611 78 597T16 577V663Q37 666 62 676T109 701T142 730Z" />
<glyph unicode="&#xba;" glyph-name="ordmasculine" horiz-adv-x="399" d="M199 313Q122 313 76 359T29 488Q29 571 75 617T199 663Q277 663 324 617T371 488Q371 406 324 360T199 313ZM36 168V244H362V168H36ZM199 384Q233 384 249 410T265 488Q265 540 249 566T199
592Q166 592 150 566T134 488Q134 436 150 410T199 384Z" />
<glyph unicode="&#xbb;" glyph-name="guillemotright" horiz-adv-x="550" d="M259 69L383 265L259 461H384L510 265L384 69H259ZM41 69L164 265L41 461H166L292 265L166 69H41Z" />
<glyph unicode="&#xbc;" glyph-name="onequarter" horiz-adv-x="837" d="M142 921H229V524H126V754Q126 768 127 785T129 821Q106 802 78 788T16 768V854Q37 857 62 867T109 892T142 921ZM109 0L580 661H684L213 0H109ZM821 156V87H757V-4H668V87H470V135L636
394H757V156H821ZM561 156H668V249Q668 268 669 288T671 327H668Q662 315 654 299T637 269L561 156Z" />
<glyph unicode="&#xbd;" glyph-name="onehalf" horiz-adv-x="897" d="M142 921H229V524H126V754Q126 768 127 785T129 821Q106 802 78 788T16 768V854Q37 857 62 867T109 892T142 921ZM109 0L580 661H684L213 0H109ZM551 -4V62Q574 77 597 91T640 120Q684 152
709 176T746 221T757 262Q757 286 743 301T700 317Q671 317 654 296T637 235L538 258Q541 323 585 360T703 398Q761 398 796 379T849 331T866 269Q866 243 854 217T818 166T757 115Q742 105 724 95T686 76V75Q700 76 724 77T766 78H873V-4H551Z" />
<glyph unicode="&#xbe;" glyph-name="threequarters" horiz-adv-x="930" d="M187 926Q257 926 295 896T333 815Q333 773 309 750T251 724V722Q290 721 315 699T341 634Q341 581 295 550T177 518Q109 518 69 544T14 621L110 654Q115 624 132 610T178 595Q205 595
221 609T238 646Q238 671 221 681T172 691Q168 691 165 691T156 690V749Q160 748 164 748T170 748Q199 748 214 760T230 797Q230 821 216 833T178 846Q153 846 137 833T117 792L24 820Q36 873 79 899T187 926ZM203 0L674 661H778L307 0H203ZM914 156V87H850V-4H761V87H563V135L729
394H850V156H914ZM654 156H761V249Q761 268 762 288T764 327H761Q755 315 747 299T730 269L654 156Z" />
<glyph unicode="&#xbf;" glyph-name="questiondown" horiz-adv-x="569" d="M359 291L358 140Q295 132 259 118T208 83T192 32Q192 4 203 -15T236 -45T291 -55Q339 -55 368 -25T404 59L535 8Q524 -43 493 -83T410 -146T281 -170Q212 -170 159 -149T75 -88T44 13Q44
73 68 111T134 170T227 197L234 291H359ZM289 509Q328 509 351 489T374 433Q374 397 351 376T289 355Q250 355 227 376T204 433Q204 468 227 488T289 509Z" />
<glyph unicode="&#xc0;" glyph-name="Agrave" horiz-adv-x="655" d="M644 0H500L447 162H205L152 0H11L244 660H411L644 0ZM235 263H417L326 552L235 263ZM329 891L392 730H290L202 891H329Z" />
<glyph unicode="&#xc1;" glyph-name="Aacute" horiz-adv-x="655" d="M644 0H500L447 162H205L152 0H11L244 660H411L644 0ZM235 263H417L326 552L235 263ZM329 891H456L369 730H266L329 891Z" />
<glyph unicode="&#xc2;" glyph-name="Acircumflex" horiz-adv-x="655" d="M644 0H500L447 162H205L152 0H11L244 660H411L644 0ZM235 263H417L326 552L235 263ZM499 730H398L327 827L256 730H155L258 891H396L499 730Z" />
<glyph unicode="&#xc3;" glyph-name="Atilde" horiz-adv-x="655" d="M644 0H500L447 162H205L152 0H11L244 660H411L644 0ZM235 263H417L326 552L235 263ZM518 876Q514 802 482 765T400 727Q372 727 353 736T318 758T289 779T260 788Q241 788 232 773T218 728H135Q139
802 171 839T259 877Q286 877 305 868T338 846T365 825T392 816Q411 816 421 831T435 876H518Z" />
<glyph unicode="&#xc4;" glyph-name="Adieresis" horiz-adv-x="655" d="M644 0H500L447 162H205L152 0H11L244 660H411L644 0ZM235 263H417L326 552L235 263ZM221 863Q256 863 276 845T296 794Q296 762 276 744T221 725Q187 725 167 743T147 794Q147 826 167 844T221
863ZM432 863Q467 863 487 845T507 794Q507 762 487 744T432 725Q397 725 378 743T358 794Q358 826 377 844T432 863Z" />
<glyph unicode="&#xc5;" glyph-name="Aring" horiz-adv-x="655" d="M644 0H500L447 162H205L152 0H11L244 660H411L644 0ZM235 263H417L326 552L235 263ZM326 842Q386 842 422 809T459 721Q459 665 423 632T326 599Q266 599 230 632T193 721Q193 776 229 809T326
842ZM326 778Q300 778 284 762T267 721Q267 696 283 680T326 663Q353 663 369 679T385 721Q385 746 369 762T326 778Z" />
<glyph unicode="&#xc6;" glyph-name="AE" horiz-adv-x="912" d="M551 107H875V0H420V203H231L141 0H-1L307 660H861V553H551V383H788V281H551V107ZM267 301H420V556H385L267 301Z" />
<glyph unicode="&#xc7;" glyph-name="Ccedilla" horiz-adv-x="667" d="M637 182Q608 85 535 38T362 -10Q267 -10 198 31T90 148T52 330Q52 436 90 512T197 629T361 670Q427 670 481 651T573 594T628 496L503 444Q488 506 454 531T367 557Q314 557 276 531T216
455T195 330Q195 257 215 207T273 130T366 103Q419 103 456 132T508 221L637 182ZM286 8L327 33Q398 20 431 -12T464 -94Q464 -147 428 -180T332 -214Q296 -214 273 -206T231 -185L256 -113Q268 -121 283 -127T319 -134Q346 -134 362 -118T379 -72Q379 -48 359
-30T286 8Z" />
<glyph unicode="&#xc8;" glyph-name="Egrave" horiz-adv-x="617" d="M84 0V660H567V549H223V385H495V279H223V111H580V0H84ZM323 891L386 730H284L196 891H323Z" />
<glyph unicode="&#xc9;" glyph-name="Eacute" horiz-adv-x="617" d="M84 0V660H567V549H223V385H495V279H223V111H580V0H84ZM330 891H457L370 730H267L330 891Z" />
<glyph unicode="&#xca;" glyph-name="Ecircumflex" horiz-adv-x="617" d="M84 0V660H567V549H223V385H495V279H223V111H580V0H84ZM497 730H396L325 827L254 730H153L256 891H394L497 730Z" />
<glyph unicode="&#xcb;" glyph-name="Edieresis" horiz-adv-x="617" d="M84 0V660H567V549H223V385H495V279H223V111H580V0H84ZM219 863Q254 863 274 845T294 794Q294 762 274 744T219 725Q185 725 165 743T145 794Q145 826 165 844T219 863ZM430 863Q465 863
485 845T505 794Q505 762 485 744T430 725Q395 725 376 743T356 794Q356 826 375 844T430 863Z" />
<glyph unicode="&#xcc;" glyph-name="Igrave" horiz-adv-x="308" d="M223 660V0H84V660H223ZM146 891L209 730H107L19 891H146Z" />
<glyph unicode="&#xcd;" glyph-name="Iacute" horiz-adv-x="308" d="M223 660V0H84V660H223ZM161 891H288L201 730H98L161 891Z" />
<glyph unicode="&#xce;" glyph-name="Icircumflex" horiz-adv-x="308" d="M223 660V0H84V660H223ZM326 730H225L154 827L83 730H-18L85 891H223L326 730Z" />
<glyph unicode="&#xcf;" glyph-name="Idieresis" horiz-adv-x="308" d="M57 863Q91 863 111 845T131 794Q131 762 111 744T57 725Q24 725 5 743T-15 794Q-15 826 4 844T57 863ZM249 863Q283 863 302 845T322 794Q322 762 303 744T249 725Q215 725 196 743T176
794Q176 826 195 844T249 863ZM223 660V0H84V660H223Z" />
<glyph unicode="&#xd0;" glyph-name="Eth" horiz-adv-x="709" d="M16 280V382H397V280H16ZM337 660Q488 660 570 575T652 330Q652 172 570 86T337 0H84V660H337ZM328 109Q412 109 460 162T508 330Q508 408 486 456T424 528T328 551H223V109H328Z" />
<glyph unicode="&#xd1;" glyph-name="Ntilde" horiz-adv-x="723" d="M639 660V0H482L259 391L206 495H205L209 381V0H84V660H241L464 269L517 165H518L514 279V660H639ZM555 876Q551 802 519 765T437 727Q409 727 390 736T355 758T326 779T297 788Q278 788 269
773T255 728H172Q176 802 208 839T296 877Q323 877 342 868T375 846T402 825T429 816Q448 816 458 831T472 876H555Z" />
<glyph unicode="&#xd2;" glyph-name="Ograve" horiz-adv-x="725" d="M363 670Q459 670 528 629T635 512T673 330Q673 224 636 148T529 31T363 -10Q267 -10 198 31T90 148T52 330Q52 436 90 512T197 629T363 670ZM363 557Q310 557 273 531T215 455T195 330Q195
257 215 206T272 129T363 103Q416 103 453 129T510 206T530 330Q530 404 510 454T453 531T363 557ZM362 891L425 730H323L235 891H362Z" />
<glyph unicode="&#xd3;" glyph-name="Oacute" horiz-adv-x="725" d="M363 670Q459 670 528 629T635 512T673 330Q673 224 636 148T529 31T363 -10Q267 -10 198 31T90 148T52 330Q52 436 90 512T197 629T363 670ZM363 557Q310 557 273 531T215 455T195 330Q195
257 215 206T272 129T363 103Q416 103 453 129T510 206T530 330Q530 404 510 454T453 531T363 557ZM365 891H492L405 730H302L365 891Z" />
<glyph unicode="&#xd4;" glyph-name="Ocircumflex" horiz-adv-x="725" d="M363 670Q459 670 528 629T635 512T673 330Q673 224 636 148T529 31T363 -10Q267 -10 198 31T90 148T52 330Q52 436 90 512T197 629T363 670ZM363 557Q310 557 273 531T215 455T195 330Q195
257 215 206T272 129T363 103Q416 103 453 129T510 206T530 330Q530 404 510 454T453 531T363 557ZM535 730H434L363 827L292 730H191L294 891H432L535 730Z" />
<glyph unicode="&#xd5;" glyph-name="Otilde" horiz-adv-x="725" d="M363 670Q459 670 528 629T635 512T673 330Q673 224 636 148T529 31T363 -10Q267 -10 198 31T90 148T52 330Q52 436 90 512T197 629T363 670ZM363 557Q310 557 273 531T215 455T195 330Q195
257 215 206T272 129T363 103Q416 103 453 129T510 206T530 330Q530 404 510 454T453 531T363 557ZM554 876Q550 802 518 765T436 727Q408 727 389 736T354 758T325 779T296 788Q277 788 268 773T254 728H171Q175 802 207 839T295 877Q322 877 341 868T374 846T401
825T428 816Q447 816 457 831T471 876H554Z" />
<glyph unicode="&#xd6;" glyph-name="Odieresis" horiz-adv-x="725" d="M363 670Q459 670 528 629T635 512T673 330Q673 224 636 148T529 31T363 -10Q267 -10 198 31T90 148T52 330Q52 436 90 512T197 629T363 670ZM363 557Q310 557 273 531T215 455T195 330Q195
257 215 206T272 129T363 103Q416 103 453 129T510 206T530 330Q530 404 510 454T453 531T363 557ZM257 863Q292 863 312 845T332 794Q332 762 312 744T257 725Q223 725 203 743T183 794Q183 826 203 844T257 863ZM468 863Q503 863 523 845T543 794Q543 762 523
744T468 725Q433 725 414 743T394 794Q394 826 413 844T468 863Z" />
<glyph unicode="&#xd7;" glyph-name="multiply" horiz-adv-x="604" d="M462 86L539 163L142 560L64 483L462 86ZM142 86L539 483L462 560L64 163L142 86Z" />
<glyph unicode="&#xd8;" glyph-name="Oslash" horiz-adv-x="725" d="M242 97L195 135L488 543L536 507L242 97ZM70 -30L184 122L233 85L145 -30H70ZM553 526L503 564L594 682H669L553 526ZM363 670Q459 670 528 629T635 512T673 330Q673 224 636 148T529 31T363
-10Q267 -10 198 31T90 148T52 330Q52 436 90 512T197 629T363 670ZM363 557Q310 557 273 531T215 455T195 330Q195 257 215 206T272 129T363 103Q416 103 453 129T510 206T530 330Q530 404 510 454T453 531T363 557Z" />
<glyph unicode="&#xd9;" glyph-name="Ugrave" horiz-adv-x="694" d="M623 660V261Q623 126 553 58T347 -10Q213 -10 142 58T71 261V660H211V265Q211 186 243 145T347 103Q418 103 450 144T483 265V660H623ZM350 877L413 716H311L223 877H350Z" />
<glyph unicode="&#xda;" glyph-name="Uacute" horiz-adv-x="694" d="M623 660V261Q623 126 553 58T347 -10Q213 -10 142 58T71 261V660H211V265Q211 186 243 145T347 103Q418 103 450 144T483 265V660H623ZM349 875H476L389 714H286L349 875Z" />
<glyph unicode="&#xdb;" glyph-name="Ucircumflex" horiz-adv-x="694" d="M623 660V261Q623 126 553 58T347 -10Q213 -10 142 58T71 261V660H211V265Q211 186 243 145T347 103Q418 103 450 144T483 265V660H623ZM519 714H418L347 811L276 714H175L278 875H416L519 714Z" />
<glyph unicode="&#xdc;" glyph-name="Udieresis" horiz-adv-x="694" d="M623 660V261Q623 126 553 58T347 -10Q213 -10 142 58T71 261V660H211V265Q211 186 243 145T347 103Q418 103 450 144T483 265V660H623ZM241 847Q276 847 296 829T316 778Q316 746 296 728T241
709Q207 709 187 727T167 778Q167 810 187 828T241 847ZM452 847Q487 847 507 829T527 778Q527 746 507 728T452 709Q417 709 398 727T378 778Q378 810 397 828T452 847Z" />
<glyph unicode="&#xdd;" glyph-name="Yacute" horiz-adv-x="613" d="M603 660L376 247V0H236V247L10 660H157L257 464L307 357L357 464L457 660H603ZM308 878H435L348 717H245L308 878Z" />
<glyph unicode="&#xde;" glyph-name="Thorn" horiz-adv-x="642" d="M352 553Q472 553 535 498T599 337Q599 232 536 177T352 122H154V230H341Q458 230 458 338Q458 393 429 418T341 444H154V553H352ZM223 660V0H84V660H223Z" />
<glyph unicode="&#xdf;" glyph-name="germandbls" horiz-adv-x="628" d="M414 370Q471 370 510 346T568 281T588 192Q588 138 567 92T500 18T385 -10Q340 -10 307 0T255 23L281 118Q296 108 314 101T362 94Q406 94 431 125T457 206Q457 260 427 288T338 316H283L295
417H330Q380 417 406 447T433 522Q433 571 404 594T329 618Q283 618 257 600T220 546T209 457V0H71V473Q71 550 97 605T181 692T335 723Q412 723 463 699T541 633T568 540Q568 499 551 461T499 399T414 372V370Z" />
<glyph unicode="&#xe0;" glyph-name="agrave" horiz-adv-x="558" d="M348 320Q348 362 326 386T264 411Q226 411 199 392T160 328L44 363Q60 430 117 470T271 510Q337 510 385 490T459 428T486 326V123Q486 84 521 84Q529 84 537 85T552 88L544 4Q532 -2 516 -5T479
-8Q445 -8 418 3T375 39T359 102V110L378 114Q374 73 348 45T284 4T204 -10Q132 -10 87 25T41 127Q41 180 74 216T175 266L363 306V225L248 201Q214 194 196 180T178 139Q178 113 196 99T244 85Q264 85 283 90T316 108T339 139T348 184V320ZM258 741L329 571H226L126
741H258Z" />
<glyph unicode="&#xe1;" glyph-name="aacute" horiz-adv-x="558" d="M348 320Q348 362 326 386T264 411Q226 411 199 392T160 328L44 363Q60 430 117 470T271 510Q337 510 385 490T459 428T486 326V123Q486 84 521 84Q529 84 537 85T552 88L544 4Q532 -2 516 -5T479
-8Q445 -8 418 3T375 39T359 102V110L378 114Q374 73 348 45T284 4T204 -10Q132 -10 87 25T41 127Q41 180 74 216T175 266L363 306V225L248 201Q214 194 196 180T178 139Q178 113 196 99T244 85Q264 85 283 90T316 108T339 139T348 184V320ZM275 741H407L308 571H205L275
741Z" />
<glyph unicode="&#xe2;" glyph-name="acircumflex" horiz-adv-x="558" d="M348 320Q348 362 326 386T264 411Q226 411 199 392T160 328L44 363Q60 430 117 470T271 510Q337 510 385 490T459 428T486 326V123Q486 84 521 84Q529 84 537 85T552 88L544 4Q532 -2
516 -5T479 -8Q445 -8 418 3T375 39T359 102V110L378 114Q374 73 348 45T284 4T204 -10Q132 -10 87 25T41 127Q41 180 74 216T175 266L363 306V225L248 201Q214 194 196 180T178 139Q178 113 196 99T244 85Q264 85 283 90T316 108T339 139T348 184V320ZM450 565H346L271
662L196 565H92L202 735H340L450 565Z" />
<glyph unicode="&#xe3;" glyph-name="atilde" horiz-adv-x="558" d="M348 320Q348 362 326 386T264 411Q226 411 199 392T160 328L44 363Q60 430 117 470T271 510Q337 510 385 490T459 428T486 326V123Q486 84 521 84Q529 84 537 85T552 88L544 4Q532 -2 516 -5T479
-8Q445 -8 418 3T375 39T359 102V110L378 114Q374 73 348 45T284 4T204 -10Q132 -10 87 25T41 127Q41 180 74 216T175 266L363 306V225L248 201Q214 194 196 180T178 139Q178 113 196 99T244 85Q264 85 283 90T316 108T339 139T348 184V320ZM462 716Q458 642 426
605T344 567Q316 567 297 576T262 598T233 619T204 628Q185 628 176 613T162 568H79Q83 642 115 679T203 717Q230 717 249 708T282 686T309 665T336 656Q355 656 365 671T379 716H462Z" />
<glyph unicode="&#xe4;" glyph-name="adieresis" horiz-adv-x="558" d="M348 320Q348 362 326 386T264 411Q226 411 199 392T160 328L44 363Q60 430 117 470T271 510Q337 510 385 490T459 428T486 326V123Q486 84 521 84Q529 84 537 85T552 88L544 4Q532 -2 516
-5T479 -8Q445 -8 418 3T375 39T359 102V110L378 114Q374 73 348 45T284 4T204 -10Q132 -10 87 25T41 127Q41 180 74 216T175 266L363 306V225L248 201Q214 194 196 180T178 139Q178 113 196 99T244 85Q264 85 283 90T316 108T339 139T348 184V320ZM165 703Q200
703 220 685T240 634Q240 602 220 584T165 565Q131 565 111 583T91 634Q91 666 111 684T165 703ZM376 703Q411 703 431 685T451 634Q451 602 431 584T376 565Q341 565 322 583T302 634Q302 666 321 684T376 703Z" />
<glyph unicode="&#xe5;" glyph-name="aring" horiz-adv-x="558" d="M348 320Q348 362 326 386T264 411Q226 411 199 392T160 328L44 363Q60 430 117 470T271 510Q337 510 385 490T459 428T486 326V123Q486 84 521 84Q529 84 537 85T552 88L544 4Q532 -2 516 -5T479
-8Q445 -8 418 3T375 39T359 102V110L378 114Q374 73 348 45T284 4T204 -10Q132 -10 87 25T41 127Q41 180 74 216T175 266L363 306V225L248 201Q214 194 196 180T178 139Q178 113 196 99T244 85Q264 85 283 90T316 108T339 139T348 184V320ZM269 802Q329 802 365
769T402 681Q402 625 366 592T269 559Q209 559 173 592T136 681Q136 736 172 769T269 802ZM269 738Q243 738 227 722T210 681Q210 656 226 640T269 623Q296 623 312 639T328 681Q328 706 312 722T269 738Z" />
<glyph unicode="&#xe6;" glyph-name="ae" horiz-adv-x="869" d="M211 -10Q134 -10 88 25T41 127Q41 181 76 217T176 267L349 302V318Q349 362 326 386T261 411Q225 411 199 392T160 328L43 363Q52 405 81 438T157 491T262 510Q337 510 388 482T453 395L408 394Q427
431 456 456T523 496T603 510Q675 510 725 480T801 397T827 276Q827 259 826 244T823 215H484V215Q484 156 520 124T607 91Q646 91 670 108T707 157L818 115Q795 55 739 23T609 -10Q528 -10 471 29T393 144L424 142Q419 108 402 81T356 33T292 1T211 -10ZM245 84Q272
84 295 95T334 129T349 185V223L248 202Q211 194 194 180T177 139Q177 115 194 100T245 84ZM484 298H695Q694 333 682 358T647 396T596 409Q551 409 522 382T484 298Z" />
<glyph unicode="&#xe7;" glyph-name="ccedilla" horiz-adv-x="554" d="M293 510Q360 510 406 490T479 437T518 362L390 316Q381 362 359 385T295 408Q259 408 233 390T194 337T181 249Q181 196 195 161T235 109T296 92Q325 92 345 102T378 133T396 182L520 141Q511
97 482 63T406 9T297 -10Q221 -10 164 21T74 110T42 250Q42 332 74 390T162 479T293 510ZM223 8L264 33Q335 20 368 -12T401 -94Q401 -147 365 -180T269 -214Q233 -214 210 -206T168 -185L193 -113Q205 -121 220 -127T256 -134Q283 -134 299 -118T316 -72Q316 -48
296 -30T223 8Z" />
<glyph unicode="&#xe8;" glyph-name="egrave" horiz-adv-x="567" d="M298 -10Q221 -10 164 20T74 109T42 250Q42 332 74 390T162 479T291 510Q365 510 417 480T498 396T526 275Q526 257 525 242T522 215H132V297H461L394 274Q394 317 382 347T347 393T291 409Q254
409 228 391T188 338T174 248Q174 195 189 160T232 108T298 91Q339 91 365 108T406 157L516 115Q501 75 469 47T392 5T298 -10ZM274 741L345 571H242L142 741H274Z" />
<glyph unicode="&#xe9;" glyph-name="eacute" horiz-adv-x="567" d="M298 -10Q221 -10 164 20T74 109T42 250Q42 332 74 390T162 479T291 510Q365 510 417 480T498 396T526 275Q526 257 525 242T522 215H132V297H461L394 274Q394 317 382 347T347 393T291 409Q254
409 228 391T188 338T174 248Q174 195 189 160T232 108T298 91Q339 91 365 108T406 157L516 115Q501 75 469 47T392 5T298 -10ZM291 741H423L324 571H221L291 741Z" />
<glyph unicode="&#xea;" glyph-name="ecircumflex" horiz-adv-x="567" d="M298 -10Q221 -10 164 20T74 109T42 250Q42 332 74 390T162 479T291 510Q365 510 417 480T498 396T526 275Q526 257 525 242T522 215H132V297H461L394 274Q394 317 382 347T347 393T291
409Q254 409 228 391T188 338T174 248Q174 195 189 160T232 108T298 91Q339 91 365 108T406 157L516 115Q501 75 469 47T392 5T298 -10ZM466 565H362L287 662L212 565H108L218 735H356L466 565Z" />
<glyph unicode="&#xeb;" glyph-name="edieresis" horiz-adv-x="567" d="M298 -10Q221 -10 164 20T74 109T42 250Q42 332 74 390T162 479T291 510Q365 510 417 480T498 396T526 275Q526 257 525 242T522 215H132V297H461L394 274Q394 317 382 347T347 393T291 409Q254
409 228 391T188 338T174 248Q174 195 189 160T232 108T298 91Q339 91 365 108T406 157L516 115Q501 75 469 47T392 5T298 -10ZM181 703Q216 703 236 685T256 634Q256 602 236 584T181 565Q147 565 127 583T107 634Q107 666 127 684T181 703ZM392 703Q427 703 447
685T467 634Q467 602 447 584T392 565Q357 565 338 583T318 634Q318 666 337 684T392 703Z" />
<glyph unicode="&#xec;" glyph-name="igrave" horiz-adv-x="280" d="M209 500V0H71V500H209ZM127 741L198 571H95L-5 741H127Z" />
<glyph unicode="&#xed;" glyph-name="iacute" horiz-adv-x="280" d="M209 500V0H71V500H209ZM144 741H276L177 571H74L144 741Z" />
<glyph unicode="&#xee;" glyph-name="icircumflex" horiz-adv-x="280" d="M209 500V0H71V500H209ZM319 565H215L140 662L65 565H-39L71 735H209L319 565Z" />
<glyph unicode="&#xef;" glyph-name="idieresis" horiz-adv-x="280" d="M230 564Q195 564 177 582T158 634Q158 667 176 685T230 704Q264 704 282 686T301 634Q301 601 283 583T230 564ZM50 564Q16 564 -2 582T-21 634Q-21 667 -3 685T50 704Q85 704 103 686T122
634Q122 601 104 583T50 564ZM209 500V0H71V500H209Z" />
<glyph unicode="&#xf0;" glyph-name="eth" horiz-adv-x="599" d="M294 -10Q218 -10 163 20T78 106T48 241Q48 320 78 376T160 462T280 492Q346 492 386 464T444 385L436 380Q426 459 395 519T312 628T184 725H320Q384 689 435 630T516 489T547 298Q547 202 517
133T430 27T294 -10ZM299 92Q338 92 363 111T402 164T415 242Q415 294 402 327T364 378T301 396Q265 396 240 379T201 327T188 241Q188 168 217 130T299 92ZM195 539L182 598L362 635L391 584L195 539ZM415 588L389 639L539 674L553 617L415 588Z" />
<glyph unicode="&#xf1;" glyph-name="ntilde" horiz-adv-x="608" d="M71 0V500H194L202 347L186 363Q203 436 251 473T367 510Q418 510 457 490T518 429T541 329V0H403V291Q403 352 379 377T317 402Q290 402 265 389T225 345T209 267V0H71ZM500 716Q496 642 464
605T382 567Q354 567 335 576T300 598T271 619T242 628Q223 628 214 613T200 568H117Q121 642 153 679T241 717Q268 717 287 708T320 686T347 665T374 656Q393 656 403 671T417 716H500Z" />
<glyph unicode="&#xf2;" glyph-name="ograve" horiz-adv-x="589" d="M294 510Q368 510 425 479T514 390T547 250Q547 168 515 110T425 21T294 -10Q220 -10 163 21T74 110T42 250Q42 332 74 390T163 479T294 510ZM294 408Q259 408 234 391T195 338T181 250Q181
197 194 162T233 110T294 92Q330 92 355 109T394 162T408 250Q408 303 394 338T355 390T294 408ZM281 741L352 571H249L149 741H281Z" />
<glyph unicode="&#xf3;" glyph-name="oacute" horiz-adv-x="589" d="M294 510Q368 510 425 479T514 390T547 250Q547 168 515 110T425 21T294 -10Q220 -10 163 21T74 110T42 250Q42 332 74 390T163 479T294 510ZM294 408Q259 408 234 391T195 338T181 250Q181
197 194 162T233 110T294 92Q330 92 355 109T394 162T408 250Q408 303 394 338T355 390T294 408ZM298 741H430L331 571H228L298 741Z" />
<glyph unicode="&#xf4;" glyph-name="ocircumflex" horiz-adv-x="589" d="M294 510Q368 510 425 479T514 390T547 250Q547 168 515 110T425 21T294 -10Q220 -10 163 21T74 110T42 250Q42 332 74 390T163 479T294 510ZM294 408Q259 408 234 391T195 338T181 250Q181
197 194 162T233 110T294 92Q330 92 355 109T394 162T408 250Q408 303 394 338T355 390T294 408ZM473 565H369L294 662L219 565H115L225 735H363L473 565Z" />
<glyph unicode="&#xf5;" glyph-name="otilde" horiz-adv-x="589" d="M294 510Q368 510 425 479T514 390T547 250Q547 168 515 110T425 21T294 -10Q220 -10 163 21T74 110T42 250Q42 332 74 390T163 479T294 510ZM294 408Q259 408 234 391T195 338T181 250Q181
197 194 162T233 110T294 92Q330 92 355 109T394 162T408 250Q408 303 394 338T355 390T294 408ZM485 716Q481 642 449 605T367 567Q339 567 320 576T285 598T256 619T227 628Q208 628 199 613T185 568H102Q106 642 138 679T226 717Q253 717 272 708T305 686T332
665T359 656Q378 656 388 671T402 716H485Z" />
<glyph unicode="&#xf6;" glyph-name="odieresis" horiz-adv-x="589" d="M294 510Q368 510 425 479T514 390T547 250Q547 168 515 110T425 21T294 -10Q220 -10 163 21T74 110T42 250Q42 332 74 390T163 479T294 510ZM294 408Q259 408 234 391T195 338T181 250Q181
197 194 162T233 110T294 92Q330 92 355 109T394 162T408 250Q408 303 394 338T355 390T294 408ZM188 703Q223 703 243 685T263 634Q263 602 243 584T188 565Q154 565 134 583T114 634Q114 666 134 684T188 703ZM399 703Q434 703 454 685T474 634Q474 602 454 584T399
565Q364 565 345 583T325 634Q325 666 344 684T399 703Z" />
<glyph unicode="&#xf7;" glyph-name="divide" horiz-adv-x="617" d="M557 374V270H60V374H557ZM312 39Q276 39 255 59T234 114Q234 149 255 169T312 190Q348 190 369 170T390 114Q390 80 369 60T312 39ZM312 456Q276 456 255 476T234 530Q234 566 255 586T312
606Q348 606 369 586T390 530Q390 496 369 476T312 456Z" />
<glyph unicode="&#xf8;" glyph-name="oslash" horiz-adv-x="589" d="M294 510Q368 510 425 479T514 390T547 250Q547 168 515 110T425 21T294 -10Q220 -10 163 21T74 110T42 250Q42 332 74 390T163 479T294 510ZM294 408Q259 408 234 391T195 338T181 250Q181
197 194 162T233 110T294 92Q330 92 355 109T394 162T408 250Q408 303 394 338T355 390T294 408ZM298 -27L735 526H800L363 -27H298Z" />
<glyph unicode="&#xf9;" glyph-name="ugrave" horiz-adv-x="606" d="M239 -10Q190 -10 151 8T90 65T67 168V500H205V201Q205 149 225 124T293 98Q314 98 333 106T366 130T389 171T397 229V500H535V0H412L408 90Q392 57 368 35T311 1T239 -10ZM286 735L357 565H254L154
735H286Z" />
<glyph unicode="&#xfa;" glyph-name="uacute" horiz-adv-x="606" d="M239 -10Q190 -10 151 8T90 65T67 168V500H205V201Q205 149 225 124T293 98Q314 98 333 106T366 130T389 171T397 229V500H535V0H412L408 90Q392 57 368 35T311 1T239 -10ZM303 735H435L336
565H233L303 735Z" />
<glyph unicode="&#xfb;" glyph-name="ucircumflex" horiz-adv-x="606" d="M239 -10Q190 -10 151 8T90 65T67 168V500H205V201Q205 149 225 124T293 98Q314 98 333 106T366 130T389 171T397 229V500H535V0H412L408 90Q392 57 368 35T311 1T239 -10ZM478 559H374L299
656L224 559H120L230 729H368L478 559Z" />
<glyph unicode="&#xfc;" glyph-name="udieresis" horiz-adv-x="606" d="M239 -10Q190 -10 151 8T90 65T67 168V500H205V201Q205 149 225 124T293 98Q314 98 333 106T366 130T389 171T397 229V500H535V0H412L408 90Q392 57 368 35T311 1T239 -10ZM193 697Q228 697
248 679T268 628Q268 596 248 578T193 559Q159 559 139 577T119 628Q119 660 139 678T193 697ZM404 697Q439 697 459 679T479 628Q479 596 459 578T404 559Q369 559 350 577T330 628Q330 660 349 678T404 697Z" />
<glyph unicode="&#xfd;" glyph-name="yacute" horiz-adv-x="537" d="M533 500L340 -28Q316 -95 288 -136T220 -196T125 -215Q86 -215 54 -206T-2 -181L28 -83Q45 -98 65 -104T113 -110Q146 -110 164 -96T194 -50L211 -7L156 124L7 500H160L251 197L276 99L305
203L394 500H533ZM283 735H415L316 565H213L283 735Z" />
<glyph unicode="&#xfe;" glyph-name="thorn" horiz-adv-x="616" d="M71 -210V718H209V365L195 376Q211 435 255 472T367 510Q425 510 471 479T544 390T571 249Q571 168 544 110T469 21T362 -10Q296 -10 254 28T195 124L209 145V-210H71ZM320 95Q372 95 402 134T432
250Q432 326 403 365T322 405Q288 405 263 387T223 334T209 250Q209 202 222 168T260 114T320 95Z" />
<glyph unicode="&#xff;" glyph-name="ydieresis" horiz-adv-x="537" d="M533 500L340 -28Q316 -95 288 -136T220 -196T125 -215Q86 -215 54 -206T-2 -181L28 -83Q45 -98 65 -104T113 -110Q146 -110 164 -96T194 -50L211 -7L156 124L7 500H160L251 197L276 99L305
203L394 500H533ZM173 697Q208 697 228 679T248 628Q248 596 228 578T173 559Q139 559 119 577T99 628Q99 660 119 678T173 697ZM384 697Q419 697 439 679T459 628Q459 596 439 578T384 559Q349 559 330 577T310 628Q310 660 329 678T384 697Z" />
<glyph unicode="&#x2013;" glyph-name="endash" horiz-adv-x="681" d="M602 322V209H79V322H602Z" />
<glyph unicode="&#x2014;" glyph-name="emdash" horiz-adv-x="1006" d="M927 322V209H79V322H927Z" />
<glyph unicode="&#x2018;" glyph-name="quoteleft" horiz-adv-x="278" d="M141 390Q93 390 69 423T45 503Q45 544 61 581T107 648T172 694L231 649Q204 638 182 621T144 584T121 544L125 541Q131 545 138 547T157 549Q181 549 204 531T227 475Q227 435 201 413T141 390Z" />
<glyph unicode="&#x2019;" glyph-name="quoteright" horiz-adv-x="278" d="M142 693Q190 693 214 660T238 580Q238 540 221 502T176 435T110 389L52 434Q79 445 101 461T139 498T162 539L157 542Q152 538 146 536T126 534Q102 534 79 552T55 608Q55 648 81 670T142 693Z" />
<glyph unicode="&#x201a;" glyph-name="quotesinglbase" horiz-adv-x="278" d="M142 152Q190 152 214 119T238 39Q238 -1 221 -39T176 -106T110 -152L52 -107Q79 -96 101 -80T139 -43T162 -2L157 1Q152 -3 146 -5T126 -7Q102 -7 79 11T55 67Q55 107 81 129T142 152Z" />
<glyph unicode="&#x201c;" glyph-name="quotedblleft" horiz-adv-x="501" d="M141 390Q93 390 69 423T45 503Q45 544 61 581T107 648T172 694L231 649Q204 638 182 621T144 584T121 544L125 541Q131 545 138 547T157 549Q181 549 204 531T227 475Q227 435 201
413T141 390ZM363 390Q315 390 292 423T268 503Q268 544 284 581T330 648T395 694L454 649Q427 638 405 621T367 584T344 544L348 541Q353 545 360 547T380 549Q403 549 426 531T450 475Q450 435 424 413T363 390Z" />
<glyph unicode="&#x201d;" glyph-name="quotedblright" horiz-adv-x="501" d="M142 693Q190 693 214 660T238 580Q238 540 221 502T176 435T110 389L52 434Q79 445 101 461T139 498T162 539L157 542Q152 538 146 536T126 534Q102 534 79 552T55 608Q55 648 81
670T142 693ZM365 693Q413 693 437 660T461 580Q461 540 444 502T399 435T333 389L275 434Q302 445 324 461T362 498T385 539L380 542Q375 538 369 536T349 534Q325 534 302 552T278 608Q278 648 304 670T365 693Z" />
<glyph unicode="&#x201e;" glyph-name="quotedblbase" horiz-adv-x="497" d="M142 152Q190 152 214 119T238 39Q238 -1 221 -39T176 -106T110 -152L52 -107Q79 -96 101 -80T139 -43T162 -2L157 1Q152 -3 146 -5T126 -7Q102 -7 79 11T55 67Q55 107 81 129T142 152ZM361
152Q409 152 433 119T457 39Q457 -1 440 -39T395 -106T329 -152L271 -107Q298 -96 320 -80T358 -43T381 -2L376 1Q371 -3 365 -5T345 -7Q321 -7 298 11T274 67Q274 107 300 129T361 152Z" />
<glyph unicode="&#x2022;" glyph-name="bullet" horiz-adv-x="430" d="M215 197Q151 197 112 234T73 334Q73 396 112 433T215 471Q279 471 318 434T357 334Q357 272 318 235T215 197Z" />
<glyph unicode="&#x2039;" glyph-name="guilsinglleft" horiz-adv-x="332" d="M291 461L167 265L291 69H166L40 265L166 461H291Z" />
<glyph unicode="&#x203a;" glyph-name="guilsinglright" horiz-adv-x="332" d="M41 69L164 265L41 461H166L292 265L166 69H41Z" />
</font>
</defs>
</svg>
