<?xml version="1.0" standalone="no"?>
<!DOCTYPE svg PUBLIC "-//W3C//DTD SVG 1.1//EN" "http://www.w3.org/Graphics/SVG/1.1/DTD/svg11.dtd">
<svg xmlns="http://www.w3.org/2000/svg">
<defs >
<font id="KantumruyPro" horiz-adv-x="627" ><font-face
    font-family="Kantumruy Pro ExtraLight"
    units-per-em="1000"
    panose-1="0 0 0 0 0 0 0 0 0 0"
    ascent="920"
    descent="-260"
    alphabetic="0" />
<glyph unicode=" " glyph-name="space" horiz-adv-x="300" />
<glyph unicode="!" glyph-name="exclam" horiz-adv-x="210" d="M124 660V324L120 182H90L87 324V660H124ZM105 64Q121 64 130 55T140 29Q140 13 131 4T105 -6Q89 -6 80 3T70 29Q70 45 79 54T105 64Z" />
<glyph unicode="&quot;" glyph-name="quotedbl" horiz-adv-x="291" d="M226 683L218 497H187V683H226ZM110 683L102 497H71V683H110Z" />
<glyph unicode="#" glyph-name="numbersign" horiz-adv-x="634" d="M493 660L389 0H357L461 660H493ZM564 233V204H36V233H564ZM273 660L170 0H138L241 660H273ZM598 463V434H70V463H598Z" />
<glyph unicode="$" glyph-name="dollar" horiz-adv-x="569" d="M294 0Q234 0 184 19T100 74T51 162L81 185Q93 134 123 101T198 51T296 34Q376 34 426 69T477 174Q477 221 447 251T348 296L230 322Q149 340 111 379T72 482Q72 530 98 570T173 635T286 660Q365
660 420 625T503 515L475 493Q452 564 402 596T282 628Q229 628 190 609T130 558T109 486Q109 435 138 404T243 355L356 330Q412 317 446 297T497 246T513 177Q513 124 485 85T407 23T294 0ZM275 -100V760H306V-100H275Z" />
<glyph unicode="%" glyph-name="percent" horiz-adv-x="793" d="M161 0L595 660H632L197 0H161ZM189 663Q238 663 270 639T317 576T333 491Q333 445 318 406T270 344T189 321Q141 321 110 344T62 406T46 491Q46 537 61 576T109 639T189 663ZM189 634Q152 634 128
615T91 563T79 491Q79 452 91 420T127 369T189 350Q228 350 252 369T288 420T300 491Q300 530 288 562T252 614T189 634ZM604 339Q652 339 684 316T731 254T747 168Q747 121 732 83T684 21T604 -3Q556 -3 524 20T475 82T459 168Q459 215 475 253T523 315T604 339ZM604
310Q566 310 541 291T505 240T493 168Q493 129 504 97T541 45T604 26Q642 26 666 45T702 96T714 168Q714 207 702 239T666 291T604 310Z" />
<glyph unicode="&amp;" glyph-name="ampersand" horiz-adv-x="564" d="M233 -10Q179 -10 136 9T70 64T46 148Q46 197 65 234T122 302T214 363L230 371Q272 396 303 419T351 471T369 542Q369 585 342 610T269 636Q220 636 192 607T163 530Q163 508 168 489T190
443T237 373T322 257Q377 182 414 135T477 63T525 28T570 18L563 -10Q537 -10 513 0T460 38T393 113T299 236Q249 304 216 348T164 423T137 478T129 530Q129 569 145 600T194 649T271 667Q310 667 339 652T385 610T402 544Q402 500 385 467T333 406T249 348L235
342Q185 313 151 286T99 227T81 150Q81 110 101 81T156 36T233 20Q293 20 336 44T410 111L415 116Q446 164 460 227T473 362L505 360Q506 292 491 222T438 99L431 89Q399 44 350 17T233 -10Z" />
<glyph unicode="&apos;" glyph-name="quotesingle" horiz-adv-x="175" d="M110 683L102 497H71V683H110Z" />
<glyph unicode="(" glyph-name="parenleft" horiz-adv-x="283" d="M248 744L268 722Q175 642 134 534T92 284Q92 143 133 35T268 -155L248 -176Q151 -92 103 21T55 284Q55 435 103 548T248 744Z" />
<glyph unicode=")" glyph-name="parenright" horiz-adv-x="283" d="M35 -176L15 -155Q110 -74 151 34T192 284Q192 425 151 533T15 722L35 744Q133 661 180 548T228 284Q228 134 181 21T35 -176Z" />
<glyph unicode="*" glyph-name="asterisk" horiz-adv-x="529" d="M273 513L332 442L408 336L383 318L306 423L256 502L265 507L273 513ZM256 513L265 507L273 502L223 423L146 318L121 336L198 442L256 513ZM57 591L181 552L268 517L265 507L262 498L171 521L48
562L57 591ZM280 730V600L275 507H265H255L249 600V730H280ZM472 591L481 562L357 521L268 498L265 507L262 517L347 552L472 591Z" />
<glyph unicode="+" glyph-name="plus" horiz-adv-x="604" d="M319 551V75H285V551H319ZM538 333V300H66V333H538Z" />
<glyph unicode="," glyph-name="comma" horiz-adv-x="199" d="M100 64Q123 64 134 47T146 3Q146 -20 138 -43T114 -86T71 -119L50 -101Q73 -92 89 -74T114 -35T118 3L116 4Q113 -1 109 -3T95 -6Q84 -6 74 3T64 28Q64 43 74 53T100 64Z" />
<glyph unicode="-" glyph-name="hyphen" horiz-adv-x="446" d="M371 286V249H75V286H371Z" />
<glyph unicode="." glyph-name="period" horiz-adv-x="206" d="M103 -6Q87 -6 77 3T67 29Q67 45 77 54T103 64Q119 64 128 55T138 29Q138 13 129 4T103 -6Z" />
<glyph unicode="/" glyph-name="slash" horiz-adv-x="376" d="M343 730L68 -70H33L308 730H343Z" />
<glyph unicode="0" glyph-name="zero" horiz-adv-x="576" d="M288 -10Q181 -10 121 78T61 330Q61 494 121 582T288 670Q395 670 454 582T514 330Q514 166 455 78T288 -10ZM288 22Q379 22 428 101T477 330Q477 479 429 558T288 638Q196 638 147 559T98 330Q98 181
147 102T288 22Z" />
<glyph unicode="1" glyph-name="one" horiz-adv-x="315" d="M184 0V542Q184 557 184 574T184 609Q157 564 117 535T34 490L25 522Q45 529 68 542T115 574T157 613T187 660H220V0H184Z" />
<glyph unicode="2" glyph-name="two" horiz-adv-x="525" d="M60 0V30Q147 104 213 163T324 274T393 374T417 471Q417 548 373 592T255 637Q178 637 132 586T81 450L49 467Q54 528 79 573T150 644T256 670Q317 670 361 646T429 577T453 471Q453 403 415 338T301
199T113 33V32Q120 33 129 33T147 33T163 33H476V0H60Z" />
<glyph unicode="3" glyph-name="three" horiz-adv-x="510" d="M259 -10Q176 -10 117 31T39 142L74 161Q88 99 135 61T260 23Q334 23 380 64T426 181Q426 227 407 257T355 301T278 316Q262 316 249 316T225 315V350Q235 349 247 349T271 349Q337 349 374 387T411
493Q411 561 371 599T263 637Q198 637 155 605T94 516L60 533Q74 575 103 606T173 653T263 670Q322 670 363 649T425 588T447 496Q447 465 439 438T415 388T378 352T328 334V332Q359 331 383 319T425 287T453 239T463 179Q463 123 437 80T364 14T259 -10Z" />
<glyph unicode="4" glyph-name="four" horiz-adv-x="544" d="M353 0V195H40V223Q40 223 40 223T40 223T40 223L343 660H389V226H514V195H389V0H353ZM78 226H353V553Q353 565 353 576T353 600T354 628H353Q347 617 343 609T330 588T305 553L78 226Q78 226 78 226T78 226Z" />
<glyph unicode="5" glyph-name="five" horiz-adv-x="525" d="M266 -10Q185 -10 130 27T54 147L88 164Q101 93 147 58T266 23Q317 23 355 45T414 107T435 199Q435 252 415 291T358 352T272 374Q207 374 167 351T104 296L72 300L104 660H447V627H134L109 349L108
334H109Q132 365 172 386T277 407Q335 407 379 381T447 309T472 200Q472 138 446 91T373 17T266 -10Z" />
<glyph unicode="6" glyph-name="six" horiz-adv-x="540" d="M299 670Q369 670 411 636T474 544L440 528Q427 576 393 606T297 637Q243 637 205 611T142 539T107 436T95 316Q95 295 97 271T101 226H104Q109 285 136 324T205 382T289 402Q351 402 395 377T463 305T488
196Q488 133 463 87T393 16T285 -10Q212 -10 162 30T87 147T61 330Q61 443 92 518T178 632T299 670ZM288 369Q239 369 201 344T143 280T122 195Q122 148 143 109T200 47T284 24Q361 24 406 71T451 198Q451 249 431 287T374 347T288 369Z" />
<glyph unicode="7" glyph-name="seven" horiz-adv-x="491" d="M28 660H473V627Q397 541 345 444T265 236T230 0H193Q203 187 264 347T446 639L450 627H28V660Z" />
<glyph unicode="8" glyph-name="eight" horiz-adv-x="554" d="M277 670Q364 670 416 625T468 504Q468 445 436 405T348 348V347Q417 331 456 284T495 172Q495 118 468 77T391 13T277 -10Q213 -10 164 13T87 77T59 172Q59 238 99 285T206 347V348Q151 363 119 404T86
504Q86 555 109 592T176 649T277 670ZM277 637Q208 637 166 601T123 502Q123 440 165 402T277 364Q347 364 389 402T432 502Q432 564 390 600T277 637ZM277 23Q331 23 372 42T435 95T458 174Q458 221 435 255T372 309T277 329Q224 329 183 310T119 256T96 174Q96
129 119 95T183 42T277 23Z" />
<glyph unicode="9" glyph-name="nine" horiz-adv-x="557" d="M268 670Q344 670 394 629T470 512T496 330Q496 217 468 142T388 28T269 -10Q192 -10 137 29T65 133L99 151Q113 95 154 59T269 23Q325 23 362 49T422 120T453 222T463 341Q463 368 461 392T455 438H452Q449
377 420 337T350 278T264 258Q202 258 157 283T86 354T61 462Q61 526 86 572T158 644T268 670ZM269 636Q189 636 144 589T98 460Q98 384 144 338T266 291Q316 291 354 315T413 379T435 469Q435 515 413 553T354 613T269 636Z" />
<glyph unicode=":" glyph-name="colon" horiz-adv-x="224" d="M116 432Q100 432 90 442T80 468Q80 484 90 493T116 503Q132 503 142 494T152 467Q152 452 142 442T116 432ZM116 -6Q100 -6 90 3T80 29Q80 45 90 54T116 64Q132 64 142 55T152 29Q152 13 142 4T116 -6Z" />
<glyph unicode=";" glyph-name="semicolon" horiz-adv-x="224" d="M111 64Q134 64 146 48T158 3Q158 -20 150 -43T126 -86T83 -119L62 -101Q84 -92 100 -74T125 -35T130 3L127 4Q125 -1 120 -3T107 -6Q95 -6 85 3T75 28Q75 43 85 53T111 64ZM116 432Q100 432 90
442T80 468Q80 484 90 493T116 503Q132 503 142 494T152 467Q152 452 142 442T116 432Z" />
<glyph unicode="&lt;" glyph-name="less" horiz-adv-x="604" d="M537 49L85 279V320L537 550V512L114 300L537 87V49Z" />
<glyph unicode="=" glyph-name="equal" horiz-adv-x="604" d="M524 428V395H80V428H524ZM524 225V192H80V225H524Z" />
<glyph unicode="&gt;" glyph-name="greater" horiz-adv-x="604" d="M67 550L519 320V279L67 49V87L490 299L67 512V550Z" />
<glyph unicode="?" glyph-name="question" horiz-adv-x="470" d="M207 168V311Q276 331 315 352T371 404T389 485Q389 529 371 563T317 617T233 637Q158 637 116 597T65 484L33 501Q42 553 67 591T135 649T235 670Q293 670 336 647T403 583T426 489Q426 432 406
394T345 332T244 292V168H207ZM232 -6Q216 -6 206 3T196 29Q196 45 206 54T232 64Q248 64 258 55T268 29Q268 13 258 4T232 -6Z" />
<glyph unicode="@" glyph-name="at" horiz-adv-x="890" d="M463 -178Q343 -178 254 -130T115 9T65 224Q65 326 97 405T185 539T314 624T470 653Q562 653 630 622T744 538T812 417T835 278Q835 219 822 168T784 79T727 20T657 -1Q610 -1 588 31T570 107Q548 64
508 36T410 8Q358 8 320 34T262 106T241 208Q241 264 257 311T302 395T371 452T457 472Q525 472 567 429T612 309L646 462H679L604 133Q602 123 601 114T600 94Q600 55 620 41T662 26Q701 26 733 59T786 149T806 277Q806 345 785 407T722 518T617 596T471 625Q395
625 327 598T208 520T127 394T97 224Q97 107 143 23T272 -106T463 -151Q534 -151 593 -129T690 -72L708 -96Q666 -131 604 -154T463 -178ZM416 37Q469 37 509 68T572 153T595 276Q595 334 577 370T527 424T458 441Q407 441 366 411T300 329T275 209Q275 156 293
117T343 58T416 37Z" />
<glyph unicode="A" glyph-name="A" horiz-adv-x="585" d="M568 0H530L446 218H138L54 0H16L271 660H314L568 0ZM151 251H433L292 623L151 251Z" />
<glyph unicode="B" glyph-name="B" horiz-adv-x="598" d="M102 0V660H323Q422 660 471 616T521 488Q521 430 492 389T402 335V334Q466 323 502 281T538 174Q538 91 483 46T323 0H102ZM138 33H328Q413 33 457 69T501 175Q501 245 457 280T328 316H138V33ZM138 349H323Q402
349 442 383T483 488Q483 557 443 592T323 627H138V349Z" />
<glyph unicode="C" glyph-name="C" horiz-adv-x="636" d="M595 166Q569 83 503 37T344 -10Q258 -10 195 31T96 149T60 330Q60 434 95 510T193 628T343 670Q408 670 456 651T538 595T588 502L553 486Q531 562 480 599T345 637Q271 637 215 600T128 494T97 330Q97
236 127 167T214 61T344 23Q425 23 481 63T560 180L595 166Z" />
<glyph unicode="D" glyph-name="D" horiz-adv-x="671" d="M299 660Q450 660 530 578T611 337Q611 172 531 86T299 0H102V660H299ZM301 33Q433 33 503 111T573 337Q573 431 542 496T450 594T301 627H138V33H301Z" />
<glyph unicode="E" glyph-name="E" horiz-adv-x="576" d="M102 0V660H524V627H138V353H445V320H138V33H539V0H102Z" />
<glyph unicode="F" glyph-name="F" horiz-adv-x="547" d="M522 627H138V353H444V320H138V0H102V660H522V627Z" />
<glyph unicode="G" glyph-name="G" horiz-adv-x="667" d="M348 -10Q260 -10 195 31T95 149T60 330Q60 434 95 510T195 628T346 670Q443 670 503 629T592 503L559 486Q537 562 484 599T346 637Q272 637 216 600T129 494T97 330Q97 236 127 167T213 61T349 23Q407
23 448 43T514 96T551 167T563 241V285H343V318H597V0H566L565 152L571 150Q549 77 492 34T348 -10Z" />
<glyph unicode="H" glyph-name="H" horiz-adv-x="683" d="M581 660V0H546V660H581ZM138 660V0H102V660H138ZM563 353V320H121V353H563Z" />
<glyph unicode="I" glyph-name="I" horiz-adv-x="240" d="M138 660V0H102V660H138Z" />
<glyph unicode="J" glyph-name="J" horiz-adv-x="495" d="M400 660V214Q400 111 351 51T209 -10Q146 -10 104 17T45 92T37 206L71 216Q59 121 94 72T208 23Q264 23 298 47T348 117T364 220V660H400Z" />
<glyph unicode="K" glyph-name="K" horiz-adv-x="564" d="M539 660L282 383L277 378L120 208L119 258L490 660H539ZM138 660V0H102V660H138ZM285 408L546 0H501L257 384L285 408Z" />
<glyph unicode="L" glyph-name="L" horiz-adv-x="536" d="M138 33H518V0H102V660H138V33Z" />
<glyph unicode="M" glyph-name="M" horiz-adv-x="783" d="M681 660V0H646V529L650 622H649L409 0H374L133 622V622L136 529V0H102V660H155L368 114L391 43H392L415 113L628 660H681Z" />
<glyph unicode="N" glyph-name="N" horiz-adv-x="682" d="M580 660V0H535L173 554L135 620V620L136 549V0H102V660H147L509 106L547 40V40L546 111V660H580Z" />
<glyph unicode="O" glyph-name="O" horiz-adv-x="700" d="M350 670Q439 670 504 629T605 511T640 330Q640 225 605 149T505 32T350 -10Q261 -10 196 31T96 149T60 330Q60 435 95 511T196 628T350 670ZM350 637Q272 637 216 600T128 494T97 330Q97 235 128 167T215
61T350 23Q428 23 485 60T572 166T603 330Q603 425 573 493T485 599T350 637Z" />
<glyph unicode="P" glyph-name="P" horiz-adv-x="552" d="M304 660Q401 660 458 610T515 470Q515 381 458 331T304 281H138V0H102V660H304ZM300 314Q385 314 431 355T477 470Q477 544 431 585T300 627H138V314H300Z" />
<glyph unicode="Q" glyph-name="Q" horiz-adv-x="700" d="M497 -195Q451 -195 412 -173T350 -107T326 2Q326 6 326 10T327 18L358 17Q358 14 358 11T357 3Q357 -53 376 -89T427 -142T497 -160Q526 -160 553 -151T597 -123L610 -155Q591 -175 560 -185T497 -195ZM350
670Q439 670 504 629T605 511T640 330Q640 225 605 149T505 32T350 -10Q261 -10 196 31T96 149T60 330Q60 435 95 511T196 628T350 670ZM350 637Q272 637 216 600T128 494T97 330Q97 235 128 167T215 61T350 23Q428 23 485 60T572 166T603 330Q603 425 573 493T485
599T350 637Z" />
<glyph unicode="R" glyph-name="R" horiz-adv-x="603" d="M333 660Q425 660 480 611T535 476Q535 419 510 379T440 317T332 292H328H138V0H102V660H333ZM332 325Q411 325 454 364T498 476Q498 548 455 587T332 627H138V325H332ZM366 320L565 0H524L336 299L366 320Z" />
<glyph unicode="S" glyph-name="S" horiz-adv-x="584" d="M291 670Q378 670 437 634T525 521L495 498Q471 571 419 604T288 637Q230 637 188 618T124 565T102 490Q102 439 133 407T247 356L365 329Q457 309 495 271T534 171Q534 117 505 76T423 13T302 -10Q236
-10 183 9T94 65T42 157L74 180Q86 128 117 93T197 41T303 23Q359 23 402 39T471 89T497 169Q497 216 465 246T356 294L235 322Q176 335 138 357T83 411T65 486Q65 535 92 577T170 644T291 670Z" />
<glyph unicode="T" glyph-name="T" horiz-adv-x="538" d="M521 660V627H287V0H251V627H17V660H521Z" />
<glyph unicode="U" glyph-name="U" horiz-adv-x="653" d="M567 660V239Q567 117 504 54T327 -10Q214 -10 151 53T87 239V660H123V245Q123 140 174 82T327 23Q428 23 479 81T531 245V660H567Z" />
<glyph unicode="V" glyph-name="V" horiz-adv-x="574" d="M553 660L309 0H265L21 660H59L257 123L287 35L318 123L515 660H553Z" />
<glyph unicode="W" glyph-name="W" horiz-adv-x="901" d="M232 0L27 660H65L255 34L430 660H472L647 33L837 660H874L669 0H624L489 479L451 619H450L413 479L277 0H232Z" />
<glyph unicode="X" glyph-name="X" horiz-adv-x="525" d="M503 0H461L262 309L59 0H16L242 340L36 660H79L264 371L453 660H495L285 340L503 0Z" />
<glyph unicode="Y" glyph-name="Y" horiz-adv-x="506" d="M492 660L271 257V0H235V257L14 660H56L178 434L253 294L328 434L450 660H492Z" />
<glyph unicode="Z" glyph-name="Z" horiz-adv-x="552" d="M69 20L63 33H518V0H38V32L469 640L476 627H45V660H501V628L69 20Z" />
<glyph unicode="[" glyph-name="bracketleft" horiz-adv-x="293" d="M275 699H113V-137H275V-168H80V730H275V699Z" />
<glyph unicode="\" glyph-name="backslash" horiz-adv-x="376" d="M34 730H69L344 -70H308L34 730Z" />
<glyph unicode="]" glyph-name="bracketright" horiz-adv-x="293" d="M18 -137H180V699H18V730H213V-168H18V-137Z" />
<glyph unicode="^" glyph-name="asciicircum" horiz-adv-x="542" d="M34 355L252 730H289L507 355H469L271 698L72 355H34Z" />
<glyph unicode="_" glyph-name="underscore" horiz-adv-x="511" d="M511 -97V-130H0V-97H511Z" />
<glyph unicode="`" glyph-name="grave" horiz-adv-x="534" d="M246 736L329 583H298L207 736H246Z" />
<glyph unicode="a" glyph-name="a" horiz-adv-x="501" d="M381 332Q381 400 345 439T244 479Q188 479 148 453T88 368L58 387Q80 447 128 478T245 510Q298 510 336 490T395 432T417 337V84Q417 23 466 23Q476 23 484 25T499 30L497 1Q491 -2 482 -5T458 -8Q439
-8 421 0T392 29T380 87V122L391 125Q383 80 354 50T286 5T205 -10Q137 -10 95 22T53 116Q53 172 88 205T188 252L388 293V263L207 225Q148 213 119 188T89 119Q89 73 120 47T211 21Q238 21 267 29T323 56T365 103T381 171V332Z" />
<glyph unicode="b" glyph-name="b" horiz-adv-x="574" d="M305 -10Q237 -10 186 30T119 142L122 148L120 0H87V730H123V357L120 363Q138 432 188 471T306 510Q368 510 416 479T492 390T520 250Q520 169 493 111T417 21T305 -10ZM301 21Q385 21 434 82T484 250Q484
357 435 418T301 479Q250 479 210 451T147 371T123 249Q123 180 146 129T210 50T301 21Z" />
<glyph unicode="c" glyph-name="c" horiz-adv-x="511" d="M274 510Q321 510 359 494T423 448T462 374L429 358Q415 416 374 447T273 479Q220 479 178 452T113 373T89 250Q89 179 112 128T177 49T272 21Q313 21 347 36T405 80T434 148L467 137Q456 92 429 59T361
8T272 -10Q208 -10 159 21T82 110T53 250Q53 331 82 389T161 479T274 510Z" />
<glyph unicode="d" glyph-name="d" horiz-adv-x="574" d="M269 -10Q207 -10 159 21T82 110T54 250Q54 332 82 390T160 479T272 510Q339 510 388 471T454 360L450 357V730H486V0H454L451 147L455 148Q446 98 419 63T354 9T269 -10ZM274 21Q325 21 365 49T427 130T450
252Q450 322 428 373T366 451T275 479Q191 479 141 418T90 250Q90 144 140 83T274 21Z" />
<glyph unicode="e" glyph-name="e" horiz-adv-x="523" d="M276 -10Q212 -10 162 21T82 110T53 250Q53 332 81 390T159 479T270 510Q333 510 378 480T447 396T472 268Q472 262 472 257T470 246H75V279H455L437 272Q437 335 417 381T360 453T269 479Q217 479 176
451T112 372T88 250Q88 179 112 128T179 49T275 21Q331 21 373 48T437 123L466 107Q449 71 421 45T356 4T276 -10Z" />
<glyph unicode="f" glyph-name="f" horiz-adv-x="318" d="M242 735Q268 735 286 727T316 706L305 678Q293 691 279 696T245 702Q199 702 173 671T146 581V500V486V0H110V583Q110 630 125 664T170 716T242 735ZM311 500V469H18V500H311Z" />
<glyph unicode="g" glyph-name="g" horiz-adv-x="483" d="M474 592L483 560Q482 560 481 560T479 560Q432 560 407 532T382 457L359 468Q359 506 373 533T413 576T470 592Q472 592 472 592T474 592ZM321 45Q392 45 433 14T474 -68Q474 -112 446 -145T368 -196T254
-215Q149 -215 92 -177T34 -80Q34 -38 64 -7T149 31L147 25Q117 33 94 54T70 114Q70 154 99 180T177 209L226 195H203Q160 194 132 175T103 119Q103 82 130 64T198 45H321ZM255 -185Q310 -185 352 -170T417 -130T441 -72Q441 -33 408 -10T314 14H185Q134 14 101
-10T68 -75Q68 -124 118 -154T255 -185ZM248 510Q304 510 346 490T412 434T436 349Q436 302 412 266T346 209T248 189Q161 189 110 233T58 349Q58 398 82 434T148 490T248 510ZM248 480Q180 480 137 445T94 349Q94 291 137 255T248 218Q315 218 357 254T400 349Q400
409 358 444T248 480Z" />
<glyph unicode="h" glyph-name="h" horiz-adv-x="563" d="M87 0V730H123V386Q143 442 191 476T305 511Q357 511 397 490T459 428T482 327V1H446V317Q446 398 406 438T300 479Q252 479 212 456T148 390T123 291V0H87Z" />
<glyph unicode="i" glyph-name="i" horiz-adv-x="211" d="M123 500V0H87V500H123ZM107 597Q91 597 82 607T72 633Q72 649 81 658T107 668Q123 668 133 659T143 633Q143 617 133 607T107 597Z" />
<glyph unicode="j" glyph-name="j" horiz-adv-x="205" d="M-17 -215Q-41 -215 -61 -208T-95 -189L-86 -156Q-74 -168 -56 -174T-19 -181Q27 -181 54 -149T81 -58V500H117V-60Q117 -111 99 -145T51 -197T-17 -215ZM355 597Q339 597 330 607T320 633Q320 649 329
658T355 668Q371 668 381 659T391 633Q391 617 381 607T355 597Z" />
<glyph unicode="k" glyph-name="k" horiz-adv-x="484" d="M462 500L255 290L246 282L106 138V184L415 500H462ZM123 730V0H87V730H123ZM257 309L469 0H425L228 287L257 309Z" />
<glyph unicode="l" glyph-name="l" horiz-adv-x="234" d="M119 730V113Q119 69 131 45T175 21Q192 21 202 24T225 34L221 3Q212 -3 198 -6T167 -10Q120 -10 102 23T83 112V730H119Z" />
<glyph unicode="m" glyph-name="m" horiz-adv-x="939" d="M87 0V500H120L122 384Q142 441 192 475T308 510Q376 510 422 476T483 377Q495 417 523 447T591 494T675 511Q728 511 769 490T833 429T857 327V1H821V324Q821 400 780 440T671 480Q620 480 580 456T515
389T490 294V0H454V322Q454 399 413 439T304 479Q256 479 215 455T148 389T123 290V0H87Z" />
<glyph unicode="n" glyph-name="n" horiz-adv-x="563" d="M87 0V500H120L122 369L118 374Q135 438 186 474T305 510Q357 510 397 489T459 427T482 326V0H446V316Q446 397 406 438T300 479Q252 479 212 455T148 389T123 290V0H87Z" />
<glyph unicode="o" glyph-name="o" horiz-adv-x="554" d="M277 510Q343 510 393 479T472 390T501 250Q501 169 473 111T394 21T277 -10Q212 -10 162 21T82 110T53 250Q53 331 82 389T161 479T277 510ZM277 479Q221 479 179 451T113 372T89 250Q89 179 112 128T178
49T277 21Q334 21 376 48T441 127T465 250Q465 322 442 373T376 451T277 479Z" />
<glyph unicode="p" glyph-name="p" horiz-adv-x="574" d="M87 -210V500H120L122 352L119 358Q135 430 186 470T306 510Q369 510 417 479T492 390T520 250Q520 169 493 111T417 21T305 -10Q239 -10 189 29T120 137L123 143V-210H87ZM301 21Q384 21 434 82T484 250Q484
357 435 418T302 479Q251 479 211 451T147 371T123 250Q123 181 146 130T209 50T301 21Z" />
<glyph unicode="q" glyph-name="q" horiz-adv-x="574" d="M450 -210V151L455 146Q440 71 389 31T269 -10Q207 -10 159 21T82 110T54 250Q54 332 82 390T160 479T272 510Q340 510 390 470T456 355L451 354L454 500H486V-210H450ZM274 21Q326 21 365 49T427 129T450
251Q450 322 428 373T366 451T275 479Q191 479 141 418T90 250Q90 144 140 83T274 21Z" />
<glyph unicode="r" glyph-name="r" horiz-adv-x="339" d="M87 0V500H119L122 385Q138 440 176 475T268 510Q288 510 302 505T327 490L317 459Q308 468 296 472T260 477Q224 477 193 451T142 382T123 285V0H87Z" />
<glyph unicode="s" glyph-name="s" horiz-adv-x="470" d="M238 -10Q166 -10 113 20T39 110L70 130Q85 77 130 49T241 21Q307 21 345 50T384 127Q384 161 364 184T292 219L184 244Q118 259 90 291T61 370Q61 409 83 440T146 491T238 510Q308 510 353 480T416 389L386
370Q373 427 334 453T238 479Q196 479 165 465T115 428T97 373Q97 341 117 316T189 278L300 252Q360 238 390 210T420 131Q420 66 371 28T238 -10Z" />
<glyph unicode="t" glyph-name="t" horiz-adv-x="333" d="M145 637V130Q145 77 167 50T231 23Q257 23 276 32T312 60L326 30Q310 12 285 1T228 -10Q172 -10 141 23T109 125V627L145 637ZM319 500V469H17V500H319Z" />
<glyph unicode="u" glyph-name="u" horiz-adv-x="556" d="M249 -10Q200 -10 162 10T103 70T81 168V500H117V176Q117 101 153 61T257 21Q300 21 332 37T387 81T420 140T432 206V500H468V0H435L434 115Q422 79 396 51T333 6T249 -10Z" />
<glyph unicode="v" glyph-name="v" horiz-adv-x="469" d="M411 500H450L253 0H216L19 500H60L235 39L411 500Z" />
<glyph unicode="w" glyph-name="w" horiz-adv-x="772" d="M705 500H744L582 0H546L385 452L227 0H190L28 500H68L210 45L368 500H405L563 45L705 500Z" />
<glyph unicode="x" glyph-name="x" horiz-adv-x="466" d="M78 500L241 279L246 273L449 0H403L224 240L219 247L30 500H78ZM430 500L249 251L243 245L66 0H22L221 272L226 275L386 500H430Z" />
<glyph unicode="y" glyph-name="y" horiz-adv-x="468" d="M448 500L218 -96Q202 -138 183 -164T140 -203T82 -215Q55 -215 33 -207T-3 -182L11 -151Q24 -169 43 -176T82 -184Q116 -184 140 -163T186 -87L219 0L168 126L19 500H60L216 96L237 39L259 100L409 500H448Z" />
<glyph unicode="z" glyph-name="z" horiz-adv-x="467" d="M44 0V29L333 416L378 470L308 469H40V500H418V471L142 98L86 30L168 31H431V0H44Z" />
<glyph unicode="{" glyph-name="braceleft" horiz-adv-x="288" d="M259 -176Q194 -176 161 -145T128 -60V171Q128 219 99 244T14 269V299Q70 299 99 324T128 397V628Q128 683 161 713T259 744V714Q212 714 187 692T162 629V395Q162 352 139 324T73 285Q116 274
139 246T162 174V-62Q162 -102 187 -124T259 -146V-176Z" />
<glyph unicode="|" glyph-name="bar" horiz-adv-x="191" d="M111 730V-168H80V730H111Z" />
<glyph unicode="}" glyph-name="braceright" horiz-adv-x="288" d="M29 744Q94 744 127 714T160 628V396Q160 348 189 324T273 299V268Q218 268 189 244T160 171V-60Q160 -114 127 -145T29 -176V-146Q76 -146 101 -124T126 -62V173Q126 216 149 244T215 283Q172
294 149 322T126 394V629Q126 670 101 692T29 714V744Z" />
<glyph unicode="~" glyph-name="asciitilde" horiz-adv-x="498" d="M455 391Q448 336 422 308T349 280Q316 280 291 291T245 317T201 343T152 354Q119 354 102 335T78 276H43Q50 332 76 360T149 388Q182 388 207 377T253 351T297 325T347 314Q379 314 396 334T420
391H455Z" />
<glyph unicode="&#xa0;" glyph-name="uni00A0" horiz-adv-x="300" />
<glyph unicode="&#xa1;" glyph-name="exclamdown" horiz-adv-x="202" d="M83 -160V176L86 318H116L120 176V-160H83ZM101 436Q85 436 76 445T66 471Q66 487 75 496T101 506Q117 506 126 497T136 471Q136 455 127 446T101 436Z" />
<glyph unicode="&#xa2;" glyph-name="cent" horiz-adv-x="522" d="M278 -10Q211 -10 162 21T86 110T59 250Q59 331 86 389T163 479T280 510Q328 510 365 494T429 448T469 374L436 358Q421 417 380 448T280 480Q194 480 144 419T93 250Q93 142 142 81T278 20Q319
20 353 35T410 80T441 148L473 137Q463 92 435 59T367 8T278 -10ZM258 -100V600H288V-100H258Z" />
<glyph unicode="&#xa3;" glyph-name="sterling" horiz-adv-x="563" d="M90 295V325H429V295H90ZM146 -6Q101 -6 75 14T49 66Q49 99 76 120T149 142Q188 142 216 130T266 101T311 66T361 36T426 24Q472 24 496 51T522 131H552Q552 61 518 28T429 -6Q389 -6 359
6T304 36T257 72T207 101T147 113Q118 113 100 101T82 66Q82 45 100 33T149 21Q191 21 215 38T251 85T262 150Q262 189 248 227T205 317Q184 355 172 382T154 433T149 484Q149 541 174 582T243 647T344 670Q418 670 464 631T523 521L491 505Q483 566 445 601T343
637Q269 637 226 597T183 484Q183 460 187 438T203 392T233 331Q262 278 276 235T291 153Q291 111 276 75T228 16T146 -6Z" />
<glyph unicode="&#xa4;" glyph-name="currency" horiz-adv-x="622" d="M311 523Q366 523 408 499T474 432T498 332Q498 275 474 232T408 164T311 139Q255 139 213 163T147 231T123 332Q123 389 147 432T213 499T311 523ZM311 491Q243 491 201 448T159 332Q159
259 201 215T311 171Q380 171 421 215T462 332Q462 404 421 447T311 491ZM89 576L199 466L174 442L64 552L89 576ZM175 219L199 195L89 83L64 107L175 219ZM445 218L557 107L534 83L422 194L445 218ZM534 576L557 552L447 441L424 466L534 576Z" />
<glyph unicode="&#xa5;" glyph-name="yen" horiz-adv-x="560" d="M263 0V125H73V152H263V250H73V279H216L254 277L41 660H83L255 334L279 287H281L305 335L477 660H519L306 277L344 279H488V250H296V152H488V125H296V0H263Z" />
<glyph unicode="&#xa6;" glyph-name="brokenbar" horiz-adv-x="191" d="M111 730V365H80V730H111ZM111 197V-168H80V197H111Z" />
<glyph unicode="&#xa7;" glyph-name="section" horiz-adv-x="524" d="M347 139L327 154Q362 158 391 171T439 206T458 262Q458 305 432 328T345 364L240 386Q162 404 129 435T95 524Q95 565 116 598T177 650T273 670Q336 670 381 648T448 581L421 560Q403 602
365 620T273 639Q204 639 166 607T128 527Q128 477 156 455T248 418L349 397Q396 387 428 371T476 331T492 268Q492 215 452 181T347 139ZM261 -110Q193 -110 147 -87T82 -20L110 3Q125 -39 164 -59T262 -80Q332 -80 370 -48T408 35Q408 82 379 105T298 139L195
161Q144 171 111 187T60 229T43 294Q43 330 61 356T112 398T182 420L198 406Q168 400 140 387T95 352T77 299Q77 254 108 231T206 192L306 172Q348 164 378 148T425 105T442 38Q442 -3 421 -36T359 -90T261 -110Z" />
<glyph unicode="&#xa8;" glyph-name="dieresis" horiz-adv-x="534" d="M174 659Q189 659 198 650T207 626Q207 611 198 602T173 593Q159 593 150 602T141 626Q141 641 150 650T174 659ZM361 659Q376 659 385 650T394 626Q394 611 385 602T361 593Q346 593 337
602T328 626Q328 641 337 650T361 659Z" />
<glyph unicode="&#xa9;" glyph-name="copyright" horiz-adv-x="795" d="M398 -10Q298 -10 223 34T105 156T62 330Q62 427 104 504T222 625T398 670Q498 670 573 626T691 504T733 330Q733 233 691 156T574 35T398 -10ZM398 20Q488 20 556 61T661 172T699 330Q699
418 661 488T555 599T398 640Q308 640 240 599T134 488T96 330Q96 242 133 172T239 61T398 20ZM408 143Q324 143 276 192T227 328Q227 415 275 464T408 513Q465 513 503 488T558 414L530 401Q517 443 486 464T407 485Q338 485 299 444T259 328Q259 255 298 213T407
171Q455 171 489 195T535 263L563 252Q548 202 507 173T408 143Z" />
<glyph unicode="&#xaa;" glyph-name="ordfeminine" horiz-adv-x="374" d="M146 326Q100 326 72 349T44 412Q44 450 68 472T149 505L276 527V504L161 483Q113 475 94 458T75 413Q75 386 95 370T150 353Q175 353 203 362T250 394T270 455V552Q270 593 247 616T180
639Q139 639 112 622T70 569L45 582Q58 620 93 642T180 665Q237 665 269 637T302 554V390Q302 370 311 361T334 351Q350 351 359 357L357 333Q351 330 344 328T328 326Q306 326 290 340T273 389V413L281 415Q273 385 251 365T202 336T146 326ZM44 216V242H345V216H44Z"
/>
<glyph unicode="&#xab;" glyph-name="guillemotleft" horiz-adv-x="415" d="M227 461L88 265L227 69H186L47 265L186 461H227ZM364 461L225 265L364 69H323L184 265L323 461H364Z" />
<glyph unicode="&#xac;" glyph-name="logicalnot" horiz-adv-x="604" d="M533 318V162H497V318H533ZM533 333V300H71V333H533Z" />
<glyph unicode="&#xad;" glyph-name="uni00AD" horiz-adv-x="0" />
<glyph unicode="&#xae;" glyph-name="registered" horiz-adv-x="795" d="M398 -10Q298 -10 223 34T105 156T62 330Q62 427 104 504T222 625T398 670Q498 670 573 626T691 504T733 330Q733 233 691 156T574 35T398 -10ZM522 143L414 309L441 320L557 143H522ZM398
20Q488 20 556 61T661 172T699 330Q699 418 661 488T555 599T398 640Q308 640 240 599T134 488T96 330Q96 242 133 172T239 61T398 20ZM275 143V513H425Q485 513 518 486T551 407Q551 356 518 328T425 300H307V143H275ZM307 325H425Q472 325 496 346T520 407Q520
447 496 467T425 488H307V325Z" />
<glyph unicode="&#xaf;" glyph-name="overscore" horiz-adv-x="534" d="M417 633V602H117V633H417Z" />
<glyph unicode="&#xb0;" glyph-name="degree" horiz-adv-x="398" d="M199 381Q156 381 123 399T72 450T54 526Q54 568 72 601T123 652T199 670Q243 670 275 652T326 601T344 526Q344 483 326 451T276 400T199 381ZM199 411Q250 411 281 443T312 526Q312 576 281
608T199 640Q148 640 118 608T87 526Q87 476 117 444T199 411Z" />
<glyph unicode="&#xb1;" glyph-name="plusminus" horiz-adv-x="604" d="M319 628V121H286V628H319ZM533 393V360H71V393H533ZM533 33V0H71V33H533Z" />
<glyph unicode="&#xb2;" glyph-name="uni00B2" horiz-adv-x="350" d="M45 333V358Q71 380 98 402T150 446Q186 476 211 503T251 558T266 613Q266 655 241 681T170 707Q124 707 97 679T66 601L36 610Q41 666 76 700T171 735Q212 735 240 720T284 677T300 614Q300
583 283 551T237 489T173 430Q153 413 131 396T88 360V359Q95 360 106 360T125 361H313V333H45Z" />
<glyph unicode="&#xb3;" glyph-name="uni00B3" horiz-adv-x="334" d="M159 735Q217 735 248 705T280 629Q280 590 259 566T206 534V532Q241 529 265 504T289 439Q289 387 252 357T158 327Q104 327 71 351T24 419L53 435Q62 398 87 377T159 355Q202 355 229 377T256
441Q256 483 229 502T156 521Q153 521 149 521T139 520V545Q145 544 149 544T156 544Q196 544 221 565T246 626Q246 664 223 685T159 707Q121 707 97 689T66 638L36 650Q47 690 80 712T159 735Z" />
<glyph unicode="&#xb4;" glyph-name="acute" horiz-adv-x="600" d="M322 736H362L270 583H240L322 736Z" />
<glyph unicode="&#xb5;" glyph-name="uni00B5" horiz-adv-x="562" d="M87 -210V500H123V177Q123 101 162 61T264 21Q313 21 352 45T415 112T439 211V500H474V0H443L441 117Q423 61 374 26T260 -10Q214 -10 178 12T123 78V78V-210H87Z" />
<glyph unicode="&#xb6;" glyph-name="paragraph" horiz-adv-x="560" d="M273 -100V234Q201 234 147 261T64 336T34 447Q34 511 64 559T148 633T276 660H476V-100H443V630H307V-100H273ZM273 265V630Q211 630 165 607T93 543T68 447Q68 392 93 351T164 288T273 265Z" />
<glyph unicode="&#xb7;" glyph-name="middot" horiz-adv-x="203" d="M105 323Q89 323 79 333T69 358Q69 374 79 384T105 394Q121 394 130 384T140 358Q140 343 131 333T105 323Z" />
<glyph unicode="&#xb8;" glyph-name="cedilla" horiz-adv-x="569" d="M255 3L283 11Q336 -12 358 -42T380 -109Q380 -152 353 -179T282 -206Q252 -206 229 -197T188 -168L199 -142Q217 -160 236 -168T279 -177Q310 -177 329 -158T349 -104Q349 -74 329 -50T255 3Z" />
<glyph unicode="&#xb9;" glyph-name="uni00B9" horiz-adv-x="219" d="M128 730H156V333H124V624Q124 641 124 658T126 692Q106 668 77 650T17 622V650Q35 655 57 667T98 695T128 730Z" />
<glyph unicode="&#xba;" glyph-name="ordmasculine" horiz-adv-x="359" d="M180 327Q109 327 73 369T37 496Q37 581 73 623T180 665Q250 665 286 623T322 496Q322 411 286 369T180 327ZM45 216V242H315V216H45ZM180 354Q237 354 263 389T290 496Q290 568 264 603T180
639Q123 639 96 604T69 496Q69 424 96 389T180 354Z" />
<glyph unicode="&#xbb;" glyph-name="guillemotright" horiz-adv-x="415" d="M187 69L327 265L187 461H229L367 265L229 69H187ZM51 69L190 265L51 461H92L231 265L92 69H51Z" />
<glyph unicode="&#xbc;" glyph-name="onequarter" horiz-adv-x="698" d="M128 921H156V524H124V815Q124 832 124 849T126 883Q106 859 77 841T17 813V841Q35 846 57 858T98 886T128 921ZM74 0L537 660H574L111 0H74ZM672 135V110H595V-4H566V110H370V131L556 393H595V135H672ZM403
135H566V311Q566 324 566 337T567 364H565Q558 353 550 340T534 316L403 135Z" />
<glyph unicode="&#xbd;" glyph-name="onehalf" horiz-adv-x="780" d="M128 921H156V524H124V815Q124 832 124 849T126 883Q106 859 77 841T17 813V841Q35 846 57 858T98 886T128 921ZM74 0L537 660H574L111 0H74ZM474 -4V21Q500 43 527 65T579 109Q615 139 640
166T680 221T695 276Q695 318 670 344T599 370Q553 370 526 342T495 264L465 273Q470 329 505 363T600 398Q641 398 669 383T713 340T729 277Q729 246 712 214T666 152T602 93Q582 76 560 59T517 23V22Q524 23 535 23T554 24H742V-4H474Z" />
<glyph unicode="&#xbe;" glyph-name="threequarters" horiz-adv-x="813" d="M159 926Q217 926 248 896T280 820Q280 781 259 757T206 725V723Q241 720 265 695T289 630Q289 578 252 548T158 518Q104 518 71 542T24 610L53 626Q62 589 87 568T159 546Q202 546 229
568T256 632Q256 674 229 693T156 712Q153 712 149 712T139 711V736Q145 735 149 735T156 735Q196 735 221 756T246 817Q246 855 223 876T159 898Q121 898 97 880T66 829L36 841Q47 881 80 903T159 926ZM189 0L652 660H689L226 0H189ZM786 135V110H709V-4H680V110H484V131L670
393H709V135H786ZM517 135H680V311Q680 324 680 337T681 364H679Q672 353 664 340T648 316L517 135Z" />
<glyph unicode="&#xbf;" glyph-name="questiondown" horiz-adv-x="470" d="M263 328V185Q195 167 155 145T98 92T81 12Q81 -32 99 -66T153 -121T237 -141Q311 -141 353 -100T405 12L437 -4Q428 -57 403 -95T335 -153T235 -174Q177 -174 134 -151T67 -86T43 8Q43
65 64 103T125 165T226 205V328H263ZM238 503Q254 503 264 493T274 468Q274 452 264 442T238 432Q222 432 212 442T202 468Q202 483 212 493T238 503Z" />
<glyph unicode="&#xc0;" glyph-name="Agrave" horiz-adv-x="585" d="M568 0H530L446 218H138L54 0H16L271 660H314L568 0ZM151 251H433L292 623L151 251ZM240 895L312 743H282L202 895H240Z" />
<glyph unicode="&#xc1;" glyph-name="Aacute" horiz-adv-x="585" d="M568 0H530L446 218H138L54 0H16L271 660H314L568 0ZM151 251H433L292 623L151 251ZM347 895H385L305 743H275L347 895Z" />
<glyph unicode="&#xc2;" glyph-name="Acircumflex" horiz-adv-x="585" d="M568 0H530L446 218H138L54 0H16L271 660H314L568 0ZM151 251H433L292 623L151 251ZM422 743H387L292 865L197 743H162L271 890H313L422 743Z" />
<glyph unicode="&#xc3;" glyph-name="Atilde" horiz-adv-x="585" d="M568 0H530L446 218H138L54 0H16L271 660H314L568 0ZM151 251H433L292 623L151 251ZM457 854Q450 804 428 779T366 754Q339 754 320 764T286 788T256 812T221 823Q194 823 179 805T157 753H127Q134
803 159 828T222 853Q247 853 265 843T299 819T329 795T365 784Q393 784 407 802T427 854H457Z" />
<glyph unicode="&#xc4;" glyph-name="Adieresis" horiz-adv-x="585" d="M568 0H530L446 218H138L54 0H16L271 660H314L568 0ZM151 251H433L292 623L151 251ZM198 819Q213 819 222 810T231 786Q231 771 222 762T197 753Q183 753 174 762T165 786Q165 801 174 810T198
819ZM385 819Q400 819 409 810T418 786Q418 771 409 762T385 753Q370 753 361 762T352 786Q352 801 361 810T385 819Z" />
<glyph unicode="&#xc5;" glyph-name="Aring" horiz-adv-x="585" d="M568 0H530L446 218H138L54 0H16L271 660H314L568 0ZM151 251H433L292 623L151 251ZM291 819Q332 819 359 793T386 727Q386 687 359 661T291 635Q249 635 222 661T195 727Q195 767 222 793T291
819ZM291 794Q262 794 243 775T223 727Q223 699 242 680T291 660Q320 660 339 679T358 727Q358 756 339 775T291 794Z" />
<glyph unicode="&#xc6;" glyph-name="AE" horiz-adv-x="876" d="M461 33H839V0H425V241H180L39 0H-4L390 660H824V627H461V351H747V318H461V33ZM200 274H425V627H408L200 274Z" />
<glyph unicode="&#xc7;" glyph-name="Ccedilla" horiz-adv-x="636" d="M595 166Q569 83 503 37T344 -10Q258 -10 195 31T96 149T60 330Q60 434 95 510T193 628T343 670Q408 670 456 651T538 595T588 502L553 486Q531 562 480 599T345 637Q271 637 215 600T128
494T97 330Q97 236 127 167T214 61T344 23Q425 23 481 63T560 180L595 166ZM295 3L323 11Q376 -12 398 -42T420 -109Q420 -152 393 -179T322 -206Q292 -206 269 -197T228 -168L239 -142Q257 -160 276 -168T319 -177Q350 -177 369 -158T389 -104Q389 -74 369 -50T295
3Z" />
<glyph unicode="&#xc8;" glyph-name="Egrave" horiz-adv-x="576" d="M102 0V660H524V627H138V353H445V320H138V33H539V0H102ZM259 895L331 743H301L221 895H259Z" />
<glyph unicode="&#xc9;" glyph-name="Eacute" horiz-adv-x="576" d="M102 0V660H524V627H138V353H445V320H138V33H539V0H102ZM379 895H417L337 743H307L379 895Z" />
<glyph unicode="&#xca;" glyph-name="Ecircumflex" horiz-adv-x="576" d="M102 0V660H524V627H138V353H445V320H138V33H539V0H102ZM443 743H408L313 865L218 743H183L292 890H334L443 743Z" />
<glyph unicode="&#xcb;" glyph-name="Edieresis" horiz-adv-x="576" d="M102 0V660H524V627H138V353H445V320H138V33H539V0H102ZM219 819Q234 819 243 810T252 786Q252 771 243 762T218 753Q204 753 195 762T186 786Q186 801 195 810T219 819ZM406 819Q421 819
430 810T439 786Q439 771 430 762T406 753Q391 753 382 762T373 786Q373 801 382 810T406 819Z" />
<glyph unicode="&#xcc;" glyph-name="Igrave" horiz-adv-x="240" d="M138 660V0H102V660H138ZM63 895L135 743H105L25 895H63Z" />
<glyph unicode="&#xcd;" glyph-name="Iacute" horiz-adv-x="240" d="M138 660V0H102V660H138ZM178 895H216L136 743H106L178 895Z" />
<glyph unicode="&#xce;" glyph-name="Icircumflex" horiz-adv-x="240" d="M138 660V0H102V660H138ZM250 743H215L120 865L25 743H-10L99 890H141L250 743Z" />
<glyph unicode="&#xcf;" glyph-name="Idieresis" horiz-adv-x="240" d="M52 819Q67 819 76 810T85 786Q85 771 76 762T52 753Q38 753 29 762T20 786Q20 801 29 810T52 819ZM188 819Q202 819 211 810T220 786Q220 771 211 762T187 753Q172 753 163 762T154 786Q154
801 163 810T188 819ZM138 660V0H102V660H138Z" />
<glyph unicode="&#xd0;" glyph-name="Eth" horiz-adv-x="700" d="M11 317V350H352V317H11ZM299 660Q450 660 530 578T611 337Q611 172 531 86T299 0H102V660H299ZM301 33Q433 33 503 111T573 337Q573 431 542 496T450 594T301 627H138V33H301Z" />
<glyph unicode="&#xd1;" glyph-name="Ntilde" horiz-adv-x="682" d="M580 660V0H535L173 554L135 620V620L136 549V0H102V660H147L509 106L547 40V40L546 111V660H580ZM511 854Q504 804 482 779T420 754Q393 754 374 764T340 788T310 812T275 823Q248 823 233
805T211 753H181Q188 803 213 828T276 853Q301 853 319 843T353 819T383 795T419 784Q447 784 461 802T481 854H511Z" />
<glyph unicode="&#xd2;" glyph-name="Ograve" horiz-adv-x="700" d="M350 670Q439 670 504 629T605 511T640 330Q640 225 605 149T505 32T350 -10Q261 -10 196 31T96 149T60 330Q60 435 95 511T196 628T350 670ZM350 637Q272 637 216 600T128 494T97 330Q97 235
128 167T215 61T350 23Q428 23 485 60T572 166T603 330Q603 425 573 493T485 599T350 637ZM296 895L368 743H338L258 895H296Z" />
<glyph unicode="&#xd3;" glyph-name="Oacute" horiz-adv-x="700" d="M350 670Q439 670 504 629T605 511T640 330Q640 225 605 149T505 32T350 -10Q261 -10 196 31T96 149T60 330Q60 435 95 511T196 628T350 670ZM350 637Q272 637 216 600T128 494T97 330Q97 235
128 167T215 61T350 23Q428 23 485 60T572 166T603 330Q603 425 573 493T485 599T350 637ZM405 895H443L363 743H333L405 895Z" />
<glyph unicode="&#xd4;" glyph-name="Ocircumflex" horiz-adv-x="700" d="M350 670Q439 670 504 629T605 511T640 330Q640 225 605 149T505 32T350 -10Q261 -10 196 31T96 149T60 330Q60 435 95 511T196 628T350 670ZM350 637Q272 637 216 600T128 494T97 330Q97
235 128 167T215 61T350 23Q428 23 485 60T572 166T603 330Q603 425 573 493T485 599T350 637ZM480 743H445L350 865L255 743H220L329 890H371L480 743Z" />
<glyph unicode="&#xd5;" glyph-name="Otilde" horiz-adv-x="700" d="M350 670Q439 670 504 629T605 511T640 330Q640 225 605 149T505 32T350 -10Q261 -10 196 31T96 149T60 330Q60 435 95 511T196 628T350 670ZM350 637Q272 637 216 600T128 494T97 330Q97 235
128 167T215 61T350 23Q428 23 485 60T572 166T603 330Q603 425 573 493T485 599T350 637ZM515 854Q508 804 486 779T424 754Q397 754 378 764T344 788T314 812T279 823Q252 823 237 805T215 753H185Q192 803 217 828T280 853Q305 853 323 843T357 819T387 795T423
784Q451 784 465 802T485 854H515Z" />
<glyph unicode="&#xd6;" glyph-name="Odieresis" horiz-adv-x="700" d="M350 670Q439 670 504 629T605 511T640 330Q640 225 605 149T505 32T350 -10Q261 -10 196 31T96 149T60 330Q60 435 95 511T196 628T350 670ZM350 637Q272 637 216 600T128 494T97 330Q97
235 128 167T215 61T350 23Q428 23 485 60T572 166T603 330Q603 425 573 493T485 599T350 637ZM256 819Q271 819 280 810T289 786Q289 771 280 762T255 753Q241 753 232 762T223 786Q223 801 232 810T256 819ZM443 819Q458 819 467 810T476 786Q476 771 467 762T443
753Q428 753 419 762T410 786Q410 801 419 810T443 819Z" />
<glyph unicode="&#xd7;" glyph-name="multiply" horiz-adv-x="604" d="M468 123L493 148L136 505L110 479L468 123ZM136 123L493 479L468 505L110 148L136 123Z" />
<glyph unicode="&#xd8;" glyph-name="Oslash" horiz-adv-x="700" d="M189 60L167 80L535 593L558 576L189 60ZM87 -32L167 80L189 60L122 -32H87ZM558 576L535 593L602 688H638L558 576ZM350 670Q439 670 504 629T605 511T640 330Q640 225 605 149T505 32T350
-10Q261 -10 196 31T96 149T60 330Q60 435 95 511T196 628T350 670ZM350 637Q272 637 216 600T128 494T97 330Q97 235 128 167T215 61T350 23Q428 23 485 60T572 166T603 330Q603 425 573 493T485 599T350 637Z" />
<glyph unicode="&#xd9;" glyph-name="Ugrave" horiz-adv-x="653" d="M567 660V239Q567 117 504 54T327 -10Q214 -10 151 53T87 239V660H123V245Q123 140 174 82T327 23Q428 23 479 81T531 245V660H567ZM319 887L391 735H361L281 887H319Z" />
<glyph unicode="&#xda;" glyph-name="Uacute" horiz-adv-x="653" d="M567 660V239Q567 117 504 54T327 -10Q214 -10 151 53T87 239V660H123V245Q123 140 174 82T327 23Q428 23 479 81T531 245V660H567ZM382 860H420L340 708H310L382 860Z" />
<glyph unicode="&#xdb;" glyph-name="Ucircumflex" horiz-adv-x="653" d="M567 660V239Q567 117 504 54T327 -10Q214 -10 151 53T87 239V660H123V245Q123 140 174 82T327 23Q428 23 479 81T531 245V660H567ZM457 708H422L327 830L232 708H197L306 855H348L457 708Z" />
<glyph unicode="&#xdc;" glyph-name="Udieresis" horiz-adv-x="653" d="M567 660V239Q567 117 504 54T327 -10Q214 -10 151 53T87 239V660H123V245Q123 140 174 82T327 23Q428 23 479 81T531 245V660H567ZM233 784Q248 784 257 775T266 751Q266 736 257 727T232
718Q218 718 209 727T200 751Q200 766 209 775T233 784ZM420 784Q435 784 444 775T453 751Q453 736 444 727T420 718Q405 718 396 727T387 751Q387 766 396 775T420 784Z" />
<glyph unicode="&#xdd;" glyph-name="Yacute" horiz-adv-x="506" d="M492 660L271 257V0H235V257L14 660H56L178 434L253 294L328 434L450 660H492ZM308 861H346L266 709H236L308 861Z" />
<glyph unicode="&#xde;" glyph-name="Thorn" horiz-adv-x="561" d="M293 530Q404 530 460 482T517 339Q517 246 461 197T293 148H120V181H302Q480 181 480 339Q480 418 435 457T302 497H120V530H293ZM138 660V0H102V660H138Z" />
<glyph unicode="&#xdf;" glyph-name="germandbls" horiz-adv-x="568" d="M340 381Q399 379 438 354T496 287T516 191Q516 133 495 88T435 16T337 -10Q295 -10 265 0T215 27L229 56Q250 39 275 31T336 22Q404 22 442 69T481 191Q481 280 432 322T300 364H253V395H298Q367
395 409 439T452 558Q452 627 411 664T299 702Q237 702 199 678T142 607T123 495V0H87V510Q87 581 110 631T180 708T301 735Q361 735 402 713T466 652T489 561Q489 512 470 472T418 409T340 382V381Z" />
<glyph unicode="&#xe0;" glyph-name="agrave" horiz-adv-x="501" d="M381 332Q381 400 345 439T244 479Q188 479 148 453T88 368L58 387Q80 447 128 478T245 510Q298 510 336 490T395 432T417 337V84Q417 23 466 23Q476 23 484 25T499 30L497 1Q491 -2 482 -5T458
-8Q439 -8 421 0T392 29T380 87V122L391 125Q383 80 354 50T286 5T205 -10Q137 -10 95 22T53 116Q53 172 88 205T188 252L388 293V263L207 225Q148 213 119 188T89 119Q89 73 120 47T211 21Q238 21 267 29T323 56T365 103T381 171V332ZM181 736L264 583H233L142
736H181Z" />
<glyph unicode="&#xe1;" glyph-name="aacute" horiz-adv-x="501" d="M381 332Q381 400 345 439T244 479Q188 479 148 453T88 368L58 387Q80 447 128 478T245 510Q298 510 336 490T395 432T417 337V84Q417 23 466 23Q476 23 484 25T499 30L497 1Q491 -2 482 -5T458
-8Q439 -8 421 0T392 29T380 87V122L391 125Q383 80 354 50T286 5T205 -10Q137 -10 95 22T53 116Q53 172 88 205T188 252L388 293V263L207 225Q148 213 119 188T89 119Q89 73 120 47T211 21Q238 21 267 29T323 56T365 103T381 171V332ZM305 736H345L253 583H223L305
736Z" />
<glyph unicode="&#xe2;" glyph-name="acircumflex" horiz-adv-x="501" d="M381 332Q381 400 345 439T244 479Q188 479 148 453T88 368L58 387Q80 447 128 478T245 510Q298 510 336 490T395 432T417 337V84Q417 23 466 23Q476 23 484 25T499 30L497 1Q491 -2 482
-5T458 -8Q439 -8 421 0T392 29T380 87V122L391 125Q383 80 354 50T286 5T205 -10Q137 -10 95 22T53 116Q53 172 88 205T188 252L388 293V263L207 225Q148 213 119 188T89 119Q89 73 120 47T211 21Q238 21 267 29T323 56T365 103T381 171V332ZM373 581H339L243
706L147 581H113L223 731H263L373 581Z" />
<glyph unicode="&#xe3;" glyph-name="atilde" horiz-adv-x="501" d="M381 332Q381 400 345 439T244 479Q188 479 148 453T88 368L58 387Q80 447 128 478T245 510Q298 510 336 490T395 432T417 337V84Q417 23 466 23Q476 23 484 25T499 30L497 1Q491 -2 482 -5T458
-8Q439 -8 421 0T392 29T380 87V122L391 125Q383 80 354 50T286 5T205 -10Q137 -10 95 22T53 116Q53 172 88 205T188 252L388 293V263L207 225Q148 213 119 188T89 119Q89 73 120 47T211 21Q238 21 267 29T323 56T365 103T381 171V332ZM408 694Q401 644 379 619T317
594Q290 594 271 604T237 628T207 652T172 663Q145 663 130 645T108 593H78Q85 643 110 668T173 693Q198 693 216 683T250 659T280 635T316 624Q344 624 358 642T378 694H408Z" />
<glyph unicode="&#xe4;" glyph-name="adieresis" horiz-adv-x="501" d="M381 332Q381 400 345 439T244 479Q188 479 148 453T88 368L58 387Q80 447 128 478T245 510Q298 510 336 490T395 432T417 337V84Q417 23 466 23Q476 23 484 25T499 30L497 1Q491 -2 482
-5T458 -8Q439 -8 421 0T392 29T380 87V122L391 125Q383 80 354 50T286 5T205 -10Q137 -10 95 22T53 116Q53 172 88 205T188 252L388 293V263L207 225Q148 213 119 188T89 119Q89 73 120 47T211 21Q238 21 267 29T323 56T365 103T381 171V332ZM149 659Q164 659
173 650T182 626Q182 611 173 602T148 593Q134 593 125 602T116 626Q116 641 125 650T149 659ZM336 659Q351 659 360 650T369 626Q369 611 360 602T336 593Q321 593 312 602T303 626Q303 641 312 650T336 659Z" />
<glyph unicode="&#xe5;" glyph-name="aring" horiz-adv-x="501" d="M381 332Q381 400 345 439T244 479Q188 479 148 453T88 368L58 387Q80 447 128 478T245 510Q298 510 336 490T395 432T417 337V84Q417 23 466 23Q476 23 484 25T499 30L497 1Q491 -2 482 -5T458
-8Q439 -8 421 0T392 29T380 87V122L391 125Q383 80 354 50T286 5T205 -10Q137 -10 95 22T53 116Q53 172 88 205T188 252L388 293V263L207 225Q148 213 119 188T89 119Q89 73 120 47T211 21Q238 21 267 29T323 56T365 103T381 171V332ZM241 759Q282 759 309 733T336
667Q336 627 309 601T241 575Q199 575 172 601T145 667Q145 707 172 733T241 759ZM241 734Q212 734 193 715T173 667Q173 639 192 620T241 600Q270 600 289 619T308 667Q308 696 289 715T241 734Z" />
<glyph unicode="&#xe6;" glyph-name="ae" horiz-adv-x="851" d="M209 -10Q139 -10 96 22T53 116Q53 171 88 205T189 252L387 290V332Q387 400 350 439T247 479Q191 479 150 453T88 368L58 387Q73 428 100 455T164 496T247 510Q319 510 365 471T417 351L407 354Q420
403 448 437T516 491T601 510Q663 510 707 481T774 399T798 279Q798 273 798 268T797 257H423V243Q423 139 472 80T608 21Q660 21 702 48T767 123L796 107Q770 53 720 22T609 -10Q530 -10 475 34T403 156L412 158Q409 113 390 81T341 29T277 0T209 -10ZM213 21Q254
21 294 37T360 87T387 178V260L210 225Q149 213 119 188T89 119Q89 73 121 47T213 21ZM424 290H764Q763 345 743 387T687 454T601 479Q530 479 482 429T424 290Z" />
<glyph unicode="&#xe7;" glyph-name="ccedilla" horiz-adv-x="511" d="M274 510Q321 510 359 494T423 448T462 374L429 358Q415 416 374 447T273 479Q220 479 178 452T113 373T89 250Q89 179 112 128T177 49T272 21Q313 21 347 36T405 80T434 148L467 137Q456
92 429 59T361 8T272 -10Q208 -10 159 21T82 110T53 250Q53 331 82 389T161 479T274 510ZM228 3L256 11Q309 -12 331 -42T353 -109Q353 -152 326 -179T255 -206Q225 -206 202 -197T161 -168L172 -142Q190 -160 209 -168T252 -177Q283 -177 302 -158T322 -104Q322
-74 302 -50T228 3Z" />
<glyph unicode="&#xe8;" glyph-name="egrave" horiz-adv-x="523" d="M276 -10Q212 -10 162 21T82 110T53 250Q53 332 81 390T159 479T270 510Q333 510 378 480T447 396T472 268Q472 262 472 257T470 246H75V279H455L437 272Q437 335 417 381T360 453T269 479Q217
479 176 451T112 372T88 250Q88 179 112 128T179 49T275 21Q331 21 373 48T437 123L466 107Q449 71 421 45T356 4T276 -10ZM203 736L286 583H255L164 736H203Z" />
<glyph unicode="&#xe9;" glyph-name="eacute" horiz-adv-x="523" d="M276 -10Q212 -10 162 21T82 110T53 250Q53 332 81 390T159 479T270 510Q333 510 378 480T447 396T472 268Q472 262 472 257T470 246H75V279H455L437 272Q437 335 417 381T360 453T269 479Q217
479 176 451T112 372T88 250Q88 179 112 128T179 49T275 21Q331 21 373 48T437 123L466 107Q449 71 421 45T356 4T276 -10ZM327 736H367L275 583H245L327 736Z" />
<glyph unicode="&#xea;" glyph-name="ecircumflex" horiz-adv-x="523" d="M276 -10Q212 -10 162 21T82 110T53 250Q53 332 81 390T159 479T270 510Q333 510 378 480T447 396T472 268Q472 262 472 257T470 246H75V279H455L437 272Q437 335 417 381T360 453T269
479Q217 479 176 451T112 372T88 250Q88 179 112 128T179 49T275 21Q331 21 373 48T437 123L466 107Q449 71 421 45T356 4T276 -10ZM395 581H361L265 706L169 581H135L245 731H285L395 581Z" />
<glyph unicode="&#xeb;" glyph-name="edieresis" horiz-adv-x="523" d="M276 -10Q212 -10 162 21T82 110T53 250Q53 332 81 390T159 479T270 510Q333 510 378 480T447 396T472 268Q472 262 472 257T470 246H75V279H455L437 272Q437 335 417 381T360 453T269 479Q217
479 176 451T112 372T88 250Q88 179 112 128T179 49T275 21Q331 21 373 48T437 123L466 107Q449 71 421 45T356 4T276 -10ZM171 659Q186 659 195 650T204 626Q204 611 195 602T170 593Q156 593 147 602T138 626Q138 641 147 650T171 659ZM358 659Q373 659 382 650T391
626Q391 611 382 602T358 593Q343 593 334 602T325 626Q325 641 334 650T358 659Z" />
<glyph unicode="&#xec;" glyph-name="igrave" horiz-adv-x="211" d="M123 500V0H87V500H123ZM43 736L126 583H95L4 736H43Z" />
<glyph unicode="&#xed;" glyph-name="iacute" horiz-adv-x="211" d="M123 500V0H87V500H123ZM167 736H207L115 583H85L167 736Z" />
<glyph unicode="&#xee;" glyph-name="icircumflex" horiz-adv-x="211" d="M123 500V0H87V500H123ZM235 581H201L105 706L9 581H-25L85 731H125L235 581Z" />
<glyph unicode="&#xef;" glyph-name="idieresis" horiz-adv-x="211" d="M165 593Q150 593 141 602T132 626Q132 641 141 650T165 659Q180 659 189 650T198 626Q198 611 189 602T165 593ZM46 593Q31 593 22 602T13 626Q13 641 22 650T46 659Q61 659 70 650T79 626Q79
611 70 602T46 593ZM123 500V0H87V500H123Z" />
<glyph unicode="&#xf0;" glyph-name="eth" horiz-adv-x="567" d="M279 -10Q210 -10 160 20T82 106T55 237Q55 314 82 369T159 455T273 485Q353 485 404 445T470 335L464 326Q459 432 427 511T341 644T219 730H274Q339 696 389 639T469 495T499 284Q499 189 474
124T399 24T279 -10ZM280 21Q341 21 382 52T443 136T463 253Q463 315 439 360T373 429T277 454Q220 454 179 427T114 352T91 237Q91 138 141 80T280 21ZM213 561L205 589L384 629L400 606L213 561ZM400 606L384 629L505 660L513 632L400 606Z" />
<glyph unicode="&#xf1;" glyph-name="ntilde" horiz-adv-x="563" d="M87 0V500H120L122 369L118 374Q135 438 186 474T305 510Q357 510 397 489T459 427T482 326V0H446V316Q446 397 406 438T300 479Q252 479 212 455T148 389T123 290V0H87ZM454 694Q447 644 425
619T363 594Q336 594 317 604T283 628T253 652T218 663Q191 663 176 645T154 593H124Q131 643 156 668T219 693Q244 693 262 683T296 659T326 635T362 624Q390 624 404 642T424 694H454Z" />
<glyph unicode="&#xf2;" glyph-name="ograve" horiz-adv-x="554" d="M277 510Q343 510 393 479T472 390T501 250Q501 169 473 111T394 21T277 -10Q212 -10 162 21T82 110T53 250Q53 331 82 389T161 479T277 510ZM277 479Q221 479 179 451T113 372T89 250Q89 179
112 128T178 49T277 21Q334 21 376 48T441 127T465 250Q465 322 442 373T376 451T277 479ZM215 733L298 580H267L176 733H215Z" />
<glyph unicode="&#xf3;" glyph-name="oacute" horiz-adv-x="554" d="M277 510Q343 510 393 479T472 390T501 250Q501 169 473 111T394 21T277 -10Q212 -10 162 21T82 110T53 250Q53 331 82 389T161 479T277 510ZM277 479Q221 479 179 451T113 372T89 250Q89 179
112 128T178 49T277 21Q334 21 376 48T441 127T465 250Q465 322 442 373T376 451T277 479ZM339 733H379L287 580H257L339 733Z" />
<glyph unicode="&#xf4;" glyph-name="ocircumflex" horiz-adv-x="554" d="M277 510Q343 510 393 479T472 390T501 250Q501 169 473 111T394 21T277 -10Q212 -10 162 21T82 110T53 250Q53 331 82 389T161 479T277 510ZM277 479Q221 479 179 451T113 372T89 250Q89
179 112 128T178 49T277 21Q334 21 376 48T441 127T465 250Q465 322 442 373T376 451T277 479ZM407 578H373L277 703L181 578H147L257 728H297L407 578Z" />
<glyph unicode="&#xf5;" glyph-name="otilde" horiz-adv-x="554" d="M277 510Q343 510 393 479T472 390T501 250Q501 169 473 111T394 21T277 -10Q212 -10 162 21T82 110T53 250Q53 331 82 389T161 479T277 510ZM277 479Q221 479 179 451T113 372T89 250Q89 179
112 128T178 49T277 21Q334 21 376 48T441 127T465 250Q465 322 442 373T376 451T277 479ZM442 691Q435 641 413 616T351 591Q324 591 305 601T271 625T241 649T206 660Q179 660 164 642T142 590H112Q119 640 144 665T207 690Q232 690 250 680T284 656T314 632T350
621Q378 621 392 639T412 691H442Z" />
<glyph unicode="&#xf6;" glyph-name="odieresis" horiz-adv-x="554" d="M277 510Q343 510 393 479T472 390T501 250Q501 169 473 111T394 21T277 -10Q212 -10 162 21T82 110T53 250Q53 331 82 389T161 479T277 510ZM277 479Q221 479 179 451T113 372T89 250Q89
179 112 128T178 49T277 21Q334 21 376 48T441 127T465 250Q465 322 442 373T376 451T277 479ZM183 656Q198 656 207 647T216 623Q216 608 207 599T182 590Q168 590 159 599T150 623Q150 638 159 647T183 656ZM370 656Q385 656 394 647T403 623Q403 608 394 599T370
590Q355 590 346 599T337 623Q337 638 346 647T370 656Z" />
<glyph unicode="&#xf7;" glyph-name="divide" horiz-adv-x="604" d="M533 333V300H71V333H533ZM306 93Q290 93 280 103T270 128Q270 144 280 154T306 164Q322 164 331 154T341 128Q341 112 332 103T306 93ZM306 470Q290 470 280 479T270 505Q270 521 280 530T306
540Q322 540 331 531T341 505Q341 489 332 480T306 470Z" />
<glyph unicode="&#xf8;" glyph-name="oslash" horiz-adv-x="554" d="M277 510Q343 510 393 479T472 390T501 250Q501 169 473 111T394 21T277 -10Q212 -10 162 21T82 110T53 250Q53 331 82 389T161 479T277 510ZM277 479Q221 479 179 451T113 372T89 250Q89 179
112 128T178 49T277 21Q334 21 376 48T441 127T465 250Q465 322 442 373T376 451T277 479ZM296 -30L735 530H769L330 -30H296Z" />
<glyph unicode="&#xf9;" glyph-name="ugrave" horiz-adv-x="556" d="M249 -10Q200 -10 162 10T103 70T81 168V500H117V176Q117 101 153 61T257 21Q300 21 332 37T387 81T420 140T432 206V500H468V0H435L434 115Q422 79 396 51T333 6T249 -10ZM214 719L297 566H266L175
719H214Z" />
<glyph unicode="&#xfa;" glyph-name="uacute" horiz-adv-x="556" d="M249 -10Q200 -10 162 10T103 70T81 168V500H117V176Q117 101 153 61T257 21Q300 21 332 37T387 81T420 140T432 206V500H468V0H435L434 115Q422 79 396 51T333 6T249 -10ZM338 719H378L286
566H256L338 719Z" />
<glyph unicode="&#xfb;" glyph-name="ucircumflex" horiz-adv-x="556" d="M249 -10Q200 -10 162 10T103 70T81 168V500H117V176Q117 101 153 61T257 21Q300 21 332 37T387 81T420 140T432 206V500H468V0H435L434 115Q422 79 396 51T333 6T249 -10ZM406 564H372L276
689L180 564H146L256 714H296L406 564Z" />
<glyph unicode="&#xfc;" glyph-name="udieresis" horiz-adv-x="556" d="M249 -10Q200 -10 162 10T103 70T81 168V500H117V176Q117 101 153 61T257 21Q300 21 332 37T387 81T420 140T432 206V500H468V0H435L434 115Q422 79 396 51T333 6T249 -10ZM182 642Q197 642
206 633T215 609Q215 594 206 585T181 576Q167 576 158 585T149 609Q149 624 158 633T182 642ZM369 642Q384 642 393 633T402 609Q402 594 393 585T369 576Q354 576 345 585T336 609Q336 624 345 633T369 642Z" />
<glyph unicode="&#xfd;" glyph-name="yacute" horiz-adv-x="468" d="M448 500L218 -96Q202 -138 183 -164T140 -203T82 -215Q55 -215 33 -207T-3 -182L11 -151Q24 -169 43 -176T82 -184Q116 -184 140 -163T186 -87L219 0L168 126L19 500H60L216 96L237 39L259
100L409 500H448ZM298 719H338L246 566H216L298 719Z" />
<glyph unicode="&#xfe;" glyph-name="thorn" horiz-adv-x="574" d="M87 -210V730H123V352L120 362Q138 431 188 470T306 510Q368 510 416 479T492 390T520 250Q520 169 493 111T417 21T305 -10Q239 -10 189 29T120 137L123 143V-210H87ZM301 21Q384 21 434 82T484
250Q484 357 435 418T302 479Q251 479 211 451T147 371T123 250Q123 181 146 130T209 50T301 21Z" />
<glyph unicode="&#xff;" glyph-name="ydieresis" horiz-adv-x="468" d="M448 500L218 -96Q202 -138 183 -164T140 -203T82 -215Q55 -215 33 -207T-3 -182L11 -151Q24 -169 43 -176T82 -184Q116 -184 140 -163T186 -87L219 0L168 126L19 500H60L216 96L237 39L259
100L409 500H448ZM142 642Q157 642 166 633T175 609Q175 594 166 585T141 576Q127 576 118 585T109 609Q109 624 118 633T142 642ZM329 642Q344 642 353 633T362 609Q362 594 353 585T329 576Q314 576 305 585T296 609Q296 624 305 633T329 642Z" />
<glyph unicode="&#x2013;" glyph-name="endash" horiz-adv-x="626" d="M554 284V250H72V284H554Z" />
<glyph unicode="&#x2014;" glyph-name="emdash" horiz-adv-x="963" d="M890 284V250H72V284H890Z" />
<glyph unicode="&#x2018;" glyph-name="quoteleft" horiz-adv-x="199" d="M100 510Q78 510 66 527T54 571Q54 595 62 618T87 661T128 693L150 675Q127 667 111 649T86 610T81 571L84 570Q86 575 91 578T104 581Q116 581 126 572T136 546Q136 531 126 521T100 510Z" />
<glyph unicode="&#x2019;" glyph-name="quoteright" horiz-adv-x="198" d="M104 692Q127 692 138 675T150 631Q150 608 142 585T118 542T75 509L54 527Q77 536 93 554T118 593T122 631L120 632Q117 627 113 625T99 622Q88 622 78 631T68 656Q68 671 78 681T104 692Z" />
<glyph unicode="&#x201a;" glyph-name="quotesinglbase" horiz-adv-x="198" d="M104 64Q127 64 138 47T150 3Q150 -20 142 -43T118 -86T75 -119L54 -101Q77 -92 93 -74T118 -35T122 3L120 4Q117 -1 113 -3T99 -6Q88 -6 78 3T68 28Q68 43 78 53T104 64Z" />
<glyph unicode="&#x201c;" glyph-name="quotedblleft" horiz-adv-x="325" d="M100 510Q78 510 66 527T54 571Q54 595 62 618T87 661T128 693L150 675Q127 667 111 649T86 610T81 571L84 570Q86 575 91 578T104 581Q116 581 126 572T136 546Q136 531 126 521T100
510ZM226 510Q204 510 192 527T180 571Q180 595 188 618T213 661T255 693L276 675Q254 667 237 649T212 610T208 571L210 570Q213 575 217 578T231 581Q242 581 252 572T262 546Q262 531 252 521T226 510Z" />
<glyph unicode="&#x201d;" glyph-name="quotedblright" horiz-adv-x="324" d="M104 692Q127 692 138 675T150 631Q150 608 142 585T118 542T75 509L54 527Q77 536 93 554T118 593T122 631L120 632Q117 627 113 625T99 622Q88 622 78 631T68 656Q68 671 78 681T104
692ZM230 692Q253 692 264 675T276 631Q276 608 268 585T244 542T201 509L180 527Q203 536 219 554T244 593T248 631L246 632Q243 627 239 625T225 622Q214 622 204 631T194 656Q194 671 204 681T230 692Z" />
<glyph unicode="&#x201e;" glyph-name="quotedblbase" horiz-adv-x="324" d="M104 64Q127 64 138 47T150 3Q150 -20 142 -43T118 -86T75 -119L54 -101Q77 -92 93 -74T118 -35T122 3L120 4Q117 -1 113 -3T99 -6Q88 -6 78 3T68 28Q68 43 78 53T104 64ZM230 64Q253
64 264 47T276 3Q276 -20 268 -43T244 -86T201 -119L180 -101Q203 -92 219 -74T244 -35T248 3L246 4Q243 -1 239 -3T225 -6Q214 -6 204 3T194 28Q194 43 204 53T230 64Z" />
<glyph unicode="&#x2022;" glyph-name="bullet" horiz-adv-x="430" d="M215 259Q180 259 158 281T135 338Q135 373 158 395T215 418Q250 418 272 396T295 338Q295 304 273 282T215 259Z" />
<glyph unicode="&#x2039;" glyph-name="guilsinglleft" horiz-adv-x="278" d="M227 461L88 265L227 69H186L47 265L186 461H227Z" />
<glyph unicode="&#x203a;" glyph-name="guilsinglright" horiz-adv-x="278" d="M51 69L190 265L51 461H92L231 265L92 69H51Z" />
</font>
</defs>
</svg>
